<?xml version="1.0" encoding="utf-8" ?>
<svg baseProfile="full" height="256" version="1.1" width="256" xmlns="http://www.w3.org/2000/svg" xmlns:ev="http://www.w3.org/2001/xml-events" xmlns:xlink="http://www.w3.org/1999/xlink"><defs /><polyline fill="none" points="93,174 103,111 104,51 139,54 140,97 149,171 84,173" stroke="rgb(0%,0%,0%)" stroke-width="2" /><polyline fill="none" points="103,73 81,61 58,32 50,27 42,28 20,42 7,60 0,77 1,112 10,127 23,134 121,163 124,162" stroke="rgb(0%,0%,0%)" stroke-width="2" /><polyline fill="none" points="140,66 148,47 158,34 187,23 214,19 250,28 255,57 254,86 250,103 237,125 220,147 209,154 179,161 147,163 145,154" stroke="rgb(0%,0%,0%)" stroke-width="2" /><polyline fill="none" points="113,50 108,44 101,21 101,2 113,0 130,3 140,16 142,29 131,44 116,46 115,39" stroke="rgb(0%,0%,0%)" stroke-width="2" /><polyline fill="none" points="110,9 112,14" stroke="rgb(0%,0%,0%)" stroke-width="2" /><polyline fill="none" points="123,9 123,13" stroke="rgb(0%,0%,0%)" stroke-width="2" /><polyline fill="none" points="120,20 120,26" stroke="rgb(0%,0%,0%)" stroke-width="2" /><polyline fill="none" points="113,32 116,39 123,41 133,34" stroke="rgb(0%,0%,0%)" stroke-width="2" /><polyline fill="none" points="96,171 93,193 87,195 85,199 90,201 94,193" stroke="rgb(0%,0%,0%)" stroke-width="2" /><polyline fill="none" points="138,172 143,195 150,192 150,195 147,199 141,192" stroke="rgb(0%,0%,0%)" stroke-width="2" /></svg>