<?xml version="1.0" encoding="utf-8" ?>
<svg baseProfile="full" height="256" version="1.1" width="256" xmlns="http://www.w3.org/2000/svg" xmlns:ev="http://www.w3.org/2001/xml-events" xmlns:xlink="http://www.w3.org/1999/xlink"><defs /><polyline fill="none" points="19,44 52,50" stroke="rgb(0%,0%,0%)" stroke-width="2" /><polyline fill="none" points="0,56 0,65 5,69" stroke="rgb(0%,0%,0%)" stroke-width="2" /><polyline fill="none" points="51,51 55,74" stroke="rgb(0%,0%,0%)" stroke-width="2" /><polyline fill="none" points="60,48 75,70 79,74 79,68" stroke="rgb(0%,0%,0%)" stroke-width="2" /><polyline fill="none" points="19,47 26,59 31,61" stroke="rgb(0%,0%,0%)" stroke-width="2" /><polyline fill="none" points="85,24 80,26 80,41 89,48 94,46 102,18 101,5" stroke="rgb(0%,0%,0%)" stroke-width="2" /><polyline fill="none" points="192,11 207,13 247,11" stroke="rgb(0%,0%,0%)" stroke-width="2" /><polyline fill="none" points="186,19 186,34 188,37 194,36" stroke="rgb(0%,0%,0%)" stroke-width="2" /><polyline fill="none" points="231,17 231,33" stroke="rgb(0%,0%,0%)" stroke-width="2" /><polyline fill="none" points="236,19 246,31" stroke="rgb(0%,0%,0%)" stroke-width="2" /><polyline fill="none" points="167,22 186,35" stroke="rgb(0%,0%,0%)" stroke-width="2" /><polyline fill="none" points="242,0 231,4 229,12 242,22 255,23" stroke="rgb(0%,0%,0%)" stroke-width="2" /></svg>