<?xml version="1.0" encoding="utf-8" ?>
<svg baseProfile="full" height="256" version="1.1" width="256" xmlns="http://www.w3.org/2000/svg" xmlns:ev="http://www.w3.org/2001/xml-events" xmlns:xlink="http://www.w3.org/1999/xlink"><defs /><polyline fill="none" points="50,198 107,190 188,188 198,185 201,175 200,158 195,149 156,144 147,138 137,68 205,80 234,79 253,75 255,61 248,35 223,17 193,6 159,2 97,0 49,7 10,9 1,14 0,58 2,69 7,72 40,70 84,57 86,71 81,97 59,112 48,128 46,159 54,190" stroke="rgb(0%,0%,0%)" stroke-width="2" /></svg>