<?xml version="1.0" encoding="utf-8" ?>
<svg baseProfile="full" height="256" version="1.1" width="256" xmlns="http://www.w3.org/2000/svg" xmlns:ev="http://www.w3.org/2001/xml-events" xmlns:xlink="http://www.w3.org/1999/xlink"><defs /><polyline fill="none" points="35,233 28,197 7,130 3,86 108,88 163,84 180,95 196,120 229,199 241,244 156,254 92,255 38,244 34,242 33,236" stroke="rgb(0%,0%,0%)" stroke-width="2" /><polyline fill="none" points="0,81 34,1 37,0" stroke="rgb(0%,0%,0%)" stroke-width="2" /><polyline fill="none" points="167,83 125,56 38,11" stroke="rgb(0%,0%,0%)" stroke-width="2" /><polyline fill="none" points="50,52 60,88" stroke="rgb(0%,0%,0%)" stroke-width="2" /><polyline fill="none" points="54,46 97,40 112,87" stroke="rgb(0%,0%,0%)" stroke-width="2" /><polyline fill="none" points="61,247 53,196 53,148 66,140 84,134 142,122 188,106 189,133 182,182 181,209 191,250 189,254" stroke="rgb(0%,0%,0%)" stroke-width="2" /><polyline fill="none" points="109,130 111,237 114,253 111,251" stroke="rgb(0%,0%,0%)" stroke-width="2" /></svg>