<?xml version="1.0" encoding="utf-8" ?>
<svg baseProfile="full" height="256" version="1.1" width="256" xmlns="http://www.w3.org/2000/svg" xmlns:ev="http://www.w3.org/2001/xml-events" xmlns:xlink="http://www.w3.org/1999/xlink"><defs /><polyline fill="none" points="1,145 0,153 5,159 26,163 52,152 77,134 86,101 84,77 79,71 70,66 46,67 27,79 15,95 5,132 4,142 8,143" stroke="rgb(0%,0%,0%)" stroke-width="2" /><polyline fill="none" points="51,66 51,94 43,154" stroke="rgb(0%,0%,0%)" stroke-width="2" /><polyline fill="none" points="10,118 47,108 84,107" stroke="rgb(0%,0%,0%)" stroke-width="2" /><polyline fill="none" points="191,91 185,107 184,133 189,147 200,157 215,157 235,144 245,134 251,120 251,78 245,69 235,66 224,66 207,75 187,119" stroke="rgb(0%,0%,0%)" stroke-width="2" /><polyline fill="none" points="192,111 255,110 255,108" stroke="rgb(0%,0%,0%)" stroke-width="2" /><polyline fill="none" points="226,59 225,170" stroke="rgb(0%,0%,0%)" stroke-width="2" /><polyline fill="none" points="54,61 63,47 76,35 107,28 129,35 207,37 226,42 229,46 229,68" stroke="rgb(0%,0%,0%)" stroke-width="2" /><polyline fill="none" points="188,37 186,0" stroke="rgb(0%,0%,0%)" stroke-width="2" /></svg>