<?xml version="1.0" encoding="utf-8" ?>
<svg baseProfile="full" height="256" version="1.1" width="256" xmlns="http://www.w3.org/2000/svg" xmlns:ev="http://www.w3.org/2001/xml-events" xmlns:xlink="http://www.w3.org/1999/xlink"><defs /><polyline fill="none" points="47,1 39,0 22,20 12,38 0,76 0,93 2,103 7,110 17,113 42,113 50,107 62,87 63,47 56,29 34,12 38,12" stroke="rgb(0%,0%,0%)" stroke-width="2" /><polyline fill="none" points="126,32 111,37 94,58 92,106 96,113 103,117 134,117 143,115 155,97 160,71 152,53 135,37 110,24 107,31 117,37" stroke="rgb(0%,0%,0%)" stroke-width="2" /><polyline fill="none" points="224,34 205,38 189,50 177,65 177,89 182,98 195,114 221,123 230,123 237,119 249,104 255,86 255,61 252,54 224,34 193,25 189,29" stroke="rgb(0%,0%,0%)" stroke-width="2" /></svg>