<?xml version="1.0" encoding="utf-8" ?>
<svg baseProfile="full" height="256" version="1.1" width="256" xmlns="http://www.w3.org/2000/svg" xmlns:ev="http://www.w3.org/2001/xml-events" xmlns:xlink="http://www.w3.org/1999/xlink"><defs /><polyline fill="none" points="13,74 210,89 249,95 255,100 255,110 245,126 226,132 195,132 161,125 92,104 65,101 11,79 3,76 0,69" stroke="rgb(0%,0%,0%)" stroke-width="2" /><polyline fill="none" points="20,84 20,105 30,138 21,168 22,176 28,185 47,201 94,228 111,232 142,237 155,231 193,203 216,171 224,148 225,130 223,126" stroke="rgb(0%,0%,0%)" stroke-width="2" /><polyline fill="none" points="64,78 68,64 75,51 94,33 145,9 191,0 217,2 224,10 226,41 215,74" stroke="rgb(0%,0%,0%)" stroke-width="2" /></svg>