<?xml version="1.0" encoding="utf-8" ?>
<svg baseProfile="full" height="256" version="1.1" width="256" xmlns="http://www.w3.org/2000/svg" xmlns:ev="http://www.w3.org/2001/xml-events" xmlns:xlink="http://www.w3.org/1999/xlink"><defs /><polyline fill="none" points="26,22 32,50 33,84" stroke="rgb(0%,0%,0%)" stroke-width="2" /><polyline fill="none" points="24,24 56,16 114,7 113,75 111,82 105,86" stroke="rgb(0%,0%,0%)" stroke-width="2" /><polyline fill="none" points="8,101 26,96 130,84" stroke="rgb(0%,0%,0%)" stroke-width="2" /><polyline fill="none" points="7,103 6,153 11,156 24,157 59,150 127,147" stroke="rgb(0%,0%,0%)" stroke-width="2" /><polyline fill="none" points="138,86 132,142 134,148" stroke="rgb(0%,0%,0%)" stroke-width="2" /><polyline fill="none" points="133,85 133,78 157,18 173,0 189,24 203,57 207,91 196,106 195,126 203,134 214,138 229,139 237,136 247,128 240,105 226,89 209,87 204,92" stroke="rgb(0%,0%,0%)" stroke-width="2" /><polyline fill="none" points="202,140 209,147 211,146 215,127 221,141 225,140 232,130 238,137 247,124 255,121" stroke="rgb(0%,0%,0%)" stroke-width="2" /><polyline fill="none" points="201,141 201,141" stroke="rgb(0%,0%,0%)" stroke-width="2" /><polyline fill="none" points="200,128 204,137" stroke="rgb(0%,0%,0%)" stroke-width="2" /><polyline fill="none" points="2,163 38,150 155,137 163,139 166,149 166,156 158,166 148,173 121,180 41,191 23,191 7,185 1,176 1,160 14,152" stroke="rgb(0%,0%,0%)" stroke-width="2" /></svg>