<?xml version="1.0" encoding="utf-8" ?>
<svg baseProfile="full" height="256" version="1.1" width="256" xmlns="http://www.w3.org/2000/svg" xmlns:ev="http://www.w3.org/2001/xml-events" xmlns:xlink="http://www.w3.org/1999/xlink"><defs /><polyline fill="none" points="54,250 52,164 10,156 1,141 0,117 6,60 15,46 40,68 44,92 48,99 55,104 63,102 69,98 73,86 74,41 77,30 91,6 99,0 113,13 117,23 112,121 117,130 123,132 135,115 140,114 147,118 150,132 150,140 139,172 101,194 100,232 104,255" stroke="rgb(0%,0%,0%)" stroke-width="2" /></svg>