<?xml version="1.0" encoding="utf-8" ?>
<svg baseProfile="full" height="256" version="1.1" width="256" xmlns="http://www.w3.org/2000/svg" xmlns:ev="http://www.w3.org/2001/xml-events" xmlns:xlink="http://www.w3.org/1999/xlink"><defs /><polyline fill="none" points="166,110 163,102 163,83 187,10 199,1 211,0 241,10 246,16 204,131" stroke="rgb(0%,0%,0%)" stroke-width="2" /><polyline fill="none" points="165,114 139,103 101,97 34,97 24,100 21,113 22,165 11,209 0,235 75,238 120,247 187,254 183,246 182,231 199,187 201,140 208,121 210,106" stroke="rgb(0%,0%,0%)" stroke-width="2" /><polyline fill="none" points="215,2 210,57 202,85 187,116" stroke="rgb(0%,0%,0%)" stroke-width="2" /><polyline fill="none" points="166,98 200,109" stroke="rgb(0%,0%,0%)" stroke-width="2" /><polyline fill="none" points="170,88 213,98" stroke="rgb(0%,0%,0%)" stroke-width="2" /><polyline fill="none" points="168,58 208,71" stroke="rgb(0%,0%,0%)" stroke-width="2" /><polyline fill="none" points="176,45 220,59" stroke="rgb(0%,0%,0%)" stroke-width="2" /><polyline fill="none" points="178,30 230,47" stroke="rgb(0%,0%,0%)" stroke-width="2" /><polyline fill="none" points="190,16 241,33" stroke="rgb(0%,0%,0%)" stroke-width="2" /><polyline fill="none" points="200,6 240,20" stroke="rgb(0%,0%,0%)" stroke-width="2" /><polyline fill="none" points="83,102 88,110 90,171 87,202 81,221" stroke="rgb(0%,0%,0%)" stroke-width="2" /><polyline fill="none" points="138,99 137,231 130,203" stroke="rgb(0%,0%,0%)" stroke-width="2" /><polyline fill="none" points="94,121 126,130" stroke="rgb(0%,0%,0%)" stroke-width="2" /><polyline fill="none" points="94,139 120,141 131,146" stroke="rgb(0%,0%,0%)" stroke-width="2" /><polyline fill="none" points="95,156 113,163 139,167" stroke="rgb(0%,0%,0%)" stroke-width="2" /><polyline fill="none" points="100,179 146,194" stroke="rgb(0%,0%,0%)" stroke-width="2" /><polyline fill="none" points="92,203 124,213" stroke="rgb(0%,0%,0%)" stroke-width="2" /><polyline fill="none" points="93,223 111,230 121,229" stroke="rgb(0%,0%,0%)" stroke-width="2" /><polyline fill="none" points="114,83 113,156 122,255" stroke="rgb(0%,0%,0%)" stroke-width="2" /></svg>