<?xml version="1.0" encoding="utf-8" ?>
<svg baseProfile="full" height="256" version="1.1" width="256" xmlns="http://www.w3.org/2000/svg" xmlns:ev="http://www.w3.org/2001/xml-events" xmlns:xlink="http://www.w3.org/1999/xlink"><defs /><polyline fill="none" points="110,1 89,1 70,8 44,27 22,52 3,90 0,122 5,137 18,155 47,181 70,197 110,218 153,226 180,226 204,220 231,200 248,166 254,138 255,115 254,102 246,83 221,56 156,20 129,10 116,9 93,8 79,12" stroke="rgb(0%,0%,0%)" stroke-width="2" /><polyline fill="none" points="115,58 110,131 140,139 173,156" stroke="rgb(0%,0%,0%)" stroke-width="2" /></svg>