<?xml version="1.0" encoding="utf-8" ?>
<svg baseProfile="full" height="256" version="1.1" width="256" xmlns="http://www.w3.org/2000/svg" xmlns:ev="http://www.w3.org/2001/xml-events" xmlns:xlink="http://www.w3.org/1999/xlink"><defs /><polyline fill="none" points="42,27 13,123 7,149 8,162 63,166 124,159 251,160 254,158 255,141 248,50 238,17 228,7 214,1 183,0 89,20 31,28" stroke="rgb(0%,0%,0%)" stroke-width="2" /><polyline fill="none" points="3,168 5,176 0,221 6,228 11,230 33,232 106,225 214,228 221,222 234,195 240,160" stroke="rgb(0%,0%,0%)" stroke-width="2" /><polyline fill="none" points="58,174 44,208 37,239" stroke="rgb(0%,0%,0%)" stroke-width="2" /><polyline fill="none" points="155,159 131,210" stroke="rgb(0%,0%,0%)" stroke-width="2" /></svg>