<?xml version="1.0" encoding="utf-8" ?>
<svg baseProfile="full" height="256" version="1.1" width="256" xmlns="http://www.w3.org/2000/svg" xmlns:ev="http://www.w3.org/2001/xml-events" xmlns:xlink="http://www.w3.org/1999/xlink"><defs /><polyline fill="none" points="51,53 39,59 11,81 0,95 4,98 25,99 51,94" stroke="rgb(0%,0%,0%)" stroke-width="2" /><polyline fill="none" points="61,70 231,67" stroke="rgb(0%,0%,0%)" stroke-width="2" /><polyline fill="none" points="57,76 26,107 135,103 137,93 146,77 140,103 216,100 221,97 236,65" stroke="rgb(0%,0%,0%)" stroke-width="2" /><polyline fill="none" points="246,53 226,75 208,107 216,106 229,93 245,63" stroke="rgb(0%,0%,0%)" stroke-width="2" /><polyline fill="none" points="61,66 62,6 183,1 201,2 205,64" stroke="rgb(0%,0%,0%)" stroke-width="2" /><polyline fill="none" points="202,0 255,1 247,16 239,61" stroke="rgb(0%,0%,0%)" stroke-width="2" /><polyline fill="none" points="142,3 143,52 135,82" stroke="rgb(0%,0%,0%)" stroke-width="2" /></svg>