<?xml version="1.0" encoding="utf-8" ?>
<svg baseProfile="full" height="256" version="1.1" width="256" xmlns="http://www.w3.org/2000/svg" xmlns:ev="http://www.w3.org/2001/xml-events" xmlns:xlink="http://www.w3.org/1999/xlink"><defs /><polyline fill="none" points="49,100 28,106 10,121 2,133 0,158" stroke="rgb(0%,0%,0%)" stroke-width="2" /><polyline fill="none" points="83,110 62,121 49,134 43,146 43,163 46,169" stroke="rgb(0%,0%,0%)" stroke-width="2" /><polyline fill="none" points="146,117 167,116 197,132 204,145 207,171" stroke="rgb(0%,0%,0%)" stroke-width="2" /><polyline fill="none" points="188,97 210,107 245,136 255,157" stroke="rgb(0%,0%,0%)" stroke-width="2" /><polyline fill="none" points="101,53 74,51 51,64 40,74 39,79 42,85 75,112 85,116 131,116 155,105 174,84 179,61 168,51 140,45 107,45" stroke="rgb(0%,0%,0%)" stroke-width="2" /><polyline fill="none" points="96,74 92,38 92,0" stroke="rgb(0%,0%,0%)" stroke-width="2" /></svg>