<?xml version="1.0" encoding="utf-8" ?>
<svg baseProfile="full" height="256" version="1.1" width="256" xmlns="http://www.w3.org/2000/svg" xmlns:ev="http://www.w3.org/2001/xml-events" xmlns:xlink="http://www.w3.org/1999/xlink"><defs /><polyline fill="none" points="26,78 20,87 6,142 0,195 0,233 8,246 20,255 58,255 73,246 80,234 85,194 85,84 77,50 52,0" stroke="rgb(0%,0%,0%)" stroke-width="2" /><polyline fill="none" points="26,93 38,36 48,23" stroke="rgb(0%,0%,0%)" stroke-width="2" /><polyline fill="none" points="36,79 82,79" stroke="rgb(0%,0%,0%)" stroke-width="2" /><polyline fill="none" points="13,215 88,215 89,233 88,220 82,221 72,239 69,226 64,219 58,219 50,235 43,233 37,246 32,236 25,232 23,239 11,227 19,227" stroke="rgb(0%,0%,0%)" stroke-width="2" /><polyline fill="none" points="72,63 72,63" stroke="rgb(0%,0%,0%)" stroke-width="2" /></svg>