<?xml version="1.0" encoding="utf-8" ?>
<svg baseProfile="full" height="256" version="1.1" width="256" xmlns="http://www.w3.org/2000/svg" xmlns:ev="http://www.w3.org/2001/xml-events" xmlns:xlink="http://www.w3.org/1999/xlink"><defs /><polyline fill="none" points="0,255 11,195 14,159 14,122 7,45 8,18 14,1 155,0 187,4 205,11 210,16 212,32 208,60 207,110 216,223 210,228 158,229 7,250" stroke="rgb(0%,0%,0%)" stroke-width="2" /><polyline fill="none" points="37,23 32,36 32,63 39,85 48,90 69,88 125,71 186,59 188,55 165,30 137,21 82,18 62,28" stroke="rgb(0%,0%,0%)" stroke-width="2" /><polyline fill="none" points="41,107 45,142 49,153 54,157 91,152 170,153 173,151 186,107 188,91 176,89 151,90 100,99 59,102 54,105" stroke="rgb(0%,0%,0%)" stroke-width="2" /><polyline fill="none" points="56,183 55,218 60,224 192,209 200,203 187,182 184,160 181,157 52,182" stroke="rgb(0%,0%,0%)" stroke-width="2" /><polyline fill="none" points="109,191 128,194 146,182" stroke="rgb(0%,0%,0%)" stroke-width="2" /><polyline fill="none" points="107,131 115,130 133,119" stroke="rgb(0%,0%,0%)" stroke-width="2" /><polyline fill="none" points="93,50 103,52" stroke="rgb(0%,0%,0%)" stroke-width="2" /><polyline fill="none" points="108,50 115,49 116,47 113,46 92,44 90,46 110,48 114,45 103,46 101,48 107,49" stroke="rgb(0%,0%,0%)" stroke-width="2" /><polyline fill="none" points="122,129 117,132 125,128 126,120 110,120 110,127 125,126 119,123 109,123 105,128 123,128 131,125" stroke="rgb(0%,0%,0%)" stroke-width="2" /><polyline fill="none" points="131,193 118,192 123,194 133,192 139,187 130,185 128,187 130,189" stroke="rgb(0%,0%,0%)" stroke-width="2" /></svg>