<?xml version="1.0" encoding="utf-8" ?>
<svg baseProfile="full" height="256" version="1.1" width="256" xmlns="http://www.w3.org/2000/svg" xmlns:ev="http://www.w3.org/2001/xml-events" xmlns:xlink="http://www.w3.org/1999/xlink"><defs /><polyline fill="none" points="0,25 1,103 10,163" stroke="rgb(0%,0%,0%)" stroke-width="2" /><polyline fill="none" points="4,27 15,22 134,6 234,4 250,0 252,3 255,42 254,147 184,168 160,171 112,171 58,162 34,162" stroke="rgb(0%,0%,0%)" stroke-width="2" /><polyline fill="none" points="31,162 24,163" stroke="rgb(0%,0%,0%)" stroke-width="2" /><polyline fill="none" points="14,163 31,163" stroke="rgb(0%,0%,0%)" stroke-width="2" /><polyline fill="none" points="5,29 57,95 97,132 114,146 130,153 145,168 167,142 226,42 255,7" stroke="rgb(0%,0%,0%)" stroke-width="2" /></svg>