<?xml version="1.0" encoding="utf-8" ?>
<svg baseProfile="full" height="256" version="1.1" width="256" xmlns="http://www.w3.org/2000/svg" xmlns:ev="http://www.w3.org/2001/xml-events" xmlns:xlink="http://www.w3.org/1999/xlink"><defs /><polyline fill="none" points="0,46 31,38 70,9 97,0 121,0 195,29 230,32" stroke="rgb(0%,0%,0%)" stroke-width="2" /><polyline fill="none" points="3,46 24,45 98,72 118,83 157,88 181,77 197,54 212,42 255,30" stroke="rgb(0%,0%,0%)" stroke-width="2" /><polyline fill="none" points="120,1 109,2 99,11 92,25 91,41 105,66 116,75 129,79 142,77 150,66 155,54 156,28 146,15 109,1" stroke="rgb(0%,0%,0%)" stroke-width="2" /><polyline fill="none" points="109,8 104,13 103,32 113,51 122,57 138,57 146,52 150,44" stroke="rgb(0%,0%,0%)" stroke-width="2" /></svg>