<?xml version="1.0" encoding="utf-8" ?>
<svg baseProfile="full" height="256" version="1.1" width="256" xmlns="http://www.w3.org/2000/svg" xmlns:ev="http://www.w3.org/2001/xml-events" xmlns:xlink="http://www.w3.org/1999/xlink"><defs /><polyline fill="none" points="71,255 70,235 76,209 81,211 83,207 54,181 11,106 1,84 0,63 9,19 38,4 53,0 84,4 95,8 99,12 126,102 123,114 107,142 99,163 92,207" stroke="rgb(0%,0%,0%)" stroke-width="2" /><polyline fill="none" points="3,48 14,44" stroke="rgb(0%,0%,0%)" stroke-width="2" /><polyline fill="none" points="10,58 26,60" stroke="rgb(0%,0%,0%)" stroke-width="2" /><polyline fill="none" points="5,82 28,79" stroke="rgb(0%,0%,0%)" stroke-width="2" /><polyline fill="none" points="16,132 44,122" stroke="rgb(0%,0%,0%)" stroke-width="2" /><polyline fill="none" points="4,115 43,86" stroke="rgb(0%,0%,0%)" stroke-width="2" /></svg>