<?xml version="1.0" encoding="utf-8" ?>
<svg baseProfile="full" height="256" version="1.1" width="256" xmlns="http://www.w3.org/2000/svg" xmlns:ev="http://www.w3.org/2001/xml-events" xmlns:xlink="http://www.w3.org/1999/xlink"><defs /><polyline fill="none" points="26,32 35,13 55,0 68,2 98,17 117,23 170,8 190,6 204,8 218,16 244,46 255,71 255,98 252,123 243,142 224,166 208,180 187,191 159,196 134,192 115,185 93,170 75,152 54,116 33,43" stroke="rgb(0%,0%,0%)" stroke-width="2" /><polyline fill="none" points="77,22 64,32 62,51 67,60 80,65 84,63 89,56 88,49 83,44" stroke="rgb(0%,0%,0%)" stroke-width="2" /><polyline fill="none" points="204,37 194,37 183,46 180,57 182,66 187,71 196,74 217,67 222,60 223,51 218,47 207,46 194,50 161,71" stroke="rgb(0%,0%,0%)" stroke-width="2" /><polyline fill="none" points="208,55 208,55" stroke="rgb(0%,0%,0%)" stroke-width="2" /><polyline fill="none" points="61,35 61,35" stroke="rgb(0%,0%,0%)" stroke-width="2" /><polyline fill="none" points="102,147 120,162 144,165 165,158 215,128" stroke="rgb(0%,0%,0%)" stroke-width="2" /><polyline fill="none" points="61,9 61,9" stroke="rgb(0%,0%,0%)" stroke-width="2" /><polyline fill="none" points="47,95 36,99 25,113 9,154 0,218 3,232 10,239 27,245 46,243 55,234 62,213 61,220 68,220 74,225 82,223 89,231 95,227 128,155" stroke="rgb(0%,0%,0%)" stroke-width="2" /></svg>