<?xml version="1.0" encoding="utf-8" ?>
<svg baseProfile="full" height="256" version="1.1" width="256" xmlns="http://www.w3.org/2000/svg" xmlns:ev="http://www.w3.org/2001/xml-events" xmlns:xlink="http://www.w3.org/1999/xlink"><defs /><polyline fill="none" points="131,89 136,97 144,102 175,100 192,92 188,71 174,43 162,36 151,35 136,43 113,73 112,91 124,148 134,156 148,158 176,153 189,146 229,113 253,96 254,86 243,54 229,32 213,19 163,1 124,1 106,6 69,36 53,41 31,36 10,6 7,4 0,8 1,37 11,80 18,76 21,65 31,54 74,48 119,32 168,22 182,26 205,54 213,83 209,101 194,121 172,141 158,145 141,142 129,121 123,97 128,86 135,82 154,88 157,93 145,95 132,88" stroke="rgb(0%,0%,0%)" stroke-width="2" /></svg>