<?xml version="1.0" encoding="utf-8" ?>
<svg baseProfile="full" height="256" version="1.1" width="256" xmlns="http://www.w3.org/2000/svg" xmlns:ev="http://www.w3.org/2001/xml-events" xmlns:xlink="http://www.w3.org/1999/xlink"><defs /><polyline fill="none" points="42,24 42,24" stroke="rgb(0%,0%,0%)" stroke-width="2" /><polyline fill="none" points="49,101 46,73 36,72 33,61 40,54 47,60 57,56 55,62 46,69" stroke="rgb(0%,0%,0%)" stroke-width="2" /><polyline fill="none" points="90,79 93,107" stroke="rgb(0%,0%,0%)" stroke-width="2" /><polyline fill="none" points="87,77 78,70 75,74 72,46 82,50 88,47 92,67 94,70 95,68 86,76" stroke="rgb(0%,0%,0%)" stroke-width="2" /><polyline fill="none" points="254,64 251,66" stroke="rgb(0%,0%,0%)" stroke-width="2" /><polyline fill="none" points="255,58 244,63 213,66 188,58 179,58 166,65 156,78 150,80 139,79 125,66 115,77 105,82 50,86 26,78 0,81" stroke="rgb(0%,0%,0%)" stroke-width="2" /><polyline fill="none" points="188,87 173,41" stroke="rgb(0%,0%,0%)" stroke-width="2" /><polyline fill="none" points="172,42 171,39 161,46 155,46 150,39 146,23 149,22 154,2 164,1 174,15 178,9 182,9 182,36 168,45" stroke="rgb(0%,0%,0%)" stroke-width="2" /></svg>