<?xml version="1.0" encoding="utf-8" ?>
<svg baseProfile="full" height="256" version="1.1" width="256" xmlns="http://www.w3.org/2000/svg" xmlns:ev="http://www.w3.org/2001/xml-events" xmlns:xlink="http://www.w3.org/1999/xlink"><defs /><polyline fill="none" points="25,32 9,46 0,59 1,65 13,67 35,47" stroke="rgb(0%,0%,0%)" stroke-width="2" /><polyline fill="none" points="64,14 47,15 36,21 25,37 25,42 41,56 53,59 66,41 69,24" stroke="rgb(0%,0%,0%)" stroke-width="2" /><polyline fill="none" points="20,8 39,23" stroke="rgb(0%,0%,0%)" stroke-width="2" /><polyline fill="none" points="51,0 52,11" stroke="rgb(0%,0%,0%)" stroke-width="2" /><polyline fill="none" points="56,55 46,91 46,127 55,183" stroke="rgb(0%,0%,0%)" stroke-width="2" /><polyline fill="none" points="74,58 70,95 73,172" stroke="rgb(0%,0%,0%)" stroke-width="2" /><polyline fill="none" points="53,187 79,178 100,174 126,173 149,178 150,190 138,203 131,207 96,215 47,203 39,190 40,182" stroke="rgb(0%,0%,0%)" stroke-width="2" /><polyline fill="none" points="54,204 36,228 22,253" stroke="rgb(0%,0%,0%)" stroke-width="2" /><polyline fill="none" points="73,220 49,255" stroke="rgb(0%,0%,0%)" stroke-width="2" /><polyline fill="none" points="118,205 119,223 132,252" stroke="rgb(0%,0%,0%)" stroke-width="2" /><polyline fill="none" points="142,195 143,206 159,238" stroke="rgb(0%,0%,0%)" stroke-width="2" /><polyline fill="none" points="143,181 161,168 165,169 169,200 166,214" stroke="rgb(0%,0%,0%)" stroke-width="2" /></svg>