<?xml version="1.0" encoding="utf-8" ?>
<svg baseProfile="full" height="256" version="1.1" width="256" xmlns="http://www.w3.org/2000/svg" xmlns:ev="http://www.w3.org/2001/xml-events" xmlns:xlink="http://www.w3.org/1999/xlink"><defs /><polyline fill="none" points="24,183 37,233 45,244 59,253 96,255 105,252 114,233 119,197 119,188 90,188 48,182 24,184" stroke="rgb(0%,0%,0%)" stroke-width="2" /><polyline fill="none" points="77,180 89,155 91,143 120,94" stroke="rgb(0%,0%,0%)" stroke-width="2" /><polyline fill="none" points="63,182 68,167 68,117 64,100" stroke="rgb(0%,0%,0%)" stroke-width="2" /><polyline fill="none" points="59,185 53,169 25,127 14,103" stroke="rgb(0%,0%,0%)" stroke-width="2" /><polyline fill="none" points="13,105 23,109 35,109 45,114 90,118 139,116 157,108 171,83 171,59 152,38 147,26 122,10 104,7 96,0 72,2 45,12 22,27 3,57 0,91 13,107 26,110" stroke="rgb(0%,0%,0%)" stroke-width="2" /></svg>