<?xml version="1.0" encoding="utf-8" ?>
<svg baseProfile="full" height="256" version="1.1" width="256" xmlns="http://www.w3.org/2000/svg" xmlns:ev="http://www.w3.org/2001/xml-events" xmlns:xlink="http://www.w3.org/1999/xlink"><defs /><polyline fill="none" points="31,8 23,56 18,139" stroke="rgb(0%,0%,0%)" stroke-width="2" /><polyline fill="none" points="36,0 64,0 193,19 242,21 246,30 254,94 255,153 250,164 243,168 188,169 133,165 0,146" stroke="rgb(0%,0%,0%)" stroke-width="2" /><polyline fill="none" points="50,12 50,107 46,142" stroke="rgb(0%,0%,0%)" stroke-width="2" /><polyline fill="none" points="55,17 55,59 49,145" stroke="rgb(0%,0%,0%)" stroke-width="2" /><polyline fill="none" points="94,10 88,44 81,146" stroke="rgb(0%,0%,0%)" stroke-width="2" /><polyline fill="none" points="104,16 95,45 92,137" stroke="rgb(0%,0%,0%)" stroke-width="2" /><polyline fill="none" points="144,14 135,60 128,162" stroke="rgb(0%,0%,0%)" stroke-width="2" /></svg>