<?xml version="1.0" encoding="utf-8" ?>
<svg baseProfile="full" height="256" version="1.1" width="256" xmlns="http://www.w3.org/2000/svg" xmlns:ev="http://www.w3.org/2001/xml-events" xmlns:xlink="http://www.w3.org/1999/xlink"><defs /><polyline fill="none" points="34,0 30,80 12,167 0,249 3,253 17,254 51,255 52,252 61,160 63,111 82,98 90,86 94,67 94,36 87,25 77,17 59,9 32,5" stroke="rgb(0%,0%,0%)" stroke-width="2" /><polyline fill="none" points="73,9 83,11 91,18 92,28 100,36 100,50 104,56 91,80 94,82 92,89 95,91 79,102 67,103" stroke="rgb(0%,0%,0%)" stroke-width="2" /><polyline fill="none" points="71,5 64,6 62,3 54,7 46,0 38,4" stroke="rgb(0%,0%,0%)" stroke-width="2" /><polyline fill="none" points="71,10 92,14 91,18 100,31 104,46 100,53 97,75 100,82 93,88 88,103 84,104 79,112 78,109 74,112 73,108 65,111" stroke="rgb(0%,0%,0%)" stroke-width="2" /><polyline fill="none" points="36,12 79,24 72,25 76,30 73,31 82,36 77,38 79,45 76,46 80,49 76,52 81,59 76,60 79,63 72,64 77,69 74,74" stroke="rgb(0%,0%,0%)" stroke-width="2" /></svg>