<?xml version="1.0" encoding="utf-8" ?>
<svg baseProfile="full" height="256" version="1.1" width="256" xmlns="http://www.w3.org/2000/svg" xmlns:ev="http://www.w3.org/2001/xml-events" xmlns:xlink="http://www.w3.org/1999/xlink"><defs /><polyline fill="none" points="5,160 0,62 0,33 3,26 14,21 91,5 169,0 215,0 220,3 234,33 238,88 238,136 187,144 66,152 3,163 10,240 71,242 223,223 251,214 255,206 247,175 240,125" stroke="rgb(0%,0%,0%)" stroke-width="2" /><polyline fill="none" points="35,49 33,76 38,107 33,47 39,34 44,30 65,28 115,17 203,10 212,21 216,39 222,103 219,115 203,121 32,135 28,129 28,118 33,104" stroke="rgb(0%,0%,0%)" stroke-width="2" /><polyline fill="none" points="25,170 27,174 31,164 38,164 41,170 34,175" stroke="rgb(0%,0%,0%)" stroke-width="2" /><polyline fill="none" points="63,167 63,171 66,163 80,162 79,169 67,173" stroke="rgb(0%,0%,0%)" stroke-width="2" /><polyline fill="none" points="94,165 95,160 112,159 118,163 104,170 94,170" stroke="rgb(0%,0%,0%)" stroke-width="2" /><polyline fill="none" points="130,158 133,165 133,152 153,154 144,166 133,165" stroke="rgb(0%,0%,0%)" stroke-width="2" /><polyline fill="none" points="160,156 163,162 167,154 179,154 185,158 175,169 167,170" stroke="rgb(0%,0%,0%)" stroke-width="2" /><polyline fill="none" points="193,158 193,163 194,152 198,149 208,151 209,157 190,163" stroke="rgb(0%,0%,0%)" stroke-width="2" /><polyline fill="none" points="213,175 224,205 219,188 219,167 223,163 228,164 237,181 238,202 218,204" stroke="rgb(0%,0%,0%)" stroke-width="2" /><polyline fill="none" points="191,197 193,209 193,192 206,191 211,198 205,206 194,207" stroke="rgb(0%,0%,0%)" stroke-width="2" /><polyline fill="none" points="157,201 157,206 159,197 163,193 174,194 180,200 177,208 150,207" stroke="rgb(0%,0%,0%)" stroke-width="2" /><polyline fill="none" points="120,199 118,210 120,190 142,196 143,203 138,223 117,217" stroke="rgb(0%,0%,0%)" stroke-width="2" /><polyline fill="none" points="79,196 80,214 83,194" stroke="rgb(0%,0%,0%)" stroke-width="2" /></svg>