<?xml version="1.0" encoding="utf-8" ?>
<svg baseProfile="full" height="256" version="1.1" width="256" xmlns="http://www.w3.org/2000/svg" xmlns:ev="http://www.w3.org/2001/xml-events" xmlns:xlink="http://www.w3.org/1999/xlink"><defs /><polyline fill="none" points="135,60 135,60" stroke="rgb(0%,0%,0%)" stroke-width="2" /><polyline fill="none" points="125,57 110,63 90,77 68,104 64,115 63,125 67,138 91,175 117,191 142,191 159,184 169,176 185,160 190,149 196,127 196,101 188,72 176,58 161,49 143,50 127,59" stroke="rgb(0%,0%,0%)" stroke-width="2" /><polyline fill="none" points="97,93 99,108 109,116 116,117 121,111 123,97 112,81" stroke="rgb(0%,0%,0%)" stroke-width="2" /><polyline fill="none" points="159,67 149,74 145,82 147,96 152,104 162,114 173,105 176,82 169,75 165,76" stroke="rgb(0%,0%,0%)" stroke-width="2" /><polyline fill="none" points="51,110 43,92 40,76 49,49 55,42 69,37 88,39 102,46 118,65 123,57 129,30 139,14 152,3 165,0 182,6 195,19 197,44 209,39 219,40 226,42 235,54 245,88 238,99 225,110 224,115 252,139 255,145 243,158 217,174 213,198 208,204 194,215 165,218 150,212 144,212 119,233 101,234 69,224 65,217 72,205 28,190 25,169 33,148 0,136 1,130 23,100 30,97 50,102" stroke="rgb(0%,0%,0%)" stroke-width="2" /><polyline fill="none" points="108,156 115,147 129,142 150,146 161,155 147,164 126,164 119,158 118,144" stroke="rgb(0%,0%,0%)" stroke-width="2" /></svg>