<?xml version="1.0" encoding="utf-8" ?>
<svg baseProfile="full" height="256" version="1.1" width="256" xmlns="http://www.w3.org/2000/svg" xmlns:ev="http://www.w3.org/2001/xml-events" xmlns:xlink="http://www.w3.org/1999/xlink"><defs /><polyline fill="none" points="97,78 79,80 44,99 30,125 23,147 21,187 25,204 34,222 53,239 78,250 109,255 138,253 170,236 208,206 216,196 227,171 228,140 219,125 203,111 149,80 115,69 91,68" stroke="rgb(0%,0%,0%)" stroke-width="2" /><polyline fill="none" points="32,137 19,127 10,110 0,75 0,54 12,41 21,38 29,45 53,95" stroke="rgb(0%,0%,0%)" stroke-width="2" /><polyline fill="none" points="86,68 83,59 83,21 95,3 108,0 134,40 144,95" stroke="rgb(0%,0%,0%)" stroke-width="2" /><polyline fill="none" points="48,163 48,163" stroke="rgb(0%,0%,0%)" stroke-width="2" /><polyline fill="none" points="101,121 101,121" stroke="rgb(0%,0%,0%)" stroke-width="2" /><polyline fill="none" points="54,148 56,167 58,145 64,147" stroke="rgb(0%,0%,0%)" stroke-width="2" /><polyline fill="none" points="113,113 113,113" stroke="rgb(0%,0%,0%)" stroke-width="2" /></svg>