<?xml version="1.0" encoding="utf-8" ?>
<svg baseProfile="full" height="256" version="1.1" width="256" xmlns="http://www.w3.org/2000/svg" xmlns:ev="http://www.w3.org/2001/xml-events" xmlns:xlink="http://www.w3.org/1999/xlink"><defs /><polyline fill="none" points="67,105 69,71 74,45 94,5 105,0 116,7 119,14 115,91 120,97 138,105 197,97 223,97 239,102 251,109 255,114 255,125 251,137 244,144 234,147 222,148 205,137 174,125 149,122 133,129 132,140 136,155 161,185 161,218 139,224 125,223 110,209 107,170 97,156 87,163 60,195 46,204 28,209 12,209 2,206 0,196 6,182 28,167 35,159 40,104 60,92 69,100 72,110" stroke="rgb(0%,0%,0%)" stroke-width="2" /></svg>