<?xml version="1.0" encoding="utf-8" ?>
<svg baseProfile="full" height="256" version="1.1" width="256" xmlns="http://www.w3.org/2000/svg" xmlns:ev="http://www.w3.org/2001/xml-events" xmlns:xlink="http://www.w3.org/1999/xlink"><defs /><polyline fill="none" points="47,68 50,80 71,90 112,95 148,95 159,91 160,63 147,43 138,38 116,35 47,37 43,40 41,48 41,79 50,87" stroke="rgb(0%,0%,0%)" stroke-width="2" /><polyline fill="none" points="67,16 46,15 21,22 13,26 3,48 2,82 7,94 16,107 43,127 39,174 28,245 52,250 133,251 172,241 187,241 193,235 192,164 197,137 197,55 184,29 167,11 136,0 101,1 37,18 33,23" stroke="rgb(0%,0%,0%)" stroke-width="2" /><polyline fill="none" points="26,122 149,117 201,109 248,93 250,90" stroke="rgb(0%,0%,0%)" stroke-width="2" /><polyline fill="none" points="1,85 5,185 0,241 11,252 30,255 62,253 171,238 217,235 219,167" stroke="rgb(0%,0%,0%)" stroke-width="2" /></svg>