<?xml version="1.0" encoding="utf-8" ?>
<svg baseProfile="full" height="256" version="1.1" width="256" xmlns="http://www.w3.org/2000/svg" xmlns:ev="http://www.w3.org/2001/xml-events" xmlns:xlink="http://www.w3.org/1999/xlink"><defs /><polyline fill="none" points="66,255 66,128" stroke="rgb(0%,0%,0%)" stroke-width="2" /><polyline fill="none" points="80,240 80,106" stroke="rgb(0%,0%,0%)" stroke-width="2" /><polyline fill="none" points="64,108 58,111 15,189 13,162 26,108 0,109 13,101 41,94 35,91 5,88 3,61 20,60 33,62 39,37 48,49 56,48 82,0 83,48 101,35 114,31 118,54 132,67 150,75 141,79 115,78 124,87 155,134 164,150 165,159 157,158 121,117 101,108 133,168 127,169 81,118 68,112" stroke="rgb(0%,0%,0%)" stroke-width="2" /></svg>