<?xml version="1.0" encoding="utf-8" ?>
<svg baseProfile="full" height="256" version="1.1" width="256" xmlns="http://www.w3.org/2000/svg" xmlns:ev="http://www.w3.org/2001/xml-events" xmlns:xlink="http://www.w3.org/1999/xlink"><defs /><polyline fill="none" points="95,175 90,176 89,187 90,191 100,194 109,191 113,180 111,175 105,173" stroke="rgb(0%,0%,0%)" stroke-width="2" /><polyline fill="none" points="100,185 95,231 90,229 90,224" stroke="rgb(0%,0%,0%)" stroke-width="2" /><polyline fill="none" points="96,203 78,195" stroke="rgb(0%,0%,0%)" stroke-width="2" /><polyline fill="none" points="92,201 102,204 128,196" stroke="rgb(0%,0%,0%)" stroke-width="2" /><polyline fill="none" points="90,229 65,250 64,255" stroke="rgb(0%,0%,0%)" stroke-width="2" /><polyline fill="none" points="90,222 119,252" stroke="rgb(0%,0%,0%)" stroke-width="2" /><polyline fill="none" points="78,191 67,162 54,111 41,80" stroke="rgb(0%,0%,0%)" stroke-width="2" /><polyline fill="none" points="129,193 128,187 147,131 177,80 181,60" stroke="rgb(0%,0%,0%)" stroke-width="2" /><polyline fill="none" points="33,72 41,72 68,61 107,54 152,56 189,65 200,71 201,54 193,38 162,8 135,0 109,0 90,5 49,20 23,37 8,56 0,75 6,83 51,67" stroke="rgb(0%,0%,0%)" stroke-width="2" /></svg>