<?xml version="1.0" encoding="utf-8" ?>
<svg baseProfile="full" height="256" version="1.1" width="256" xmlns="http://www.w3.org/2000/svg" xmlns:ev="http://www.w3.org/2001/xml-events" xmlns:xlink="http://www.w3.org/1999/xlink"><defs /><polyline fill="none" points="143,52 139,31 127,10 101,0 77,0 49,8 29,48 5,57 0,66 67,75 77,82 78,90 63,124 62,147 106,202 109,206 139,213 220,225 230,225 255,215 237,213 217,202 190,182 181,171 171,136 162,120 158,76 151,62" stroke="rgb(0%,0%,0%)" stroke-width="2" /><polyline fill="none" points="102,107 94,111 90,127 87,151 92,163 105,179 118,187 138,184" stroke="rgb(0%,0%,0%)" stroke-width="2" /><polyline fill="none" points="148,52 148,52" stroke="rgb(0%,0%,0%)" stroke-width="2" /></svg>