<?xml version="1.0" encoding="utf-8" ?>
<svg baseProfile="full" height="256" version="1.1" width="256" xmlns="http://www.w3.org/2000/svg" xmlns:ev="http://www.w3.org/2001/xml-events" xmlns:xlink="http://www.w3.org/1999/xlink"><defs /><polyline fill="none" points="46,73 21,114 9,145 0,196 0,211 8,228 19,237 46,250 92,255 127,239 135,231 142,213 144,175 138,143 128,124 103,94 81,79 66,72 47,69 47,67" stroke="rgb(0%,0%,0%)" stroke-width="2" /><polyline fill="none" points="56,58 58,40 56,4 57,29 52,43 52,55 55,60 56,52 54,1 55,52" stroke="rgb(0%,0%,0%)" stroke-width="2" /></svg>