<?xml version="1.0" encoding="utf-8" ?>
<svg baseProfile="full" height="256" version="1.1" width="256" xmlns="http://www.w3.org/2000/svg" xmlns:ev="http://www.w3.org/2001/xml-events" xmlns:xlink="http://www.w3.org/1999/xlink"><defs /><polyline fill="none" points="136,81 96,81 84,85 60,97 53,108 56,142 67,162 87,180 110,191 148,190 178,175 196,156 202,140 201,108 197,98 160,79 129,75 124,77" stroke="rgb(0%,0%,0%)" stroke-width="2" /><polyline fill="none" points="78,177 77,216 80,214" stroke="rgb(0%,0%,0%)" stroke-width="2" /><polyline fill="none" points="91,186 94,210" stroke="rgb(0%,0%,0%)" stroke-width="2" /><polyline fill="none" points="158,177 171,195 186,209" stroke="rgb(0%,0%,0%)" stroke-width="2" /><polyline fill="none" points="179,180 203,202" stroke="rgb(0%,0%,0%)" stroke-width="2" /><polyline fill="none" points="222,41 201,37 187,45 181,57 179,76 179,95 182,105 190,118 212,133 245,126 251,121 255,90 254,81 237,56 203,40" stroke="rgb(0%,0%,0%)" stroke-width="2" /><polyline fill="none" points="219,88 209,91 203,102 209,111 219,115 225,108 225,97 218,91" stroke="rgb(0%,0%,0%)" stroke-width="2" /><polyline fill="none" points="213,99 213,99" stroke="rgb(0%,0%,0%)" stroke-width="2" /><polyline fill="none" points="218,100 217,100" stroke="rgb(0%,0%,0%)" stroke-width="2" /><polyline fill="none" points="52,100 50,95 42,87 25,84 21,89 24,94 33,95 34,87 34,81 25,74 9,75 0,85 0,90 4,91 6,86" stroke="rgb(0%,0%,0%)" stroke-width="2" /><polyline fill="none" points="175,62 139,55 124,47 113,32 115,24 121,17 135,10 171,0 180,6 187,19 187,39" stroke="rgb(0%,0%,0%)" stroke-width="2" /></svg>