<?xml version="1.0" encoding="utf-8" ?>
<svg baseProfile="full" height="256" version="1.1" width="256" xmlns="http://www.w3.org/2000/svg" xmlns:ev="http://www.w3.org/2001/xml-events" xmlns:xlink="http://www.w3.org/1999/xlink"><defs /><polyline fill="none" points="33,117 33,117" stroke="rgb(0%,0%,0%)" stroke-width="2" /><polyline fill="none" points="33,117 26,123 20,138 14,167 14,198 20,221 30,237 42,247 66,255 107,252 115,248 124,239 130,217 128,163 119,142 104,131 60,115 36,117" stroke="rgb(0%,0%,0%)" stroke-width="2" /><polyline fill="none" points="34,117 19,98 0,90 1,87 12,80 24,81 39,88 35,67 30,58 14,50 7,50 32,39 47,37 54,40 49,22 39,13 26,8 29,6 58,0 69,3 76,9 97,3 125,3 142,11 93,14 77,26 70,37 91,34 120,36 131,50 131,65 104,56 78,56 57,60 49,68 110,70 127,87 133,102 109,95 81,94 61,101 55,110" stroke="rgb(0%,0%,0%)" stroke-width="2" /><polyline fill="none" points="54,110 54,119" stroke="rgb(0%,0%,0%)" stroke-width="2" /><polyline fill="none" points="35,142 42,165 57,153 69,160" stroke="rgb(0%,0%,0%)" stroke-width="2" /></svg>