<?xml version="1.0" encoding="utf-8" ?>
<svg baseProfile="full" height="256" version="1.1" width="256" xmlns="http://www.w3.org/2000/svg" xmlns:ev="http://www.w3.org/2001/xml-events" xmlns:xlink="http://www.w3.org/1999/xlink"><defs /><polyline fill="none" points="230,16 220,10 153,2 81,0 53,2 30,8 14,16 6,26 5,45 18,62 46,76 126,96 183,95 201,90 220,80 236,68 247,51 251,34 249,24 243,17 229,9" stroke="rgb(0%,0%,0%)" stroke-width="2" /><polyline fill="none" points="222,21 221,17 134,5 68,4 44,6 33,10 22,24 21,39 24,48 49,63 99,77 135,83 172,83 197,74 223,52 230,31 231,16 225,14 219,16" stroke="rgb(0%,0%,0%)" stroke-width="2" /><polyline fill="none" points="252,36 254,126 226,145 185,154 77,153 56,149 34,140 14,115 5,93 0,40" stroke="rgb(0%,0%,0%)" stroke-width="2" /><polyline fill="none" points="204,39 195,42 182,41 174,34 167,20 154,37 141,42 129,39 124,25 113,36 99,38 82,27 76,18 74,25 68,28 57,29 48,24" stroke="rgb(0%,0%,0%)" stroke-width="2" /></svg>