<?xml version="1.0" encoding="utf-8" ?>
<svg baseProfile="full" height="256" version="1.1" width="256" xmlns="http://www.w3.org/2000/svg" xmlns:ev="http://www.w3.org/2001/xml-events" xmlns:xlink="http://www.w3.org/1999/xlink"><defs /><polyline fill="none" points="0,118 13,191 18,246 22,250 45,255 217,255 221,117 214,115 190,118 114,118 51,127 8,127" stroke="rgb(0%,0%,0%)" stroke-width="2" /><polyline fill="none" points="32,122 29,122 23,100 13,57 13,38 19,25 32,15 59,4 81,1 131,0 161,17 174,33 184,83 186,123" stroke="rgb(0%,0%,0%)" stroke-width="2" /><polyline fill="none" points="66,125 59,108 44,52 42,29 45,25 72,17 112,21 129,32 136,48" stroke="rgb(0%,0%,0%)" stroke-width="2" /></svg>