<?xml version="1.0" encoding="utf-8" ?>
<svg baseProfile="full" height="256" version="1.1" width="256" xmlns="http://www.w3.org/2000/svg" xmlns:ev="http://www.w3.org/2001/xml-events" xmlns:xlink="http://www.w3.org/1999/xlink"><defs /><polyline fill="none" points="114,6 47,31 19,50 13,58 13,66 14,72 25,82 74,114 123,137 134,137 143,133 221,93 235,81 244,67 237,57 217,42 168,14 134,1 123,0 109,10" stroke="rgb(0%,0%,0%)" stroke-width="2" /><polyline fill="none" points="17,79 6,77 0,83 2,91 14,93 7,103 7,109 29,110 30,119 35,121 40,119 48,132 63,132 73,149 83,148 84,155 86,156 97,154 104,169 119,163 130,168 143,168 153,158 169,156 177,149 196,151 214,146 227,113 240,108 252,90 255,90" stroke="rgb(0%,0%,0%)" stroke-width="2" /></svg>