<?xml version="1.0" encoding="utf-8" ?>
<svg baseProfile="full" height="256" version="1.1" width="256" xmlns="http://www.w3.org/2000/svg" xmlns:ev="http://www.w3.org/2001/xml-events" xmlns:xlink="http://www.w3.org/1999/xlink"><defs /><polyline fill="none" points="110,35 82,90 62,156 44,194" stroke="rgb(0%,0%,0%)" stroke-width="2" /><polyline fill="none" points="75,16 130,36 151,37 152,26 130,7 105,1 90,2 92,13 101,27 106,29" stroke="rgb(0%,0%,0%)" stroke-width="2" /><polyline fill="none" points="81,0 129,26 149,28 139,15 115,7 101,8 96,12" stroke="rgb(0%,0%,0%)" stroke-width="2" /><polyline fill="none" points="108,38 94,75 70,123 45,183" stroke="rgb(0%,0%,0%)" stroke-width="2" /><polyline fill="none" points="54,179 31,178 24,184 3,233 0,252 7,255 23,253 63,217 69,198 63,185 44,177 23,178 16,200 7,243" stroke="rgb(0%,0%,0%)" stroke-width="2" /><polyline fill="none" points="37,198 27,226" stroke="rgb(0%,0%,0%)" stroke-width="2" /></svg>