<?xml version="1.0" encoding="utf-8" ?>
<svg baseProfile="full" height="256" version="1.1" width="256" xmlns="http://www.w3.org/2000/svg" xmlns:ev="http://www.w3.org/2001/xml-events" xmlns:xlink="http://www.w3.org/1999/xlink"><defs /><polyline fill="none" points="17,85 20,92 30,98 83,117 114,117 136,107 151,95 166,72 170,42 162,28 150,18 139,15 85,40" stroke="rgb(0%,0%,0%)" stroke-width="2" /><polyline fill="none" points="62,53 65,22 70,6 75,3 96,0 107,2 106,42 96,32 96,14 89,14 81,53" stroke="rgb(0%,0%,0%)" stroke-width="2" /><polyline fill="none" points="14,73 16,69 85,36" stroke="rgb(0%,0%,0%)" stroke-width="2" /><polyline fill="none" points="20,74 22,91 20,118 26,137 39,148 58,157 94,158 137,146 164,125 171,108 175,69" stroke="rgb(0%,0%,0%)" stroke-width="2" /><polyline fill="none" points="100,157 93,188 89,246" stroke="rgb(0%,0%,0%)" stroke-width="2" /><polyline fill="none" points="32,147 22,154 22,239 19,247" stroke="rgb(0%,0%,0%)" stroke-width="2" /><polyline fill="none" points="98,54 96,63" stroke="rgb(0%,0%,0%)" stroke-width="2" /><polyline fill="none" points="39,85 56,77 101,71 127,56 168,51" stroke="rgb(0%,0%,0%)" stroke-width="2" /><polyline fill="none" points="105,77 95,82 109,87 120,77 109,75" stroke="rgb(0%,0%,0%)" stroke-width="2" /><polyline fill="none" points="24,67 20,77 5,97 0,137 3,164" stroke="rgb(0%,0%,0%)" stroke-width="2" /><polyline fill="none" points="177,50 188,72 176,120 91,203 91,231 96,255" stroke="rgb(0%,0%,0%)" stroke-width="2" /></svg>