<?xml version="1.0" encoding="utf-8" ?>
<svg baseProfile="full" height="256" version="1.1" width="256" xmlns="http://www.w3.org/2000/svg" xmlns:ev="http://www.w3.org/2001/xml-events" xmlns:xlink="http://www.w3.org/1999/xlink"><defs /><polyline fill="none" points="12,126 25,67 34,44 46,30 68,14 84,7 128,0 165,2 194,13 202,20 229,48 240,77 243,106 236,144 234,187 231,190" stroke="rgb(0%,0%,0%)" stroke-width="2" /><polyline fill="none" points="13,125 13,140 0,169 2,184 9,188 31,184 105,181 101,189 89,255 133,250 139,236 142,191 150,188 187,187 217,187 222,190" stroke="rgb(0%,0%,0%)" stroke-width="2" /><polyline fill="none" points="52,73 119,76 133,84 135,92 135,99 127,104 98,108 32,88 52,87" stroke="rgb(0%,0%,0%)" stroke-width="2" /><polyline fill="none" points="55,77 40,79 37,95" stroke="rgb(0%,0%,0%)" stroke-width="2" /><polyline fill="none" points="172,92 225,90 233,95 237,102 239,117 221,123 209,123 172,111 157,110 153,102 168,93 178,92" stroke="rgb(0%,0%,0%)" stroke-width="2" /><polyline fill="none" points="126,199 147,197" stroke="rgb(0%,0%,0%)" stroke-width="2" /><polyline fill="none" points="133,203 133,203" stroke="rgb(0%,0%,0%)" stroke-width="2" /></svg>