<?xml version="1.0" encoding="utf-8" ?>
<svg baseProfile="full" height="256" version="1.1" width="256" xmlns="http://www.w3.org/2000/svg" xmlns:ev="http://www.w3.org/2001/xml-events" xmlns:xlink="http://www.w3.org/1999/xlink"><defs /><polyline fill="none" points="71,64 72,71 79,76 93,71 99,53 95,39 90,33 83,30 60,29 52,33 18,77 14,87 15,103 133,112 145,92 155,56 153,15 150,9 143,4 120,0 67,0 37,17 13,47 0,71 0,96 13,121 37,133 82,142 116,145 136,145 161,136 204,135 243,138 249,136" stroke="rgb(0%,0%,0%)" stroke-width="2" /><polyline fill="none" points="135,111 174,108 212,113 250,128 255,145" stroke="rgb(0%,0%,0%)" stroke-width="2" /></svg>