<?xml version="1.0" encoding="utf-8" ?>
<svg baseProfile="full" height="256" version="1.1" width="256" xmlns="http://www.w3.org/2000/svg" xmlns:ev="http://www.w3.org/2001/xml-events" xmlns:xlink="http://www.w3.org/1999/xlink"><defs /><polyline fill="none" points="130,225 128,144 123,108 108,51 85,10 77,3 61,0 42,6 18,20 5,38 1,55 0,74 7,96 20,106 42,105 57,88 65,90 74,117 70,204 76,219 90,226 115,226 126,221 129,212" stroke="rgb(0%,0%,0%)" stroke-width="2" /><polyline fill="none" points="131,222 137,141 150,76 150,42 154,31 188,19 204,22 225,34 249,63 254,78 255,94 247,116 222,138 207,132 196,122 190,108 186,87 190,73 213,63 227,62 240,74 244,83 242,90" stroke="rgb(0%,0%,0%)" stroke-width="2" /><polyline fill="none" points="132,220 160,192 190,115" stroke="rgb(0%,0%,0%)" stroke-width="2" /><polyline fill="none" points="20,73 16,65 21,62 16,61 21,63 19,68" stroke="rgb(0%,0%,0%)" stroke-width="2" /><polyline fill="none" points="16,101 19,90 26,87 29,89 30,100 30,103 25,103" stroke="rgb(0%,0%,0%)" stroke-width="2" /><polyline fill="none" points="70,145 26,146 21,140 21,130 25,124 30,121 59,120 75,125" stroke="rgb(0%,0%,0%)" stroke-width="2" /></svg>