<?xml version="1.0" encoding="utf-8" ?>
<svg baseProfile="full" height="256" version="1.1" width="256" xmlns="http://www.w3.org/2000/svg" xmlns:ev="http://www.w3.org/2001/xml-events" xmlns:xlink="http://www.w3.org/1999/xlink"><defs /><polyline fill="none" points="253,14 255,55 241,53 130,53 11,55 3,41 0,4 7,0 255,1" stroke="rgb(0%,0%,0%)" stroke-width="2" /><polyline fill="none" points="251,52 254,58 254,91 245,96 193,94 40,96 52,77 57,43" stroke="rgb(0%,0%,0%)" stroke-width="2" /><polyline fill="none" points="248,90 253,115 251,139 231,178 207,173 160,173 156,167 159,106 155,88" stroke="rgb(0%,0%,0%)" stroke-width="2" /><polyline fill="none" points="225,158 218,187 200,213 193,211 189,206 189,200 208,188 212,182 209,166" stroke="rgb(0%,0%,0%)" stroke-width="2" /></svg>