<?xml version="1.0" encoding="utf-8" ?>
<svg baseProfile="full" height="256" version="1.1" width="256" xmlns="http://www.w3.org/2000/svg" xmlns:ev="http://www.w3.org/2001/xml-events" xmlns:xlink="http://www.w3.org/1999/xlink"><defs /><polyline fill="none" points="106,138 117,237" stroke="rgb(0%,0%,0%)" stroke-width="2" /><polyline fill="none" points="104,136 85,137 37,131 7,98 0,76 2,56 9,43 30,15 40,10 77,1 147,0 170,3 225,23 239,36 249,54 255,77 255,102 247,117 231,133 216,137 142,137 120,142 111,140 103,133" stroke="rgb(0%,0%,0%)" stroke-width="2" /><polyline fill="none" points="54,39 47,42 44,58 60,73 62,80 59,87 40,91" stroke="rgb(0%,0%,0%)" stroke-width="2" /><polyline fill="none" points="87,16 94,103" stroke="rgb(0%,0%,0%)" stroke-width="2" /><polyline fill="none" points="76,62 114,60" stroke="rgb(0%,0%,0%)" stroke-width="2" /><polyline fill="none" points="161,55 157,54 149,57 142,64 137,83 136,100 147,111 157,111 163,108 170,82 170,66 161,51" stroke="rgb(0%,0%,0%)" stroke-width="2" /><polyline fill="none" points="169,51 181,138" stroke="rgb(0%,0%,0%)" stroke-width="2" /></svg>