<?xml version="1.0" encoding="utf-8" ?>
<svg baseProfile="full" height="256" version="1.1" width="256" xmlns="http://www.w3.org/2000/svg" xmlns:ev="http://www.w3.org/2001/xml-events" xmlns:xlink="http://www.w3.org/1999/xlink"><defs /><polyline fill="none" points="18,121 16,201 23,225 65,246 98,255 108,255 118,250 140,220 145,198 145,174 132,135 118,116 95,111 37,111 23,113 16,119" stroke="rgb(0%,0%,0%)" stroke-width="2" /><polyline fill="none" points="30,111 29,92 19,61 5,41 0,29 13,25 38,39 47,67 53,75 59,64 61,17 65,4 71,0 84,22 86,67 104,24 116,22 122,27 120,43 110,63 125,42 137,32 166,29 171,36 166,60 155,71 129,109 126,119" stroke="rgb(0%,0%,0%)" stroke-width="2" /><polyline fill="none" points="39,188 39,188" stroke="rgb(0%,0%,0%)" stroke-width="2" /><polyline fill="none" points="39,188 40,194" stroke="rgb(0%,0%,0%)" stroke-width="2" /><polyline fill="none" points="62,201 66,211" stroke="rgb(0%,0%,0%)" stroke-width="2" /><polyline fill="none" points="104,210 115,219" stroke="rgb(0%,0%,0%)" stroke-width="2" /></svg>