<?xml version="1.0" encoding="utf-8" ?>
<svg baseProfile="full" height="256" version="1.1" width="256" xmlns="http://www.w3.org/2000/svg" xmlns:ev="http://www.w3.org/2001/xml-events" xmlns:xlink="http://www.w3.org/1999/xlink"><defs /><polyline fill="none" points="180,38 142,34 116,41 103,51 95,70 92,94 104,106 120,115 142,123 179,125 196,116 207,104 211,95 212,72 204,53 194,47 178,45" stroke="rgb(0%,0%,0%)" stroke-width="2" /><polyline fill="none" points="190,40 215,30 255,6" stroke="rgb(0%,0%,0%)" stroke-width="2" /><polyline fill="none" points="146,32 145,3" stroke="rgb(0%,0%,0%)" stroke-width="2" /><polyline fill="none" points="112,36 102,25 55,0" stroke="rgb(0%,0%,0%)" stroke-width="2" /><polyline fill="none" points="91,72 65,66 0,65" stroke="rgb(0%,0%,0%)" stroke-width="2" /><polyline fill="none" points="108,110 88,128 46,154" stroke="rgb(0%,0%,0%)" stroke-width="2" /><polyline fill="none" points="148,122 146,167" stroke="rgb(0%,0%,0%)" stroke-width="2" /><polyline fill="none" points="209,99 209,106 215,115 229,126" stroke="rgb(0%,0%,0%)" stroke-width="2" /></svg>