<?xml version="1.0" encoding="utf-8" ?>
<svg baseProfile="full" height="256" version="1.1" width="256" xmlns="http://www.w3.org/2000/svg" xmlns:ev="http://www.w3.org/2001/xml-events" xmlns:xlink="http://www.w3.org/1999/xlink"><defs /><polyline fill="none" points="147,6 87,1 88,37 43,40 22,57 8,78 2,93 0,128 23,133 27,106 38,89 57,71 79,67 89,79 96,182 149,186 157,183 161,151 151,104 152,80 171,83 192,94 224,158 250,161 254,158 255,147 244,121 234,78 226,64 214,56 190,48 163,45 143,48 142,31" stroke="rgb(0%,0%,0%)" stroke-width="2" /></svg>