<?xml version="1.0" encoding="utf-8" ?>
<svg baseProfile="full" height="256" version="1.1" width="256" xmlns="http://www.w3.org/2000/svg" xmlns:ev="http://www.w3.org/2001/xml-events" xmlns:xlink="http://www.w3.org/1999/xlink"><defs /><polyline fill="none" points="7,81 1,62 1,46 10,17 25,4 36,9 44,30 55,88 70,64 94,60 92,34 100,1 108,0 123,15 138,43 143,63 147,56 150,24 156,9 167,9 176,17 183,28 191,50 197,56 203,50 218,5 227,1 235,4 244,23 254,110 255,140 246,170 238,183 218,198 202,199 161,196" stroke="rgb(0%,0%,0%)" stroke-width="2" /></svg>