<?xml version="1.0" encoding="utf-8" ?>
<svg baseProfile="full" height="256" version="1.1" width="256" xmlns="http://www.w3.org/2000/svg" xmlns:ev="http://www.w3.org/2001/xml-events" xmlns:xlink="http://www.w3.org/1999/xlink"><defs /><polyline fill="none" points="228,162 165,138 126,129 97,109" stroke="rgb(0%,0%,0%)" stroke-width="2" /><polyline fill="none" points="253,137 244,137 164,101 113,91" stroke="rgb(0%,0%,0%)" stroke-width="2" /><polyline fill="none" points="91,97 86,117 75,128 51,136 10,142" stroke="rgb(0%,0%,0%)" stroke-width="2" /><polyline fill="none" points="7,134 40,124 63,105 79,73 83,41 77,22 59,3 44,0 34,5 21,20 4,56 0,93 6,105" stroke="rgb(0%,0%,0%)" stroke-width="2" /><polyline fill="none" points="91,22 96,60 101,73" stroke="rgb(0%,0%,0%)" stroke-width="2" /><polyline fill="none" points="143,106 134,137 209,176" stroke="rgb(0%,0%,0%)" stroke-width="2" /><polyline fill="none" points="167,118 164,145 191,156 255,193" stroke="rgb(0%,0%,0%)" stroke-width="2" /></svg>