<?xml version="1.0" encoding="utf-8" ?>
<svg baseProfile="full" height="256" version="1.1" width="256" xmlns="http://www.w3.org/2000/svg" xmlns:ev="http://www.w3.org/2001/xml-events" xmlns:xlink="http://www.w3.org/1999/xlink"><defs /><polyline fill="none" points="24,89 18,126 13,140 5,151 1,167 0,201 15,234 29,245 49,252 83,255 97,251 121,236 129,218 129,192 126,184 107,158 88,120 88,97 103,87 102,79 91,71 80,68 26,68 12,71 10,74 24,88" stroke="rgb(0%,0%,0%)" stroke-width="2" /><polyline fill="none" points="43,128 30,86 24,46 29,0" stroke="rgb(0%,0%,0%)" stroke-width="2" /></svg>