<?xml version="1.0" encoding="utf-8" ?>
<svg baseProfile="full" height="256" version="1.1" width="256" xmlns="http://www.w3.org/2000/svg" xmlns:ev="http://www.w3.org/2001/xml-events" xmlns:xlink="http://www.w3.org/1999/xlink"><defs /><polyline fill="none" points="53,255 33,230 4,164 0,138 0,119 10,84 37,41 55,20 76,9 129,0 165,4 186,12 217,36 243,84 242,163 234,182 205,224 188,237 155,247 126,251 64,248 43,241 31,231" stroke="rgb(0%,0%,0%)" stroke-width="2" /><polyline fill="none" points="130,154 125,154 122,146 129,131 140,123 155,121 161,127 161,137 150,154 133,159 120,152" stroke="rgb(0%,0%,0%)" stroke-width="2" /><polyline fill="none" points="150,68 144,108" stroke="rgb(0%,0%,0%)" stroke-width="2" /><polyline fill="none" points="185,74 186,81 170,117" stroke="rgb(0%,0%,0%)" stroke-width="2" /><polyline fill="none" points="203,94 186,116 165,133 168,140 191,141 201,146" stroke="rgb(0%,0%,0%)" stroke-width="2" /><polyline fill="none" points="159,155 156,159 169,169" stroke="rgb(0%,0%,0%)" stroke-width="2" /><polyline fill="none" points="159,155 141,171 137,182 135,206" stroke="rgb(0%,0%,0%)" stroke-width="2" /><polyline fill="none" points="124,174 113,186 107,207" stroke="rgb(0%,0%,0%)" stroke-width="2" /><polyline fill="none" points="110,163 106,163 96,177 86,181" stroke="rgb(0%,0%,0%)" stroke-width="2" /><polyline fill="none" points="110,163 58,136 113,138" stroke="rgb(0%,0%,0%)" stroke-width="2" /><polyline fill="none" points="68,108 65,105 75,107 102,122" stroke="rgb(0%,0%,0%)" stroke-width="2" /><polyline fill="none" points="105,78 131,95" stroke="rgb(0%,0%,0%)" stroke-width="2" /><polyline fill="none" points="113,187 86,182 71,175 58,164 51,154 44,137 43,124 46,106 63,79 89,60 111,56 160,60 181,71 193,90 199,129 192,152 183,163 163,171 124,180 86,181" stroke="rgb(0%,0%,0%)" stroke-width="2" /></svg>