<?xml version="1.0" encoding="utf-8" ?>
<svg baseProfile="full" height="256" version="1.1" width="256" xmlns="http://www.w3.org/2000/svg" xmlns:ev="http://www.w3.org/2001/xml-events" xmlns:xlink="http://www.w3.org/1999/xlink"><defs /><polyline fill="none" points="21,67 18,85 18,124 27,160 49,188 73,209 96,221 115,226 145,223 164,215 187,198 205,174 215,155 225,122 224,97 215,68 197,45 176,31 134,19 89,15 77,20 53,37 25,75" stroke="rgb(0%,0%,0%)" stroke-width="2" /><polyline fill="none" points="61,73 62,84 56,85 53,79 53,74 58,70 61,80" stroke="rgb(0%,0%,0%)" stroke-width="2" /><polyline fill="none" points="102,85 106,91 100,92 95,86 100,82 106,88" stroke="rgb(0%,0%,0%)" stroke-width="2" /><polyline fill="none" points="151,88 157,89 153,95 147,96 145,90 154,89" stroke="rgb(0%,0%,0%)" stroke-width="2" /><polyline fill="none" points="103,164 115,157 136,152 141,152 146,164" stroke="rgb(0%,0%,0%)" stroke-width="2" /><polyline fill="none" points="202,111 202,113" stroke="rgb(0%,0%,0%)" stroke-width="2" /><polyline fill="none" points="71,131 71,131" stroke="rgb(0%,0%,0%)" stroke-width="2" /><polyline fill="none" points="43,119 47,126" stroke="rgb(0%,0%,0%)" stroke-width="2" /><polyline fill="none" points="188,51 191,56" stroke="rgb(0%,0%,0%)" stroke-width="2" /><polyline fill="none" points="189,156 193,164" stroke="rgb(0%,0%,0%)" stroke-width="2" /><polyline fill="none" points="125,200 126,204" stroke="rgb(0%,0%,0%)" stroke-width="2" /><polyline fill="none" points="120,35 120,35" stroke="rgb(0%,0%,0%)" stroke-width="2" /><polyline fill="none" points="92,40 94,42" stroke="rgb(0%,0%,0%)" stroke-width="2" /><polyline fill="none" points="50,33 44,33 37,38 20,56 8,81 0,117 0,162 4,131 18,75 23,63 28,69 27,94 11,148 6,192 5,230 14,251 20,255 22,248 22,195 18,137 26,104 20,145 21,81 39,28 48,19 80,19 122,11 153,21 131,7 82,0 154,23 220,62 251,76 237,79 223,74 174,33 171,39 175,86 175,123 170,233 178,220 197,147" stroke="rgb(0%,0%,0%)" stroke-width="2" /><polyline fill="none" points="206,119 215,87 215,81 213,86 209,103 194,216 194,193 205,145 212,120 234,67 230,135 220,209" stroke="rgb(0%,0%,0%)" stroke-width="2" /><polyline fill="none" points="56,145 57,151 60,147" stroke="rgb(0%,0%,0%)" stroke-width="2" /><polyline fill="none" points="62,142 62,142" stroke="rgb(0%,0%,0%)" stroke-width="2" /><polyline fill="none" points="129,50 130,48" stroke="rgb(0%,0%,0%)" stroke-width="2" /><polyline fill="none" points="76,68 104,66" stroke="rgb(0%,0%,0%)" stroke-width="2" /><polyline fill="none" points="146,68 178,71" stroke="rgb(0%,0%,0%)" stroke-width="2" /></svg>