<?xml version="1.0" encoding="utf-8" ?>
<svg baseProfile="full" height="256" version="1.1" width="256" xmlns="http://www.w3.org/2000/svg" xmlns:ev="http://www.w3.org/2001/xml-events" xmlns:xlink="http://www.w3.org/1999/xlink"><defs /><polyline fill="none" points="13,96 10,185 12,191 20,198 39,207 67,212 170,212 196,205 213,195 220,182 214,94 204,79 194,75 171,74 112,88 23,88 0,102" stroke="rgb(0%,0%,0%)" stroke-width="2" /><polyline fill="none" points="10,154 64,154 84,149 91,141 97,124 98,98 95,88" stroke="rgb(0%,0%,0%)" stroke-width="2" /><polyline fill="none" points="80,150 142,145 221,150" stroke="rgb(0%,0%,0%)" stroke-width="2" /><polyline fill="none" points="145,73 152,146" stroke="rgb(0%,0%,0%)" stroke-width="2" /><polyline fill="none" points="83,90 76,72 120,60 129,59 138,79" stroke="rgb(0%,0%,0%)" stroke-width="2" /><polyline fill="none" points="104,72 110,86" stroke="rgb(0%,0%,0%)" stroke-width="2" /><polyline fill="none" points="60,54 49,41" stroke="rgb(0%,0%,0%)" stroke-width="2" /><polyline fill="none" points="88,47 88,27 93,15" stroke="rgb(0%,0%,0%)" stroke-width="2" /><polyline fill="none" points="108,37 126,15 143,0" stroke="rgb(0%,0%,0%)" stroke-width="2" /><polyline fill="none" points="125,54 150,34" stroke="rgb(0%,0%,0%)" stroke-width="2" /><polyline fill="none" points="32,203 14,207 7,215 7,235 16,248 23,253 35,254 52,244 63,232 66,225 65,216 51,208 31,207 21,209 9,220 6,225 7,236 11,241 24,246 39,245 45,240 52,229 52,216 49,211 37,207 30,208 23,214 19,220 17,235 19,243 29,251 41,246 46,238 47,225 44,217 34,209 28,211 25,216 25,233 30,239 40,240" stroke="rgb(0%,0%,0%)" stroke-width="2" /><polyline fill="none" points="194,206 183,206 179,211 174,239 182,252 189,255 205,255 215,246 218,229 214,218 204,207 197,205 190,205 180,216 178,238 182,243 189,245 196,245 204,240 214,225 215,213 209,209 197,208 187,219 185,226 186,233 189,239 194,243 205,243 212,233 211,221 202,221 195,231 194,243 197,248 203,249 205,237 202,227 189,225 185,232 186,241 191,245 205,246" stroke="rgb(0%,0%,0%)" stroke-width="2" /></svg>