<?xml version="1.0" encoding="utf-8" ?>
<svg baseProfile="full" height="256" version="1.1" width="256" xmlns="http://www.w3.org/2000/svg" xmlns:ev="http://www.w3.org/2001/xml-events" xmlns:xlink="http://www.w3.org/1999/xlink"><defs /><polyline fill="none" points="27,47 17,58 16,73 21,81 34,84 50,67 49,54 34,46 23,47 17,51" stroke="rgb(0%,0%,0%)" stroke-width="2" /><polyline fill="none" points="22,51 0,18" stroke="rgb(0%,0%,0%)" stroke-width="2" /><polyline fill="none" points="41,45 46,11 43,0" stroke="rgb(0%,0%,0%)" stroke-width="2" /><polyline fill="none" points="53,68 65,68 64,58 69,51 91,36 119,34 135,38 148,48 159,64 158,78 149,85 126,90 87,90 68,83 62,73" stroke="rgb(0%,0%,0%)" stroke-width="2" /><polyline fill="none" points="161,70 175,69" stroke="rgb(0%,0%,0%)" stroke-width="2" /><polyline fill="none" points="180,68 177,67 176,61 187,50 206,42 226,40 244,48 250,58 250,72 245,80 233,87 207,89 188,83 180,76 180,71" stroke="rgb(0%,0%,0%)" stroke-width="2" /><polyline fill="none" points="73,85 61,113" stroke="rgb(0%,0%,0%)" stroke-width="2" /><polyline fill="none" points="95,88 94,126" stroke="rgb(0%,0%,0%)" stroke-width="2" /><polyline fill="none" points="140,90 157,118" stroke="rgb(0%,0%,0%)" stroke-width="2" /><polyline fill="none" points="199,90 201,116 208,122" stroke="rgb(0%,0%,0%)" stroke-width="2" /><polyline fill="none" points="234,89 242,105 255,112" stroke="rgb(0%,0%,0%)" stroke-width="2" /></svg>