<?xml version="1.0" encoding="utf-8" ?>
<svg baseProfile="full" height="256" version="1.1" width="256" xmlns="http://www.w3.org/2000/svg" xmlns:ev="http://www.w3.org/2001/xml-events" xmlns:xlink="http://www.w3.org/1999/xlink"><defs /><polyline fill="none" points="255,0 255,0" stroke="rgb(0%,0%,0%)" stroke-width="2" /><polyline fill="none" points="255,0 255,0" stroke="rgb(0%,0%,0%)" stroke-width="2" /><polyline fill="none" points="255,0 255,0" stroke="rgb(0%,0%,0%)" stroke-width="2" /><polyline fill="none" points="255,0 254,1" stroke="rgb(0%,0%,0%)" stroke-width="2" /><polyline fill="none" points="131,50 124,39 114,39 69,59 37,89 10,127 0,172 0,194 5,215 16,233 31,244 50,249 68,249 86,241 101,225 115,203 126,174 135,143 137,114 135,88 122,65 106,45" stroke="rgb(0%,0%,0%)" stroke-width="2" /><polyline fill="none" points="84,97 77,85 81,52 88,34 99,18 122,4 138,1 161,2 180,12" stroke="rgb(0%,0%,0%)" stroke-width="2" /></svg>