<?xml version="1.0" encoding="utf-8" ?>
<svg baseProfile="full" height="256" version="1.1" width="256" xmlns="http://www.w3.org/2000/svg" xmlns:ev="http://www.w3.org/2001/xml-events" xmlns:xlink="http://www.w3.org/1999/xlink"><defs /><polyline fill="none" points="48,4 119,0 208,1 222,11 228,23 209,35 175,40 80,42 25,34 7,27 7,25 40,4 58,1" stroke="rgb(0%,0%,0%)" stroke-width="2" /><polyline fill="none" points="3,26 3,32 20,50 25,58 23,59" stroke="rgb(0%,0%,0%)" stroke-width="2" /><polyline fill="none" points="14,32 1,65 1,79 15,96 44,112 52,131 49,140 10,156 10,161 16,168 31,172 106,175 188,176 247,173 255,168 247,158 203,138 200,134 200,128 207,119 236,105 246,91 246,68 231,33 218,12" stroke="rgb(0%,0%,0%)" stroke-width="2" /><polyline fill="none" points="22,14 34,11 57,25 64,25 74,20 91,28 109,21 121,24 144,15 152,18 163,14 169,17 183,11 192,20 208,16 212,17 223,12 223,14" stroke="rgb(0%,0%,0%)" stroke-width="2" /></svg>