<?xml version="1.0" encoding="utf-8" ?>
<svg baseProfile="full" height="256" version="1.1" width="256" xmlns="http://www.w3.org/2000/svg" xmlns:ev="http://www.w3.org/2001/xml-events" xmlns:xlink="http://www.w3.org/1999/xlink"><defs /><polyline fill="none" points="5,125 43,102 72,93 168,98 206,98 218,95" stroke="rgb(0%,0%,0%)" stroke-width="2" /><polyline fill="none" points="20,143 69,124 90,119 100,120 136,136 151,139 185,137 236,126" stroke="rgb(0%,0%,0%)" stroke-width="2" /><polyline fill="none" points="12,80 33,63 46,57 53,58 63,69 71,71 134,64 175,72 201,72 227,59" stroke="rgb(0%,0%,0%)" stroke-width="2" /><polyline fill="none" points="20,47 38,37 51,35 62,36 75,48 84,49 151,40 171,40 216,48 250,45" stroke="rgb(0%,0%,0%)" stroke-width="2" /><polyline fill="none" points="29,31 40,25 66,22 90,29 191,34 240,41" stroke="rgb(0%,0%,0%)" stroke-width="2" /><polyline fill="none" points="2,104 0,33 5,29 18,23 138,0 157,1 189,11 237,13 253,21 255,34 252,46 248,55 226,76 221,91 225,101" stroke="rgb(0%,0%,0%)" stroke-width="2" /></svg>