<?xml version="1.0" encoding="utf-8" ?>
<svg baseProfile="full" height="256" version="1.1" width="256" xmlns="http://www.w3.org/2000/svg" xmlns:ev="http://www.w3.org/2001/xml-events" xmlns:xlink="http://www.w3.org/1999/xlink"><defs /><polyline fill="none" points="16,89 10,74 9,52 9,35 14,25 23,22 34,25 51,42 57,55 63,55" stroke="rgb(0%,0%,0%)" stroke-width="2" /><polyline fill="none" points="61,57 73,49 95,42 112,42 130,47 131,38 149,7 155,2 164,0 174,4 182,20 182,42 178,51" stroke="rgb(0%,0%,0%)" stroke-width="2" /><polyline fill="none" points="39,72 32,71 25,48 33,50 44,62" stroke="rgb(0%,0%,0%)" stroke-width="2" /><polyline fill="none" points="145,47 162,20 165,53 162,58" stroke="rgb(0%,0%,0%)" stroke-width="2" /><polyline fill="none" points="21,84 12,89 3,100 0,120 6,134 29,162 45,176 65,186 88,190 121,188 142,181 160,171 174,159 183,144 187,119 189,73 182,43" stroke="rgb(0%,0%,0%)" stroke-width="2" /><polyline fill="none" points="57,181 48,186 35,211 30,239 37,247 49,252 81,255 123,236 152,215 159,198 157,180 152,171" stroke="rgb(0%,0%,0%)" stroke-width="2" /></svg>