<?xml version="1.0" encoding="utf-8" ?>
<svg baseProfile="full" height="256" version="1.1" width="256" xmlns="http://www.w3.org/2000/svg" xmlns:ev="http://www.w3.org/2001/xml-events" xmlns:xlink="http://www.w3.org/1999/xlink"><defs /><polyline fill="none" points="27,146 39,229 44,244 56,255 87,242 113,216 117,195 109,147" stroke="rgb(0%,0%,0%)" stroke-width="2" /><polyline fill="none" points="64,0 21,28 1,66 0,81 10,100 18,125 25,134 35,140 65,145 103,142 120,131 134,112 138,80 126,16 116,3 76,4" stroke="rgb(0%,0%,0%)" stroke-width="2" /><polyline fill="none" points="34,154 34,154" stroke="rgb(0%,0%,0%)" stroke-width="2" /><polyline fill="none" points="34,154 34,154" stroke="rgb(0%,0%,0%)" stroke-width="2" /><polyline fill="none" points="47,172 76,148 77,158 89,156 89,159 85,179 88,177 83,175 81,167 78,166 73,173 70,165 57,171 45,182 43,197 50,194 43,218 38,249 39,252 41,250 49,242 50,255 56,242 88,219 109,198 128,185 126,192 114,190 110,181" stroke="rgb(0%,0%,0%)" stroke-width="2" /><polyline fill="none" points="37,47 39,52" stroke="rgb(0%,0%,0%)" stroke-width="2" /><polyline fill="none" points="69,44 72,50" stroke="rgb(0%,0%,0%)" stroke-width="2" /><polyline fill="none" points="24,92 63,105 77,107 85,103" stroke="rgb(0%,0%,0%)" stroke-width="2" /></svg>