<?xml version="1.0" encoding="utf-8" ?>
<svg baseProfile="full" height="256" version="1.1" width="256" xmlns="http://www.w3.org/2000/svg" xmlns:ev="http://www.w3.org/2001/xml-events" xmlns:xlink="http://www.w3.org/1999/xlink"><defs /><polyline fill="none" points="18,94 1,147 1,177 36,174 31,168 32,158 45,124 46,105 43,99 48,98 185,98 192,171 201,171 215,165 217,162 220,141 220,97 246,91 246,65 255,3 241,0 239,2 237,54 233,62 189,63 13,84 6,86 19,86 19,98" stroke="rgb(0%,0%,0%)" stroke-width="2" /><polyline fill="none" points="189,63 190,42 244,41" stroke="rgb(0%,0%,0%)" stroke-width="2" /><polyline fill="none" points="186,53 114,58 12,85" stroke="rgb(0%,0%,0%)" stroke-width="2" /></svg>