<?xml version="1.0" encoding="utf-8" ?>
<svg baseProfile="full" height="256" version="1.1" width="256" xmlns="http://www.w3.org/2000/svg" xmlns:ev="http://www.w3.org/2001/xml-events" xmlns:xlink="http://www.w3.org/1999/xlink"><defs /><polyline fill="none" points="200,97 150,86 116,88 83,110 73,123 69,138 67,183 83,203 104,218 119,222 175,224 193,213 208,192 226,138 228,120 225,114 210,106 166,101" stroke="rgb(0%,0%,0%)" stroke-width="2" /><polyline fill="none" points="53,159 21,152" stroke="rgb(0%,0%,0%)" stroke-width="2" /><polyline fill="none" points="11,151 0,149" stroke="rgb(0%,0%,0%)" stroke-width="2" /><polyline fill="none" points="190,148 190,148" stroke="rgb(0%,0%,0%)" stroke-width="2" /><polyline fill="none" points="189,92 188,140 179,229" stroke="rgb(0%,0%,0%)" stroke-width="2" /><polyline fill="none" points="143,105 144,118 135,158 128,216" stroke="rgb(0%,0%,0%)" stroke-width="2" /><polyline fill="none" points="147,96 118,182 107,232" stroke="rgb(0%,0%,0%)" stroke-width="2" /><polyline fill="none" points="95,94 78,157 73,230" stroke="rgb(0%,0%,0%)" stroke-width="2" /><polyline fill="none" points="179,112 179,118 148,189 144,204 142,231" stroke="rgb(0%,0%,0%)" stroke-width="2" /><polyline fill="none" points="120,92 107,134 90,226" stroke="rgb(0%,0%,0%)" stroke-width="2" /><polyline fill="none" points="213,139 213,139" stroke="rgb(0%,0%,0%)" stroke-width="2" /><polyline fill="none" points="207,139 202,146 203,155" stroke="rgb(0%,0%,0%)" stroke-width="2" /><polyline fill="none" points="75,106 83,55 99,12 113,1 147,0 168,9 175,16 180,25 180,37 162,71 134,107" stroke="rgb(0%,0%,0%)" stroke-width="2" /><polyline fill="none" points="163,95 169,67 181,40 207,25 236,22 253,39 253,62 232,87 201,106" stroke="rgb(0%,0%,0%)" stroke-width="2" /></svg>