<?xml version="1.0" encoding="utf-8" ?>
<svg baseProfile="full" height="256" version="1.1" width="256" xmlns="http://www.w3.org/2000/svg" xmlns:ev="http://www.w3.org/2001/xml-events" xmlns:xlink="http://www.w3.org/1999/xlink"><defs /><polyline fill="none" points="40,19 104,18 168,24 222,21 244,16 249,29 255,65 249,68 80,69 5,73 0,67 2,32 36,20 70,14" stroke="rgb(0%,0%,0%)" stroke-width="2" /><polyline fill="none" points="102,0 93,45 93,76 145,83 161,82 163,11 158,8 135,8 107,11 99,14" stroke="rgb(0%,0%,0%)" stroke-width="2" /><polyline fill="none" points="103,29 103,69 109,65 126,29 133,32 133,75 150,37 153,42 153,54 151,27 146,68" stroke="rgb(0%,0%,0%)" stroke-width="2" /></svg>