<?xml version="1.0" encoding="utf-8" ?>
<svg baseProfile="full" height="256" version="1.1" width="256" xmlns="http://www.w3.org/2000/svg" xmlns:ev="http://www.w3.org/2001/xml-events" xmlns:xlink="http://www.w3.org/1999/xlink"><defs /><polyline fill="none" points="196,25 161,13 89,0 76,0 45,14 32,28 18,52 15,62 15,83 22,96 53,121 92,129 128,129 183,115 209,104 226,93 237,80 239,71 239,49 217,27 191,16 171,13" stroke="rgb(0%,0%,0%)" stroke-width="2" /><polyline fill="none" points="20,26 2,58 0,89 2,96 19,116 70,140 101,144 141,140 167,125 193,123 225,113 255,93 254,81 242,63" stroke="rgb(0%,0%,0%)" stroke-width="2" /></svg>