<?xml version="1.0" encoding="utf-8" ?>
<svg baseProfile="full" height="256" version="1.1" width="256" xmlns="http://www.w3.org/2000/svg" xmlns:ev="http://www.w3.org/2001/xml-events" xmlns:xlink="http://www.w3.org/1999/xlink"><defs /><polyline fill="none" points="5,89 149,89 181,86 232,86 245,89 250,93 255,111 239,125 118,142 95,142 36,129 2,109 0,100 9,98 16,89" stroke="rgb(0%,0%,0%)" stroke-width="2" /><polyline fill="none" points="56,132 59,164 69,187" stroke="rgb(0%,0%,0%)" stroke-width="2" /><polyline fill="none" points="105,141 108,161 121,178" stroke="rgb(0%,0%,0%)" stroke-width="2" /><polyline fill="none" points="187,131 204,168" stroke="rgb(0%,0%,0%)" stroke-width="2" /><polyline fill="none" points="228,120 237,154" stroke="rgb(0%,0%,0%)" stroke-width="2" /><polyline fill="none" points="239,87 239,20 222,8 199,1 128,4 90,12 70,20 47,38" stroke="rgb(0%,0%,0%)" stroke-width="2" /></svg>