<?xml version="1.0" encoding="utf-8" ?>
<svg baseProfile="full" height="256" version="1.1" width="256" xmlns="http://www.w3.org/2000/svg" xmlns:ev="http://www.w3.org/2001/xml-events" xmlns:xlink="http://www.w3.org/1999/xlink"><defs /><polyline fill="none" points="83,112 66,110 42,114 26,120 17,128 12,150 12,166 24,181 35,187 108,189 122,181 132,167 131,155 117,137 79,109 65,108" stroke="rgb(0%,0%,0%)" stroke-width="2" /><polyline fill="none" points="7,153 7,176 0,199 2,224 56,251 73,255 100,253 114,248 122,239 128,220 129,162" stroke="rgb(0%,0%,0%)" stroke-width="2" /><polyline fill="none" points="45,139 40,97 41,63 64,62 65,66 65,128" stroke="rgb(0%,0%,0%)" stroke-width="2" /><polyline fill="none" points="55,57 32,42 26,31 25,6 27,2 49,1 55,18 55,55" stroke="rgb(0%,0%,0%)" stroke-width="2" /></svg>