<?xml version="1.0" encoding="utf-8" ?>
<svg baseProfile="full" height="256" version="1.1" width="256" xmlns="http://www.w3.org/2000/svg" xmlns:ev="http://www.w3.org/2001/xml-events" xmlns:xlink="http://www.w3.org/1999/xlink"><defs /><polyline fill="none" points="49,184 46,177 49,149 53,139 101,138 155,128 158,132 162,177 167,192 163,195" stroke="rgb(0%,0%,0%)" stroke-width="2" /><polyline fill="none" points="70,133 69,122 73,110 91,96 131,102 138,123 136,132" stroke="rgb(0%,0%,0%)" stroke-width="2" /><polyline fill="none" points="82,94 79,74 81,64 102,59 113,63 117,68 120,100" stroke="rgb(0%,0%,0%)" stroke-width="2" /><polyline fill="none" points="96,53 93,34 102,33 100,59" stroke="rgb(0%,0%,0%)" stroke-width="2" /><polyline fill="none" points="95,20 87,19 98,1 101,0 104,7 103,18 96,24" stroke="rgb(0%,0%,0%)" stroke-width="2" /><polyline fill="none" points="44,178 16,181 0,196 2,206 17,221 82,255 108,253 132,246 164,234 177,224 211,186 193,174 180,171" stroke="rgb(0%,0%,0%)" stroke-width="2" /><polyline fill="none" points="180,170 180,170" stroke="rgb(0%,0%,0%)" stroke-width="2" /></svg>