<?xml version="1.0" encoding="utf-8" ?>
<svg baseProfile="full" height="256" version="1.1" width="256" xmlns="http://www.w3.org/2000/svg" xmlns:ev="http://www.w3.org/2001/xml-events" xmlns:xlink="http://www.w3.org/1999/xlink"><defs /><polyline fill="none" points="1,63 55,35 102,17 166,0 182,0 207,11 216,23 224,42 227,64 224,109 220,129 202,173 189,197 163,231 139,248 113,255 86,253 60,242 37,218 27,202 13,172 6,145 0,100 0,87 4,79" stroke="rgb(0%,0%,0%)" stroke-width="2" /><polyline fill="none" points="108,219 67,196 36,162 29,147 24,126 24,111 29,89 46,67 75,42 105,26 120,23 141,23 155,29 166,43 180,78 180,102 175,121 150,179 132,197 112,208" stroke="rgb(0%,0%,0%)" stroke-width="2" /></svg>