<?xml version="1.0" encoding="utf-8" ?>
<svg baseProfile="full" height="256" version="1.1" width="256" xmlns="http://www.w3.org/2000/svg" xmlns:ev="http://www.w3.org/2001/xml-events" xmlns:xlink="http://www.w3.org/1999/xlink"><defs /><polyline fill="none" points="42,199 51,179 75,156 107,142 143,131 179,126 198,127 211,133 235,151" stroke="rgb(0%,0%,0%)" stroke-width="2" /><polyline fill="none" points="40,198 14,176 1,145 29,108 54,88 75,77 113,68 166,68 201,84 224,103 236,116" stroke="rgb(0%,0%,0%)" stroke-width="2" /><polyline fill="none" points="42,199 43,191" stroke="rgb(0%,0%,0%)" stroke-width="2" /><polyline fill="none" points="10,132 0,84" stroke="rgb(0%,0%,0%)" stroke-width="2" /><polyline fill="none" points="33,110 24,70" stroke="rgb(0%,0%,0%)" stroke-width="2" /><polyline fill="none" points="59,80 52,49" stroke="rgb(0%,0%,0%)" stroke-width="2" /><polyline fill="none" points="87,77 85,28" stroke="rgb(0%,0%,0%)" stroke-width="2" /><polyline fill="none" points="113,67 113,21" stroke="rgb(0%,0%,0%)" stroke-width="2" /><polyline fill="none" points="144,67 145,43 150,27" stroke="rgb(0%,0%,0%)" stroke-width="2" /><polyline fill="none" points="166,70 182,16" stroke="rgb(0%,0%,0%)" stroke-width="2" /><polyline fill="none" points="190,79 200,42" stroke="rgb(0%,0%,0%)" stroke-width="2" /><polyline fill="none" points="216,101 218,68" stroke="rgb(0%,0%,0%)" stroke-width="2" /><polyline fill="none" points="231,103 232,84 238,67" stroke="rgb(0%,0%,0%)" stroke-width="2" /><polyline fill="none" points="255,76 223,34 204,16 177,4 145,0" stroke="rgb(0%,0%,0%)" stroke-width="2" /></svg>