<?xml version="1.0" encoding="utf-8" ?>
<svg baseProfile="full" height="256" version="1.1" width="256" xmlns="http://www.w3.org/2000/svg" xmlns:ev="http://www.w3.org/2001/xml-events" xmlns:xlink="http://www.w3.org/1999/xlink"><defs /><polyline fill="none" points="58,107 38,105 32,102 30,96 35,85 38,88 35,77 30,69 30,50 37,43 52,15 65,9 90,9 109,0 113,4 135,7 158,5 164,14 185,29 188,37 208,54 200,75 199,99 202,107 196,115 161,139 135,143 123,142" stroke="rgb(0%,0%,0%)" stroke-width="2" /><polyline fill="none" points="59,111 73,151" stroke="rgb(0%,0%,0%)" stroke-width="2" /><polyline fill="none" points="76,106 86,138" stroke="rgb(0%,0%,0%)" stroke-width="2" /><polyline fill="none" points="108,115 101,123 98,140" stroke="rgb(0%,0%,0%)" stroke-width="2" /><polyline fill="none" points="140,124 117,137 106,147" stroke="rgb(0%,0%,0%)" stroke-width="2" /><polyline fill="none" points="164,125 142,138 132,149" stroke="rgb(0%,0%,0%)" stroke-width="2" /><polyline fill="none" points="155,139 145,146 123,172 82,242" stroke="rgb(0%,0%,0%)" stroke-width="2" /><polyline fill="none" points="53,150 28,205 16,216 0,219 56,249 80,255 84,252" stroke="rgb(0%,0%,0%)" stroke-width="2" /></svg>