<?xml version="1.0" encoding="utf-8" ?>
<svg baseProfile="full" height="256" version="1.1" width="256" xmlns="http://www.w3.org/2000/svg" xmlns:ev="http://www.w3.org/2001/xml-events" xmlns:xlink="http://www.w3.org/1999/xlink"><defs /><polyline fill="none" points="83,98 77,95 64,97 56,102 51,110 51,118 58,127 74,129 87,121 91,110 83,100 76,98 75,101" stroke="rgb(0%,0%,0%)" stroke-width="2" /><polyline fill="none" points="202,98 186,97 172,100 164,106 158,115 160,127 164,130 184,136 207,129 214,122 214,115 199,103 174,100" stroke="rgb(0%,0%,0%)" stroke-width="2" /><polyline fill="none" points="0,98 123,98 201,91 236,96 235,59 227,15 219,6 192,1 140,0 102,4 19,19 11,63 11,104" stroke="rgb(0%,0%,0%)" stroke-width="2" /><polyline fill="none" points="226,9 212,10 200,15 209,37 215,66 219,69 255,64" stroke="rgb(0%,0%,0%)" stroke-width="2" /><polyline fill="none" points="38,34 41,55 45,58 79,54 81,47 79,32 69,21 54,19 38,28" stroke="rgb(0%,0%,0%)" stroke-width="2" /><polyline fill="none" points="103,24 107,49 112,50 127,44 151,44 146,31 137,21 107,21" stroke="rgb(0%,0%,0%)" stroke-width="2" /><polyline fill="none" points="165,23 168,40 173,48 194,41" stroke="rgb(0%,0%,0%)" stroke-width="2" /></svg>