<?xml version="1.0" encoding="utf-8" ?>
<svg baseProfile="full" height="256" version="1.1" width="256" xmlns="http://www.w3.org/2000/svg" xmlns:ev="http://www.w3.org/2001/xml-events" xmlns:xlink="http://www.w3.org/1999/xlink"><defs /><polyline fill="none" points="143,178 136,183 101,185 53,172 59,168 91,168 76,172 48,171 25,160 13,147 13,130 25,123 37,122 30,129 19,130 9,131 2,125 0,108 7,93 40,49 64,28 89,22 104,22 107,31 106,45 93,56 85,58 103,44 143,27 165,26 162,33 142,37 124,35 129,26 191,5 216,0 229,1 233,8 233,36 216,71 207,74 198,47 198,30 200,22 206,16 227,13 236,16 249,33 251,67 246,82 229,85 220,80 215,71 216,62 230,60 245,60 253,65 255,86 253,104 239,134 229,140 214,138 201,123 211,121 219,121 223,131 221,147 214,151 193,157 157,159 144,170 120,171 112,163" stroke="rgb(0%,0%,0%)" stroke-width="2" /></svg>