<?xml version="1.0" encoding="utf-8" ?>
<svg baseProfile="full" height="256" version="1.1" width="256" xmlns="http://www.w3.org/2000/svg" xmlns:ev="http://www.w3.org/2001/xml-events" xmlns:xlink="http://www.w3.org/1999/xlink"><defs /><polyline fill="none" points="187,2 173,0 85,2 56,55 14,59 7,66 0,82 0,89 9,92 23,92 42,85 68,85 183,95 216,104 248,105 255,96 254,83 247,77 219,70 207,63 186,5" stroke="rgb(0%,0%,0%)" stroke-width="2" /><polyline fill="none" points="65,82 54,91 52,106 57,121 67,130 79,131 86,119 88,100 79,91" stroke="rgb(0%,0%,0%)" stroke-width="2" /><polyline fill="none" points="191,98 186,103 185,109 185,116 188,121" stroke="rgb(0%,0%,0%)" stroke-width="2" /></svg>