<?xml version="1.0" encoding="utf-8" ?>
<svg baseProfile="full" height="256" version="1.1" width="256" xmlns="http://www.w3.org/2000/svg" xmlns:ev="http://www.w3.org/2001/xml-events" xmlns:xlink="http://www.w3.org/1999/xlink"><defs /><polyline fill="none" points="1,22 8,83 11,205 15,233 21,252 34,255 88,244 155,244 185,238 171,113 167,1 17,10 5,13" stroke="rgb(0%,0%,0%)" stroke-width="2" /><polyline fill="none" points="37,51 38,199 47,200 83,189 146,181 147,176 134,95 130,35 117,34 79,46 27,54" stroke="rgb(0%,0%,0%)" stroke-width="2" /><polyline fill="none" points="85,218 90,215 94,217 82,219 81,214 98,211" stroke="rgb(0%,0%,0%)" stroke-width="2" /></svg>