<?xml version="1.0" encoding="utf-8" ?>
<svg baseProfile="full" height="256" version="1.1" width="256" xmlns="http://www.w3.org/2000/svg" xmlns:ev="http://www.w3.org/2001/xml-events" xmlns:xlink="http://www.w3.org/1999/xlink"><defs /><polyline fill="none" points="109,7 93,0 82,3 58,21 25,58 1,102 3,149 26,193 62,222 95,232 140,228 172,213 183,205 197,189 207,170 214,145 212,82 206,65 195,49 171,21 156,10 125,3 95,11" stroke="rgb(0%,0%,0%)" stroke-width="2" /><polyline fill="none" points="126,51 74,129 77,141 99,163 141,192" stroke="rgb(0%,0%,0%)" stroke-width="2" /><polyline fill="none" points="35,226 22,234 7,253 8,255" stroke="rgb(0%,0%,0%)" stroke-width="2" /><polyline fill="none" points="209,213 234,238" stroke="rgb(0%,0%,0%)" stroke-width="2" /></svg>