<?xml version="1.0" encoding="utf-8" ?>
<svg baseProfile="full" height="256" version="1.1" width="256" xmlns="http://www.w3.org/2000/svg" xmlns:ev="http://www.w3.org/2001/xml-events" xmlns:xlink="http://www.w3.org/1999/xlink"><defs /><polyline fill="none" points="93,0 65,0 36,26 29,36 8,83 2,110 0,158 5,184 26,218 60,242 95,255 122,247 142,233 157,211 168,176 168,144 153,110 119,16 114,6 97,0" stroke="rgb(0%,0%,0%)" stroke-width="2" /><polyline fill="none" points="100,39 100,39" stroke="rgb(0%,0%,0%)" stroke-width="2" /><polyline fill="none" points="116,83 116,90" stroke="rgb(0%,0%,0%)" stroke-width="2" /><polyline fill="none" points="127,139 127,139" stroke="rgb(0%,0%,0%)" stroke-width="2" /><polyline fill="none" points="125,155 125,155" stroke="rgb(0%,0%,0%)" stroke-width="2" /><polyline fill="none" points="63,124 80,119 96,107 88,102 73,100 99,102 102,109 97,117 97,133" stroke="rgb(0%,0%,0%)" stroke-width="2" /><polyline fill="none" points="60,124 60,131 52,131 51,124 57,116 77,114 83,125 83,131 74,134 67,132 62,124 69,131 67,139 60,139 57,132 60,127" stroke="rgb(0%,0%,0%)" stroke-width="2" /></svg>