<?xml version="1.0" encoding="utf-8" ?>
<svg baseProfile="full" height="256" version="1.1" width="256" xmlns="http://www.w3.org/2000/svg" xmlns:ev="http://www.w3.org/2001/xml-events" xmlns:xlink="http://www.w3.org/1999/xlink"><defs /><polyline fill="none" points="57,25 85,25 135,32 143,34 160,53 174,63 198,63 204,79 199,91 193,94 145,100 92,93 86,98 83,112 79,111 58,99 50,77 44,37 46,23 50,18" stroke="rgb(0%,0%,0%)" stroke-width="2" /><polyline fill="none" points="59,31 45,0 31,2 3,16 0,34 6,39 43,49" stroke="rgb(0%,0%,0%)" stroke-width="2" /><polyline fill="none" points="73,104 73,124 76,132 85,117 88,101" stroke="rgb(0%,0%,0%)" stroke-width="2" /><polyline fill="none" points="107,93 102,144 105,145 109,136 119,103" stroke="rgb(0%,0%,0%)" stroke-width="2" /><polyline fill="none" points="202,75 218,55 236,55 249,72 255,84 253,111 247,124" stroke="rgb(0%,0%,0%)" stroke-width="2" /><polyline fill="none" points="144,97 146,137 149,138 162,110 166,89" stroke="rgb(0%,0%,0%)" stroke-width="2" /><polyline fill="none" points="173,98 172,125 183,158 195,138 197,125 199,112 194,95" stroke="rgb(0%,0%,0%)" stroke-width="2" /><polyline fill="none" points="172,69 167,77 170,79 199,79 155,74 159,71 184,71 182,73 158,73 191,76" stroke="rgb(0%,0%,0%)" stroke-width="2" /></svg>