<?xml version="1.0" encoding="utf-8" ?>
<svg baseProfile="full" height="256" version="1.1" width="256" xmlns="http://www.w3.org/2000/svg" xmlns:ev="http://www.w3.org/2001/xml-events" xmlns:xlink="http://www.w3.org/1999/xlink"><defs /><polyline fill="none" points="244,30 220,30 136,17 117,17" stroke="rgb(0%,0%,0%)" stroke-width="2" /><polyline fill="none" points="245,38 233,42 120,51" stroke="rgb(0%,0%,0%)" stroke-width="2" /><polyline fill="none" points="123,15 120,19 120,28 126,51 122,39" stroke="rgb(0%,0%,0%)" stroke-width="2" /><polyline fill="none" points="123,14 71,16 56,20" stroke="rgb(0%,0%,0%)" stroke-width="2" /><polyline fill="none" points="120,53 48,47" stroke="rgb(0%,0%,0%)" stroke-width="2" /><polyline fill="none" points="55,22 44,24 0,0" stroke="rgb(0%,0%,0%)" stroke-width="2" /><polyline fill="none" points="49,51 40,52 6,71" stroke="rgb(0%,0%,0%)" stroke-width="2" /><polyline fill="none" points="48,22 48,17 54,20 60,18 63,13 69,17" stroke="rgb(0%,0%,0%)" stroke-width="2" /><polyline fill="none" points="68,15 69,45" stroke="rgb(0%,0%,0%)" stroke-width="2" /><polyline fill="none" points="211,29 221,22" stroke="rgb(0%,0%,0%)" stroke-width="2" /><polyline fill="none" points="238,23 247,19" stroke="rgb(0%,0%,0%)" stroke-width="2" /><polyline fill="none" points="242,30 250,30 255,37" stroke="rgb(0%,0%,0%)" stroke-width="2" /><polyline fill="none" points="241,36 254,39" stroke="rgb(0%,0%,0%)" stroke-width="2" /><polyline fill="none" points="231,43 215,58 211,58 207,53" stroke="rgb(0%,0%,0%)" stroke-width="2" /><polyline fill="none" points="192,41 176,43" stroke="rgb(0%,0%,0%)" stroke-width="2" /><polyline fill="none" points="15,23 13,27 23,42 35,21" stroke="rgb(0%,0%,0%)" stroke-width="2" /><polyline fill="none" points="21,30 19,25 24,12" stroke="rgb(0%,0%,0%)" stroke-width="2" /></svg>