<?xml version="1.0" encoding="utf-8" ?>
<svg baseProfile="full" height="256" version="1.1" width="256" xmlns="http://www.w3.org/2000/svg" xmlns:ev="http://www.w3.org/2001/xml-events" xmlns:xlink="http://www.w3.org/1999/xlink"><defs /><polyline fill="none" points="26,2 13,94 10,175 0,255" stroke="rgb(0%,0%,0%)" stroke-width="2" /><polyline fill="none" points="36,0 130,13 205,38 208,41 209,49 196,77 179,147 173,193 173,233 170,237 158,243 98,237 32,243 19,240 15,236" stroke="rgb(0%,0%,0%)" stroke-width="2" /><polyline fill="none" points="41,43 46,52 57,54 71,47 73,40 71,32 59,27 54,33" stroke="rgb(0%,0%,0%)" stroke-width="2" /><polyline fill="none" points="99,39 89,47 88,54 99,59 115,56 124,42 124,33 121,29 107,25 100,30" stroke="rgb(0%,0%,0%)" stroke-width="2" /><polyline fill="none" points="142,34 138,52 144,59 159,54 162,49 164,41 150,37" stroke="rgb(0%,0%,0%)" stroke-width="2" /></svg>