<?xml version="1.0" encoding="utf-8" ?>
<svg baseProfile="full" height="256" version="1.1" width="256" xmlns="http://www.w3.org/2000/svg" xmlns:ev="http://www.w3.org/2001/xml-events" xmlns:xlink="http://www.w3.org/1999/xlink"><defs /><polyline fill="none" points="191,17 159,0 127,0 115,5 87,22 22,81 11,98 0,124 0,163 11,185 22,196 33,201 55,218 126,218 175,217 185,213 196,213 228,196 240,185 250,163 250,148 255,136 255,72 246,50 235,50 228,39 217,39 196,22 185,22 174,17 148,17" stroke="rgb(0%,0%,0%)" stroke-width="2" /><polyline fill="none" points="120,59 115,70 93,81 76,102 72,114 72,146 92,157 103,168 114,168 125,174 174,174 185,170 207,148 228,98 229,76 224,65 203,55 191,44 170,44 158,39 148,39 98,59 93,76" stroke="rgb(0%,0%,0%)" stroke-width="2" /></svg>