<?xml version="1.0" encoding="utf-8" ?>
<svg baseProfile="full" height="256" version="1.1" width="256" xmlns="http://www.w3.org/2000/svg" xmlns:ev="http://www.w3.org/2001/xml-events" xmlns:xlink="http://www.w3.org/1999/xlink"><defs /><polyline fill="none" points="136,36 119,39 71,31 53,41 9,39 0,45 21,50 64,48 67,49 65,58 75,62 87,60 75,54 79,51 92,52 92,59 98,61 116,57 112,54 101,54 111,50 127,50 129,59 134,57 135,52 142,58 144,54 139,46" stroke="rgb(0%,0%,0%)" stroke-width="2" /><polyline fill="none" points="136,35 137,20 146,12 163,13 171,19 174,28 172,34 143,44" stroke="rgb(0%,0%,0%)" stroke-width="2" /><polyline fill="none" points="175,27 188,20 201,6 198,18 220,12 224,18 251,16 255,21 250,26 227,30 235,39 231,42 208,44 198,37 188,38 192,43 174,38" stroke="rgb(0%,0%,0%)" stroke-width="2" /><polyline fill="none" points="140,16 137,6 141,0 152,13" stroke="rgb(0%,0%,0%)" stroke-width="2" /></svg>