<?xml version="1.0" encoding="utf-8" ?>
<svg baseProfile="full" height="256" version="1.1" width="256" xmlns="http://www.w3.org/2000/svg" xmlns:ev="http://www.w3.org/2001/xml-events" xmlns:xlink="http://www.w3.org/1999/xlink"><defs /><polyline fill="none" points="161,31 135,7 109,1 87,0 62,13 34,47 3,97 0,121 6,135 26,155 78,174 168,190 189,200 215,207 255,209" stroke="rgb(0%,0%,0%)" stroke-width="2" /><polyline fill="none" points="149,45 129,45 120,41 102,44 86,62 84,76 99,89 158,117 178,123 196,142 217,148" stroke="rgb(0%,0%,0%)" stroke-width="2" /><polyline fill="none" points="160,65 159,72 164,83 168,87" stroke="rgb(0%,0%,0%)" stroke-width="2" /></svg>