<?xml version="1.0" encoding="utf-8" ?>
<svg baseProfile="full" height="256" version="1.1" width="256" xmlns="http://www.w3.org/2000/svg" xmlns:ev="http://www.w3.org/2001/xml-events" xmlns:xlink="http://www.w3.org/1999/xlink"><defs /><polyline fill="none" points="1,12 17,23 40,28 62,22 87,7" stroke="rgb(0%,0%,0%)" stroke-width="2" /><polyline fill="none" points="0,13 3,38 17,67 34,81 50,84 66,74 75,59 79,34 78,4" stroke="rgb(0%,0%,0%)" stroke-width="2" /><polyline fill="none" points="71,38 151,41 179,39" stroke="rgb(0%,0%,0%)" stroke-width="2" /><polyline fill="none" points="186,11 201,16 221,14 237,10 248,0" stroke="rgb(0%,0%,0%)" stroke-width="2" /><polyline fill="none" points="187,10 179,37 180,58 196,76 219,77 238,71 251,54 254,29 249,0" stroke="rgb(0%,0%,0%)" stroke-width="2" /><polyline fill="none" points="196,38 223,32" stroke="rgb(0%,0%,0%)" stroke-width="2" /><polyline fill="none" points="196,37 203,49 213,58 224,44 224,26" stroke="rgb(0%,0%,0%)" stroke-width="2" /><polyline fill="none" points="11,38 52,38" stroke="rgb(0%,0%,0%)" stroke-width="2" /><polyline fill="none" points="15,40 32,54 54,58 62,48 62,41" stroke="rgb(0%,0%,0%)" stroke-width="2" /><polyline fill="none" points="58,41 42,41" stroke="rgb(0%,0%,0%)" stroke-width="2" /><polyline fill="none" points="210,44 213,44" stroke="rgb(0%,0%,0%)" stroke-width="2" /></svg>