<?xml version="1.0" encoding="utf-8" ?>
<svg baseProfile="full" height="256" version="1.1" width="256" xmlns="http://www.w3.org/2000/svg" xmlns:ev="http://www.w3.org/2001/xml-events" xmlns:xlink="http://www.w3.org/1999/xlink"><defs /><polyline fill="none" points="54,69 47,57 26,39 15,39 4,47 0,73 2,94 15,99 26,98 43,78 47,64 47,51" stroke="rgb(0%,0%,0%)" stroke-width="2" /><polyline fill="none" points="114,47 114,70 118,83 129,90 141,84 150,62 152,28 142,22 131,21 120,28 118,43" stroke="rgb(0%,0%,0%)" stroke-width="2" /><polyline fill="none" points="47,66 81,56 107,56" stroke="rgb(0%,0%,0%)" stroke-width="2" /><polyline fill="none" points="116,56 116,56" stroke="rgb(0%,0%,0%)" stroke-width="2" /><polyline fill="none" points="159,49 186,35 202,21 255,0" stroke="rgb(0%,0%,0%)" stroke-width="2" /></svg>