<?xml version="1.0" encoding="utf-8" ?>
<svg baseProfile="full" height="256" version="1.1" width="256" xmlns="http://www.w3.org/2000/svg" xmlns:ev="http://www.w3.org/2001/xml-events" xmlns:xlink="http://www.w3.org/1999/xlink"><defs /><polyline fill="none" points="138,53 125,47 112,47 98,52 85,63 77,75 74,94 78,106 86,112 107,118 124,119 139,108 145,96 147,73 144,63 133,51" stroke="rgb(0%,0%,0%)" stroke-width="2" /><polyline fill="none" points="101,59 100,69" stroke="rgb(0%,0%,0%)" stroke-width="2" /><polyline fill="none" points="108,62 113,59 110,71" stroke="rgb(0%,0%,0%)" stroke-width="2" /><polyline fill="none" points="103,83 102,92" stroke="rgb(0%,0%,0%)" stroke-width="2" /><polyline fill="none" points="88,96 91,102 103,103 112,98 116,87" stroke="rgb(0%,0%,0%)" stroke-width="2" /><polyline fill="none" points="94,54 94,39" stroke="rgb(0%,0%,0%)" stroke-width="2" /><polyline fill="none" points="101,48 104,35" stroke="rgb(0%,0%,0%)" stroke-width="2" /><polyline fill="none" points="111,49 118,37" stroke="rgb(0%,0%,0%)" stroke-width="2" /><polyline fill="none" points="119,46 140,36" stroke="rgb(0%,0%,0%)" stroke-width="2" /><polyline fill="none" points="137,53 146,46" stroke="rgb(0%,0%,0%)" stroke-width="2" /><polyline fill="none" points="137,75 159,64" stroke="rgb(0%,0%,0%)" stroke-width="2" /><polyline fill="none" points="97,115 97,138" stroke="rgb(0%,0%,0%)" stroke-width="2" /><polyline fill="none" points="97,131 92,122" stroke="rgb(0%,0%,0%)" stroke-width="2" /><polyline fill="none" points="101,129 109,125" stroke="rgb(0%,0%,0%)" stroke-width="2" /><polyline fill="none" points="97,137 88,144" stroke="rgb(0%,0%,0%)" stroke-width="2" /><polyline fill="none" points="94,141 109,146" stroke="rgb(0%,0%,0%)" stroke-width="2" /><polyline fill="none" points="175,32 165,20 148,17 25,50 0,61 0,154 81,154 194,109 232,90 248,74 255,59 254,41 243,26 198,11 138,4 113,4 90,9 64,20 40,36 20,56 11,69 1,94 0,139 4,154 112,154 139,151 163,141 174,133 189,118 200,100 209,70 214,41 214,13 206,1 161,3 78,33 28,63 6,87 0,100 0,149 4,154 99,154 129,146 158,133 172,123 208,85 227,39 230,12 228,0 202,0 180,9 166,19 133,47 75,103 40,148 27,154 11,154 115,154" stroke="rgb(0%,0%,0%)" stroke-width="2" /></svg>