<?xml version="1.0" encoding="utf-8" ?>
<svg baseProfile="full" height="256" version="1.1" width="256" xmlns="http://www.w3.org/2000/svg" xmlns:ev="http://www.w3.org/2001/xml-events" xmlns:xlink="http://www.w3.org/1999/xlink"><defs /><polyline fill="none" points="91,121 89,130" stroke="rgb(0%,0%,0%)" stroke-width="2" /><polyline fill="none" points="86,138 90,74 90,57 86,49 35,44 20,54 1,77 0,72 16,39 36,23 68,22 89,28 100,4 114,0 122,1 139,27 146,56 143,79 128,121 130,136 136,140 184,139 219,152 242,173 253,198 254,216 243,220 198,226 147,244 102,241 88,231 83,214 89,135" stroke="rgb(0%,0%,0%)" stroke-width="2" /></svg>