<?xml version="1.0" encoding="utf-8" ?>
<svg baseProfile="full" height="256" version="1.1" width="256" xmlns="http://www.w3.org/2000/svg" xmlns:ev="http://www.w3.org/2001/xml-events" xmlns:xlink="http://www.w3.org/1999/xlink"><defs /><polyline fill="none" points="85,119 84,155 70,253" stroke="rgb(0%,0%,0%)" stroke-width="2" /><polyline fill="none" points="84,118 80,115 46,122 26,122 4,112 0,100 4,91 47,88 33,87 28,77 26,60 34,48 42,42 50,42 52,53 61,34 72,20 84,8 100,0 100,10 89,30 95,31 125,15 128,19 112,38 149,35 155,37 157,41 150,49 132,56 143,51 166,50 178,56 179,62 167,69 146,73 153,73 166,82 171,99 170,104 157,112 139,113 137,109 145,107 149,113 149,135 144,147 132,152 119,150 106,127 87,129 76,127" stroke="rgb(0%,0%,0%)" stroke-width="2" /><polyline fill="none" points="100,57 91,53" stroke="rgb(0%,0%,0%)" stroke-width="2" /></svg>