<?xml version="1.0" encoding="utf-8" ?>
<svg baseProfile="full" height="256" version="1.1" width="256" xmlns="http://www.w3.org/2000/svg" xmlns:ev="http://www.w3.org/2001/xml-events" xmlns:xlink="http://www.w3.org/1999/xlink"><defs /><polyline fill="none" points="31,84 48,33 70,8 89,1 105,1 116,8 125,30 124,71 71,90 52,90 33,81" stroke="rgb(0%,0%,0%)" stroke-width="2" /><polyline fill="none" points="124,66 230,76 209,97 176,115 114,120 48,114 30,108 3,91 0,85 4,83 25,86" stroke="rgb(0%,0%,0%)" stroke-width="2" /><polyline fill="none" points="3,94 28,126 52,146 85,161 106,165 129,165 184,157 208,150 234,136 253,106 255,98 216,73" stroke="rgb(0%,0%,0%)" stroke-width="2" /></svg>