<?xml version="1.0" encoding="utf-8" ?>
<svg baseProfile="full" height="256" version="1.1" width="256" xmlns="http://www.w3.org/2000/svg" xmlns:ev="http://www.w3.org/2001/xml-events" xmlns:xlink="http://www.w3.org/1999/xlink"><defs /><polyline fill="none" points="122,17 201,13 224,19 236,35 245,60 249,87 248,111" stroke="rgb(0%,0%,0%)" stroke-width="2" /><polyline fill="none" points="252,109 224,81 209,75 198,76 193,77 190,84 197,111 195,117 172,120 134,130 186,131 255,115" stroke="rgb(0%,0%,0%)" stroke-width="2" /><polyline fill="none" points="93,0 75,33 76,45 96,54 109,50 116,39 117,29 115,21 106,10" stroke="rgb(0%,0%,0%)" stroke-width="2" /><polyline fill="none" points="60,8 55,7 48,12 41,25 43,35 50,42 62,44 66,40 74,18" stroke="rgb(0%,0%,0%)" stroke-width="2" /><polyline fill="none" points="49,56 36,53 6,64 0,67 2,72 9,77 50,86 100,87" stroke="rgb(0%,0%,0%)" stroke-width="2" /><polyline fill="none" points="20,86 23,91 32,97 47,100 115,96" stroke="rgb(0%,0%,0%)" stroke-width="2" /><polyline fill="none" points="132,81 121,106 82,143 74,155 80,159 93,157 122,124 143,93" stroke="rgb(0%,0%,0%)" stroke-width="2" /><polyline fill="none" points="68,101 51,109 34,123 30,128 33,133 54,136 105,121" stroke="rgb(0%,0%,0%)" stroke-width="2" /><polyline fill="none" points="100,29 100,29" stroke="rgb(0%,0%,0%)" stroke-width="2" /></svg>