<?xml version="1.0" encoding="utf-8" ?>
<svg baseProfile="full" height="256" version="1.1" width="256" xmlns="http://www.w3.org/2000/svg" xmlns:ev="http://www.w3.org/2001/xml-events" xmlns:xlink="http://www.w3.org/1999/xlink"><defs /><polyline fill="none" points="16,252 16,252" stroke="rgb(0%,0%,0%)" stroke-width="2" /><polyline fill="none" points="43,156 91,160 109,166 128,163 142,166 163,166" stroke="rgb(0%,0%,0%)" stroke-width="2" /><polyline fill="none" points="53,161 51,175 53,190 65,207 91,217 116,215 133,232 161,233 160,214 152,178 155,161" stroke="rgb(0%,0%,0%)" stroke-width="2" /><polyline fill="none" points="65,199 63,212 65,216 72,218 104,200 108,234 137,227 155,231 168,219 168,203" stroke="rgb(0%,0%,0%)" stroke-width="2" /><polyline fill="none" points="46,148 77,140 78,150 84,152 92,146 102,157 113,154 122,158 139,150 149,156 162,153 160,157" stroke="rgb(0%,0%,0%)" stroke-width="2" /><polyline fill="none" points="75,64 51,82 47,97 47,106 55,113 74,112 88,104 89,99 76,42" stroke="rgb(0%,0%,0%)" stroke-width="2" /><polyline fill="none" points="130,71 114,76 103,90 100,102 105,111 126,114 135,111 140,106 144,82 142,77 134,72" stroke="rgb(0%,0%,0%)" stroke-width="2" /><polyline fill="none" points="170,54 142,48 108,49 58,59 42,68 19,81 12,89 3,108 0,149 4,172 20,195 49,228 76,247 117,255 150,255 205,249 232,252 236,246 238,235 235,171 218,24 209,1 204,0 190,7 169,29" stroke="rgb(0%,0%,0%)" stroke-width="2" /></svg>