<?xml version="1.0" encoding="utf-8" ?>
<svg baseProfile="full" height="256" version="1.1" width="256" xmlns="http://www.w3.org/2000/svg" xmlns:ev="http://www.w3.org/2001/xml-events" xmlns:xlink="http://www.w3.org/1999/xlink"><defs /><polyline fill="none" points="17,86 64,9 82,82 87,87 121,58 162,14 162,65 165,79 171,75 192,36 208,22 217,75 227,92 232,90 252,48 252,92 255,102 252,93 244,86 227,78 202,73 115,63 109,60 110,56 78,125 110,69 117,49 60,111 62,51 37,94 64,53 70,36 21,87 42,23 5,74 0,86 49,0 28,51 26,66 35,62 83,2 81,51 83,37" stroke="rgb(0%,0%,0%)" stroke-width="2" /></svg>