<?xml version="1.0" encoding="utf-8" ?>
<svg baseProfile="full" height="256" version="1.1" width="256" xmlns="http://www.w3.org/2000/svg" xmlns:ev="http://www.w3.org/2001/xml-events" xmlns:xlink="http://www.w3.org/1999/xlink"><defs /><polyline fill="none" points="13,2 13,86 2,173 0,235 15,243 42,247 90,247 131,238 145,229 160,213 168,193 168,168 157,93 152,77 143,64 78,13 44,1 11,1" stroke="rgb(0%,0%,0%)" stroke-width="2" /><polyline fill="none" points="22,0 29,73 34,253" stroke="rgb(0%,0%,0%)" stroke-width="2" /><polyline fill="none" points="87,9 98,221" stroke="rgb(0%,0%,0%)" stroke-width="2" /><polyline fill="none" points="99,233 99,234" stroke="rgb(0%,0%,0%)" stroke-width="2" /><polyline fill="none" points="97,216 98,244" stroke="rgb(0%,0%,0%)" stroke-width="2" /><polyline fill="none" points="56,11 58,18" stroke="rgb(0%,0%,0%)" stroke-width="2" /></svg>