<?xml version="1.0" encoding="utf-8" ?>
<svg baseProfile="full" height="256" version="1.1" width="256" xmlns="http://www.w3.org/2000/svg" xmlns:ev="http://www.w3.org/2001/xml-events" xmlns:xlink="http://www.w3.org/1999/xlink"><defs /><polyline fill="none" points="9,143 12,120 21,86 46,41 61,26 85,12 104,5 130,0 148,0 168,10 190,30 205,55 211,74 219,130 211,135 206,154 206,179 213,204 227,215 240,214 254,196 255,175 245,148 236,135 223,127 211,127" stroke="rgb(0%,0%,0%)" stroke-width="2" /><polyline fill="none" points="12,143 6,147 1,164 0,183 5,196 19,207 29,208 34,171" stroke="rgb(0%,0%,0%)" stroke-width="2" /></svg>