<?xml version="1.0" encoding="utf-8" ?>
<svg baseProfile="full" height="256" version="1.1" width="256" xmlns="http://www.w3.org/2000/svg" xmlns:ev="http://www.w3.org/2001/xml-events" xmlns:xlink="http://www.w3.org/1999/xlink"><defs /><polyline fill="none" points="136,14 88,22 0,24" stroke="rgb(0%,0%,0%)" stroke-width="2" /><polyline fill="none" points="127,18 98,29 22,39" stroke="rgb(0%,0%,0%)" stroke-width="2" /><polyline fill="none" points="102,11 49,0" stroke="rgb(0%,0%,0%)" stroke-width="2" /><polyline fill="none" points="131,9 254,7 238,12" stroke="rgb(0%,0%,0%)" stroke-width="2" /><polyline fill="none" points="134,19 164,20 186,25" stroke="rgb(0%,0%,0%)" stroke-width="2" /><polyline fill="none" points="106,18 107,42" stroke="rgb(0%,0%,0%)" stroke-width="2" /><polyline fill="none" points="105,51 34,51 25,54 21,61 22,88 29,99 65,127 99,137 130,140 146,131 170,102 173,93 173,76 167,60 155,50 109,41 97,42 89,49" stroke="rgb(0%,0%,0%)" stroke-width="2" /><polyline fill="none" points="50,51 37,109 139,121 225,124 218,120 198,116 144,108 131,108 129,103 148,36 142,41" stroke="rgb(0%,0%,0%)" stroke-width="2" /></svg>