<?xml version="1.0" encoding="utf-8" ?>
<svg baseProfile="full" height="256" version="1.1" width="256" xmlns="http://www.w3.org/2000/svg" xmlns:ev="http://www.w3.org/2001/xml-events" xmlns:xlink="http://www.w3.org/1999/xlink"><defs /><polyline fill="none" points="49,9 70,0 85,3 92,10 110,46 130,60 173,63 218,56 235,64 240,77" stroke="rgb(0%,0%,0%)" stroke-width="2" /><polyline fill="none" points="70,79 78,105 89,113 106,118 159,117 185,114 225,108 238,101" stroke="rgb(0%,0%,0%)" stroke-width="2" /><polyline fill="none" points="226,63 238,56 252,80 255,91 253,124" stroke="rgb(0%,0%,0%)" stroke-width="2" /><polyline fill="none" points="228,66 236,81 242,106 239,156" stroke="rgb(0%,0%,0%)" stroke-width="2" /><polyline fill="none" points="229,87 235,119" stroke="rgb(0%,0%,0%)" stroke-width="2" /><polyline fill="none" points="190,107 182,194" stroke="rgb(0%,0%,0%)" stroke-width="2" /><polyline fill="none" points="201,116 207,198" stroke="rgb(0%,0%,0%)" stroke-width="2" /><polyline fill="none" points="107,118 87,167 84,192" stroke="rgb(0%,0%,0%)" stroke-width="2" /><polyline fill="none" points="123,120 130,144 133,196" stroke="rgb(0%,0%,0%)" stroke-width="2" /><polyline fill="none" points="68,17 27,33 2,57 1,68 8,73 18,73 78,53" stroke="rgb(0%,0%,0%)" stroke-width="2" /><polyline fill="none" points="54,44 54,44" stroke="rgb(0%,0%,0%)" stroke-width="2" /></svg>