<?xml version="1.0" encoding="utf-8" ?>
<svg baseProfile="full" height="256" version="1.1" width="256" xmlns="http://www.w3.org/2000/svg" xmlns:ev="http://www.w3.org/2001/xml-events" xmlns:xlink="http://www.w3.org/1999/xlink"><defs /><polyline fill="none" points="23,47 10,61 4,73 1,138 6,142 58,158 118,164 156,156 205,153 246,144 251,137 251,82 246,58 242,50 233,46 59,29 24,34 23,39" stroke="rgb(0%,0%,0%)" stroke-width="2" /><polyline fill="none" points="24,40 14,58 12,76 16,80 28,83 107,82 192,72 220,59 224,50" stroke="rgb(0%,0%,0%)" stroke-width="2" /><polyline fill="none" points="225,46 225,37 216,21 207,15 196,23 191,15 193,6 208,0 218,4 231,15 237,46" stroke="rgb(0%,0%,0%)" stroke-width="2" /><polyline fill="none" points="209,38 206,30 211,29 215,33 215,40" stroke="rgb(0%,0%,0%)" stroke-width="2" /><polyline fill="none" points="232,45 246,38 252,42 255,51 246,55 234,55 235,47" stroke="rgb(0%,0%,0%)" stroke-width="2" /></svg>