<?xml version="1.0" encoding="utf-8" ?>
<svg baseProfile="full" height="256" version="1.1" width="256" xmlns="http://www.w3.org/2000/svg" xmlns:ev="http://www.w3.org/2001/xml-events" xmlns:xlink="http://www.w3.org/1999/xlink"><defs /><polyline fill="none" points="205,155 190,157 189,152 196,147 211,143 227,144 228,146 220,149 193,150 177,147 175,143 197,132 227,128 228,132 220,135 194,136 173,133 168,127 181,118 204,110 220,108 232,111 235,117 231,126 213,132 177,132 160,127 160,123 210,102 227,99 223,105 215,109 185,115 154,109 145,99 151,91 170,81 201,79 219,85 219,89 214,93 175,94 154,86 150,78 165,66 188,57 219,53 233,58 231,63 216,69 181,72 150,64 134,51 144,41 178,32 207,32 232,39 231,43 222,46 187,50 145,47 135,45 128,40 135,32 151,24 183,17 222,20 238,25 253,35 254,48 246,55 231,59 210,58 175,50 130,34 107,22 100,12 122,3 179,0 222,5 246,14 246,20 231,25 162,30 131,29 120,24 115,19" stroke="rgb(0%,0%,0%)" stroke-width="2" /><polyline fill="none" points="232,169 248,157 254,147 221,169 216,157 198,170 188,160 173,167 159,157 148,165 133,159 120,168 109,162 102,165 90,161 78,167 60,147 50,157 38,154 24,161 10,157 0,167" stroke="rgb(0%,0%,0%)" stroke-width="2" /></svg>