<?xml version="1.0" encoding="utf-8" ?>
<svg baseProfile="full" height="256" version="1.1" width="256" xmlns="http://www.w3.org/2000/svg" xmlns:ev="http://www.w3.org/2001/xml-events" xmlns:xlink="http://www.w3.org/1999/xlink"><defs /><polyline fill="none" points="4,202 0,98 2,24" stroke="rgb(0%,0%,0%)" stroke-width="2" /><polyline fill="none" points="1,24 12,27 10,55 25,57 23,75 37,79 40,83 37,103 22,107 28,123 28,163 72,175 79,181 76,200 37,214 25,213 5,201" stroke="rgb(0%,0%,0%)" stroke-width="2" /><polyline fill="none" points="4,198 8,223 16,246 33,255 49,249 64,236 77,207 77,187" stroke="rgb(0%,0%,0%)" stroke-width="2" /><polyline fill="none" points="166,71 155,42 155,24 171,1 184,0 193,3 202,34 202,43 193,58 202,103 202,129 179,132 164,123 160,115 163,78" stroke="rgb(0%,0%,0%)" stroke-width="2" /></svg>