<?xml version="1.0" encoding="utf-8" ?>
<svg baseProfile="full" height="256" version="1.1" width="256" xmlns="http://www.w3.org/2000/svg" xmlns:ev="http://www.w3.org/2001/xml-events" xmlns:xlink="http://www.w3.org/1999/xlink"><defs /><polyline fill="none" points="31,91 25,111 1,141 71,157 159,170 166,167 211,115 209,111 179,100 108,79 59,76 37,82 34,87" stroke="rgb(0%,0%,0%)" stroke-width="2" /><polyline fill="none" points="44,77 55,55 60,28 61,4 71,0 131,2 209,23 255,28 253,35 221,87 219,102 214,108" stroke="rgb(0%,0%,0%)" stroke-width="2" /><polyline fill="none" points="46,89 56,85 63,85 62,89" stroke="rgb(0%,0%,0%)" stroke-width="2" /></svg>