<?xml version="1.0" encoding="utf-8" ?>
<svg baseProfile="full" height="256" version="1.1" width="256" xmlns="http://www.w3.org/2000/svg" xmlns:ev="http://www.w3.org/2001/xml-events" xmlns:xlink="http://www.w3.org/1999/xlink"><defs /><polyline fill="none" points="108,197 105,252 133,255 169,244 159,191 155,187 130,196 107,191" stroke="rgb(0%,0%,0%)" stroke-width="2" /><polyline fill="none" points="108,190 99,191 67,183 45,174 23,158 2,127 0,104 1,86 13,56 30,32 47,18 65,9 106,0 153,7 184,22 222,56 235,77 245,101 247,130 244,141 232,156 197,180 161,187" stroke="rgb(0%,0%,0%)" stroke-width="2" /></svg>