<?xml version="1.0" encoding="utf-8" ?>
<svg baseProfile="full" height="256" version="1.1" width="256" xmlns="http://www.w3.org/2000/svg" xmlns:ev="http://www.w3.org/2001/xml-events" xmlns:xlink="http://www.w3.org/1999/xlink"><defs /><polyline fill="none" points="22,185 45,185 56,182 59,172 53,170 36,170 25,174 23,184 29,185" stroke="rgb(0%,0%,0%)" stroke-width="2" /><polyline fill="none" points="30,171 19,105 4,42 0,4 37,15 46,22 52,95 52,160" stroke="rgb(0%,0%,0%)" stroke-width="2" /><polyline fill="none" points="45,21 55,13 62,14 62,29 54,32 50,29" stroke="rgb(0%,0%,0%)" stroke-width="2" /><polyline fill="none" points="72,6 198,0" stroke="rgb(0%,0%,0%)" stroke-width="2" /><polyline fill="none" points="81,17 96,16 139,24 231,53" stroke="rgb(0%,0%,0%)" stroke-width="2" /><polyline fill="none" points="82,31 108,30 133,38 180,66 255,127" stroke="rgb(0%,0%,0%)" stroke-width="2" /><polyline fill="none" points="68,43 83,50 134,91 233,187" stroke="rgb(0%,0%,0%)" stroke-width="2" /></svg>