<?xml version="1.0" encoding="utf-8" ?>
<svg baseProfile="full" height="256" version="1.1" width="256" xmlns="http://www.w3.org/2000/svg" xmlns:ev="http://www.w3.org/2001/xml-events" xmlns:xlink="http://www.w3.org/1999/xlink"><defs /><polyline fill="none" points="87,2 81,0 64,1 48,7 34,16 7,54 1,73 0,90 3,99 15,112 32,121 60,131 96,135 113,134 129,123 142,109 150,90 153,72 153,47 148,35 123,10 108,6 85,5 69,8 58,13 33,55 30,91 36,102 56,113 86,116 95,112 110,99 124,73 125,48 117,37 99,29 82,30 69,39 55,55 53,76 55,84 62,90 84,94 96,85 103,69 105,56 94,52" stroke="rgb(0%,0%,0%)" stroke-width="2" /><polyline fill="none" points="47,61 44,65 46,71" stroke="rgb(0%,0%,0%)" stroke-width="2" /><polyline fill="none" points="101,55 87,54 81,58 78,74 87,75" stroke="rgb(0%,0%,0%)" stroke-width="2" /><polyline fill="none" points="77,132 76,174 82,254 89,255 92,252 99,215 94,130" stroke="rgb(0%,0%,0%)" stroke-width="2" /></svg>