<?xml version="1.0" encoding="utf-8" ?>
<svg baseProfile="full" height="256" version="1.1" width="256" xmlns="http://www.w3.org/2000/svg" xmlns:ev="http://www.w3.org/2001/xml-events" xmlns:xlink="http://www.w3.org/1999/xlink"><defs /><polyline fill="none" points="13,38 43,84 68,149" stroke="rgb(0%,0%,0%)" stroke-width="2" /><polyline fill="none" points="0,35 84,13 178,0 217,2 225,9 234,27 253,83 255,114 251,136 243,138 206,134 144,141 117,146 68,163 57,163" stroke="rgb(0%,0%,0%)" stroke-width="2" /><polyline fill="none" points="41,30 104,111 120,156" stroke="rgb(0%,0%,0%)" stroke-width="2" /><polyline fill="none" points="77,13 135,73 156,107 166,138" stroke="rgb(0%,0%,0%)" stroke-width="2" /><polyline fill="none" points="144,11 179,54 202,101 208,128" stroke="rgb(0%,0%,0%)" stroke-width="2" /><polyline fill="none" points="196,13 214,56 232,88 243,123" stroke="rgb(0%,0%,0%)" stroke-width="2" /><polyline fill="none" points="68,142 73,144 80,139 85,125" stroke="rgb(0%,0%,0%)" stroke-width="2" /><polyline fill="none" points="93,111 92,102" stroke="rgb(0%,0%,0%)" stroke-width="2" /><polyline fill="none" points="94,85 95,82" stroke="rgb(0%,0%,0%)" stroke-width="2" /><polyline fill="none" points="102,70 103,69" stroke="rgb(0%,0%,0%)" stroke-width="2" /><polyline fill="none" points="114,57 114,57" stroke="rgb(0%,0%,0%)" stroke-width="2" /><polyline fill="none" points="138,44 140,45" stroke="rgb(0%,0%,0%)" stroke-width="2" /><polyline fill="none" points="164,48 164,48" stroke="rgb(0%,0%,0%)" stroke-width="2" /><polyline fill="none" points="183,49 184,49" stroke="rgb(0%,0%,0%)" stroke-width="2" /><polyline fill="none" points="207,62 208,68" stroke="rgb(0%,0%,0%)" stroke-width="2" /><polyline fill="none" points="217,87 218,89" stroke="rgb(0%,0%,0%)" stroke-width="2" /><polyline fill="none" points="209,107 205,109" stroke="rgb(0%,0%,0%)" stroke-width="2" /><polyline fill="none" points="179,109 179,109" stroke="rgb(0%,0%,0%)" stroke-width="2" /></svg>