<?xml version="1.0" encoding="utf-8" ?>
<svg baseProfile="full" height="256" version="1.1" width="256" xmlns="http://www.w3.org/2000/svg" xmlns:ev="http://www.w3.org/2001/xml-events" xmlns:xlink="http://www.w3.org/1999/xlink"><defs /><polyline fill="none" points="62,136 120,145 187,149 198,153 214,168 214,173 202,191 171,206 157,206 130,198 85,179 73,171 63,155 60,138" stroke="rgb(0%,0%,0%)" stroke-width="2" /><polyline fill="none" points="153,139 145,103 130,63 110,24 90,3 76,0 72,5 68,18 68,34 72,47 83,66 123,109 154,152 136,121 110,95 95,85 36,53 8,45 2,45 0,51 4,58 17,66 62,85 80,98 110,138 120,146 154,161" stroke="rgb(0%,0%,0%)" stroke-width="2" /><polyline fill="none" points="196,163 196,163" stroke="rgb(0%,0%,0%)" stroke-width="2" /><polyline fill="none" points="197,167 196,173" stroke="rgb(0%,0%,0%)" stroke-width="2" /><polyline fill="none" points="201,182 207,182 219,189 229,203" stroke="rgb(0%,0%,0%)" stroke-width="2" /><polyline fill="none" points="159,205 163,255" stroke="rgb(0%,0%,0%)" stroke-width="2" /><polyline fill="none" points="100,181 81,233" stroke="rgb(0%,0%,0%)" stroke-width="2" /></svg>