<?xml version="1.0" encoding="utf-8" ?>
<svg baseProfile="full" height="256" version="1.1" width="256" xmlns="http://www.w3.org/2000/svg" xmlns:ev="http://www.w3.org/2001/xml-events" xmlns:xlink="http://www.w3.org/1999/xlink"><defs /><polyline fill="none" points="152,3 92,4 41,24 7,40 0,46 8,52 55,64 79,64 95,55 166,29 171,16 145,3" stroke="rgb(0%,0%,0%)" stroke-width="2" /><polyline fill="none" points="9,48 10,242 17,246 64,254 124,255 127,234 145,178 165,94 177,0" stroke="rgb(0%,0%,0%)" stroke-width="2" /><polyline fill="none" points="174,68 209,69 218,84 227,112 230,134 230,160 226,169 193,199 177,208 151,218 120,220 111,212 109,201" stroke="rgb(0%,0%,0%)" stroke-width="2" /><polyline fill="none" points="165,85 188,122 190,152 180,168 161,181 137,190 118,191" stroke="rgb(0%,0%,0%)" stroke-width="2" /></svg>