<?xml version="1.0" encoding="utf-8" ?>
<svg baseProfile="full" height="256" version="1.1" width="256" xmlns="http://www.w3.org/2000/svg" xmlns:ev="http://www.w3.org/2001/xml-events" xmlns:xlink="http://www.w3.org/1999/xlink"><defs /><polyline fill="none" points="58,64 66,84 70,105 69,170 64,193 55,215 32,245" stroke="rgb(0%,0%,0%)" stroke-width="2" /><polyline fill="none" points="119,71 106,114 102,145 104,182 113,255" stroke="rgb(0%,0%,0%)" stroke-width="2" /><polyline fill="none" points="103,79 106,110 105,84 92,114 85,104 77,84 75,110 71,90" stroke="rgb(0%,0%,0%)" stroke-width="2" /><polyline fill="none" points="103,140 97,157 90,132 79,147 75,129 71,151" stroke="rgb(0%,0%,0%)" stroke-width="2" /><polyline fill="none" points="85,170 86,159 96,180 96,174 94,169 93,192 84,187 71,171 70,184 66,188" stroke="rgb(0%,0%,0%)" stroke-width="2" /><polyline fill="none" points="106,206 102,198 100,199 98,216 82,198 74,217 71,217 63,207 60,215" stroke="rgb(0%,0%,0%)" stroke-width="2" /><polyline fill="none" points="112,241 109,233 97,223 93,245 87,246 57,232 53,233 50,242 40,243 38,240" stroke="rgb(0%,0%,0%)" stroke-width="2" /><polyline fill="none" points="109,221 101,225 83,221 69,230 62,229 53,222" stroke="rgb(0%,0%,0%)" stroke-width="2" /><polyline fill="none" points="106,183 97,200 92,204 74,177 74,199" stroke="rgb(0%,0%,0%)" stroke-width="2" /><polyline fill="none" points="94,118 87,132 76,114" stroke="rgb(0%,0%,0%)" stroke-width="2" /><polyline fill="none" points="118,78 122,72 136,65 161,69 180,82 205,106 206,104 189,74 164,52 137,42 125,41 126,44" stroke="rgb(0%,0%,0%)" stroke-width="2" /><polyline fill="none" points="121,47 125,41 140,35 156,34 187,46 168,33 143,25 114,22 90,26 68,40" stroke="rgb(0%,0%,0%)" stroke-width="2" /><polyline fill="none" points="104,35 104,29 87,14 52,0 104,64 59,25 39,13 23,8" stroke="rgb(0%,0%,0%)" stroke-width="2" /><polyline fill="none" points="94,61 92,57 76,45 42,29 9,25 95,65 47,46 3,38" stroke="rgb(0%,0%,0%)" stroke-width="2" /><polyline fill="none" points="84,56 42,50 5,50 1,51 1,54 83,83 23,70 4,68 16,73" stroke="rgb(0%,0%,0%)" stroke-width="2" /><polyline fill="none" points="116,69 131,77 182,134 166,105 128,56" stroke="rgb(0%,0%,0%)" stroke-width="2" /><polyline fill="none" points="145,71 130,83 145,71 141,96 155,84 153,100 162,92 159,111 167,102 167,123" stroke="rgb(0%,0%,0%)" stroke-width="2" /><polyline fill="none" points="201,76 191,87 190,71 183,90 184,65" stroke="rgb(0%,0%,0%)" stroke-width="2" /></svg>