<?xml version="1.0" encoding="utf-8" ?>
<svg baseProfile="full" height="256" version="1.1" width="256" xmlns="http://www.w3.org/2000/svg" xmlns:ev="http://www.w3.org/2001/xml-events" xmlns:xlink="http://www.w3.org/1999/xlink"><defs /><polyline fill="none" points="132,46 106,45 81,51 66,59 40,81 20,114 18,152 37,183 60,203 72,213 105,223 131,223 142,219 166,201 193,169 204,138 205,106 201,95 183,65 175,58 161,47 137,39" stroke="rgb(0%,0%,0%)" stroke-width="2" /><polyline fill="none" points="168,45 167,27 172,14 184,5 207,0 235,1 251,17 255,31 255,47 244,66 229,75 201,76 190,73 179,62 169,45" stroke="rgb(0%,0%,0%)" stroke-width="2" /><polyline fill="none" points="22,92 5,64 4,43 12,29 31,17 66,17 77,26 80,47 69,66 51,77 24,85 8,85 0,75 0,61 12,45 29,39 58,38 64,41 68,49 68,58 61,63 50,67 30,65 18,54 18,39 44,35 59,47 62,70 54,76 35,76 22,64 21,51 23,44 37,35 54,35 63,44 63,64 56,71 46,76 27,77 19,67 19,58 29,44 40,40 65,41 70,53 67,64 54,66 48,63 45,57 45,41 55,32 80,29 84,37 85,53 82,59 72,67 61,70 36,70 25,63 24,50 39,39 64,36 72,40 76,50 74,61 66,66 44,67 34,58 33,40 42,36 59,37 68,51 65,60 51,61 47,45 54,36 69,33 72,40 70,46 58,53" stroke="rgb(0%,0%,0%)" stroke-width="2" /><polyline fill="none" points="205,36 203,32 205,27 217,26 223,31 228,43 228,52 225,58 200,59 191,45 191,29 203,18 225,17 239,32 240,50 233,57 224,59 200,57 188,43 188,32 194,27 215,25 226,29 233,39 234,52 223,59 192,62 179,52 179,41 186,35 197,33 223,35 229,41 231,54 220,61 189,61 179,49 181,37 194,33 221,33 229,41 226,58 213,67 184,70" stroke="rgb(0%,0%,0%)" stroke-width="2" /><polyline fill="none" points="64,102 62,114 72,125 81,128 91,127 97,117 97,100 87,92 79,92" stroke="rgb(0%,0%,0%)" stroke-width="2" /></svg>