<?xml version="1.0" encoding="utf-8" ?>
<svg baseProfile="full" height="256" version="1.1" width="256" xmlns="http://www.w3.org/2000/svg" xmlns:ev="http://www.w3.org/2001/xml-events" xmlns:xlink="http://www.w3.org/1999/xlink"><defs /><polyline fill="none" points="245,7 226,2 17,0 7,2 1,64 0,140 25,142 47,149 64,151 135,153 221,129 254,125 245,90 237,2" stroke="rgb(0%,0%,0%)" stroke-width="2" /><polyline fill="none" points="233,43 233,43" stroke="rgb(0%,0%,0%)" stroke-width="2" /><polyline fill="none" points="158,6 153,60 153,139" stroke="rgb(0%,0%,0%)" stroke-width="2" /><polyline fill="none" points="233,43 223,42 203,34 183,34" stroke="rgb(0%,0%,0%)" stroke-width="2" /><polyline fill="none" points="225,68 145,48 112,48 90,52 90,56 98,60 125,65" stroke="rgb(0%,0%,0%)" stroke-width="2" /></svg>