<?xml version="1.0" encoding="utf-8" ?>
<svg baseProfile="full" height="256" version="1.1" width="256" xmlns="http://www.w3.org/2000/svg" xmlns:ev="http://www.w3.org/2001/xml-events" xmlns:xlink="http://www.w3.org/1999/xlink"><defs /><polyline fill="none" points="87,58 34,68 20,77 12,94 14,104 31,110 71,109 88,104 101,94 109,79 112,55 109,51 104,50" stroke="rgb(0%,0%,0%)" stroke-width="2" /><polyline fill="none" points="59,89 59,89" stroke="rgb(0%,0%,0%)" stroke-width="2" /><polyline fill="none" points="59,88 59,88" stroke="rgb(0%,0%,0%)" stroke-width="2" /><polyline fill="none" points="39,84 38,85" stroke="rgb(0%,0%,0%)" stroke-width="2" /><polyline fill="none" points="31,69 36,72 46,73 85,66 105,74" stroke="rgb(0%,0%,0%)" stroke-width="2" /><polyline fill="none" points="39,58 25,45 14,30 8,19 3,0 31,6 42,11 56,28 71,55" stroke="rgb(0%,0%,0%)" stroke-width="2" /><polyline fill="none" points="95,49 129,22 143,18 151,21 150,35 142,54 115,94" stroke="rgb(0%,0%,0%)" stroke-width="2" /><polyline fill="none" points="61,110 20,114 11,121 6,138 10,167 18,189 27,202 43,210 60,208 87,194 99,180 105,159 103,140 92,126 76,113 52,109" stroke="rgb(0%,0%,0%)" stroke-width="2" /><polyline fill="none" points="29,207 18,209 10,214 0,242 4,247 22,250 19,255" stroke="rgb(0%,0%,0%)" stroke-width="2" /></svg>