<?xml version="1.0" encoding="utf-8" ?>
<svg baseProfile="full" height="256" version="1.1" width="256" xmlns="http://www.w3.org/2000/svg" xmlns:ev="http://www.w3.org/2001/xml-events" xmlns:xlink="http://www.w3.org/1999/xlink"><defs /><polyline fill="none" points="15,14 198,13 219,9 243,0 246,14 248,96 255,132 7,131 1,124 0,111 3,85 16,42 17,7" stroke="rgb(0%,0%,0%)" stroke-width="2" /><polyline fill="none" points="49,58 36,61 33,94 40,105 55,113 77,114 85,110 90,98 88,69 77,59 58,50 31,48 25,51" stroke="rgb(0%,0%,0%)" stroke-width="2" /><polyline fill="none" points="184,61 169,65 154,84 149,97 149,113 156,125 164,129 181,133 195,133 216,126 227,114 230,104 228,77 211,66 194,61 185,60 169,64" stroke="rgb(0%,0%,0%)" stroke-width="2" /><polyline fill="none" points="132,75 139,74 139,71" stroke="rgb(0%,0%,0%)" stroke-width="2" /><polyline fill="none" points="110,71 108,74" stroke="rgb(0%,0%,0%)" stroke-width="2" /><polyline fill="none" points="107,93 107,93" stroke="rgb(0%,0%,0%)" stroke-width="2" /></svg>