<?xml version="1.0" encoding="utf-8" ?>
<svg baseProfile="full" height="256" version="1.1" width="256" xmlns="http://www.w3.org/2000/svg" xmlns:ev="http://www.w3.org/2001/xml-events" xmlns:xlink="http://www.w3.org/1999/xlink"><defs /><polyline fill="none" points="0,93 13,133 40,171 74,193 90,200 137,203 152,200 218,169 241,148 251,134 255,119 237,115 193,115 153,106 123,104 23,99" stroke="rgb(0%,0%,0%)" stroke-width="2" /><polyline fill="none" points="153,111 153,57 160,4 153,0 138,6 107,33 98,46 133,47 177,55 198,51 213,54 181,21 163,9" stroke="rgb(0%,0%,0%)" stroke-width="2" /></svg>