<?xml version="1.0" encoding="utf-8" ?>
<svg baseProfile="full" height="256" version="1.1" width="256" xmlns="http://www.w3.org/2000/svg" xmlns:ev="http://www.w3.org/2001/xml-events" xmlns:xlink="http://www.w3.org/1999/xlink"><defs /><polyline fill="none" points="39,129 40,124 73,96 132,38 156,9 167,1 173,1 186,8 239,58 222,59 225,64 224,69 210,66 210,71 201,74 198,78 203,90 179,85 181,89 165,90 163,97 169,111 158,112 156,121 141,121 141,130 130,132 131,141 116,142 122,155 103,156 103,170 92,169 89,173 69,177" stroke="rgb(0%,0%,0%)" stroke-width="2" /><polyline fill="none" points="40,129 24,127 6,161 1,194 21,230 41,250 53,254 80,255" stroke="rgb(0%,0%,0%)" stroke-width="2" /></svg>