<?xml version="1.0" encoding="utf-8" ?>
<svg baseProfile="full" height="256" version="1.1" width="256" xmlns="http://www.w3.org/2000/svg" xmlns:ev="http://www.w3.org/2001/xml-events" xmlns:xlink="http://www.w3.org/1999/xlink"><defs /><polyline fill="none" points="47,24 82,24 90,28 97,43 97,70 90,93 82,141 82,205 85,219 90,228 101,238 126,248 176,250 209,243 235,225 246,206 255,149 255,119 251,112 235,103 217,101 212,128 212,151 202,173 185,187 159,191 151,186 146,172 146,71 124,19 111,7 102,4 72,4 53,18" stroke="rgb(0%,0%,0%)" stroke-width="2" /><polyline fill="none" points="0,12 54,15 74,9" stroke="rgb(0%,0%,0%)" stroke-width="2" /><polyline fill="none" points="22,0 51,3" stroke="rgb(0%,0%,0%)" stroke-width="2" /><polyline fill="none" points="12,13 24,19 50,19" stroke="rgb(0%,0%,0%)" stroke-width="2" /></svg>