<?xml version="1.0" encoding="utf-8" ?>
<svg baseProfile="full" height="256" version="1.1" width="256" xmlns="http://www.w3.org/2000/svg" xmlns:ev="http://www.w3.org/2001/xml-events" xmlns:xlink="http://www.w3.org/1999/xlink"><defs /><polyline fill="none" points="45,66 0,132 38,104 67,88 116,159 180,208 201,220 215,221 236,205 244,194 255,165 254,130 228,60 218,48 202,47 189,49 182,54 177,64 179,76 201,99 213,143 213,152 207,160 192,165 166,164 103,119 88,102 61,59 46,67 34,84" stroke="rgb(0%,0%,0%)" stroke-width="2" /><polyline fill="none" points="123,134 122,135" stroke="rgb(0%,0%,0%)" stroke-width="2" /><polyline fill="none" points="133,141 131,150 134,147 132,143" stroke="rgb(0%,0%,0%)" stroke-width="2" /><polyline fill="none" points="141,147 140,160 142,147" stroke="rgb(0%,0%,0%)" stroke-width="2" /><polyline fill="none" points="149,153 150,161 150,152" stroke="rgb(0%,0%,0%)" stroke-width="2" /><polyline fill="none" points="159,159 158,169 161,160" stroke="rgb(0%,0%,0%)" stroke-width="2" /><polyline fill="none" points="172,164 172,165" stroke="rgb(0%,0%,0%)" stroke-width="2" /><polyline fill="none" points="168,166 165,172 167,164" stroke="rgb(0%,0%,0%)" stroke-width="2" /><polyline fill="none" points="115,129 112,135 114,135 115,127" stroke="rgb(0%,0%,0%)" stroke-width="2" /><polyline fill="none" points="213,28 214,16 225,9" stroke="rgb(0%,0%,0%)" stroke-width="2" /><polyline fill="none" points="241,10 238,14 241,11 241,4 249,0 247,11 251,12" stroke="rgb(0%,0%,0%)" stroke-width="2" /></svg>