<?xml version="1.0" encoding="utf-8" ?>
<svg baseProfile="full" height="256" version="1.1" width="256" xmlns="http://www.w3.org/2000/svg" xmlns:ev="http://www.w3.org/2001/xml-events" xmlns:xlink="http://www.w3.org/1999/xlink"><defs /><polyline fill="none" points="0,14 3,63 7,74 12,77 52,74 81,81 210,83 249,88 252,87 255,80 255,55 250,9 246,2 239,0 215,6 102,7 75,13 28,12 2,16" stroke="rgb(0%,0%,0%)" stroke-width="2" /><polyline fill="none" points="23,79 17,99 30,104 46,102 55,94 54,68" stroke="rgb(0%,0%,0%)" stroke-width="2" /><polyline fill="none" points="186,82 186,105 189,110 203,112 212,106 217,85" stroke="rgb(0%,0%,0%)" stroke-width="2" /><polyline fill="none" points="16,30 21,43 42,41 46,38 46,21 41,20 30,24" stroke="rgb(0%,0%,0%)" stroke-width="2" /><polyline fill="none" points="57,26 57,38 60,43 80,36 83,31 82,15 78,14 65,20" stroke="rgb(0%,0%,0%)" stroke-width="2" /></svg>