<?xml version="1.0" encoding="utf-8" ?>
<svg baseProfile="full" height="256" version="1.1" width="256" xmlns="http://www.w3.org/2000/svg" xmlns:ev="http://www.w3.org/2001/xml-events" xmlns:xlink="http://www.w3.org/1999/xlink"><defs /><polyline fill="none" points="165,4 123,3 107,8 87,26 78,46 74,66 75,81 91,95 115,104 155,108 203,108 215,104 238,76 241,40 231,24 207,12 154,0 117,3" stroke="rgb(0%,0%,0%)" stroke-width="2" /><polyline fill="none" points="81,55 23,52 18,53 7,64 0,87 13,93 36,92 63,81 72,71" stroke="rgb(0%,0%,0%)" stroke-width="2" /><polyline fill="none" points="91,89 73,104 69,119 75,121 84,120 105,90" stroke="rgb(0%,0%,0%)" stroke-width="2" /><polyline fill="none" points="189,101 205,114 229,123 236,116 237,108 228,103 212,102" stroke="rgb(0%,0%,0%)" stroke-width="2" /><polyline fill="none" points="241,52 255,45" stroke="rgb(0%,0%,0%)" stroke-width="2" /></svg>