<?xml version="1.0" encoding="utf-8" ?>
<svg baseProfile="full" height="256" version="1.1" width="256" xmlns="http://www.w3.org/2000/svg" xmlns:ev="http://www.w3.org/2001/xml-events" xmlns:xlink="http://www.w3.org/1999/xlink"><defs /><polyline fill="none" points="155,27 148,36 115,63 17,120 3,132 0,137 2,146 32,162 49,161 118,117 200,81 234,55" stroke="rgb(0%,0%,0%)" stroke-width="2" /><polyline fill="none" points="154,20 168,12 202,1 242,0 251,7 253,14 255,38 252,45 230,70" stroke="rgb(0%,0%,0%)" stroke-width="2" /><polyline fill="none" points="135,114 131,135 118,155 208,154 213,152 213,147 161,104 147,98 131,102" stroke="rgb(0%,0%,0%)" stroke-width="2" /><polyline fill="none" points="23,127 34,117 45,102 57,98 71,100 74,105 75,121" stroke="rgb(0%,0%,0%)" stroke-width="2" /><polyline fill="none" points="162,50 157,47 151,34 150,15 152,10 157,8 166,9 172,11 182,24 186,57" stroke="rgb(0%,0%,0%)" stroke-width="2" /></svg>