<?xml version="1.0" encoding="utf-8" ?>
<svg baseProfile="full" height="256" version="1.1" width="256" xmlns="http://www.w3.org/2000/svg" xmlns:ev="http://www.w3.org/2001/xml-events" xmlns:xlink="http://www.w3.org/1999/xlink"><defs /><polyline fill="none" points="2,54 0,5 58,0 74,2 77,49 56,58 4,56" stroke="rgb(0%,0%,0%)" stroke-width="2" /><polyline fill="none" points="14,45 14,16 57,13 57,40 10,43" stroke="rgb(0%,0%,0%)" stroke-width="2" /><polyline fill="none" points="75,4 244,0 255,47 254,52 252,52 243,40 243,50 234,35 229,49 219,55 212,32 201,50 188,28 171,52 163,33 157,46 153,47 139,25 124,52 117,32 104,51 95,35 91,50 86,53 80,43 79,32" stroke="rgb(0%,0%,0%)" stroke-width="2" /></svg>