<?xml version="1.0" encoding="utf-8" ?>
<svg baseProfile="full" height="256" version="1.1" width="256" xmlns="http://www.w3.org/2000/svg" xmlns:ev="http://www.w3.org/2001/xml-events" xmlns:xlink="http://www.w3.org/1999/xlink"><defs /><polyline fill="none" points="59,203 59,192 52,170 50,135 44,119" stroke="rgb(0%,0%,0%)" stroke-width="2" /><polyline fill="none" points="152,207 159,207 161,204 161,189 148,132" stroke="rgb(0%,0%,0%)" stroke-width="2" /><polyline fill="none" points="138,133 140,137 136,139 113,139 127,133 101,143 78,145 76,134 85,114 82,111 62,122 37,126 27,109 27,69 15,70 7,63 1,49 1,32 5,26 17,23 29,24 39,32 36,31 31,24 30,11 33,7 50,1 69,0 87,5 104,25 113,23 127,11 134,9 136,24 143,36 160,23 165,44 177,56 179,79" stroke="rgb(0%,0%,0%)" stroke-width="2" /><polyline fill="none" points="133,150 149,138 182,132 189,128 188,117 214,115 215,95 211,88" stroke="rgb(0%,0%,0%)" stroke-width="2" /><polyline fill="none" points="184,85 224,70 242,58 253,36 254,12" stroke="rgb(0%,0%,0%)" stroke-width="2" /><polyline fill="none" points="246,16 246,3 255,14" stroke="rgb(0%,0%,0%)" stroke-width="2" /></svg>