<?xml version="1.0" encoding="utf-8" ?>
<svg baseProfile="full" height="256" version="1.1" width="256" xmlns="http://www.w3.org/2000/svg" xmlns:ev="http://www.w3.org/2001/xml-events" xmlns:xlink="http://www.w3.org/1999/xlink"><defs /><polyline fill="none" points="4,24 27,87 50,168" stroke="rgb(0%,0%,0%)" stroke-width="2" /><polyline fill="none" points="0,10 7,0 16,7 38,82 68,164 68,176 55,182" stroke="rgb(0%,0%,0%)" stroke-width="2" /><polyline fill="none" points="63,173 149,176 152,180 145,226 135,253 92,255 40,246 34,238 29,214 29,160 33,124 37,108 40,104" stroke="rgb(0%,0%,0%)" stroke-width="2" /><polyline fill="none" points="59,189 71,194 106,200 122,207 124,229 121,237 113,244 90,250 73,245 54,233 46,196" stroke="rgb(0%,0%,0%)" stroke-width="2" /></svg>