<?xml version="1.0" encoding="utf-8" ?>
<svg baseProfile="full" height="256" version="1.1" width="256" xmlns="http://www.w3.org/2000/svg" xmlns:ev="http://www.w3.org/2001/xml-events" xmlns:xlink="http://www.w3.org/1999/xlink"><defs /><polyline fill="none" points="156,19 151,5 145,1 118,0 85,11 47,35 17,68 7,90 1,112 2,159 11,184 28,208 48,226 70,240 93,248 120,251 149,249 177,242 203,230 226,215 243,199 252,181 255,164 253,146 228,114 133,29" stroke="rgb(0%,0%,0%)" stroke-width="2" /><polyline fill="none" points="72,29 81,73 86,81 99,82" stroke="rgb(0%,0%,0%)" stroke-width="2" /><polyline fill="none" points="132,39 130,65 137,81" stroke="rgb(0%,0%,0%)" stroke-width="2" /><polyline fill="none" points="42,163 62,196 87,215 102,220 133,216 167,190 190,160 194,135 191,126 179,114" stroke="rgb(0%,0%,0%)" stroke-width="2" /></svg>