<?xml version="1.0" encoding="utf-8" ?>
<svg baseProfile="full" height="256" version="1.1" width="256" xmlns="http://www.w3.org/2000/svg" xmlns:ev="http://www.w3.org/2001/xml-events" xmlns:xlink="http://www.w3.org/1999/xlink"><defs /><polyline fill="none" points="159,6 139,0 85,4 69,10 46,24 36,42 18,62 4,89 0,113 0,145 5,171 28,215 44,228 70,236 111,238 123,235 145,234 172,226 201,205 210,190 233,167 252,130 254,81 234,46 226,41 218,43 208,41 163,24" stroke="rgb(0%,0%,0%)" stroke-width="2" /><polyline fill="none" points="6,82 16,98 25,102 49,134 58,135 106,116 110,110 89,67 94,65 97,57 102,2" stroke="rgb(0%,0%,0%)" stroke-width="2" /><polyline fill="none" points="112,111 145,138 160,145 188,124 198,110 199,96 199,107 208,119 246,154 254,167 255,179" stroke="rgb(0%,0%,0%)" stroke-width="2" /><polyline fill="none" points="151,147 150,162 143,177 140,205 148,219 169,237" stroke="rgb(0%,0%,0%)" stroke-width="2" /><polyline fill="none" points="122,125 116,126 90,139 61,165 34,183 30,190 24,192 42,203" stroke="rgb(0%,0%,0%)" stroke-width="2" /></svg>