<?xml version="1.0" encoding="utf-8" ?>
<svg baseProfile="full" height="256" version="1.1" width="256" xmlns="http://www.w3.org/2000/svg" xmlns:ev="http://www.w3.org/2001/xml-events" xmlns:xlink="http://www.w3.org/1999/xlink"><defs /><polyline fill="none" points="12,36 39,127 45,156 138,140 141,133 135,89 109,7 76,7 20,17 11,22 9,35 12,44" stroke="rgb(0%,0%,0%)" stroke-width="2" /><polyline fill="none" points="20,18 37,62 43,110 56,147" stroke="rgb(0%,0%,0%)" stroke-width="2" /><polyline fill="none" points="33,20 58,129 77,166" stroke="rgb(0%,0%,0%)" stroke-width="2" /><polyline fill="none" points="43,14 55,46 80,137" stroke="rgb(0%,0%,0%)" stroke-width="2" /><polyline fill="none" points="71,20 85,128 90,147 95,156" stroke="rgb(0%,0%,0%)" stroke-width="2" /><polyline fill="none" points="88,16 102,41 144,160" stroke="rgb(0%,0%,0%)" stroke-width="2" /><polyline fill="none" points="14,42 214,1" stroke="rgb(0%,0%,0%)" stroke-width="2" /><polyline fill="none" points="0,55 153,51 207,46 255,36" stroke="rgb(0%,0%,0%)" stroke-width="2" /><polyline fill="none" points="13,89 46,86 210,87" stroke="rgb(0%,0%,0%)" stroke-width="2" /></svg>