<?xml version="1.0" encoding="utf-8" ?>
<svg baseProfile="full" height="256" version="1.1" width="256" xmlns="http://www.w3.org/2000/svg" xmlns:ev="http://www.w3.org/2001/xml-events" xmlns:xlink="http://www.w3.org/1999/xlink"><defs /><polyline fill="none" points="114,124 107,154 102,203 100,232 103,255 113,245 124,123 145,124 178,120 214,110 227,102 244,81 248,70 245,57 223,30 195,13 168,3 129,0 90,8 55,27 28,54 16,73 15,91 19,103 29,114 42,120 66,125 150,121" stroke="rgb(0%,0%,0%)" stroke-width="2" /><polyline fill="none" points="81,31 72,53 56,134" stroke="rgb(0%,0%,0%)" stroke-width="2" /><polyline fill="none" points="140,7 126,37 114,127" stroke="rgb(0%,0%,0%)" stroke-width="2" /><polyline fill="none" points="186,18 175,73 170,122" stroke="rgb(0%,0%,0%)" stroke-width="2" /><polyline fill="none" points="202,107 93,101 10,102" stroke="rgb(0%,0%,0%)" stroke-width="2" /><polyline fill="none" points="230,86 191,77 130,74 75,75 0,82" stroke="rgb(0%,0%,0%)" stroke-width="2" /><polyline fill="none" points="246,64 196,49 120,43 67,48 5,64" stroke="rgb(0%,0%,0%)" stroke-width="2" /><polyline fill="none" points="249,46 214,30 150,13 114,12 73,16 38,28" stroke="rgb(0%,0%,0%)" stroke-width="2" /></svg>