<?xml version="1.0" encoding="utf-8" ?>
<svg baseProfile="full" height="256" version="1.1" width="256" xmlns="http://www.w3.org/2000/svg" xmlns:ev="http://www.w3.org/2001/xml-events" xmlns:xlink="http://www.w3.org/1999/xlink"><defs /><polyline fill="none" points="101,35 98,33 91,34 83,44 80,58 80,97 82,109 92,130 104,142 117,149 139,146 154,135 169,114 180,90 181,77 177,50" stroke="rgb(0%,0%,0%)" stroke-width="2" /><polyline fill="none" points="91,104 86,116 94,154 91,179 83,196 77,226 68,234" stroke="rgb(0%,0%,0%)" stroke-width="2" /><polyline fill="none" points="4,222 0,216 0,208 12,162 5,110 13,75 26,40 40,24 115,0 151,8 165,18 199,62 233,93 238,110 236,146 245,174 241,195 228,233" stroke="rgb(0%,0%,0%)" stroke-width="2" /><polyline fill="none" points="168,120 173,157 200,183 211,203 203,255" stroke="rgb(0%,0%,0%)" stroke-width="2" /><polyline fill="none" points="3,212 59,232 89,235" stroke="rgb(0%,0%,0%)" stroke-width="2" /><polyline fill="none" points="208,235 222,235 245,228" stroke="rgb(0%,0%,0%)" stroke-width="2" /><polyline fill="none" points="97,36 135,35 154,42 169,56" stroke="rgb(0%,0%,0%)" stroke-width="2" /><polyline fill="none" points="112,104 113,107 120,109 144,110" stroke="rgb(0%,0%,0%)" stroke-width="2" /><polyline fill="none" points="114,68 112,76" stroke="rgb(0%,0%,0%)" stroke-width="2" /><polyline fill="none" points="136,68 133,76" stroke="rgb(0%,0%,0%)" stroke-width="2" /></svg>