<?xml version="1.0" encoding="utf-8" ?>
<svg baseProfile="full" height="256" version="1.1" width="256" xmlns="http://www.w3.org/2000/svg" xmlns:ev="http://www.w3.org/2001/xml-events" xmlns:xlink="http://www.w3.org/1999/xlink"><defs /><polyline fill="none" points="75,10 73,77 79,122" stroke="rgb(0%,0%,0%)" stroke-width="2" /><polyline fill="none" points="77,0 97,6 134,10 160,18 184,73 186,87 183,95 133,115 86,126" stroke="rgb(0%,0%,0%)" stroke-width="2" /><polyline fill="none" points="79,129 47,130 34,134 9,148 1,166 0,180 13,206 28,213 45,213 114,199 135,190 169,159 182,141 185,126 184,110 180,106 146,99" stroke="rgb(0%,0%,0%)" stroke-width="2" /><polyline fill="none" points="57,156 51,162 50,170 65,184 79,185 97,174 97,161 89,151 60,148" stroke="rgb(0%,0%,0%)" stroke-width="2" /><polyline fill="none" points="42,212 48,236 42,255 26,248 12,249" stroke="rgb(0%,0%,0%)" stroke-width="2" /></svg>