<?xml version="1.0" encoding="utf-8" ?>
<svg baseProfile="full" height="256" version="1.1" width="256" xmlns="http://www.w3.org/2000/svg" xmlns:ev="http://www.w3.org/2001/xml-events" xmlns:xlink="http://www.w3.org/1999/xlink"><defs /><polyline fill="none" points="46,255 38,228 1,15 1,3 10,19 26,82 31,123 56,250 53,254 46,249" stroke="rgb(0%,0%,0%)" stroke-width="2" /><polyline fill="none" points="0,5 2,2 40,0 25,12 46,12 25,28" stroke="rgb(0%,0%,0%)" stroke-width="2" /><polyline fill="none" points="2,3 48,1" stroke="rgb(0%,0%,0%)" stroke-width="2" /><polyline fill="none" points="1,24 22,14 46,13" stroke="rgb(0%,0%,0%)" stroke-width="2" /><polyline fill="none" points="12,28 57,22" stroke="rgb(0%,0%,0%)" stroke-width="2" /><polyline fill="none" points="17,35 64,26" stroke="rgb(0%,0%,0%)" stroke-width="2" /><polyline fill="none" points="21,42 74,31" stroke="rgb(0%,0%,0%)" stroke-width="2" /><polyline fill="none" points="22,41 65,31" stroke="rgb(0%,0%,0%)" stroke-width="2" /><polyline fill="none" points="16,23 67,16" stroke="rgb(0%,0%,0%)" stroke-width="2" /><polyline fill="none" points="2,14 53,6" stroke="rgb(0%,0%,0%)" stroke-width="2" /><polyline fill="none" points="4,8 54,3" stroke="rgb(0%,0%,0%)" stroke-width="2" /><polyline fill="none" points="20,26 65,20" stroke="rgb(0%,0%,0%)" stroke-width="2" /><polyline fill="none" points="16,37 76,29" stroke="rgb(0%,0%,0%)" stroke-width="2" /></svg>