<?xml version="1.0" encoding="utf-8" ?>
<svg baseProfile="full" height="256" version="1.1" width="256" xmlns="http://www.w3.org/2000/svg" xmlns:ev="http://www.w3.org/2001/xml-events" xmlns:xlink="http://www.w3.org/1999/xlink"><defs /><polyline fill="none" points="48,148 49,187 41,255 52,239 78,173 95,149 99,153 124,215 136,237 138,152 164,98 172,56 170,37 162,14 156,7 138,0 117,6 98,25 87,44 84,36 75,28 52,16 30,18 9,32 0,49 2,78 14,105 41,146 47,175" stroke="rgb(0%,0%,0%)" stroke-width="2" /></svg>