<?xml version="1.0" encoding="utf-8" ?>
<svg baseProfile="full" height="256" version="1.1" width="256" xmlns="http://www.w3.org/2000/svg" xmlns:ev="http://www.w3.org/2001/xml-events" xmlns:xlink="http://www.w3.org/1999/xlink"><defs /><polyline fill="none" points="20,134 12,134 0,141 1,151 18,150 24,148 26,143 25,133 19,135" stroke="rgb(0%,0%,0%)" stroke-width="2" /><polyline fill="none" points="3,137 6,48 141,52 148,124 107,122 53,126 10,126" stroke="rgb(0%,0%,0%)" stroke-width="2" /><polyline fill="none" points="207,76 196,70 171,67 145,82 135,98 128,119 129,135 148,149 168,157 202,161 237,159 248,152 254,140 253,111 238,85 228,79 191,72" stroke="rgb(0%,0%,0%)" stroke-width="2" /><polyline fill="none" points="136,64 165,64 183,58 191,42 193,6" stroke="rgb(0%,0%,0%)" stroke-width="2" /><polyline fill="none" points="29,54 20,69 13,61 11,51 17,30 19,1 25,0 29,5 30,37" stroke="rgb(0%,0%,0%)" stroke-width="2" /></svg>