<?xml version="1.0" encoding="utf-8" ?>
<svg baseProfile="full" height="256" version="1.1" width="256" xmlns="http://www.w3.org/2000/svg" xmlns:ev="http://www.w3.org/2001/xml-events" xmlns:xlink="http://www.w3.org/1999/xlink"><defs /><polyline fill="none" points="0,0 29,194 48,255 168,231 169,223 144,148 124,28 121,23 71,1 3,9" stroke="rgb(0%,0%,0%)" stroke-width="2" /><polyline fill="none" points="50,35 55,28 63,27 67,29 79,51 77,87 67,91 44,86 37,73 40,46 44,39 53,36 65,36" stroke="rgb(0%,0%,0%)" stroke-width="2" /><polyline fill="none" points="62,121 68,115 73,115 102,173 101,179 97,182 73,184 68,181 60,160 60,135 65,128 75,123 83,121 94,122" stroke="rgb(0%,0%,0%)" stroke-width="2" /><polyline fill="none" points="70,206 85,204 91,208 94,218 91,229 76,230 70,228 62,216 62,205 71,198" stroke="rgb(0%,0%,0%)" stroke-width="2" /></svg>