<?xml version="1.0" encoding="utf-8" ?>
<svg baseProfile="full" height="256" version="1.1" width="256" xmlns="http://www.w3.org/2000/svg" xmlns:ev="http://www.w3.org/2001/xml-events" xmlns:xlink="http://www.w3.org/1999/xlink"><defs /><polyline fill="none" points="88,153 64,166 46,169 17,166 0,157 2,144 12,122 27,107 33,56 42,43 54,38 68,56 87,35 109,21 120,21 129,32 132,32 160,6 179,0 193,17 193,28 221,27 227,30 236,44 238,53 237,59 232,61 246,76 255,105 245,113 230,113 227,116 225,155 217,167 207,173 203,169 197,154 190,175 183,181 171,185 165,183 151,159 147,178 135,179 131,176 119,156" stroke="rgb(0%,0%,0%)" stroke-width="2" /><polyline fill="none" points="95,74 94,107 83,163 83,187 89,207 87,217 61,254 61,243" stroke="rgb(0%,0%,0%)" stroke-width="2" /><polyline fill="none" points="123,90 119,138 131,179 133,198 148,234" stroke="rgb(0%,0%,0%)" stroke-width="2" /></svg>