<?xml version="1.0" encoding="utf-8" ?>
<svg baseProfile="full" height="256" version="1.1" width="256" xmlns="http://www.w3.org/2000/svg" xmlns:ev="http://www.w3.org/2001/xml-events" xmlns:xlink="http://www.w3.org/1999/xlink"><defs /><polyline fill="none" points="87,103 81,94 71,91 50,98 41,116 43,126 50,136 63,143 80,145 93,141 104,132 108,119 104,110 94,102 78,96" stroke="rgb(0%,0%,0%)" stroke-width="2" /><polyline fill="none" points="47,86 27,89 0,88 45,83 93,86 205,82 253,84 255,77 246,28 209,33 193,0 129,3 109,46 106,49 86,53 45,53 13,60" stroke="rgb(0%,0%,0%)" stroke-width="2" /></svg>