<?xml version="1.0" encoding="utf-8" ?>
<svg baseProfile="full" height="256" version="1.1" width="256" xmlns="http://www.w3.org/2000/svg" xmlns:ev="http://www.w3.org/2001/xml-events" xmlns:xlink="http://www.w3.org/1999/xlink"><defs /><polyline fill="none" points="5,15 0,184 48,184 162,170 247,168 253,164 255,153 254,105 240,38 240,4 217,1 119,0 89,3 54,14 9,17" stroke="rgb(0%,0%,0%)" stroke-width="2" /><polyline fill="none" points="142,54 121,55 111,65 98,94 99,106 105,115 114,122 129,126 149,126 192,102 205,91 203,76 188,65 149,50 129,53 114,61 97,74 90,87" stroke="rgb(0%,0%,0%)" stroke-width="2" /><polyline fill="none" points="166,72 169,84 159,69 163,77" stroke="rgb(0%,0%,0%)" stroke-width="2" /><polyline fill="none" points="45,33 41,35 40,43 48,49 57,48 63,43 62,36 58,33 45,33 40,40" stroke="rgb(0%,0%,0%)" stroke-width="2" /><polyline fill="none" points="95,30 92,33 96,35 98,29 98,22 91,22 87,28 87,36" stroke="rgb(0%,0%,0%)" stroke-width="2" /></svg>