<?xml version="1.0" encoding="utf-8" ?>
<svg baseProfile="full" height="256" version="1.1" width="256" xmlns="http://www.w3.org/2000/svg" xmlns:ev="http://www.w3.org/2001/xml-events" xmlns:xlink="http://www.w3.org/1999/xlink"><defs /><polyline fill="none" points="111,35 148,31 161,36 175,45 199,72 218,105 231,141 236,179 234,214 227,226 210,240 172,252 140,255 118,254 104,251 59,217 45,192 38,170 33,117 34,97 50,71 73,48 99,39 115,38" stroke="rgb(0%,0%,0%)" stroke-width="2" /><polyline fill="none" points="137,150 141,153 145,162 134,162 131,156 139,152" stroke="rgb(0%,0%,0%)" stroke-width="2" /><polyline fill="none" points="135,153 116,120 82,79" stroke="rgb(0%,0%,0%)" stroke-width="2" /><polyline fill="none" points="103,71 91,74 75,68 72,103" stroke="rgb(0%,0%,0%)" stroke-width="2" /><polyline fill="none" points="149,161 207,165" stroke="rgb(0%,0%,0%)" stroke-width="2" /><polyline fill="none" points="188,136 223,166 194,178" stroke="rgb(0%,0%,0%)" stroke-width="2" /><polyline fill="none" points="73,40 65,23 48,5 35,4 23,7 0,31 8,62 20,81" stroke="rgb(0%,0%,0%)" stroke-width="2" /><polyline fill="none" points="69,34 65,42 21,85" stroke="rgb(0%,0%,0%)" stroke-width="2" /><polyline fill="none" points="218,70 198,39 180,24" stroke="rgb(0%,0%,0%)" stroke-width="2" /><polyline fill="none" points="228,71 231,68 235,29 227,6 218,1 181,0 160,13" stroke="rgb(0%,0%,0%)" stroke-width="2" /></svg>