<?xml version="1.0" encoding="utf-8" ?>
<svg baseProfile="full" height="256" version="1.1" width="256" xmlns="http://www.w3.org/2000/svg" xmlns:ev="http://www.w3.org/2001/xml-events" xmlns:xlink="http://www.w3.org/1999/xlink"><defs /><polyline fill="none" points="138,14 114,7 88,6 76,9 55,22 23,56 9,85 1,110 2,154 20,190 37,212 60,232 73,241 99,251 129,253 145,250 193,229 218,209 237,185 253,144 251,106 246,95 225,66 184,34 134,11 118,8" stroke="rgb(0%,0%,0%)" stroke-width="2" /><polyline fill="none" points="170,21 165,21 162,27 136,90 132,112 132,179 134,198 140,215 158,238 174,250" stroke="rgb(0%,0%,0%)" stroke-width="2" /><polyline fill="none" points="44,22 83,53 97,70 109,94 113,113 113,146 110,157 90,199 61,244 60,250" stroke="rgb(0%,0%,0%)" stroke-width="2" /><polyline fill="none" points="44,44 94,21 128,0" stroke="rgb(0%,0%,0%)" stroke-width="2" /><polyline fill="none" points="63,92 85,72 107,60 115,60" stroke="rgb(0%,0%,0%)" stroke-width="2" /><polyline fill="none" points="66,126 116,127" stroke="rgb(0%,0%,0%)" stroke-width="2" /><polyline fill="none" points="61,187 103,187" stroke="rgb(0%,0%,0%)" stroke-width="2" /><polyline fill="none" points="47,217 50,224 66,234" stroke="rgb(0%,0%,0%)" stroke-width="2" /><polyline fill="none" points="77,253 89,255 102,250" stroke="rgb(0%,0%,0%)" stroke-width="2" /><polyline fill="none" points="105,69 188,40" stroke="rgb(0%,0%,0%)" stroke-width="2" /><polyline fill="none" points="120,60 120,64 144,75" stroke="rgb(0%,0%,0%)" stroke-width="2" /></svg>