<?xml version="1.0" encoding="utf-8" ?>
<svg baseProfile="full" height="256" version="1.1" width="256" xmlns="http://www.w3.org/2000/svg" xmlns:ev="http://www.w3.org/2001/xml-events" xmlns:xlink="http://www.w3.org/1999/xlink"><defs /><polyline fill="none" points="131,10 122,5 104,3 72,18 21,61 13,70 2,99 0,159 5,177 18,204 43,215 82,222 173,225 207,220 228,214 238,205 253,155 253,94 210,21 175,10 108,6" stroke="rgb(0%,0%,0%)" stroke-width="2" /><polyline fill="none" points="41,53 67,69 76,225" stroke="rgb(0%,0%,0%)" stroke-width="2" /><polyline fill="none" points="231,64 223,67 200,98 191,126 193,167 212,206" stroke="rgb(0%,0%,0%)" stroke-width="2" /><polyline fill="none" points="124,11 121,80 112,115 113,207" stroke="rgb(0%,0%,0%)" stroke-width="2" /><polyline fill="none" points="145,0 156,18 161,38 164,96 164,133 150,204" stroke="rgb(0%,0%,0%)" stroke-width="2" /></svg>