<?xml version="1.0" encoding="utf-8" ?>
<svg baseProfile="full" height="256" version="1.1" width="256" xmlns="http://www.w3.org/2000/svg" xmlns:ev="http://www.w3.org/2001/xml-events" xmlns:xlink="http://www.w3.org/1999/xlink"><defs /><polyline fill="none" points="12,89 18,150 32,189 35,207 40,213 40,243 46,255 56,247 73,220 92,171 113,83 101,77 27,78" stroke="rgb(0%,0%,0%)" stroke-width="2" /><polyline fill="none" points="19,73 9,78 0,76" stroke="rgb(0%,0%,0%)" stroke-width="2" /><polyline fill="none" points="9,75 28,73" stroke="rgb(0%,0%,0%)" stroke-width="2" /><polyline fill="none" points="4,144 4,144" stroke="rgb(0%,0%,0%)" stroke-width="2" /><polyline fill="none" points="1,151 8,170" stroke="rgb(0%,0%,0%)" stroke-width="2" /><polyline fill="none" points="29,184 29,184" stroke="rgb(0%,0%,0%)" stroke-width="2" /><polyline fill="none" points="34,234 34,234" stroke="rgb(0%,0%,0%)" stroke-width="2" /><polyline fill="none" points="99,206 109,200 120,172" stroke="rgb(0%,0%,0%)" stroke-width="2" /><polyline fill="none" points="104,134 115,127 119,122" stroke="rgb(0%,0%,0%)" stroke-width="2" /><polyline fill="none" points="19,61 7,54 6,46 14,37 46,12 77,0 100,0 124,12 133,29 133,43 130,49 122,53 100,62 73,67 42,65 30,55" stroke="rgb(0%,0%,0%)" stroke-width="2" /><polyline fill="none" points="54,31 54,31" stroke="rgb(0%,0%,0%)" stroke-width="2" /><polyline fill="none" points="55,40 55,40" stroke="rgb(0%,0%,0%)" stroke-width="2" /><polyline fill="none" points="52,38 52,38" stroke="rgb(0%,0%,0%)" stroke-width="2" /><polyline fill="none" points="45,44 53,43" stroke="rgb(0%,0%,0%)" stroke-width="2" /><polyline fill="none" points="80,33 80,33" stroke="rgb(0%,0%,0%)" stroke-width="2" /><polyline fill="none" points="72,30 78,36 95,39" stroke="rgb(0%,0%,0%)" stroke-width="2" /><polyline fill="none" points="38,38 45,35" stroke="rgb(0%,0%,0%)" stroke-width="2" /><polyline fill="none" points="43,51 43,51" stroke="rgb(0%,0%,0%)" stroke-width="2" /><polyline fill="none" points="79,38 98,40 78,32 86,33 120,45 75,36 104,35" stroke="rgb(0%,0%,0%)" stroke-width="2" /><polyline fill="none" points="49,37 52,37" stroke="rgb(0%,0%,0%)" stroke-width="2" /></svg>