<?xml version="1.0" encoding="utf-8" ?>
<svg baseProfile="full" height="256" version="1.1" width="256" xmlns="http://www.w3.org/2000/svg" xmlns:ev="http://www.w3.org/2001/xml-events" xmlns:xlink="http://www.w3.org/1999/xlink"><defs /><polyline fill="none" points="122,0 102,3 56,3 45,29 66,22" stroke="rgb(0%,0%,0%)" stroke-width="2" /><polyline fill="none" points="112,4 121,2 167,2 222,7 224,44" stroke="rgb(0%,0%,0%)" stroke-width="2" /><polyline fill="none" points="59,4 42,41 27,34 19,34 12,39 13,49 24,52" stroke="rgb(0%,0%,0%)" stroke-width="2" /><polyline fill="none" points="229,38 233,34 254,36 253,44 239,51" stroke="rgb(0%,0%,0%)" stroke-width="2" /><polyline fill="none" points="39,47 148,60 225,61" stroke="rgb(0%,0%,0%)" stroke-width="2" /><polyline fill="none" points="40,49 16,66 11,70 16,71" stroke="rgb(0%,0%,0%)" stroke-width="2" /><polyline fill="none" points="232,64 192,91 160,90 91,77 41,76 11,70 2,99 0,119 5,119" stroke="rgb(0%,0%,0%)" stroke-width="2" /><polyline fill="none" points="187,91 186,124 189,120" stroke="rgb(0%,0%,0%)" stroke-width="2" /><polyline fill="none" points="237,58 238,93 232,104" stroke="rgb(0%,0%,0%)" stroke-width="2" /><polyline fill="none" points="59,78 54,94" stroke="rgb(0%,0%,0%)" stroke-width="2" /></svg>