<?xml version="1.0" encoding="utf-8" ?>
<svg baseProfile="full" height="256" version="1.1" width="256" xmlns="http://www.w3.org/2000/svg" xmlns:ev="http://www.w3.org/2001/xml-events" xmlns:xlink="http://www.w3.org/1999/xlink"><defs /><polyline fill="none" points="32,42 77,38 227,37 229,80 223,124 222,168 222,224 225,252 217,249 148,250 66,243 16,243 7,214 7,179 20,45 42,41" stroke="rgb(0%,0%,0%)" stroke-width="2" /><polyline fill="none" points="19,46 17,6 20,4 88,0 197,0 215,3 229,9 231,23 224,50" stroke="rgb(0%,0%,0%)" stroke-width="2" /><polyline fill="none" points="45,45 52,124 53,243" stroke="rgb(0%,0%,0%)" stroke-width="2" /><polyline fill="none" points="104,34 99,38 98,188 105,253" stroke="rgb(0%,0%,0%)" stroke-width="2" /><polyline fill="none" points="162,36 164,238" stroke="rgb(0%,0%,0%)" stroke-width="2" /><polyline fill="none" points="11,96 143,94 214,99 233,99 236,97" stroke="rgb(0%,0%,0%)" stroke-width="2" /><polyline fill="none" points="0,171 66,164 234,161" stroke="rgb(0%,0%,0%)" stroke-width="2" /><polyline fill="none" points="38,87 38,87" stroke="rgb(0%,0%,0%)" stroke-width="2" /></svg>