<?xml version="1.0" encoding="utf-8" ?>
<svg baseProfile="full" height="256" version="1.1" width="256" xmlns="http://www.w3.org/2000/svg" xmlns:ev="http://www.w3.org/2001/xml-events" xmlns:xlink="http://www.w3.org/1999/xlink"><defs /><polyline fill="none" points="177,55 171,50" stroke="rgb(0%,0%,0%)" stroke-width="2" /><polyline fill="none" points="177,55 162,47 149,50 131,62 112,85 103,109 104,125 116,132 130,132 149,125 180,102 198,83 208,62 205,53 185,45 156,52 125,65" stroke="rgb(0%,0%,0%)" stroke-width="2" /><polyline fill="none" points="13,55 5,45 6,43 41,45 71,42 217,12 251,10 255,19 252,41 230,107 221,148 221,164 215,157 122,157 32,146 1,139 14,125 29,89 42,31 42,29 39,33 27,66" stroke="rgb(0%,0%,0%)" stroke-width="2" /><polyline fill="none" points="52,48 48,42 49,25 63,4 72,0 77,7 65,51 65,56 68,55 67,37" stroke="rgb(0%,0%,0%)" stroke-width="2" /><polyline fill="none" points="63,66 65,68" stroke="rgb(0%,0%,0%)" stroke-width="2" /><polyline fill="none" points="55,126 57,127" stroke="rgb(0%,0%,0%)" stroke-width="2" /><polyline fill="none" points="116,148 124,150" stroke="rgb(0%,0%,0%)" stroke-width="2" /><polyline fill="none" points="190,158 194,158" stroke="rgb(0%,0%,0%)" stroke-width="2" /><polyline fill="none" points="221,95 223,90" stroke="rgb(0%,0%,0%)" stroke-width="2" /><polyline fill="none" points="231,38 230,38" stroke="rgb(0%,0%,0%)" stroke-width="2" /><polyline fill="none" points="172,45 165,45" stroke="rgb(0%,0%,0%)" stroke-width="2" /><polyline fill="none" points="51,80 50,82" stroke="rgb(0%,0%,0%)" stroke-width="2" /></svg>