<?xml version="1.0" encoding="utf-8" ?>
<svg baseProfile="full" height="256" version="1.1" width="256" xmlns="http://www.w3.org/2000/svg" xmlns:ev="http://www.w3.org/2001/xml-events" xmlns:xlink="http://www.w3.org/1999/xlink"><defs /><polyline fill="none" points="228,0 224,8 218,76 220,98 228,102 243,101 247,92 255,47 255,35 249,20" stroke="rgb(0%,0%,0%)" stroke-width="2" /><polyline fill="none" points="239,17 213,18 170,31 130,31 97,41 26,41 14,46 9,53 10,91 22,112 29,114 126,118 148,113 179,100 219,87" stroke="rgb(0%,0%,0%)" stroke-width="2" /><polyline fill="none" points="17,114 16,124 8,139 0,163 0,187 12,204 33,213 58,214 72,210 93,194 102,181 107,167 108,151 105,134 88,123 69,117 36,117 21,127" stroke="rgb(0%,0%,0%)" stroke-width="2" /><polyline fill="none" points="62,142 54,138 41,152 39,178 45,185 76,188 101,166 103,159 97,151 40,152" stroke="rgb(0%,0%,0%)" stroke-width="2" /><polyline fill="none" points="55,165 50,156 51,147 63,138" stroke="rgb(0%,0%,0%)" stroke-width="2" /><polyline fill="none" points="52,146 33,137 7,131" stroke="rgb(0%,0%,0%)" stroke-width="2" /><polyline fill="none" points="57,153 30,141" stroke="rgb(0%,0%,0%)" stroke-width="2" /></svg>