<?xml version="1.0" encoding="utf-8" ?>
<svg baseProfile="full" height="256" version="1.1" width="256" xmlns="http://www.w3.org/2000/svg" xmlns:ev="http://www.w3.org/2001/xml-events" xmlns:xlink="http://www.w3.org/1999/xlink"><defs /><polyline fill="none" points="9,32 9,32" stroke="rgb(0%,0%,0%)" stroke-width="2" /><polyline fill="none" points="9,32 12,72 8,124 9,144 6,156 8,186 0,244 9,250 64,253 109,250 114,253 136,255 150,247 155,199 150,139 153,81 150,24 149,20 135,12 93,2 28,3 14,6 11,11 14,29 12,44" stroke="rgb(0%,0%,0%)" stroke-width="2" /><polyline fill="none" points="12,47 145,50 147,53" stroke="rgb(0%,0%,0%)" stroke-width="2" /><polyline fill="none" points="8,206 14,212 70,213 102,217 141,216 147,219" stroke="rgb(0%,0%,0%)" stroke-width="2" /><polyline fill="none" points="87,228 76,225 67,226 62,235 66,240 76,243 88,229 89,225 87,220 76,220" stroke="rgb(0%,0%,0%)" stroke-width="2" /><polyline fill="none" points="68,24 100,24" stroke="rgb(0%,0%,0%)" stroke-width="2" /></svg>