<?xml version="1.0" encoding="utf-8" ?>
<svg baseProfile="full" height="256" version="1.1" width="256" xmlns="http://www.w3.org/2000/svg" xmlns:ev="http://www.w3.org/2001/xml-events" xmlns:xlink="http://www.w3.org/1999/xlink"><defs /><polyline fill="none" points="2,30 0,62 12,144 14,174 21,177 30,174 130,174 147,170 153,162 153,148 137,64 135,22 105,2 57,0 27,10 6,27" stroke="rgb(0%,0%,0%)" stroke-width="2" /><polyline fill="none" points="152,44 146,33 150,21 161,9 173,3 204,3 237,27 253,51 255,85 252,94 244,102 213,120 196,124 153,123 147,120" stroke="rgb(0%,0%,0%)" stroke-width="2" /><polyline fill="none" points="2,87 51,90 67,77 97,78 105,75 140,75 162,81" stroke="rgb(0%,0%,0%)" stroke-width="2" /></svg>