<?xml version="1.0" encoding="utf-8" ?>
<svg baseProfile="full" height="256" version="1.1" width="256" xmlns="http://www.w3.org/2000/svg" xmlns:ev="http://www.w3.org/2001/xml-events" xmlns:xlink="http://www.w3.org/1999/xlink"><defs /><polyline fill="none" points="52,0 49,47" stroke="rgb(0%,0%,0%)" stroke-width="2" /><polyline fill="none" points="44,10 78,3 156,13 180,12 185,18 182,41" stroke="rgb(0%,0%,0%)" stroke-width="2" /><polyline fill="none" points="0,59 116,49 152,44 202,46 204,52 198,74 180,116 173,146 167,187 166,224" stroke="rgb(0%,0%,0%)" stroke-width="2" /><polyline fill="none" points="3,56 7,212 9,234 17,252 23,255 52,238 103,216 156,209 198,211 207,214" stroke="rgb(0%,0%,0%)" stroke-width="2" /><polyline fill="none" points="75,7 80,21" stroke="rgb(0%,0%,0%)" stroke-width="2" /><polyline fill="none" points="104,21 118,20" stroke="rgb(0%,0%,0%)" stroke-width="2" /><polyline fill="none" points="157,22 164,27 178,21" stroke="rgb(0%,0%,0%)" stroke-width="2" /></svg>