<?xml version="1.0" encoding="utf-8" ?>
<svg baseProfile="full" height="256" version="1.1" width="256" xmlns="http://www.w3.org/2000/svg" xmlns:ev="http://www.w3.org/2001/xml-events" xmlns:xlink="http://www.w3.org/1999/xlink"><defs /><polyline fill="none" points="59,1 44,5 28,20 17,42 8,70 0,109 0,139 13,169 32,190 49,201 85,216 110,221 136,222 167,222 189,217 209,209 229,195 254,144 254,105 238,66 222,48 206,37 181,24 137,8 86,0 50,0 38,7" stroke="rgb(0%,0%,0%)" stroke-width="2" /><polyline fill="none" points="76,61 76,67 71,71 59,70 56,64 56,55 61,47 72,45 83,47 89,68 86,78 79,80 64,77 56,63" stroke="rgb(0%,0%,0%)" stroke-width="2" /><polyline fill="none" points="176,82 166,86 146,85 133,75 130,64 157,51 192,50 198,59 196,78 190,87 177,95 157,96 139,90 131,81 129,72 132,71" stroke="rgb(0%,0%,0%)" stroke-width="2" /><polyline fill="none" points="57,168 68,180 80,185 110,195 153,200 202,200 216,195 228,186 231,179" stroke="rgb(0%,0%,0%)" stroke-width="2" /></svg>