<?xml version="1.0" encoding="utf-8" ?>
<svg baseProfile="full" height="256" version="1.1" width="256" xmlns="http://www.w3.org/2000/svg" xmlns:ev="http://www.w3.org/2001/xml-events" xmlns:xlink="http://www.w3.org/1999/xlink"><defs /><polyline fill="none" points="1,33 0,44 15,101 32,141 46,157 60,166 86,172 104,171 115,156 164,45 176,36" stroke="rgb(0%,0%,0%)" stroke-width="2" /><polyline fill="none" points="56,91 64,74 73,69 83,83 95,78 107,82" stroke="rgb(0%,0%,0%)" stroke-width="2" /><polyline fill="none" points="59,93 59,98 71,116 80,122 89,123 103,100" stroke="rgb(0%,0%,0%)" stroke-width="2" /><polyline fill="none" points="69,95 75,99 95,93" stroke="rgb(0%,0%,0%)" stroke-width="2" /><polyline fill="none" points="55,142 46,212 46,252 50,255" stroke="rgb(0%,0%,0%)" stroke-width="2" /><polyline fill="none" points="70,166 65,227 58,247 55,249" stroke="rgb(0%,0%,0%)" stroke-width="2" /><polyline fill="none" points="83,162 78,232" stroke="rgb(0%,0%,0%)" stroke-width="2" /><polyline fill="none" points="105,157 104,207 86,254" stroke="rgb(0%,0%,0%)" stroke-width="2" /><polyline fill="none" points="115,162 116,184 79,248" stroke="rgb(0%,0%,0%)" stroke-width="2" /><polyline fill="none" points="70,174 64,247" stroke="rgb(0%,0%,0%)" stroke-width="2" /><polyline fill="none" points="45,175 44,220 49,237" stroke="rgb(0%,0%,0%)" stroke-width="2" /><polyline fill="none" points="75,14 86,13 92,0" stroke="rgb(0%,0%,0%)" stroke-width="2" /></svg>