<?xml version="1.0" encoding="utf-8" ?>
<svg baseProfile="full" height="256" version="1.1" width="256" xmlns="http://www.w3.org/2000/svg" xmlns:ev="http://www.w3.org/2001/xml-events" xmlns:xlink="http://www.w3.org/1999/xlink"><defs /><polyline fill="none" points="4,103 0,119 2,174 12,206 23,219" stroke="rgb(0%,0%,0%)" stroke-width="2" /><polyline fill="none" points="14,102 102,106 254,96 255,121 251,157 245,173 229,193 202,208 166,214 45,214 18,211 10,207 8,202" stroke="rgb(0%,0%,0%)" stroke-width="2" /><polyline fill="none" points="9,109 30,122 47,127 76,130 132,130 203,121 239,108" stroke="rgb(0%,0%,0%)" stroke-width="2" /><polyline fill="none" points="195,57 180,54 173,62 171,71 179,83 195,90 204,90 219,84 229,72 232,61 224,53 207,49 190,50 179,56" stroke="rgb(0%,0%,0%)" stroke-width="2" /><polyline fill="none" points="189,86 101,131" stroke="rgb(0%,0%,0%)" stroke-width="2" /><polyline fill="none" points="145,93 155,130" stroke="rgb(0%,0%,0%)" stroke-width="2" /><polyline fill="none" points="72,94 69,86 67,48 40,49 38,33 41,9" stroke="rgb(0%,0%,0%)" stroke-width="2" /><polyline fill="none" points="109,83 116,71 120,44 107,34 104,19 115,0" stroke="rgb(0%,0%,0%)" stroke-width="2" /></svg>