<?xml version="1.0" encoding="utf-8" ?>
<svg baseProfile="full" height="256" version="1.1" width="256" xmlns="http://www.w3.org/2000/svg" xmlns:ev="http://www.w3.org/2001/xml-events" xmlns:xlink="http://www.w3.org/1999/xlink"><defs /><polyline fill="none" points="16,122 58,255 84,165 93,107 1,115" stroke="rgb(0%,0%,0%)" stroke-width="2" /><polyline fill="none" points="10,81 2,88 0,101 6,109 15,112 39,111 57,97 63,82 44,70 17,60 7,62 6,73" stroke="rgb(0%,0%,0%)" stroke-width="2" /><polyline fill="none" points="93,51 81,58 76,65 74,77 74,85 86,95 106,102 123,101 140,90 145,81 145,71 123,57 95,54" stroke="rgb(0%,0%,0%)" stroke-width="2" /><polyline fill="none" points="46,0 40,10 40,27" stroke="rgb(0%,0%,0%)" stroke-width="2" /></svg>