<?xml version="1.0" encoding="utf-8" ?>
<svg baseProfile="full" height="256" version="1.1" width="256" xmlns="http://www.w3.org/2000/svg" xmlns:ev="http://www.w3.org/2001/xml-events" xmlns:xlink="http://www.w3.org/1999/xlink"><defs /><polyline fill="none" points="4,126 3,201 0,219 2,248 14,253 53,255 65,246 68,234 63,171 64,124 62,118 55,115 15,113 9,118 8,140 9,121 17,111 13,101 6,99 0,93 2,92" stroke="rgb(0%,0%,0%)" stroke-width="2" /><polyline fill="none" points="52,99 40,90 35,72 42,54 44,6 55,0 57,5 57,42 70,75 65,88 54,96 54,93" stroke="rgb(0%,0%,0%)" stroke-width="2" /></svg>