<?xml version="1.0" encoding="utf-8" ?>
<svg baseProfile="full" height="256" version="1.1" width="256" xmlns="http://www.w3.org/2000/svg" xmlns:ev="http://www.w3.org/2001/xml-events" xmlns:xlink="http://www.w3.org/1999/xlink"><defs /><polyline fill="none" points="53,168 53,168" stroke="rgb(0%,0%,0%)" stroke-width="2" /><polyline fill="none" points="63,143 63,251 67,255 87,254 98,249 108,237 126,199 128,179 117,137 156,148 184,148 193,124 194,98 96,111 1,113 5,149 12,159 29,163 65,162 68,160" stroke="rgb(0%,0%,0%)" stroke-width="2" /><polyline fill="none" points="12,113 11,20 20,84 27,108 31,99 33,59 40,15 42,96 59,34 70,6 72,98 87,25 95,0 76,103 86,55 99,21 100,34 90,89 90,111 94,112 101,99 131,15 97,130 102,107 119,64 144,21 143,35 119,100 149,34 161,19 163,22 151,62 128,119 157,52 177,15 147,96 180,39 193,22 206,14 196,47 173,94" stroke="rgb(0%,0%,0%)" stroke-width="2" /></svg>