<?xml version="1.0" encoding="utf-8" ?>
<svg baseProfile="full" height="256" version="1.1" width="256" xmlns="http://www.w3.org/2000/svg" xmlns:ev="http://www.w3.org/2001/xml-events" xmlns:xlink="http://www.w3.org/1999/xlink"><defs /><polyline fill="none" points="19,115 93,118 233,118 250,125 254,132 255,141 249,150 232,163 207,177 182,186 105,197 76,197 60,193 19,177 5,163 0,151 1,136 7,125 21,111 33,106" stroke="rgb(0%,0%,0%)" stroke-width="2" /><polyline fill="none" points="123,119 116,34" stroke="rgb(0%,0%,0%)" stroke-width="2" /><polyline fill="none" points="123,30 123,30" stroke="rgb(0%,0%,0%)" stroke-width="2" /><polyline fill="none" points="131,89 148,90 185,84 158,39 126,11" stroke="rgb(0%,0%,0%)" stroke-width="2" /><polyline fill="none" points="130,51 125,8" stroke="rgb(0%,0%,0%)" stroke-width="2" /><polyline fill="none" points="117,48 124,0" stroke="rgb(0%,0%,0%)" stroke-width="2" /></svg>