<?xml version="1.0" encoding="utf-8" ?>
<svg baseProfile="full" height="256" version="1.1" width="256" xmlns="http://www.w3.org/2000/svg" xmlns:ev="http://www.w3.org/2001/xml-events" xmlns:xlink="http://www.w3.org/1999/xlink"><defs /><polyline fill="none" points="128,64 109,62 97,77 92,91 92,117 96,127 104,134 113,136 138,135 149,125 161,97 157,63 150,55 140,49 128,49 115,54 97,75 93,88 95,110 102,117 113,120 139,119 150,111 155,102 156,77 150,70 125,67 112,72 97,93 95,115 101,122 126,126 139,120 153,98 151,71 144,65 122,67 116,79 114,90 114,117 123,124 143,125 154,116 161,104 162,79 156,71 130,69 118,76 111,88 110,110 113,118 138,119 150,107 158,81 158,71 154,65 134,66 124,82 122,92 133,95 140,87 145,76 142,63 133,67 127,81 125,99 139,94 146,81 148,73 139,79 130,91 132,85 120,106" stroke="rgb(0%,0%,0%)" stroke-width="2" /><polyline fill="none" points="110,142 111,152" stroke="rgb(0%,0%,0%)" stroke-width="2" /><polyline fill="none" points="144,140 149,158" stroke="rgb(0%,0%,0%)" stroke-width="2" /><polyline fill="none" points="86,125 77,123 48,141 18,176" stroke="rgb(0%,0%,0%)" stroke-width="2" /><polyline fill="none" points="151,107 201,130 213,140 228,160" stroke="rgb(0%,0%,0%)" stroke-width="2" /><polyline fill="none" points="108,107 84,103 34,103 12,110" stroke="rgb(0%,0%,0%)" stroke-width="2" /><polyline fill="none" points="153,88 163,82 186,82 211,89 233,100" stroke="rgb(0%,0%,0%)" stroke-width="2" /><polyline fill="none" points="112,75 70,71 0,73" stroke="rgb(0%,0%,0%)" stroke-width="2" /><polyline fill="none" points="139,80 186,58 255,55" stroke="rgb(0%,0%,0%)" stroke-width="2" /><polyline fill="none" points="112,65 95,55 61,46 38,36" stroke="rgb(0%,0%,0%)" stroke-width="2" /><polyline fill="none" points="157,72 143,70 142,62 188,0" stroke="rgb(0%,0%,0%)" stroke-width="2" /></svg>