<?xml version="1.0" encoding="utf-8" ?>
<svg baseProfile="full" height="256" version="1.1" width="256" xmlns="http://www.w3.org/2000/svg" xmlns:ev="http://www.w3.org/2001/xml-events" xmlns:xlink="http://www.w3.org/1999/xlink"><defs /><polyline fill="none" points="91,255 73,251 53,235 31,189 26,164 24,16" stroke="rgb(0%,0%,0%)" stroke-width="2" /><polyline fill="none" points="100,254 119,239 150,224 173,206 203,160 212,133 215,41 220,17 216,10 205,8 197,10 195,17 197,30 205,34 211,34 220,27 226,13 226,8 214,8 207,12 204,24 210,26 221,14 213,16 216,19" stroke="rgb(0%,0%,0%)" stroke-width="2" /><polyline fill="none" points="26,0 6,0 0,12 6,17 13,13 16,6 15,13 22,14 24,8 18,10 21,4" stroke="rgb(0%,0%,0%)" stroke-width="2" /></svg>