<?xml version="1.0" encoding="utf-8" ?>
<svg baseProfile="full" height="256" version="1.1" width="256" xmlns="http://www.w3.org/2000/svg" xmlns:ev="http://www.w3.org/2001/xml-events" xmlns:xlink="http://www.w3.org/1999/xlink"><defs /><polyline fill="none" points="35,137 31,221 33,255" stroke="rgb(0%,0%,0%)" stroke-width="2" /><polyline fill="none" points="26,0 22,1 11,23 0,81 4,116 16,138 26,147 55,160 73,158 94,147 115,118 126,94 119,54 100,27 85,15 66,7 42,1 29,3" stroke="rgb(0%,0%,0%)" stroke-width="2" /><polyline fill="none" points="36,2 32,67 31,149" stroke="rgb(0%,0%,0%)" stroke-width="2" /><polyline fill="none" points="78,4 69,78 71,157" stroke="rgb(0%,0%,0%)" stroke-width="2" /><polyline fill="none" points="5,64 100,67 125,66" stroke="rgb(0%,0%,0%)" stroke-width="2" /><polyline fill="none" points="10,94 66,103 136,108" stroke="rgb(0%,0%,0%)" stroke-width="2" /><polyline fill="none" points="63,167 69,231 66,246" stroke="rgb(0%,0%,0%)" stroke-width="2" /></svg>