<?xml version="1.0" encoding="utf-8" ?>
<svg baseProfile="full" height="256" version="1.1" width="256" xmlns="http://www.w3.org/2000/svg" xmlns:ev="http://www.w3.org/2001/xml-events" xmlns:xlink="http://www.w3.org/1999/xlink"><defs /><polyline fill="none" points="0,218 22,220 37,227 64,228 255,211" stroke="rgb(0%,0%,0%)" stroke-width="2" /><polyline fill="none" points="76,220 95,138 135,31 141,0 150,63 159,79 166,117 180,150 186,191 201,224" stroke="rgb(0%,0%,0%)" stroke-width="2" /><polyline fill="none" points="94,212 104,167 111,149 119,80 127,59 141,41 143,30 142,134 180,202 191,232" stroke="rgb(0%,0%,0%)" stroke-width="2" /><polyline fill="none" points="109,122 127,120 137,104 147,97 150,99 162,124 172,128 185,128" stroke="rgb(0%,0%,0%)" stroke-width="2" /><polyline fill="none" points="75,162 130,159 158,150" stroke="rgb(0%,0%,0%)" stroke-width="2" /></svg>