<?xml version="1.0" encoding="utf-8" ?>
<svg baseProfile="full" height="256" version="1.1" width="256" xmlns="http://www.w3.org/2000/svg" xmlns:ev="http://www.w3.org/2001/xml-events" xmlns:xlink="http://www.w3.org/1999/xlink"><defs /><polyline fill="none" points="73,11 66,6 46,2 23,10 12,23 11,33 22,48 48,56 58,54 67,41 70,22 65,10" stroke="rgb(0%,0%,0%)" stroke-width="2" /><polyline fill="none" points="66,9 85,3 71,26" stroke="rgb(0%,0%,0%)" stroke-width="2" /><polyline fill="none" points="24,6 1,1 2,10 8,19" stroke="rgb(0%,0%,0%)" stroke-width="2" /><polyline fill="none" points="64,34 88,29 134,28 176,35 180,39 184,58 184,91 174,94 111,86 63,71 47,62" stroke="rgb(0%,0%,0%)" stroke-width="2" /><polyline fill="none" points="64,74 61,83 62,102" stroke="rgb(0%,0%,0%)" stroke-width="2" /><polyline fill="none" points="83,78 84,102 87,107" stroke="rgb(0%,0%,0%)" stroke-width="2" /><polyline fill="none" points="157,96 159,108 164,116" stroke="rgb(0%,0%,0%)" stroke-width="2" /><polyline fill="none" points="175,91 182,115" stroke="rgb(0%,0%,0%)" stroke-width="2" /><polyline fill="none" points="182,51 186,36 198,29 209,30 223,38 234,39 251,20 255,8" stroke="rgb(0%,0%,0%)" stroke-width="2" /><polyline fill="none" points="157,35 136,47 128,57 133,35 139,29" stroke="rgb(0%,0%,0%)" stroke-width="2" /><polyline fill="none" points="104,40 94,52 84,70 84,30 89,26" stroke="rgb(0%,0%,0%)" stroke-width="2" /><polyline fill="none" points="111,30 105,59 105,68 109,72 121,34" stroke="rgb(0%,0%,0%)" stroke-width="2" /><polyline fill="none" points="159,41 153,54 153,65" stroke="rgb(0%,0%,0%)" stroke-width="2" /></svg>