<?xml version="1.0" encoding="utf-8" ?>
<svg baseProfile="full" height="256" version="1.1" width="256" xmlns="http://www.w3.org/2000/svg" xmlns:ev="http://www.w3.org/2001/xml-events" xmlns:xlink="http://www.w3.org/1999/xlink"><defs /><polyline fill="none" points="40,142 33,97 31,48 38,45 102,40 222,39 225,41 231,65 231,116 229,135 223,139" stroke="rgb(0%,0%,0%)" stroke-width="2" /><polyline fill="none" points="0,149 4,147 33,150 127,149 199,142 255,145" stroke="rgb(0%,0%,0%)" stroke-width="2" /><polyline fill="none" points="30,60 19,61 17,69 20,85 33,85" stroke="rgb(0%,0%,0%)" stroke-width="2" /><polyline fill="none" points="77,46 70,34 55,29 52,16 67,7 106,1 185,0 187,4 185,14 167,28 167,43" stroke="rgb(0%,0%,0%)" stroke-width="2" /></svg>