<?xml version="1.0" encoding="utf-8" ?>
<svg baseProfile="full" height="256" version="1.1" width="256" xmlns="http://www.w3.org/2000/svg" xmlns:ev="http://www.w3.org/2001/xml-events" xmlns:xlink="http://www.w3.org/1999/xlink"><defs /><polyline fill="none" points="17,24 12,76" stroke="rgb(0%,0%,0%)" stroke-width="2" /><polyline fill="none" points="18,25 47,22 69,24 70,33 63,73" stroke="rgb(0%,0%,0%)" stroke-width="2" /><polyline fill="none" points="0,75 59,75" stroke="rgb(0%,0%,0%)" stroke-width="2" /><polyline fill="none" points="19,94 111,79 221,66 243,60" stroke="rgb(0%,0%,0%)" stroke-width="2" /><polyline fill="none" points="39,122 170,100 236,93 255,87" stroke="rgb(0%,0%,0%)" stroke-width="2" /><polyline fill="none" points="60,87 60,101 66,113" stroke="rgb(0%,0%,0%)" stroke-width="2" /><polyline fill="none" points="87,84 95,98 109,110" stroke="rgb(0%,0%,0%)" stroke-width="2" /><polyline fill="none" points="125,83 147,107 157,111" stroke="rgb(0%,0%,0%)" stroke-width="2" /><polyline fill="none" points="171,82 201,105" stroke="rgb(0%,0%,0%)" stroke-width="2" /><polyline fill="none" points="207,75 228,94 246,105" stroke="rgb(0%,0%,0%)" stroke-width="2" /><polyline fill="none" points="70,36 94,29 183,12 221,0" stroke="rgb(0%,0%,0%)" stroke-width="2" /><polyline fill="none" points="63,75 142,61 211,45 226,38 244,37" stroke="rgb(0%,0%,0%)" stroke-width="2" /><polyline fill="none" points="223,12 253,48" stroke="rgb(0%,0%,0%)" stroke-width="2" /></svg>