<?xml version="1.0" encoding="utf-8" ?>
<svg baseProfile="full" height="256" version="1.1" width="256" xmlns="http://www.w3.org/2000/svg" xmlns:ev="http://www.w3.org/2001/xml-events" xmlns:xlink="http://www.w3.org/1999/xlink"><defs /><polyline fill="none" points="225,6 218,3 211,5 197,16 191,26 185,47 187,70 194,79 209,86 226,85 241,74 251,54 255,19 252,10 239,1 219,1 208,5" stroke="rgb(0%,0%,0%)" stroke-width="2" /><polyline fill="none" points="218,5 144,7 67,18 18,17 18,42 21,58 28,72 194,73 200,69" stroke="rgb(0%,0%,0%)" stroke-width="2" /><polyline fill="none" points="21,39 12,35 5,39 0,52 6,55 20,53 28,45 29,39" stroke="rgb(0%,0%,0%)" stroke-width="2" /><polyline fill="none" points="53,75 71,82 102,86 232,92 232,124 159,137 114,138 95,135 48,119 41,114 41,94 47,67 54,58" stroke="rgb(0%,0%,0%)" stroke-width="2" /><polyline fill="none" points="91,88 96,90 100,110 99,138" stroke="rgb(0%,0%,0%)" stroke-width="2" /></svg>