<?xml version="1.0" encoding="utf-8" ?>
<svg baseProfile="full" height="256" version="1.1" width="256" xmlns="http://www.w3.org/2000/svg" xmlns:ev="http://www.w3.org/2001/xml-events" xmlns:xlink="http://www.w3.org/1999/xlink"><defs /><polyline fill="none" points="4,125 0,63 2,31 27,9 39,3 93,0 196,7 206,41 210,45 222,48 248,45 253,49 254,113 252,123 242,125 208,117 192,116 191,84 180,82 163,89 161,105 142,105 110,112 82,112 77,108 70,93 56,87 42,113 19,121" stroke="rgb(0%,0%,0%)" stroke-width="2" /><polyline fill="none" points="62,115 52,121 51,131 61,136 71,134 67,119" stroke="rgb(0%,0%,0%)" stroke-width="2" /></svg>