<?xml version="1.0" encoding="utf-8" ?>
<svg baseProfile="full" height="256" version="1.1" width="256" xmlns="http://www.w3.org/2000/svg" xmlns:ev="http://www.w3.org/2001/xml-events" xmlns:xlink="http://www.w3.org/1999/xlink"><defs /><polyline fill="none" points="125,103 149,63 174,34" stroke="rgb(0%,0%,0%)" stroke-width="2" /><polyline fill="none" points="131,114 174,45" stroke="rgb(0%,0%,0%)" stroke-width="2" /><polyline fill="none" points="148,108 167,70 188,37" stroke="rgb(0%,0%,0%)" stroke-width="2" /><polyline fill="none" points="173,32 175,6 180,0 212,14 216,19 215,22 191,47" stroke="rgb(0%,0%,0%)" stroke-width="2" /><polyline fill="none" points="148,111 151,110 159,117 166,130 166,153 159,168 142,182 109,196 92,233 77,250 59,255 39,252 17,239 9,231 0,213 0,202 4,194 15,181 46,159 55,137 59,114 70,98 85,92 104,89 114,93 125,106" stroke="rgb(0%,0%,0%)" stroke-width="2" /><polyline fill="none" points="109,151 96,151 93,145 94,133 102,122 111,118 118,119 124,127 126,137 121,149 109,157" stroke="rgb(0%,0%,0%)" stroke-width="2" /><polyline fill="none" points="52,230 40,228 35,217 39,198 52,186 68,182 77,192 76,208 65,222" stroke="rgb(0%,0%,0%)" stroke-width="2" /></svg>