<?xml version="1.0" encoding="utf-8" ?>
<svg baseProfile="full" height="256" version="1.1" width="256" xmlns="http://www.w3.org/2000/svg" xmlns:ev="http://www.w3.org/2001/xml-events" xmlns:xlink="http://www.w3.org/1999/xlink"><defs /><polyline fill="none" points="4,28 72,22 92,45 120,92 132,104 169,120 206,132 240,134" stroke="rgb(0%,0%,0%)" stroke-width="2" /><polyline fill="none" points="3,26 0,14 26,4 58,0 82,2 116,27 160,69 192,94 224,109 250,111" stroke="rgb(0%,0%,0%)" stroke-width="2" /><polyline fill="none" points="8,16 32,6 55,7 60,15 67,14 74,24 84,24 90,31 98,30 106,39 121,83 152,77 164,80 176,92 208,96 225,110 252,111" stroke="rgb(0%,0%,0%)" stroke-width="2" /><polyline fill="none" points="20,27 56,142" stroke="rgb(0%,0%,0%)" stroke-width="2" /></svg>