<?xml version="1.0" encoding="utf-8" ?>
<svg baseProfile="full" height="256" version="1.1" width="256" xmlns="http://www.w3.org/2000/svg" xmlns:ev="http://www.w3.org/2001/xml-events" xmlns:xlink="http://www.w3.org/1999/xlink"><defs /><polyline fill="none" points="31,0 32,7" stroke="rgb(0%,0%,0%)" stroke-width="2" /><polyline fill="none" points="27,4 37,4 38,6 35,7 21,3" stroke="rgb(0%,0%,0%)" stroke-width="2" /><polyline fill="none" points="25,5 28,10 38,10 39,7" stroke="rgb(0%,0%,0%)" stroke-width="2" /><polyline fill="none" points="33,4 34,33 32,44" stroke="rgb(0%,0%,0%)" stroke-width="2" /><polyline fill="none" points="5,50 188,50 254,54 251,83 241,86 185,90 45,86 9,77 0,52" stroke="rgb(0%,0%,0%)" stroke-width="2" /><polyline fill="none" points="35,85 35,91 43,92 125,96 126,90" stroke="rgb(0%,0%,0%)" stroke-width="2" /><polyline fill="none" points="35,35 76,37 80,41 77,47" stroke="rgb(0%,0%,0%)" stroke-width="2" /><polyline fill="none" points="53,34 50,23 54,22 80,23 78,34" stroke="rgb(0%,0%,0%)" stroke-width="2" /></svg>