<?xml version="1.0" encoding="utf-8" ?>
<svg baseProfile="full" height="256" version="1.1" width="256" xmlns="http://www.w3.org/2000/svg" xmlns:ev="http://www.w3.org/2001/xml-events" xmlns:xlink="http://www.w3.org/1999/xlink"><defs /><polyline fill="none" points="167,140 109,194 80,227 69,232 58,229 31,229 57,206 117,124 99,123 52,149 30,157 6,159 1,153 2,110 66,82 98,77 253,74 254,109 246,121 182,127 165,120" stroke="rgb(0%,0%,0%)" stroke-width="2" /><polyline fill="none" points="207,74 207,103 210,114 221,128 238,135" stroke="rgb(0%,0%,0%)" stroke-width="2" /><polyline fill="none" points="119,72 107,41 76,3 70,0 49,1 39,5 60,38 93,70" stroke="rgb(0%,0%,0%)" stroke-width="2" /></svg>