<?xml version="1.0" encoding="utf-8" ?>
<svg baseProfile="full" height="256" version="1.1" width="256" xmlns="http://www.w3.org/2000/svg" xmlns:ev="http://www.w3.org/2001/xml-events" xmlns:xlink="http://www.w3.org/1999/xlink"><defs /><polyline fill="none" points="96,17 67,60 48,107 46,169 53,201 69,214 87,222 132,229 164,230 191,218 204,205 208,191 217,180 228,144 231,81 223,63 211,50 194,38 127,14 97,17 79,25 76,32" stroke="rgb(0%,0%,0%)" stroke-width="2" /><polyline fill="none" points="75,156 73,169 79,181 97,194 125,207 154,207 167,201 179,190 185,176 185,168 181,165 159,159 130,158 116,161 75,161" stroke="rgb(0%,0%,0%)" stroke-width="2" /><polyline fill="none" points="217,49 218,27 230,22 244,24 255,109 255,160 249,187 242,193 224,195 220,194 217,185" stroke="rgb(0%,0%,0%)" stroke-width="2" /><polyline fill="none" points="71,51 70,24 64,6 51,0 38,2 8,40 4,51 0,85 2,112" stroke="rgb(0%,0%,0%)" stroke-width="2" /></svg>