<?xml version="1.0" encoding="utf-8" ?>
<svg baseProfile="full" height="256" version="1.1" width="256" xmlns="http://www.w3.org/2000/svg" xmlns:ev="http://www.w3.org/2001/xml-events" xmlns:xlink="http://www.w3.org/1999/xlink"><defs /><polyline fill="none" points="4,7 18,51 29,66 63,90 93,101 120,106 146,106 169,101 186,93 218,67 244,22 234,23 186,49 154,58 128,59 86,53 44,26 14,16 0,6" stroke="rgb(0%,0%,0%)" stroke-width="2" /><polyline fill="none" points="10,15 27,39 42,53 78,67 135,80 162,74 212,48 230,35 244,20" stroke="rgb(0%,0%,0%)" stroke-width="2" /><polyline fill="none" points="9,18 2,3 16,0 22,3 23,8 20,20" stroke="rgb(0%,0%,0%)" stroke-width="2" /><polyline fill="none" points="229,23 244,17 254,18 252,22 241,30" stroke="rgb(0%,0%,0%)" stroke-width="2" /><polyline fill="none" points="52,52 52,52" stroke="rgb(0%,0%,0%)" stroke-width="2" /><polyline fill="none" points="52,52 50,52" stroke="rgb(0%,0%,0%)" stroke-width="2" /><polyline fill="none" points="59,69 43,61" stroke="rgb(0%,0%,0%)" stroke-width="2" /></svg>