<?xml version="1.0" encoding="utf-8" ?>
<svg baseProfile="full" height="256" version="1.1" width="256" xmlns="http://www.w3.org/2000/svg" xmlns:ev="http://www.w3.org/2001/xml-events" xmlns:xlink="http://www.w3.org/1999/xlink"><defs /><polyline fill="none" points="0,127 12,125 63,128 167,121 182,128 238,132" stroke="rgb(0%,0%,0%)" stroke-width="2" /><polyline fill="none" points="66,58 65,90 66,81 67,89 63,83 59,60 63,60 71,67 75,83 81,42 85,35 85,83 88,74 111,44 110,58 94,90 118,48 127,42 130,44 124,65 115,81 126,57 136,43 145,40 131,62 154,34 195,0 198,2 196,10 183,33 165,50 175,33 199,12 207,10 190,35 219,14 242,4 255,4 231,29 204,46 215,36 222,34 220,37 165,76" stroke="rgb(0%,0%,0%)" stroke-width="2" /></svg>