<?xml version="1.0" encoding="utf-8" ?>
<svg baseProfile="full" height="256" version="1.1" width="256" xmlns="http://www.w3.org/2000/svg" xmlns:ev="http://www.w3.org/2001/xml-events" xmlns:xlink="http://www.w3.org/1999/xlink"><defs /><polyline fill="none" points="121,69 112,62 104,64 96,70 84,88 84,116 94,122 129,121 136,113 142,96 141,77 124,72 109,77 107,95 116,102 119,94 109,89 101,91 101,108 105,115 119,117 128,97 128,84 111,79 104,89 106,106 114,107 120,98 114,87 104,88 101,96 114,94" stroke="rgb(0%,0%,0%)" stroke-width="2" /><polyline fill="none" points="131,74 119,67 119,49 129,35 141,32" stroke="rgb(0%,0%,0%)" stroke-width="2" /><polyline fill="none" points="198,67 193,78 193,99 196,107 204,107 206,99 201,81 198,89 220,90 223,80 209,76 194,75 193,82" stroke="rgb(0%,0%,0%)" stroke-width="2" /><polyline fill="none" points="216,77 204,88 195,109 207,111 245,101 243,77 213,64 203,69 186,99 183,108 183,128 212,131 237,109 241,74 228,66 195,70 186,108 188,119 242,117 252,109 255,87 255,84 245,79 215,76 205,113 213,119 228,114 245,86 219,84 205,101 206,116 211,100 213,102" stroke="rgb(0%,0%,0%)" stroke-width="2" /><polyline fill="none" points="230,81 226,70 226,34 228,7 232,0" stroke="rgb(0%,0%,0%)" stroke-width="2" /><polyline fill="none" points="15,128 15,128" stroke="rgb(0%,0%,0%)" stroke-width="2" /><polyline fill="none" points="7,109 0,118 0,129" stroke="rgb(0%,0%,0%)" stroke-width="2" /></svg>