<?xml version="1.0" encoding="utf-8" ?>
<svg baseProfile="full" height="256" version="1.1" width="256" xmlns="http://www.w3.org/2000/svg" xmlns:ev="http://www.w3.org/2001/xml-events" xmlns:xlink="http://www.w3.org/1999/xlink"><defs /><polyline fill="none" points="41,47 41,65 16,88 9,105 0,168 0,208 3,227" stroke="rgb(0%,0%,0%)" stroke-width="2" /><polyline fill="none" points="81,48 81,62 86,71 142,120 149,228" stroke="rgb(0%,0%,0%)" stroke-width="2" /><polyline fill="none" points="41,44 58,48 80,48 80,30 74,24 47,26 43,30 42,40" stroke="rgb(0%,0%,0%)" stroke-width="2" /><polyline fill="none" points="44,33 77,36" stroke="rgb(0%,0%,0%)" stroke-width="2" /><polyline fill="none" points="116,0 96,10" stroke="rgb(0%,0%,0%)" stroke-width="2" /><polyline fill="none" points="90,0 90,17 98,20" stroke="rgb(0%,0%,0%)" stroke-width="2" /><polyline fill="none" points="196,47 196,81 244,81 254,77 254,59 248,50 207,50" stroke="rgb(0%,0%,0%)" stroke-width="2" /><polyline fill="none" points="198,61 242,63 248,60" stroke="rgb(0%,0%,0%)" stroke-width="2" /><polyline fill="none" points="248,58 248,53 243,50 226,48 209,49 203,58" stroke="rgb(0%,0%,0%)" stroke-width="2" /></svg>