<?xml version="1.0" encoding="utf-8" ?>
<svg baseProfile="full" height="256" version="1.1" width="256" xmlns="http://www.w3.org/2000/svg" xmlns:ev="http://www.w3.org/2001/xml-events" xmlns:xlink="http://www.w3.org/1999/xlink"><defs /><polyline fill="none" points="55,237 47,184 28,145 10,122 6,110 0,56 2,30 6,23 16,29 21,40 32,82 30,67 32,45 41,61 58,143 58,164 50,148 43,63 49,58 58,63 65,74 70,91 71,126 64,142 56,150 51,151 45,146 37,129 31,96 30,58 31,26 36,7 43,0 49,0 59,8 71,27 80,51 84,76 82,99 77,102 66,100 54,84 43,55 36,2 42,0 51,6 62,19 73,42 85,89 86,114 83,119 78,101 75,48 84,16 93,11 99,15 104,31 105,81 92,121 88,126 82,121 78,101 78,59 82,43 88,34 98,29 111,28 115,36 117,50 116,90 111,104 105,110 98,111 95,83 100,59 119,36 125,33 137,36 142,46 138,83 114,127 110,118 110,96 122,50 132,37 143,31 148,31 155,42 154,72 147,87 135,100 129,98 131,60 143,36 157,21 173,11 195,11 201,20 200,38 176,86 155,113 135,128 121,135 111,136 105,133 103,123 107,107 116,88 147,61 162,57 170,57 174,72 168,88 150,112 129,131 111,142 90,147 70,146 68,133 73,120 107,87 151,66 176,64 174,78 167,89 151,98 135,142 97,225 88,242 76,253 70,255" stroke="rgb(0%,0%,0%)" stroke-width="2" /></svg>