<?xml version="1.0" encoding="utf-8" ?>
<svg baseProfile="full" height="256" version="1.1" width="256" xmlns="http://www.w3.org/2000/svg" xmlns:ev="http://www.w3.org/2001/xml-events" xmlns:xlink="http://www.w3.org/1999/xlink"><defs /><polyline fill="none" points="47,0 27,4 15,11 3,25 0,38 2,51 12,58 33,57 46,48 51,40 53,27 49,17 40,8" stroke="rgb(0%,0%,0%)" stroke-width="2" /><polyline fill="none" points="49,44 60,60 66,63 74,59 90,36 105,33 116,44 125,69 132,73 141,65 151,38 160,33 172,36 183,54 190,77 199,83 221,88 232,106 229,121 218,136 198,149 182,155 142,154 109,143 95,136 52,101 37,79 26,49" stroke="rgb(0%,0%,0%)" stroke-width="2" /><polyline fill="none" points="229,95 245,105 253,114 255,131 249,169" stroke="rgb(0%,0%,0%)" stroke-width="2" /><polyline fill="none" points="63,99 45,155 44,171 48,172" stroke="rgb(0%,0%,0%)" stroke-width="2" /><polyline fill="none" points="42,161 62,162 76,120" stroke="rgb(0%,0%,0%)" stroke-width="2" /><polyline fill="none" points="97,130 89,152 90,165 95,170 106,171 112,164 113,139" stroke="rgb(0%,0%,0%)" stroke-width="2" /><polyline fill="none" points="151,153 149,159 151,170 155,176 163,179" stroke="rgb(0%,0%,0%)" stroke-width="2" /></svg>