<?xml version="1.0" encoding="utf-8" ?>
<svg baseProfile="full" height="256" version="1.1" width="256" xmlns="http://www.w3.org/2000/svg" xmlns:ev="http://www.w3.org/2001/xml-events" xmlns:xlink="http://www.w3.org/1999/xlink"><defs /><polyline fill="none" points="69,37 82,36 90,44 93,53 88,60 76,64 47,58 45,48 49,40 69,37" stroke="rgb(0%,0%,0%)" stroke-width="2" /><polyline fill="none" points="128,41 128,63 138,73 145,71 157,48 157,35 153,30 143,28 120,36 120,44 127,42" stroke="rgb(0%,0%,0%)" stroke-width="2" /><polyline fill="none" points="50,101 68,107 66,120 59,127 19,137 7,134 0,121 2,107 17,97 28,82 39,85 46,91 48,100 51,100" stroke="rgb(0%,0%,0%)" stroke-width="2" /><polyline fill="none" points="167,101 166,109 169,113 191,115 201,112 209,104 213,86 209,79 208,89 218,94 239,94 250,88 254,77 255,52 247,12 238,0 229,3 210,19 188,54 180,80 179,103 180,122 187,139 196,145 206,143 215,122 218,104 217,92 209,80 204,80 195,86 185,103 180,121 181,136 185,143" stroke="rgb(0%,0%,0%)" stroke-width="2" /></svg>