<?xml version="1.0" encoding="utf-8" ?>
<svg baseProfile="full" height="256" version="1.1" width="256" xmlns="http://www.w3.org/2000/svg" xmlns:ev="http://www.w3.org/2001/xml-events" xmlns:xlink="http://www.w3.org/1999/xlink"><defs /><polyline fill="none" points="0,74 11,82 31,91 90,100 167,101 195,96 224,87 253,69 253,11 251,37 245,53 221,82 199,93 147,108 104,109 43,82 30,70 21,57 12,10 11,58 14,68 28,84 37,90 63,96 134,95 183,86 201,78 217,65 241,28" stroke="rgb(0%,0%,0%)" stroke-width="2" /><polyline fill="none" points="248,0 248,0" stroke="rgb(0%,0%,0%)" stroke-width="2" /></svg>