<?xml version="1.0" encoding="utf-8" ?>
<svg baseProfile="full" height="256" version="1.1" width="256" xmlns="http://www.w3.org/2000/svg" xmlns:ev="http://www.w3.org/2001/xml-events" xmlns:xlink="http://www.w3.org/1999/xlink"><defs /><polyline fill="none" points="130,72 113,40 99,27 109,79 76,82 64,88 55,100 48,120 48,134 51,152 59,165 86,184 133,189 154,186 170,179 203,152 214,131 217,114 215,100 208,89 186,76 176,0 162,31 157,65 132,70" stroke="rgb(0%,0%,0%)" stroke-width="2" /><polyline fill="none" points="76,136 28,128 7,128" stroke="rgb(0%,0%,0%)" stroke-width="2" /><polyline fill="none" points="76,160 23,164 0,175" stroke="rgb(0%,0%,0%)" stroke-width="2" /><polyline fill="none" points="87,175 52,191 37,204" stroke="rgb(0%,0%,0%)" stroke-width="2" /><polyline fill="none" points="174,134 220,132 246,136 251,139" stroke="rgb(0%,0%,0%)" stroke-width="2" /><polyline fill="none" points="175,147 255,168" stroke="rgb(0%,0%,0%)" stroke-width="2" /><polyline fill="none" points="171,164 208,198 215,210" stroke="rgb(0%,0%,0%)" stroke-width="2" /><polyline fill="none" points="130,129 110,134 108,137 111,144 130,148 139,144 139,136 119,130" stroke="rgb(0%,0%,0%)" stroke-width="2" /><polyline fill="none" points="107,96 106,113" stroke="rgb(0%,0%,0%)" stroke-width="2" /></svg>