<?xml version="1.0" encoding="utf-8" ?>
<svg baseProfile="full" height="256" version="1.1" width="256" xmlns="http://www.w3.org/2000/svg" xmlns:ev="http://www.w3.org/2001/xml-events" xmlns:xlink="http://www.w3.org/1999/xlink"><defs /><polyline fill="none" points="66,65 66,49 72,35 82,24 101,14 111,13 126,18 141,30 158,51 161,48 171,14 185,1 195,0 204,5 226,29 236,52 236,72 249,79 254,92 254,117 246,135 237,143 224,145 211,138 191,121 184,120 173,130 151,162 135,172 122,167 101,134 94,129 87,131 65,158 52,164 40,159 28,143 0,73 5,90 17,67 32,55 54,53 80,65" stroke="rgb(0%,0%,0%)" stroke-width="2" /></svg>