<?xml version="1.0" encoding="utf-8" ?>
<svg baseProfile="full" height="256" version="1.1" width="256" xmlns="http://www.w3.org/2000/svg" xmlns:ev="http://www.w3.org/2001/xml-events" xmlns:xlink="http://www.w3.org/1999/xlink"><defs /><polyline fill="none" points="115,45 110,52 111,60 130,60 132,51 125,42" stroke="rgb(0%,0%,0%)" stroke-width="2" /><polyline fill="none" points="177,44 173,47 172,55 181,63 201,49 200,45 192,39 173,35" stroke="rgb(0%,0%,0%)" stroke-width="2" /><polyline fill="none" points="136,84 155,80 158,84 158,92 155,100 141,95 141,88" stroke="rgb(0%,0%,0%)" stroke-width="2" /><polyline fill="none" points="149,101 147,128 140,140 125,151 110,141" stroke="rgb(0%,0%,0%)" stroke-width="2" /><polyline fill="none" points="149,103 150,143 155,154 163,162 175,162 181,150 180,141" stroke="rgb(0%,0%,0%)" stroke-width="2" /><polyline fill="none" points="133,150 139,168 144,175 153,176 162,167" stroke="rgb(0%,0%,0%)" stroke-width="2" /><polyline fill="none" points="113,8 100,7 84,11 74,22 66,50 65,79 75,124 87,152 126,189 153,203 191,203 204,194 220,173 254,103 255,77 248,56 238,40 226,28 190,10 138,5 98,15" stroke="rgb(0%,0%,0%)" stroke-width="2" /><polyline fill="none" points="82,14 57,5 31,0 17,7 4,22 0,36 0,70 6,92 42,54 55,46 67,45" stroke="rgb(0%,0%,0%)" stroke-width="2" /><polyline fill="none" points="235,25 242,16" stroke="rgb(0%,0%,0%)" stroke-width="2" /></svg>