<?xml version="1.0" encoding="utf-8" ?>
<svg baseProfile="full" height="256" version="1.1" width="256" xmlns="http://www.w3.org/2000/svg" xmlns:ev="http://www.w3.org/2001/xml-events" xmlns:xlink="http://www.w3.org/1999/xlink"><defs /><polyline fill="none" points="143,132 131,129 103,135 58,153 42,163 36,172 49,177 69,176 87,171 125,154 136,140 133,135 120,132" stroke="rgb(0%,0%,0%)" stroke-width="2" /><polyline fill="none" points="38,180 36,192 40,221 54,238 66,240 114,226 125,220 135,202 139,132" stroke="rgb(0%,0%,0%)" stroke-width="2" /><polyline fill="none" points="141,126 138,124 146,118 200,95 217,93 237,98 239,106 234,117 211,132 177,139 153,137" stroke="rgb(0%,0%,0%)" stroke-width="2" /><polyline fill="none" points="131,151 138,221 146,231 163,237 213,236 236,226 249,217 255,206 252,162 241,101" stroke="rgb(0%,0%,0%)" stroke-width="2" /><polyline fill="none" points="5,244 0,227 1,184 11,127 53,39 77,0" stroke="rgb(0%,0%,0%)" stroke-width="2" /></svg>