<?xml version="1.0" encoding="utf-8" ?>
<svg baseProfile="full" height="256" version="1.1" width="256" xmlns="http://www.w3.org/2000/svg" xmlns:ev="http://www.w3.org/2001/xml-events" xmlns:xlink="http://www.w3.org/1999/xlink"><defs /><polyline fill="none" points="62,7 66,3 91,4 121,10 159,24 200,51 218,66 232,84 246,121 247,136 243,149 233,160 203,178 162,190 97,194 74,189 55,181 36,169 11,143 4,129 0,116 1,98 11,78 33,51 61,33 90,2" stroke="rgb(0%,0%,0%)" stroke-width="2" /><polyline fill="none" points="114,92 129,93 135,105 131,124 124,127 119,124 113,110 114,97 131,97 139,111 138,114 126,115 118,110 108,96 108,86 111,84 117,84 126,91 136,108 138,118 128,119 107,99 106,94 111,95 121,104 139,132 101,94 142,135 115,96 136,117 118,94 133,119" stroke="rgb(0%,0%,0%)" stroke-width="2" /><polyline fill="none" points="122,98 130,96 137,88 152,55 155,19 150,0" stroke="rgb(0%,0%,0%)" stroke-width="2" /><polyline fill="none" points="122,95 114,83 85,61 60,54 34,52" stroke="rgb(0%,0%,0%)" stroke-width="2" /><polyline fill="none" points="120,111 110,110 97,118 81,132 72,146 70,162 72,173 87,204" stroke="rgb(0%,0%,0%)" stroke-width="2" /><polyline fill="none" points="129,113 148,128 163,132 191,133 235,119 243,113 255,97" stroke="rgb(0%,0%,0%)" stroke-width="2" /><polyline fill="none" points="107,186 108,211 101,234 108,236 167,227 225,222 225,216 209,176" stroke="rgb(0%,0%,0%)" stroke-width="2" /><polyline fill="none" points="212,194 193,195 152,209 114,211 191,199 218,198 233,201 224,203 147,215 120,216 162,207 213,201 227,201 230,202 224,204 124,219 187,210 226,209 190,211 118,220 199,211 230,210 196,215" stroke="rgb(0%,0%,0%)" stroke-width="2" /></svg>