<?xml version="1.0" encoding="utf-8" ?>
<svg baseProfile="full" height="256" version="1.1" width="256" xmlns="http://www.w3.org/2000/svg" xmlns:ev="http://www.w3.org/2001/xml-events" xmlns:xlink="http://www.w3.org/1999/xlink"><defs /><polyline fill="none" points="38,147 31,152 35,175 48,188 63,187 70,178 67,168 50,150 39,146" stroke="rgb(0%,0%,0%)" stroke-width="2" /><polyline fill="none" points="74,174 200,174" stroke="rgb(0%,0%,0%)" stroke-width="2" /><polyline fill="none" points="205,163 208,161" stroke="rgb(0%,0%,0%)" stroke-width="2" /><polyline fill="none" points="209,160 199,175 203,182 227,190 234,188 235,176 221,160 210,154 201,154" stroke="rgb(0%,0%,0%)" stroke-width="2" /><polyline fill="none" points="243,172 247,172 255,163 249,91 246,89 84,90 2,97 0,114 10,154 29,165 44,166" stroke="rgb(0%,0%,0%)" stroke-width="2" /><polyline fill="none" points="45,104 74,73 155,0" stroke="rgb(0%,0%,0%)" stroke-width="2" /></svg>