<?xml version="1.0" encoding="utf-8" ?>
<svg baseProfile="full" height="256" version="1.1" width="256" xmlns="http://www.w3.org/2000/svg" xmlns:ev="http://www.w3.org/2001/xml-events" xmlns:xlink="http://www.w3.org/1999/xlink"><defs /><polyline fill="none" points="179,0 168,126 149,143 101,156 82,158" stroke="rgb(0%,0%,0%)" stroke-width="2" /><polyline fill="none" points="233,11 234,71 222,142 222,168 216,182 195,198 158,209 123,212 99,207" stroke="rgb(0%,0%,0%)" stroke-width="2" /><polyline fill="none" points="80,152 65,129 40,115 33,120 34,128 42,143 4,153 0,160 8,167 28,171 12,202 12,214 18,216 33,208 37,214 36,229 43,254 51,252 62,238 69,234" stroke="rgb(0%,0%,0%)" stroke-width="2" /></svg>