<?xml version="1.0" encoding="utf-8" ?>
<svg baseProfile="full" height="256" version="1.1" width="256" xmlns="http://www.w3.org/2000/svg" xmlns:ev="http://www.w3.org/2001/xml-events" xmlns:xlink="http://www.w3.org/1999/xlink"><defs /><polyline fill="none" points="1,96 0,79 12,3 30,1 36,14 38,22 38,77 50,38 63,14 67,13 72,17 74,29 74,80 88,23 96,11 103,15 107,30 104,122 101,129 81,136 75,145 67,175 64,233 59,253 48,254 44,245 43,141 32,131 8,119 4,93" stroke="rgb(0%,0%,0%)" stroke-width="2" /></svg>