<?xml version="1.0" encoding="utf-8" ?>
<svg baseProfile="full" height="256" version="1.1" width="256" xmlns="http://www.w3.org/2000/svg" xmlns:ev="http://www.w3.org/2001/xml-events" xmlns:xlink="http://www.w3.org/1999/xlink"><defs /><polyline fill="none" points="38,29 25,23 13,25 4,31 0,43 4,58 12,63 25,53 32,34 30,28" stroke="rgb(0%,0%,0%)" stroke-width="2" /><polyline fill="none" points="72,72 60,82 52,96 49,106 54,117 61,110 66,88 66,75 61,63" stroke="rgb(0%,0%,0%)" stroke-width="2" /><polyline fill="none" points="55,8 39,20 25,39 26,47 33,60 38,65 48,67 57,52 56,39 51,32" stroke="rgb(0%,0%,0%)" stroke-width="2" /><polyline fill="none" points="102,34 91,42 79,65 76,86 82,89 88,84 103,60 103,48 99,43" stroke="rgb(0%,0%,0%)" stroke-width="2" /><polyline fill="none" points="115,90 109,96 105,116 108,136 113,146 120,146 131,139 137,124 135,111 124,96" stroke="rgb(0%,0%,0%)" stroke-width="2" /><polyline fill="none" points="196,65 191,61 172,68 157,89 166,91 174,87 187,74 190,63 185,55" stroke="rgb(0%,0%,0%)" stroke-width="2" /><polyline fill="none" points="255,2 239,2 226,10 220,19 214,39 220,37 228,22 219,0" stroke="rgb(0%,0%,0%)" stroke-width="2" /></svg>