<?xml version="1.0" encoding="utf-8" ?>
<svg baseProfile="full" height="256" version="1.1" width="256" xmlns="http://www.w3.org/2000/svg" xmlns:ev="http://www.w3.org/2001/xml-events" xmlns:xlink="http://www.w3.org/1999/xlink"><defs /><polyline fill="none" points="50,255 44,160 19,125 5,99 0,79 5,59 13,55 21,58 37,93 34,40 41,25 48,19 53,21 61,37 68,98 67,33 75,4 84,0 89,9 101,59 104,91 101,40 105,26 105,10 114,3 125,3 135,14 139,27 143,92 151,77 159,70 170,78 174,94 173,124 151,142" stroke="rgb(0%,0%,0%)" stroke-width="2" /></svg>