<?xml version="1.0" encoding="utf-8" ?>
<svg baseProfile="full" height="256" version="1.1" width="256" xmlns="http://www.w3.org/2000/svg" xmlns:ev="http://www.w3.org/2001/xml-events" xmlns:xlink="http://www.w3.org/1999/xlink"><defs /><polyline fill="none" points="9,225 13,213 42,173 64,148 82,120 137,65 193,22 222,12 249,13 251,26 244,46 207,96 187,109 159,138 105,167 48,209 31,230 23,235 18,228" stroke="rgb(0%,0%,0%)" stroke-width="2" /><polyline fill="none" points="9,199 3,189 1,152 14,123 41,77 52,68 74,57 121,25 214,0" stroke="rgb(0%,0%,0%)" stroke-width="2" /><polyline fill="none" points="46,239 65,244 93,243 110,240 123,233 181,191 223,146 254,96 254,71 243,13" stroke="rgb(0%,0%,0%)" stroke-width="2" /><polyline fill="none" points="36,206 67,152 74,161 77,173 92,163 104,146 120,98 138,111 149,109 158,99 168,69 175,78 177,88 188,77 206,42 214,49 221,43 240,16" stroke="rgb(0%,0%,0%)" stroke-width="2" /></svg>