<?xml version="1.0" encoding="utf-8" ?>
<svg baseProfile="full" height="256" version="1.1" width="256" xmlns="http://www.w3.org/2000/svg" xmlns:ev="http://www.w3.org/2001/xml-events" xmlns:xlink="http://www.w3.org/1999/xlink"><defs /><polyline fill="none" points="148,52 122,46 90,47 74,53 67,66 62,70 9,71 13,82 31,91 54,91 130,108 152,104 173,94 183,86 189,73 187,52 178,45 155,46 139,52" stroke="rgb(0%,0%,0%)" stroke-width="2" /><polyline fill="none" points="172,53 160,54 161,59 165,62 173,59 173,53 169,56" stroke="rgb(0%,0%,0%)" stroke-width="2" /><polyline fill="none" points="169,75 171,79 176,76 175,80" stroke="rgb(0%,0%,0%)" stroke-width="2" /><polyline fill="none" points="99,49 91,88" stroke="rgb(0%,0%,0%)" stroke-width="2" /><polyline fill="none" points="105,56 104,86 114,74" stroke="rgb(0%,0%,0%)" stroke-width="2" /><polyline fill="none" points="132,56 132,65 127,76" stroke="rgb(0%,0%,0%)" stroke-width="2" /><polyline fill="none" points="139,53 137,69 128,86" stroke="rgb(0%,0%,0%)" stroke-width="2" /><polyline fill="none" points="142,63 138,75 125,88 113,89 101,86" stroke="rgb(0%,0%,0%)" stroke-width="2" /><polyline fill="none" points="48,58 58,82" stroke="rgb(0%,0%,0%)" stroke-width="2" /><polyline fill="none" points="65,74 83,78" stroke="rgb(0%,0%,0%)" stroke-width="2" /><polyline fill="none" points="172,72 166,76 170,81 180,81 181,76 175,69 166,70" stroke="rgb(0%,0%,0%)" stroke-width="2" /><polyline fill="none" points="187,58 211,58" stroke="rgb(0%,0%,0%)" stroke-width="2" /><polyline fill="none" points="113,43 125,30 134,25 157,22 189,1 205,1 212,5 216,11 190,15 213,24 211,30 164,29 130,49" stroke="rgb(0%,0%,0%)" stroke-width="2" /><polyline fill="none" points="112,102 126,113 166,119 190,113 212,102 233,99 241,92 246,92 254,99 254,104 226,110 246,117 247,124 239,127 189,123 139,126 111,121 104,118 103,100 98,98" stroke="rgb(0%,0%,0%)" stroke-width="2" /><polyline fill="none" points="76,56 50,73 11,61 4,61 0,65 4,71 26,85 65,92" stroke="rgb(0%,0%,0%)" stroke-width="2" /></svg>