<?xml version="1.0" encoding="utf-8" ?>
<svg baseProfile="full" height="256" version="1.1" width="256" xmlns="http://www.w3.org/2000/svg" xmlns:ev="http://www.w3.org/2001/xml-events" xmlns:xlink="http://www.w3.org/1999/xlink"><defs /><polyline fill="none" points="142,11 63,0 1,0 0,68 8,94 75,97 254,122 255,118 233,66 223,30 209,21 192,16 137,17" stroke="rgb(0%,0%,0%)" stroke-width="2" /><polyline fill="none" points="142,15 141,11" stroke="rgb(0%,0%,0%)" stroke-width="2" /><polyline fill="none" points="139,9 140,18 157,14 176,14 223,25" stroke="rgb(0%,0%,0%)" stroke-width="2" /><polyline fill="none" points="71,16 66,49 67,30 70,18 79,12 95,11 93,21 76,29" stroke="rgb(0%,0%,0%)" stroke-width="2" /><polyline fill="none" points="118,16 111,42 115,36 121,35" stroke="rgb(0%,0%,0%)" stroke-width="2" /></svg>