<?xml version="1.0" encoding="utf-8" ?>
<svg baseProfile="full" height="256" version="1.1" width="256" xmlns="http://www.w3.org/2000/svg" xmlns:ev="http://www.w3.org/2001/xml-events" xmlns:xlink="http://www.w3.org/1999/xlink"><defs /><polyline fill="none" points="5,247 15,255" stroke="rgb(0%,0%,0%)" stroke-width="2" /><polyline fill="none" points="15,255 58,186" stroke="rgb(0%,0%,0%)" stroke-width="2" /><polyline fill="none" points="0,249 19,205 25,197 47,180" stroke="rgb(0%,0%,0%)" stroke-width="2" /><polyline fill="none" points="47,180 58,183" stroke="rgb(0%,0%,0%)" stroke-width="2" /><polyline fill="none" points="58,183 75,155" stroke="rgb(0%,0%,0%)" stroke-width="2" /><polyline fill="none" points="75,155 62,152" stroke="rgb(0%,0%,0%)" stroke-width="2" /><polyline fill="none" points="62,152 52,179" stroke="rgb(0%,0%,0%)" stroke-width="2" /><polyline fill="none" points="64,149 71,139 75,142 72,149" stroke="rgb(0%,0%,0%)" stroke-width="2" /><polyline fill="none" points="38,46 45,126 49,129 79,130 119,138 148,128 219,127 231,130 225,116 217,75 213,18 175,19 88,3 51,1 30,13 21,28 21,39 25,47 42,58" stroke="rgb(0%,0%,0%)" stroke-width="2" /></svg>