<?xml version="1.0" encoding="utf-8" ?>
<svg baseProfile="full" height="256" version="1.1" width="256" xmlns="http://www.w3.org/2000/svg" xmlns:ev="http://www.w3.org/2001/xml-events" xmlns:xlink="http://www.w3.org/1999/xlink"><defs /><polyline fill="none" points="85,153 53,172 34,190 25,192 8,188 1,196 0,243 4,242 37,212 38,217 28,250 28,254 33,255 50,235 67,195 76,188 101,177 116,158" stroke="rgb(0%,0%,0%)" stroke-width="2" /><polyline fill="none" points="85,152 105,138 116,164" stroke="rgb(0%,0%,0%)" stroke-width="2" /><polyline fill="none" points="103,140 107,122 122,101 131,92 162,76 159,72 146,65 117,63 109,67 90,88 79,92 73,84 72,70 81,57 104,40 139,38 195,62 197,42 205,30 221,21 240,20 245,31 245,65 237,75 226,80 207,82 202,80 198,74 195,51 199,35" stroke="rgb(0%,0%,0%)" stroke-width="2" /><polyline fill="none" points="248,22 223,3 199,0 188,6 158,28 143,35 142,27 152,5" stroke="rgb(0%,0%,0%)" stroke-width="2" /><polyline fill="none" points="248,23 189,14 174,21 142,52 136,53 135,45" stroke="rgb(0%,0%,0%)" stroke-width="2" /><polyline fill="none" points="245,30 236,25 193,27 179,31 152,48 152,34" stroke="rgb(0%,0%,0%)" stroke-width="2" /></svg>