<?xml version="1.0" encoding="utf-8" ?>
<svg baseProfile="full" height="256" version="1.1" width="256" xmlns="http://www.w3.org/2000/svg" xmlns:ev="http://www.w3.org/2001/xml-events" xmlns:xlink="http://www.w3.org/1999/xlink"><defs /><polyline fill="none" points="19,255 19,109 24,112 47,107 52,118 53,254 33,254 33,252" stroke="rgb(0%,0%,0%)" stroke-width="2" /><polyline fill="none" points="32,252 25,252" stroke="rgb(0%,0%,0%)" stroke-width="2" /><polyline fill="none" points="28,107 12,105 9,102 0,72 4,39 10,23 20,10 43,0 59,4 85,28 97,52 96,78 84,100 53,114 38,113 30,105" stroke="rgb(0%,0%,0%)" stroke-width="2" /><polyline fill="none" points="20,89 21,89" stroke="rgb(0%,0%,0%)" stroke-width="2" /><polyline fill="none" points="33,78 45,70" stroke="rgb(0%,0%,0%)" stroke-width="2" /><polyline fill="none" points="46,68 45,62" stroke="rgb(0%,0%,0%)" stroke-width="2" /><polyline fill="none" points="33,24 28,5" stroke="rgb(0%,0%,0%)" stroke-width="2" /><polyline fill="none" points="26,13 25,17" stroke="rgb(0%,0%,0%)" stroke-width="2" /></svg>