<?xml version="1.0" encoding="utf-8" ?>
<svg baseProfile="full" height="256" version="1.1" width="256" xmlns="http://www.w3.org/2000/svg" xmlns:ev="http://www.w3.org/2001/xml-events" xmlns:xlink="http://www.w3.org/1999/xlink"><defs /><polyline fill="none" points="146,245 113,254 91,255 70,252 49,242 32,225 15,199 2,157 1,130 3,115 16,86 33,62 46,50 86,28 174,0 173,5 167,9 111,41 75,73 63,90 57,105 60,126 86,170 102,186 121,194 141,195 211,186 236,180 212,192 152,234 137,241 125,242" stroke="rgb(0%,0%,0%)" stroke-width="2" /></svg>