<?xml version="1.0" encoding="utf-8" ?>
<svg baseProfile="full" height="256" version="1.1" width="256" xmlns="http://www.w3.org/2000/svg" xmlns:ev="http://www.w3.org/2001/xml-events" xmlns:xlink="http://www.w3.org/1999/xlink"><defs /><polyline fill="none" points="26,150 19,154 12,162 1,182 0,199 12,209 32,210 66,168 69,148 63,134 52,134 37,139 17,152 31,124 63,79" stroke="rgb(0%,0%,0%)" stroke-width="2" /><polyline fill="none" points="64,140 84,97" stroke="rgb(0%,0%,0%)" stroke-width="2" /><polyline fill="none" points="84,97 86,91" stroke="rgb(0%,0%,0%)" stroke-width="2" /><polyline fill="none" points="69,81 82,82 105,93 119,93 134,87" stroke="rgb(0%,0%,0%)" stroke-width="2" /><polyline fill="none" points="129,88 163,84 134,96 113,96 115,87 122,81 132,76 147,73 161,74 161,85 148,94 128,100 136,91 155,81 122,91 157,87" stroke="rgb(0%,0%,0%)" stroke-width="2" /><polyline fill="none" points="157,87 194,144 184,154 182,169 185,176 198,187 220,197 239,195 246,188 253,175 255,160 252,152 244,146 221,140 198,145" stroke="rgb(0%,0%,0%)" stroke-width="2" /><polyline fill="none" points="218,138 177,87 166,79" stroke="rgb(0%,0%,0%)" stroke-width="2" /><polyline fill="none" points="166,79 170,18 155,11 174,7 161,3 184,32 173,31 160,23 151,4 193,24 177,16 166,0 200,42 187,31" stroke="rgb(0%,0%,0%)" stroke-width="2" /></svg>