<?xml version="1.0" encoding="utf-8" ?>
<svg baseProfile="full" height="256" version="1.1" width="256" xmlns="http://www.w3.org/2000/svg" xmlns:ev="http://www.w3.org/2001/xml-events" xmlns:xlink="http://www.w3.org/1999/xlink"><defs /><polyline fill="none" points="70,76 54,80 24,106 15,120 5,147 0,163 1,196 8,225 17,237 63,245 155,255 170,239 213,172 219,141 219,104 212,97 180,91 123,91" stroke="rgb(0%,0%,0%)" stroke-width="2" /><polyline fill="none" points="81,74 78,65 71,57 59,52 44,51 69,49 67,28 73,13 78,34 117,0 118,4 113,19 107,27 101,45 106,46 140,35 143,39 130,71 112,102 106,117" stroke="rgb(0%,0%,0%)" stroke-width="2" /><polyline fill="none" points="65,117 55,157 53,193" stroke="rgb(0%,0%,0%)" stroke-width="2" /><polyline fill="none" points="72,134 70,178" stroke="rgb(0%,0%,0%)" stroke-width="2" /><polyline fill="none" points="103,137 98,148 97,163 103,181 107,185" stroke="rgb(0%,0%,0%)" stroke-width="2" /><polyline fill="none" points="151,122 132,186 127,219 128,250" stroke="rgb(0%,0%,0%)" stroke-width="2" /><polyline fill="none" points="185,100 188,119 187,139 185,157 175,173" stroke="rgb(0%,0%,0%)" stroke-width="2" /><polyline fill="none" points="162,131 161,157 155,175" stroke="rgb(0%,0%,0%)" stroke-width="2" /></svg>