<?xml version="1.0" encoding="utf-8" ?>
<svg baseProfile="full" height="256" version="1.1" width="256" xmlns="http://www.w3.org/2000/svg" xmlns:ev="http://www.w3.org/2001/xml-events" xmlns:xlink="http://www.w3.org/1999/xlink"><defs /><polyline fill="none" points="18,0 18,74 12,126" stroke="rgb(0%,0%,0%)" stroke-width="2" /><polyline fill="none" points="22,11 22,7 91,9 183,24 217,33 220,44 216,67 215,126 212,131 197,132 78,133 40,128 0,118" stroke="rgb(0%,0%,0%)" stroke-width="2" /><polyline fill="none" points="43,32 40,47 37,109" stroke="rgb(0%,0%,0%)" stroke-width="2" /><polyline fill="none" points="48,34 52,29 68,30 90,34 101,41 97,77 104,110 101,113 89,113 41,109" stroke="rgb(0%,0%,0%)" stroke-width="2" /><polyline fill="none" points="70,68 65,67" stroke="rgb(0%,0%,0%)" stroke-width="2" /><polyline fill="none" points="64,67 59,62 58,47 65,36 80,34 90,38 96,48 97,60 88,70 254,217" stroke="rgb(0%,0%,0%)" stroke-width="2" /><polyline fill="none" points="255,216 255,216" stroke="rgb(0%,0%,0%)" stroke-width="2" /><polyline fill="none" points="255,216 255,216" stroke="rgb(0%,0%,0%)" stroke-width="2" /><polyline fill="none" points="84,44 87,56" stroke="rgb(0%,0%,0%)" stroke-width="2" /><polyline fill="none" points="77,50 71,49 70,52 73,54" stroke="rgb(0%,0%,0%)" stroke-width="2" /><polyline fill="none" points="73,66 62,74 63,102" stroke="rgb(0%,0%,0%)" stroke-width="2" /><polyline fill="none" points="88,68 92,65 94,68 98,90" stroke="rgb(0%,0%,0%)" stroke-width="2" /><polyline fill="none" points="124,44 140,47 155,38 184,42 193,36 203,45" stroke="rgb(0%,0%,0%)" stroke-width="2" /><polyline fill="none" points="137,68 147,70 163,64 184,65 190,60 209,63" stroke="rgb(0%,0%,0%)" stroke-width="2" /><polyline fill="none" points="149,109 167,112 175,97 182,92 206,102 213,100" stroke="rgb(0%,0%,0%)" stroke-width="2" /></svg>