<?xml version="1.0" encoding="utf-8" ?>
<svg baseProfile="full" height="256" version="1.1" width="256" xmlns="http://www.w3.org/2000/svg" xmlns:ev="http://www.w3.org/2001/xml-events" xmlns:xlink="http://www.w3.org/1999/xlink"><defs /><polyline fill="none" points="70,92 84,86 102,87 106,97 103,116 95,121 79,117 78,89 81,74 86,69" stroke="rgb(0%,0%,0%)" stroke-width="2" /><polyline fill="none" points="174,95 187,92 188,99 186,121 176,132 164,138 147,140 137,125 136,103 138,93 150,86 171,85" stroke="rgb(0%,0%,0%)" stroke-width="2" /><polyline fill="none" points="136,16 143,10 165,9 170,17 169,32 164,38 149,44 143,44 134,33 138,10 145,0" stroke="rgb(0%,0%,0%)" stroke-width="2" /><polyline fill="none" points="195,219 216,206 228,206 234,214 235,235 233,245 218,255 202,254 197,246 195,227 196,212 204,196" stroke="rgb(0%,0%,0%)" stroke-width="2" /><polyline fill="none" points="80,230 86,225 103,221 116,221 124,227 124,239 120,245 105,251 89,251 79,237 79,224" stroke="rgb(0%,0%,0%)" stroke-width="2" /><polyline fill="none" points="0,158 16,140 30,133 36,133 47,142 48,165 42,176 32,185 23,189 7,189 2,181 1,153" stroke="rgb(0%,0%,0%)" stroke-width="2" /><polyline fill="none" points="48,39 52,21 60,19 61,42 48,43 42,34" stroke="rgb(0%,0%,0%)" stroke-width="2" /></svg>