<?xml version="1.0" encoding="utf-8" ?>
<svg baseProfile="full" height="256" version="1.1" width="256" xmlns="http://www.w3.org/2000/svg" xmlns:ev="http://www.w3.org/2001/xml-events" xmlns:xlink="http://www.w3.org/1999/xlink"><defs /><polyline fill="none" points="114,21 103,4 88,0 76,6 68,29 73,112 90,208" stroke="rgb(0%,0%,0%)" stroke-width="2" /><polyline fill="none" points="109,25 124,24 135,32 147,57 151,87 144,132 136,159 105,208 98,213" stroke="rgb(0%,0%,0%)" stroke-width="2" /><polyline fill="none" points="151,72 178,90 212,123 223,130 240,151 244,160 243,163 237,163 171,141 157,127 145,123" stroke="rgb(0%,0%,0%)" stroke-width="2" /><polyline fill="none" points="68,77 68,81 0,125 23,133 82,130" stroke="rgb(0%,0%,0%)" stroke-width="2" /><polyline fill="none" points="86,199 84,206 75,213 62,235 57,250 65,255 73,252 86,233 86,218" stroke="rgb(0%,0%,0%)" stroke-width="2" /></svg>