<?xml version="1.0" encoding="utf-8" ?>
<svg baseProfile="full" height="256" version="1.1" width="256" xmlns="http://www.w3.org/2000/svg" xmlns:ev="http://www.w3.org/2001/xml-events" xmlns:xlink="http://www.w3.org/1999/xlink"><defs /><polyline fill="none" points="0,29 6,24 62,12 83,11 100,1 115,0 146,11 204,13 242,36 252,37 255,33 238,69 231,80 217,92 188,94 106,88 82,80 77,73" stroke="rgb(0%,0%,0%)" stroke-width="2" /><polyline fill="none" points="75,68 71,68 53,53 5,35 3,31" stroke="rgb(0%,0%,0%)" stroke-width="2" /><polyline fill="none" points="29,20 32,39" stroke="rgb(0%,0%,0%)" stroke-width="2" /><polyline fill="none" points="54,10 56,43 61,64" stroke="rgb(0%,0%,0%)" stroke-width="2" /><polyline fill="none" points="83,11 87,58 96,74" stroke="rgb(0%,0%,0%)" stroke-width="2" /><polyline fill="none" points="109,5 113,69 119,92" stroke="rgb(0%,0%,0%)" stroke-width="2" /><polyline fill="none" points="142,3 147,37 151,99 158,111" stroke="rgb(0%,0%,0%)" stroke-width="2" /><polyline fill="none" points="190,8 192,73" stroke="rgb(0%,0%,0%)" stroke-width="2" /><polyline fill="none" points="210,6 216,53 213,72" stroke="rgb(0%,0%,0%)" stroke-width="2" /><polyline fill="none" points="233,37 234,46" stroke="rgb(0%,0%,0%)" stroke-width="2" /></svg>