<?xml version="1.0" encoding="utf-8" ?>
<svg baseProfile="full" height="256" version="1.1" width="256" xmlns="http://www.w3.org/2000/svg" xmlns:ev="http://www.w3.org/2001/xml-events" xmlns:xlink="http://www.w3.org/1999/xlink"><defs /><polyline fill="none" points="147,27 123,40 0,126 18,136 61,144 236,158 243,151 252,127 255,92 252,63 231,21 207,3 198,0 180,0 136,29" stroke="rgb(0%,0%,0%)" stroke-width="2" /><polyline fill="none" points="177,1 178,6 204,37 222,74 225,132 219,152" stroke="rgb(0%,0%,0%)" stroke-width="2" /><polyline fill="none" points="165,28 160,28 158,32 158,47 167,53 176,53 180,43 174,29 160,23" stroke="rgb(0%,0%,0%)" stroke-width="2" /><polyline fill="none" points="112,112 108,113 106,126 114,134 125,137 137,135 144,126 143,116 138,107 125,104 114,111" stroke="rgb(0%,0%,0%)" stroke-width="2" /><polyline fill="none" points="45,99 42,108 45,113 60,115 72,103 71,94 68,89 59,88 51,98" stroke="rgb(0%,0%,0%)" stroke-width="2" /><polyline fill="none" points="201,94 189,104 186,121 191,130 201,134 208,129 207,106 199,94 191,94" stroke="rgb(0%,0%,0%)" stroke-width="2" /><polyline fill="none" points="132,58 136,59" stroke="rgb(0%,0%,0%)" stroke-width="2" /></svg>