<?xml version="1.0" encoding="utf-8" ?>
<svg baseProfile="full" height="256" version="1.1" width="256" xmlns="http://www.w3.org/2000/svg" xmlns:ev="http://www.w3.org/2001/xml-events" xmlns:xlink="http://www.w3.org/1999/xlink"><defs /><polyline fill="none" points="9,42 0,148 0,254 196,243 188,187 178,45 172,10 164,1 116,0 12,9 4,143" stroke="rgb(0%,0%,0%)" stroke-width="2" /><polyline fill="none" points="47,103 46,66" stroke="rgb(0%,0%,0%)" stroke-width="2" /><polyline fill="none" points="126,99 123,67" stroke="rgb(0%,0%,0%)" stroke-width="2" /><polyline fill="none" points="69,217 67,179" stroke="rgb(0%,0%,0%)" stroke-width="2" /><polyline fill="none" points="125,214 121,205 116,170" stroke="rgb(0%,0%,0%)" stroke-width="2" /><polyline fill="none" points="42,223 40,216 40,189 44,176 51,167 69,162 95,161 125,151 145,153 152,162 154,212" stroke="rgb(0%,0%,0%)" stroke-width="2" /></svg>