<?xml version="1.0" encoding="utf-8" ?>
<svg baseProfile="full" height="256" version="1.1" width="256" xmlns="http://www.w3.org/2000/svg" xmlns:ev="http://www.w3.org/2001/xml-events" xmlns:xlink="http://www.w3.org/1999/xlink"><defs /><polyline fill="none" points="10,5 98,2 107,45 114,58 123,62 154,64 186,75 217,78 236,85 246,100 255,133 248,143 223,163 186,174 99,175 76,172 57,165 24,141 13,125 4,103 0,77 0,38 12,0" stroke="rgb(0%,0%,0%)" stroke-width="2" /><polyline fill="none" points="31,159 20,155 14,165 15,173 29,186 52,188 55,182 55,168 44,157 19,153" stroke="rgb(0%,0%,0%)" stroke-width="2" /><polyline fill="none" points="93,167 84,173 83,183 87,192 98,204 115,207 116,190 110,183 101,179 86,179" stroke="rgb(0%,0%,0%)" stroke-width="2" /></svg>