<?xml version="1.0" encoding="utf-8" ?>
<svg baseProfile="full" height="256" version="1.1" width="256" xmlns="http://www.w3.org/2000/svg" xmlns:ev="http://www.w3.org/2001/xml-events" xmlns:xlink="http://www.w3.org/1999/xlink"><defs /><polyline fill="none" points="0,70 28,71 50,66 73,39 88,6 94,3 101,10 101,31 98,55 100,65 106,75 118,82 132,85 148,79 168,61 177,46 182,25 179,17 167,7 157,6 148,10 145,19 154,39 164,50 205,59 255,59" stroke="rgb(0%,0%,0%)" stroke-width="2" /><polyline fill="none" points="52,65 46,57 53,52 56,58" stroke="rgb(0%,0%,0%)" stroke-width="2" /><polyline fill="none" points="3,66 21,67 60,53 77,26 97,0 107,16 104,30 104,57 108,67 122,80 142,92 152,89 160,82" stroke="rgb(0%,0%,0%)" stroke-width="2" /></svg>