<?xml version="1.0" encoding="utf-8" ?>
<svg baseProfile="full" height="256" version="1.1" width="256" xmlns="http://www.w3.org/2000/svg" xmlns:ev="http://www.w3.org/2001/xml-events" xmlns:xlink="http://www.w3.org/1999/xlink"><defs /><polyline fill="none" points="40,163 10,181 2,193 0,230 6,243 17,249 39,255 64,253 69,249 76,205 73,195 57,181" stroke="rgb(0%,0%,0%)" stroke-width="2" /><polyline fill="none" points="43,153 40,163 40,149 43,116 54,53 59,43 63,38 67,37 75,86 75,138 119,10 128,0 132,4 130,47 110,162 130,162 166,178 173,191 174,220 167,244 162,250 150,254 117,252" stroke="rgb(0%,0%,0%)" stroke-width="2" /></svg>