<?xml version="1.0" encoding="utf-8" ?>
<svg baseProfile="full" height="256" version="1.1" width="256" xmlns="http://www.w3.org/2000/svg" xmlns:ev="http://www.w3.org/2001/xml-events" xmlns:xlink="http://www.w3.org/1999/xlink"><defs /><polyline fill="none" points="96,96 84,97 84,102 101,109 112,110 115,105 110,92 103,87 91,84 86,85 84,92" stroke="rgb(0%,0%,0%)" stroke-width="2" /><polyline fill="none" points="148,90 142,87 128,87 118,90 117,96 119,107 125,113 131,115 142,114 149,103 148,97" stroke="rgb(0%,0%,0%)" stroke-width="2" /><polyline fill="none" points="148,98 190,98 203,93 219,81 232,64 241,37 242,1 255,30 255,60 242,83 227,100 185,114 167,114 149,107" stroke="rgb(0%,0%,0%)" stroke-width="2" /><polyline fill="none" points="95,110 93,125" stroke="rgb(0%,0%,0%)" stroke-width="2" /><polyline fill="none" points="112,115 112,129" stroke="rgb(0%,0%,0%)" stroke-width="2" /><polyline fill="none" points="128,123 128,134" stroke="rgb(0%,0%,0%)" stroke-width="2" /><polyline fill="none" points="154,113 154,119 164,130" stroke="rgb(0%,0%,0%)" stroke-width="2" /><polyline fill="none" points="77,98 33,98 21,91 20,79 15,81 19,88" stroke="rgb(0%,0%,0%)" stroke-width="2" /><polyline fill="none" points="23,98 0,97 5,95 19,97" stroke="rgb(0%,0%,0%)" stroke-width="2" /></svg>