<?xml version="1.0" encoding="utf-8" ?>
<svg baseProfile="full" height="256" version="1.1" width="256" xmlns="http://www.w3.org/2000/svg" xmlns:ev="http://www.w3.org/2001/xml-events" xmlns:xlink="http://www.w3.org/1999/xlink"><defs /><polyline fill="none" points="41,83 60,86 124,83 188,86 196,91 200,105 202,176 190,194 169,206 135,216 104,219 63,217 43,211 19,197 6,181 0,157 1,138 9,119 19,109 33,102 41,89 49,84" stroke="rgb(0%,0%,0%)" stroke-width="2" /><polyline fill="none" points="51,111 31,138 26,155 32,169 52,185 73,191 102,188 129,198 149,187 159,175 162,166 164,145 160,130 150,116 138,109 111,106 76,108 53,113 48,115 50,118" stroke="rgb(0%,0%,0%)" stroke-width="2" /><polyline fill="none" points="195,89 200,86 202,78 205,29 213,10 226,1 244,1 251,8 255,24 247,60 251,153 243,191 230,203 209,209 204,206 197,183" stroke="rgb(0%,0%,0%)" stroke-width="2" /><polyline fill="none" points="73,141 80,146 94,147" stroke="rgb(0%,0%,0%)" stroke-width="2" /><polyline fill="none" points="139,147 137,148" stroke="rgb(0%,0%,0%)" stroke-width="2" /></svg>