<?xml version="1.0" encoding="utf-8" ?>
<svg baseProfile="full" height="256" version="1.1" width="256" xmlns="http://www.w3.org/2000/svg" xmlns:ev="http://www.w3.org/2001/xml-events" xmlns:xlink="http://www.w3.org/1999/xlink"><defs /><polyline fill="none" points="40,37 105,40 187,47 252,43 255,48 254,72 242,92 230,102 214,109 187,115 119,117 97,109 63,87 49,64 45,33" stroke="rgb(0%,0%,0%)" stroke-width="2" /><polyline fill="none" points="26,68 14,57 2,35 0,13 4,6 11,2 25,0 33,1 38,7 42,15 42,39 36,59" stroke="rgb(0%,0%,0%)" stroke-width="2" /><polyline fill="none" points="32,59 33,86 12,84" stroke="rgb(0%,0%,0%)" stroke-width="2" /><polyline fill="none" points="0,61 9,84 10,102" stroke="rgb(0%,0%,0%)" stroke-width="2" /></svg>