<?xml version="1.0" encoding="utf-8" ?>
<svg baseProfile="full" height="256" version="1.1" width="256" xmlns="http://www.w3.org/2000/svg" xmlns:ev="http://www.w3.org/2001/xml-events" xmlns:xlink="http://www.w3.org/1999/xlink"><defs /><polyline fill="none" points="6,111 91,99 146,96 175,98" stroke="rgb(0%,0%,0%)" stroke-width="2" /><polyline fill="none" points="0,111 7,153 9,247 14,254 47,254 166,235 243,227 250,225 246,188 222,130 197,103 189,88 170,92 165,86" stroke="rgb(0%,0%,0%)" stroke-width="2" /><polyline fill="none" points="2,107 31,81 52,66 68,70 122,67 171,60 187,88" stroke="rgb(0%,0%,0%)" stroke-width="2" /><polyline fill="none" points="63,77 49,80 59,90 63,91 67,83 66,78" stroke="rgb(0%,0%,0%)" stroke-width="2" /><polyline fill="none" points="119,77 104,77 102,81 104,85 113,85 119,82 120,74" stroke="rgb(0%,0%,0%)" stroke-width="2" /><polyline fill="none" points="101,82 105,86 105,95 109,95 122,91 122,81" stroke="rgb(0%,0%,0%)" stroke-width="2" /><polyline fill="none" points="121,79 134,68 139,67 138,70" stroke="rgb(0%,0%,0%)" stroke-width="2" /><polyline fill="none" points="153,78 140,70 81,65" stroke="rgb(0%,0%,0%)" stroke-width="2" /><polyline fill="none" points="47,61 56,62 86,0 92,4 141,11 147,28 171,67" stroke="rgb(0%,0%,0%)" stroke-width="2" /><polyline fill="none" points="91,42 86,33 86,26" stroke="rgb(0%,0%,0%)" stroke-width="2" /></svg>