<?xml version="1.0" encoding="utf-8" ?>
<svg baseProfile="full" height="256" version="1.1" width="256" xmlns="http://www.w3.org/2000/svg" xmlns:ev="http://www.w3.org/2001/xml-events" xmlns:xlink="http://www.w3.org/1999/xlink"><defs /><polyline fill="none" points="0,24 1,48 7,68 22,74 33,75 37,67 39,48 32,32 15,22 10,22 6,25 1,43" stroke="rgb(0%,0%,0%)" stroke-width="2" /><polyline fill="none" points="8,26 9,38 20,60 34,73" stroke="rgb(0%,0%,0%)" stroke-width="2" /><polyline fill="none" points="61,50 96,49 80,36 83,36" stroke="rgb(0%,0%,0%)" stroke-width="2" /><polyline fill="none" points="97,49 79,62" stroke="rgb(0%,0%,0%)" stroke-width="2" /><polyline fill="none" points="134,58 135,31 119,34 104,27 103,14 108,8 128,0 146,0 165,5 180,17 177,24 167,30 133,30" stroke="rgb(0%,0%,0%)" stroke-width="2" /><polyline fill="none" points="138,2 137,32" stroke="rgb(0%,0%,0%)" stroke-width="2" /><polyline fill="none" points="205,50 229,65 230,104 220,99 215,90 224,93" stroke="rgb(0%,0%,0%)" stroke-width="2" /><polyline fill="none" points="235,105 255,83" stroke="rgb(0%,0%,0%)" stroke-width="2" /><polyline fill="none" points="218,206 223,179 207,182 200,171 200,154 225,141 237,140 251,145 253,150 252,169 244,181 230,190" stroke="rgb(0%,0%,0%)" stroke-width="2" /><polyline fill="none" points="193,166 183,182 188,182" stroke="rgb(0%,0%,0%)" stroke-width="2" /><polyline fill="none" points="209,174 207,178" stroke="rgb(0%,0%,0%)" stroke-width="2" /></svg>