<?xml version="1.0" encoding="utf-8" ?>
<svg baseProfile="full" height="256" version="1.1" width="256" xmlns="http://www.w3.org/2000/svg" xmlns:ev="http://www.w3.org/2001/xml-events" xmlns:xlink="http://www.w3.org/1999/xlink"><defs /><polyline fill="none" points="108,92 99,97 82,112 40,162 11,205 0,230 16,233 39,218 65,200 144,132 193,86 219,56 232,35 230,28 222,27 203,27 174,42 97,98 74,123" stroke="rgb(0%,0%,0%)" stroke-width="2" /><polyline fill="none" points="155,52 127,53 116,46 106,22 108,0 116,0 179,34" stroke="rgb(0%,0%,0%)" stroke-width="2" /><polyline fill="none" points="186,95 186,117 203,134 235,137 255,127 254,121 209,84 200,62" stroke="rgb(0%,0%,0%)" stroke-width="2" /><polyline fill="none" points="145,57 163,64 190,89" stroke="rgb(0%,0%,0%)" stroke-width="2" /><polyline fill="none" points="186,49 183,59 191,64 200,64 213,53 224,26 209,27 202,36 188,72 188,84 194,85 205,68 208,39" stroke="rgb(0%,0%,0%)" stroke-width="2" /></svg>