<?xml version="1.0" encoding="utf-8" ?>
<svg baseProfile="full" height="256" version="1.1" width="256" xmlns="http://www.w3.org/2000/svg" xmlns:ev="http://www.w3.org/2001/xml-events" xmlns:xlink="http://www.w3.org/1999/xlink"><defs /><polyline fill="none" points="49,104 38,88 0,70 11,55 19,51 29,54 54,82 75,89 85,89 92,85 111,53 119,49 134,49 158,57 214,66 228,75 240,88 249,106 255,131 254,150 250,161 235,179 225,185 198,192 174,191 157,186 94,151 40,108" stroke="rgb(0%,0%,0%)" stroke-width="2" /><polyline fill="none" points="175,56 169,53 166,44 164,17 175,3 192,0 208,11 218,27 220,54 216,60" stroke="rgb(0%,0%,0%)" stroke-width="2" /><polyline fill="none" points="178,52 172,44 174,26 183,19 205,17" stroke="rgb(0%,0%,0%)" stroke-width="2" /></svg>