<?xml version="1.0" encoding="utf-8" ?>
<svg baseProfile="full" height="256" version="1.1" width="256" xmlns="http://www.w3.org/2000/svg" xmlns:ev="http://www.w3.org/2001/xml-events" xmlns:xlink="http://www.w3.org/1999/xlink"><defs /><polyline fill="none" points="91,35 85,36 49,62 35,83 32,96 34,114 41,125 57,134 88,137 109,128 137,97 149,74 151,63 148,45 134,32 103,25 94,26 91,32" stroke="rgb(0%,0%,0%)" stroke-width="2" /><polyline fill="none" points="90,135 87,163 57,184 48,198 46,219 50,230 58,239 70,247 99,250 121,242 134,230 138,219 137,206 122,186 100,169 85,163" stroke="rgb(0%,0%,0%)" stroke-width="2" /><polyline fill="none" points="47,226 38,226 25,233 1,255" stroke="rgb(0%,0%,0%)" stroke-width="2" /><polyline fill="none" points="128,217 181,251" stroke="rgb(0%,0%,0%)" stroke-width="2" /><polyline fill="none" points="48,176 41,174 9,173" stroke="rgb(0%,0%,0%)" stroke-width="2" /><polyline fill="none" points="116,190 141,177 191,166" stroke="rgb(0%,0%,0%)" stroke-width="2" /><polyline fill="none" points="50,68 44,40 47,23 57,21 69,51" stroke="rgb(0%,0%,0%)" stroke-width="2" /><polyline fill="none" points="103,22 118,5 134,0 146,16 150,35" stroke="rgb(0%,0%,0%)" stroke-width="2" /></svg>