<?xml version="1.0" encoding="utf-8" ?>
<svg baseProfile="full" height="256" version="1.1" width="256" xmlns="http://www.w3.org/2000/svg" xmlns:ev="http://www.w3.org/2001/xml-events" xmlns:xlink="http://www.w3.org/1999/xlink"><defs /><polyline fill="none" points="0,38 15,34 107,34 149,40 244,45 254,46 249,48" stroke="rgb(0%,0%,0%)" stroke-width="2" /><polyline fill="none" points="197,14 195,23 197,32 201,39 208,41 210,0 216,9 221,31 227,3 232,5 235,26 243,45 248,36 248,11 245,27 239,33 234,33 208,5 202,4 198,11 199,26 208,22 214,10 220,4 229,4 234,34 236,18 238,25 240,46" stroke="rgb(0%,0%,0%)" stroke-width="2" /></svg>