<?xml version="1.0" encoding="utf-8" ?>
<svg baseProfile="full" height="256" version="1.1" width="256" xmlns="http://www.w3.org/2000/svg" xmlns:ev="http://www.w3.org/2001/xml-events" xmlns:xlink="http://www.w3.org/1999/xlink"><defs /><polyline fill="none" points="12,38 0,67 2,71 18,76 78,76 81,67 82,7 62,0 33,32 10,36" stroke="rgb(0%,0%,0%)" stroke-width="2" /><polyline fill="none" points="82,24 97,28" stroke="rgb(0%,0%,0%)" stroke-width="2" /><polyline fill="none" points="80,44 95,49" stroke="rgb(0%,0%,0%)" stroke-width="2" /><polyline fill="none" points="105,4 94,83 253,82 255,7 96,7" stroke="rgb(0%,0%,0%)" stroke-width="2" /><polyline fill="none" points="113,85 111,94 120,99 129,96 130,86 120,79 111,80" stroke="rgb(0%,0%,0%)" stroke-width="2" /><polyline fill="none" points="157,83 154,94 169,96 174,93 175,85 171,80 165,79 165,82" stroke="rgb(0%,0%,0%)" stroke-width="2" /><polyline fill="none" points="220,79 210,84 205,94 223,92 233,88 231,79 216,76" stroke="rgb(0%,0%,0%)" stroke-width="2" /></svg>