<?xml version="1.0" encoding="utf-8" ?>
<svg baseProfile="full" height="256" version="1.1" width="256" xmlns="http://www.w3.org/2000/svg" xmlns:ev="http://www.w3.org/2001/xml-events" xmlns:xlink="http://www.w3.org/1999/xlink"><defs /><polyline fill="none" points="103,45 71,23 45,11 21,12 6,22 6,30 12,39 37,55 26,65 2,75 0,80 14,116 25,127 47,128 106,118 153,106 236,102 252,92 254,82 237,45 215,13 201,3 172,0 149,6 123,20 106,40 96,43" stroke="rgb(0%,0%,0%)" stroke-width="2" /><polyline fill="none" points="184,39 176,37 173,31 176,23 187,24 189,29 182,37 177,24 180,31 174,28 180,27 179,32 176,32 181,23 180,28 184,38" stroke="rgb(0%,0%,0%)" stroke-width="2" /></svg>