<?xml version="1.0" encoding="utf-8" ?>
<svg baseProfile="full" height="256" version="1.1" width="256" xmlns="http://www.w3.org/2000/svg" xmlns:ev="http://www.w3.org/2001/xml-events" xmlns:xlink="http://www.w3.org/1999/xlink"><defs /><polyline fill="none" points="28,0 57,5 95,5 88,20 86,49 91,77 105,102 105,110 96,123 40,131 32,130 13,117 3,90 8,71 30,25 30,0" stroke="rgb(0%,0%,0%)" stroke-width="2" /><polyline fill="none" points="52,139 52,184 46,214 38,240 36,238" stroke="rgb(0%,0%,0%)" stroke-width="2" /><polyline fill="none" points="61,124 62,193 59,223 56,223" stroke="rgb(0%,0%,0%)" stroke-width="2" /><polyline fill="none" points="34,232 27,237 7,238 2,241 0,248 44,252 52,255 86,247 87,239 83,229 62,227 58,222" stroke="rgb(0%,0%,0%)" stroke-width="2" /></svg>