<?xml version="1.0" encoding="utf-8" ?>
<svg baseProfile="full" height="256" version="1.1" width="256" xmlns="http://www.w3.org/2000/svg" xmlns:ev="http://www.w3.org/2001/xml-events" xmlns:xlink="http://www.w3.org/1999/xlink"><defs /><polyline fill="none" points="63,3 59,0 53,1 33,13 29,21 39,27 65,31 73,28 72,8 66,3" stroke="rgb(0%,0%,0%)" stroke-width="2" /><polyline fill="none" points="29,21 27,42 40,60 43,84 12,102 4,119 1,141 0,245 2,250 7,253 78,255 84,253 92,244 94,229 92,200 92,133 88,89 71,72 69,35" stroke="rgb(0%,0%,0%)" stroke-width="2" /></svg>