<?xml version="1.0" encoding="utf-8" ?>
<svg baseProfile="full" height="256" version="1.1" width="256" xmlns="http://www.w3.org/2000/svg" xmlns:ev="http://www.w3.org/2001/xml-events" xmlns:xlink="http://www.w3.org/1999/xlink"><defs /><polyline fill="none" points="17,67 41,56 77,46 103,43 170,43 216,15 231,14 247,21 254,26 255,40" stroke="rgb(0%,0%,0%)" stroke-width="2" /><polyline fill="none" points="220,16 215,6 204,0 202,3 204,11 215,16 205,3 216,7 212,9" stroke="rgb(0%,0%,0%)" stroke-width="2" /><polyline fill="none" points="240,16 250,1 252,3 248,16 251,7 244,6 241,12 248,7 244,11" stroke="rgb(0%,0%,0%)" stroke-width="2" /><polyline fill="none" points="232,27 232,27" stroke="rgb(0%,0%,0%)" stroke-width="2" /><polyline fill="none" points="242,27 242,27" stroke="rgb(0%,0%,0%)" stroke-width="2" /><polyline fill="none" points="254,35 255,49 251,63 254,80 234,77 225,66 199,68 180,83 178,128 174,134 162,138 143,133 135,111 126,110 108,115 100,133 92,143 81,121 79,107 75,103 69,111 60,135 44,134 43,111 33,119 23,140 18,141 4,116 3,98 11,74 32,61" stroke="rgb(0%,0%,0%)" stroke-width="2" /><polyline fill="none" points="57,51 51,99 64,58 50,96 44,119 62,57 58,98 67,68" stroke="rgb(0%,0%,0%)" stroke-width="2" /><polyline fill="none" points="126,44 99,141 121,61 115,79 115,71 123,44" stroke="rgb(0%,0%,0%)" stroke-width="2" /><polyline fill="none" points="174,41 165,73" stroke="rgb(0%,0%,0%)" stroke-width="2" /><polyline fill="none" points="28,58 0,151 35,80" stroke="rgb(0%,0%,0%)" stroke-width="2" /></svg>