<?xml version="1.0" encoding="utf-8" ?>
<svg baseProfile="full" height="160mm" version="1.1" width="247mm" xmlns="http://www.w3.org/2000/svg" xmlns:ev="http://www.w3.org/2001/xml-events" xmlns:xlink="http://www.w3.org/1999/xlink"><defs /><path d="M 72.62266036490644,73.31673794303407 A 5.676289680817726,5.676289680817726 0 0,1 77.15699735356405,83.72446806230228" fill="none" stroke="black" /><path d="M 77.15699735356405,83.72446806230228 A 5.676289680817726,5.676289680817726 0 0,1 87.56472747283226,79.19013107364466" fill="none" stroke="black" /><path d="M 87.56472747283226,79.19013107364466 A 5.676289680817726,5.676289680817726 0 0,1 83.03039048417465,68.78240095437646" fill="none" stroke="black" /><path d="M 83.03039048417465,68.78240095437646 A 5.676289680817726,5.676289680817726 0 0,1 72.62266036490644,73.31673794303407" fill="none" stroke="black" /><path d="M 72.62266036490644,73.31673794303407 A 5.676289680817726,5.676289680817726 0 0,1 68.08832337624882,62.90900782376586" fill="none" stroke="black" /><path d="M 68.08832337624882,62.90900782376586 A 5.676289680817726,5.676289680817726 0 0,1 57.680593256980615,67.44334481242348" fill="none" stroke="black" /><path d="M 57.680593256980615,67.44334481242348 A 5.676289680817726,5.676289680817726 0 0,1 62.21493024563822,77.85107493169168" fill="none" stroke="black" /><path d="M 62.21493024563822,77.85107493169168 A 5.676289680817726,5.676289680817726 0 0,1 72.62266036490644,73.31673794303407" fill="none" stroke="black" /><path d="M 72.62266036490644,73.31673794303407 A 5.676289680817726,5.676289680817726 0 0,1 68.08832337624882,62.90900782376586" fill="none" stroke="black" /><path d="M 68.08832337624882,62.90900782376586 A 5.676289680817726,5.676289680817726 0 0,1 78.49605349551703,58.37467083510825" fill="none" stroke="black" /><path d="M 78.49605349551703,58.37467083510825 A 5.676289680817726,5.676289680817726 0 0,1 83.03039048417465,68.78240095437646" fill="none" stroke="black" /><path d="M 83.03039048417465,68.78240095437646 A 5.676289680817726,5.676289680817726 0 0,1 93.43812060344285,64.24806396571884" fill="none" stroke="black" /><path d="M 93.43812060344285,64.24806396571884 A 5.676289680817726,5.676289680817726 0 0,1 88.90378361478524,53.84033384645063" fill="none" stroke="black" /><path d="M 88.90378361478524,53.84033384645063 A 5.676289680817726,5.676289680817726 0 0,1 78.49605349551703,58.37467083510825" fill="none" stroke="black" /><path d="M 78.49605349551703,58.37467083510825 A 5.676289680817726,5.676289680817726 0 0,1 73.96171650685942,47.96694071584004" fill="none" stroke="black" /><path d="M 73.96171650685942,47.96694071584004 A 5.676289680817726,5.676289680817726 0 0,1 84.36944662612763,43.432603727182425" fill="none" stroke="black" /><path d="M 84.36944662612763,43.432603727182425 A 5.676289680817726,5.676289680817726 0 0,1 79.83510963747001,33.024873607914216" fill="none" stroke="black" /><path d="M 79.83510963747001,33.024873607914216 A 5.676289680817726,5.676289680817726 0 0,1 69.4273795182018,37.55921059657183" fill="none" stroke="black" /><path d="M 69.4273795182018,37.55921059657183 A 5.676289680817726,5.676289680817726 0 0,1 73.96171650685942,47.96694071584004" fill="none" stroke="black" /><path d="M 73.96171650685942,47.96694071584004 A 5.676289680817726,5.676289680817726 0 0,1 63.55398638759121,52.50127770449765" fill="none" stroke="black" /><path d="M 63.55398638759121,52.50127770449765 A 5.676289680817726,5.676289680817726 0 0,1 68.08832337624882,62.90900782376586" fill="none" stroke="black" /><path d="M 68.08832337624882,62.90900782376586 A 5.676289680817726,5.676289680817726 0 0,1 78.49605349551703,58.37467083510825" fill="none" stroke="black" /><path d="M 78.49605349551703,58.37467083510825 A 5.676289680817726,5.676289680817726 0 0,1 73.96171650685942,47.96694071584004" fill="none" stroke="black" /><path d="M 73.96171650685942,47.96694071584004 A 5.676289680817726,5.676289680817726 0 0,1 63.5539863875912,52.50127770449763" fill="none" stroke="black" /><path d="M 63.5539863875912,52.50127770449763 A 5.676289680817726,5.676289680817726 0 0,1 59.01964939893361,42.093547585229416" fill="none" stroke="black" /><path d="M 59.01964939893361,42.093547585229416 A 5.676289680817726,5.676289680817726 0 0,1 69.42737951820183,37.559210596571816" fill="none" stroke="black" /><path d="M 69.42737951820183,37.559210596571816 A 5.676289680817726,5.676289680817726 0 0,1 64.89304252954423,27.1514804773036" fill="none" stroke="black" /><path d="M 64.89304252954423,27.1514804773036 A 5.676289680817726,5.676289680817726 0 0,1 54.485312410276016,31.685817465961197" fill="none" stroke="black" /><path d="M 54.485312410276016,31.685817465961197 A 5.676289680817726,5.676289680817726 0 0,1 59.01964939893363,42.0935475852294" fill="none" stroke="black" /><path d="M 59.01964939893363,42.0935475852294 A 5.676289680817726,5.676289680817726 0 0,1 48.611919279665415,46.627884573886995" fill="none" stroke="black" /><path d="M 212.06047076023503,133.1904094775437 A 15.56262483415248,15.56262483415248 0 0,1 227.35712864986084,106.08333615115774" fill="none" stroke="black" /><path d="M 227.35712864986084,106.08333615115774 A 15.56262483415248,15.56262483415248 0 0,1 200.25005532347487,90.78667826153192" fill="none" stroke="black" /><path d="M 200.25005532347487,90.78667826153192 A 15.56262483415248,15.56262483415248 0 0,1 184.95339743384903,117.89375158791789" fill="none" stroke="black" /><path d="M 184.95339743384903,117.89375158791789 A 15.56262483415248,15.56262483415248 0 0,1 212.060470760235,133.1904094775437" fill="none" stroke="black" /><path d="M 212.060470760235,133.1904094775437 A 15.56262483415248,15.56262483415248 0 0,1 196.76381287060917,160.29748280392968" fill="none" stroke="black" /><path d="M 196.76381287060917,160.29748280392968 A 15.56262483415248,15.56262483415248 0 0,1 223.87088619699514,175.59414069355552" fill="none" stroke="black" /><path d="M 223.87088619699514,175.59414069355552 A 15.56262483415248,15.56262483415248 0 0,1 239.16754408662098,148.48706736716954" fill="none" stroke="black" /><path d="M 239.16754408662098,148.48706736716954 A 15.56262483415248,15.56262483415248 0 0,1 212.060470760235,133.1904094775437" fill="none" stroke="black" /><path d="M 212.060470760235,133.1904094775437 A 15.56262483415248,15.56262483415248 0 0,1 196.76381287060917,160.29748280392968" fill="none" stroke="black" /><path d="M 196.76381287060917,160.29748280392968 A 15.56262483415248,15.56262483415248 0 0,1 169.6567395442232,145.00082491430385" fill="none" stroke="black" /><path d="M 169.6567395442232,145.00082491430385 A 15.56262483415248,15.56262483415248 0 0,1 184.95339743384903,117.89375158791788" fill="none" stroke="black" /><path d="M 184.95339743384903,117.89375158791788 A 15.56262483415248,15.56262483415248 0 0,1 157.84632410746306,102.59709369829204" fill="none" stroke="black" /><path d="M 157.84632410746306,102.59709369829204 A 15.56262483415248,15.56262483415248 0 0,1 142.54966621783723,129.70416702467801" fill="none" stroke="black" /><path d="M 142.54966621783723,129.70416702467801 A 15.56262483415248,15.56262483415248 0 0,1 169.6567395442232,145.00082491430385" fill="none" stroke="black" /><path d="M 169.6567395442232,145.00082491430385 A 15.56262483415248,15.56262483415248 0 0,1 154.36008165459737,172.10789824068982" fill="none" stroke="black" /><path d="M 154.36008165459737,172.10789824068982 A 15.56262483415248,15.56262483415248 0 0,1 127.2530083282114,156.811240351064" fill="none" stroke="black" /><path d="M 127.2530083282114,156.811240351064 A 15.56262483415248,15.56262483415248 0 0,1 111.95635043858556,183.91831367744996" fill="none" stroke="black" /><path d="M 111.95635043858556,183.91831367744996 A 15.56262483415248,15.56262483415248 0 0,1 139.06342376497153,199.2149715670758" fill="none" stroke="black" /><path d="M 139.06342376497153,199.2149715670758 A 15.56262483415248,15.56262483415248 0 0,1 154.36008165459737,172.10789824068982" fill="none" stroke="black" /><path d="M 154.36008165459737,172.10789824068982 A 15.56262483415248,15.56262483415248 0 0,1 181.46715498098334,187.40455613031565" fill="none" stroke="black" /><path d="M 181.46715498098334,187.40455613031565 A 15.56262483415248,15.56262483415248 0 0,1 196.76381287060917,160.29748280392968" fill="none" stroke="black" /><path d="M 196.76381287060917,160.29748280392968 A 15.56262483415248,15.56262483415248 0 0,1 169.65673954422323,145.00082491430382" fill="none" stroke="black" /><path d="M 169.65673954422323,145.00082491430382 A 15.56262483415248,15.56262483415248 0 0,1 154.36008165459737,172.10789824068976" fill="none" stroke="black" /><path d="M 154.36008165459737,172.10789824068976 A 15.56262483415248,15.56262483415248 0 0,1 181.4671549809833,187.40455613031563" fill="none" stroke="black" /><path d="M 181.4671549809833,187.40455613031563 A 15.56262483415248,15.56262483415248 0 0,1 166.17049709135745,214.51162945670157" fill="none" stroke="black" /><path d="M 166.17049709135745,214.51162945670157 A 15.56262483415248,15.56262483415248 0 0,1 139.0634237649715,199.2149715670757" fill="none" stroke="black" /><path d="M 139.0634237649715,199.2149715670757 A 15.56262483415248,15.56262483415248 0 0,1 123.76676587534564,226.32204489346165" fill="none" stroke="black" /><path d="M 123.76676587534564,226.32204489346165 A 15.56262483415248,15.56262483415248 0 0,1 150.87383920173158,241.6187027830875" fill="none" stroke="black" /><path d="M 150.87383920173158,241.6187027830875 A 15.56262483415248,15.56262483415248 0 0,1 166.17049709135745,214.51162945670157" fill="none" stroke="black" /><path d="M 166.17049709135745,214.51162945670157 A 15.56262483415248,15.56262483415248 0 0,1 193.2775704177434,229.80828734632743" fill="none" stroke="black" /></svg>