<?xml version="1.0" encoding="utf-8" ?>
<svg baseProfile="full" height="256" version="1.1" width="256" xmlns="http://www.w3.org/2000/svg" xmlns:ev="http://www.w3.org/2001/xml-events" xmlns:xlink="http://www.w3.org/1999/xlink"><defs /><polyline fill="none" points="0,131 5,110 28,88 60,76 132,65" stroke="rgb(0%,0%,0%)" stroke-width="2" /><polyline fill="none" points="1,135 38,145 66,146 142,111" stroke="rgb(0%,0%,0%)" stroke-width="2" /><polyline fill="none" points="139,114 136,133 142,147 164,178 172,185 180,187 186,180 187,171 186,105" stroke="rgb(0%,0%,0%)" stroke-width="2" /><polyline fill="none" points="129,67 129,23 132,9 138,5 146,6 154,14 176,50" stroke="rgb(0%,0%,0%)" stroke-width="2" /><polyline fill="none" points="180,45 192,48 230,33" stroke="rgb(0%,0%,0%)" stroke-width="2" /><polyline fill="none" points="220,35 243,0 253,46 254,91 231,107 188,108" stroke="rgb(0%,0%,0%)" stroke-width="2" /><polyline fill="none" points="9,133 28,128" stroke="rgb(0%,0%,0%)" stroke-width="2" /><polyline fill="none" points="37,133 48,126 60,112 76,79" stroke="rgb(0%,0%,0%)" stroke-width="2" /><polyline fill="none" points="52,133 41,139" stroke="rgb(0%,0%,0%)" stroke-width="2" /></svg>