<?xml version="1.0" encoding="utf-8" ?>
<svg baseProfile="full" height="256" version="1.1" width="256" xmlns="http://www.w3.org/2000/svg" xmlns:ev="http://www.w3.org/2001/xml-events" xmlns:xlink="http://www.w3.org/1999/xlink"><defs /><polyline fill="none" points="115,57 79,57 64,63 26,88 7,114 0,139 1,169 14,196 37,229 65,241 94,245 128,245 159,238 209,207 232,174 244,151 251,128 255,94 255,52 242,22 222,6 195,0 143,1 98,14 87,24" stroke="rgb(0%,0%,0%)" stroke-width="2" /><polyline fill="none" points="33,83 54,102 71,150 71,167 60,201 51,216 41,227" stroke="rgb(0%,0%,0%)" stroke-width="2" /><polyline fill="none" points="179,23 181,89 194,140 202,158 209,165 229,170" stroke="rgb(0%,0%,0%)" stroke-width="2" /><polyline fill="none" points="50,123 57,107 64,103" stroke="rgb(0%,0%,0%)" stroke-width="2" /><polyline fill="none" points="67,152 67,152" stroke="rgb(0%,0%,0%)" stroke-width="2" /></svg>