<?xml version="1.0" encoding="utf-8" ?>
<svg baseProfile="full" height="256" version="1.1" width="256" xmlns="http://www.w3.org/2000/svg" xmlns:ev="http://www.w3.org/2001/xml-events" xmlns:xlink="http://www.w3.org/1999/xlink"><defs /><polyline fill="none" points="27,125 32,103 42,80 50,67 72,43 102,21 121,12 160,0 176,1 191,6 212,21 219,33 227,56 229,81 228,111 223,125" stroke="rgb(0%,0%,0%)" stroke-width="2" /><polyline fill="none" points="23,121 255,114" stroke="rgb(0%,0%,0%)" stroke-width="2" /><polyline fill="none" points="27,116 24,130 23,177 24,193 33,216 48,233 61,240 73,244 102,247 116,245 131,238 159,220 180,201 212,151 222,121 219,104" stroke="rgb(0%,0%,0%)" stroke-width="2" /><polyline fill="none" points="62,120 35,189 70,143 88,129 93,127 94,133 89,147 49,219 79,174 106,139 117,128 127,122 123,140 85,219 141,150" stroke="rgb(0%,0%,0%)" stroke-width="2" /><polyline fill="none" points="171,122 106,228 116,213 187,142 193,139 194,145 164,215" stroke="rgb(0%,0%,0%)" stroke-width="2" /><polyline fill="none" points="0,121 6,125" stroke="rgb(0%,0%,0%)" stroke-width="2" /></svg>