<?xml version="1.0" encoding="utf-8" ?>
<svg baseProfile="full" height="256" version="1.1" width="256" xmlns="http://www.w3.org/2000/svg" xmlns:ev="http://www.w3.org/2001/xml-events" xmlns:xlink="http://www.w3.org/1999/xlink"><defs /><polyline fill="none" points="111,53 89,106 79,147 77,174 82,179 89,180 103,172 113,156 126,114 125,54 104,55" stroke="rgb(0%,0%,0%)" stroke-width="2" /><polyline fill="none" points="103,53 103,17 111,1 126,2 137,14 137,25 127,44" stroke="rgb(0%,0%,0%)" stroke-width="2" /><polyline fill="none" points="113,55 98,48 45,12 41,10 40,13 45,53 27,54 22,61 21,93 25,125 20,126 2,115 0,123 8,136 42,165 61,167 73,158" stroke="rgb(0%,0%,0%)" stroke-width="2" /><polyline fill="none" points="132,61 143,56 158,37 171,26 208,12 215,65 219,67 248,65 251,67 255,82 254,102 242,130 227,153 233,156 233,160 222,173 211,180 187,188 144,189 125,189 111,186 107,181" stroke="rgb(0%,0%,0%)" stroke-width="2" /></svg>