<?xml version="1.0" encoding="utf-8" ?>
<svg baseProfile="full" height="256" version="1.1" width="256" xmlns="http://www.w3.org/2000/svg" xmlns:ev="http://www.w3.org/2001/xml-events" xmlns:xlink="http://www.w3.org/1999/xlink"><defs /><polyline fill="none" points="17,0 5,7 0,36 2,74 22,123 58,125 77,113 97,107 126,86 141,88 158,96 182,113 224,136 233,134 245,123 255,99 254,60 246,35 234,18 222,8 209,7 169,27 143,44 119,49 100,49 75,37 46,18 10,10" stroke="rgb(0%,0%,0%)" stroke-width="2" /><polyline fill="none" points="94,46 92,59 101,70 108,71" stroke="rgb(0%,0%,0%)" stroke-width="2" /></svg>