<?xml version="1.0" encoding="utf-8" ?>
<svg baseProfile="full" height="256" version="1.1" width="256" xmlns="http://www.w3.org/2000/svg" xmlns:ev="http://www.w3.org/2001/xml-events" xmlns:xlink="http://www.w3.org/1999/xlink"><defs /><polyline fill="none" points="47,56 34,78" stroke="rgb(0%,0%,0%)" stroke-width="2" /><polyline fill="none" points="7,81 2,90 0,107 8,115 37,115 44,106 44,98 36,90 19,84" stroke="rgb(0%,0%,0%)" stroke-width="2" /><polyline fill="none" points="12,118 14,162" stroke="rgb(0%,0%,0%)" stroke-width="2" /><polyline fill="none" points="17,164 7,170 3,194 21,196 31,194 39,182 39,162 30,155 24,155" stroke="rgb(0%,0%,0%)" stroke-width="2" /><polyline fill="none" points="29,189 66,211" stroke="rgb(0%,0%,0%)" stroke-width="2" /><polyline fill="none" points="73,193 64,194 56,201 56,211 63,221 79,226 87,224 98,216 99,207 94,199 78,191" stroke="rgb(0%,0%,0%)" stroke-width="2" /><polyline fill="none" points="103,214 125,221 152,221 162,218" stroke="rgb(0%,0%,0%)" stroke-width="2" /><polyline fill="none" points="152,194 147,203 148,219 159,221 186,219 182,201 173,196 159,194" stroke="rgb(0%,0%,0%)" stroke-width="2" /><polyline fill="none" points="196,196 213,196 224,191 230,179" stroke="rgb(0%,0%,0%)" stroke-width="2" /><polyline fill="none" points="240,154 232,154 226,162 226,172 235,175 238,155" stroke="rgb(0%,0%,0%)" stroke-width="2" /><polyline fill="none" points="238,144 252,126 252,111" stroke="rgb(0%,0%,0%)" stroke-width="2" /><polyline fill="none" points="252,69 233,74 230,83 232,93 239,101 247,105 255,100 253,68" stroke="rgb(0%,0%,0%)" stroke-width="2" /><polyline fill="none" points="238,64 216,51 189,44" stroke="rgb(0%,0%,0%)" stroke-width="2" /><polyline fill="none" points="174,10 165,17 162,33 178,40 184,32 184,11 181,10" stroke="rgb(0%,0%,0%)" stroke-width="2" /><polyline fill="none" points="155,20 135,14 118,14 110,17 101,27" stroke="rgb(0%,0%,0%)" stroke-width="2" /><polyline fill="none" points="71,2 66,18 66,35 93,37 101,34 101,24 86,2 79,0" stroke="rgb(0%,0%,0%)" stroke-width="2" /></svg>