<?xml version="1.0" encoding="utf-8" ?>
<svg baseProfile="full" height="256" version="1.1" width="256" xmlns="http://www.w3.org/2000/svg" xmlns:ev="http://www.w3.org/2001/xml-events" xmlns:xlink="http://www.w3.org/1999/xlink"><defs /><polyline fill="none" points="35,55 38,36 46,21 62,7 80,0 94,2 99,6 104,14 110,35 128,20 149,13 167,20 179,36 181,60 175,72 160,85 183,87 199,99 211,118 212,139 197,173 181,187 168,192 151,191 140,188 132,180 140,177 150,185 154,194 155,212 146,232 124,250 114,253 87,254 75,251 60,241 48,220 48,203 58,179 64,174 69,176 68,187 62,193 49,198 42,196 22,178 9,157 4,140 8,116 17,105 25,109 27,115 26,124 20,132 15,133 7,128 2,117 0,101 4,83 11,70 22,58 41,52" stroke="rgb(0%,0%,0%)" stroke-width="2" /><polyline fill="none" points="107,26 53,61 40,81 44,115 69,167" stroke="rgb(0%,0%,0%)" stroke-width="2" /><polyline fill="none" points="122,36 88,84 77,110 71,135 75,194" stroke="rgb(0%,0%,0%)" stroke-width="2" /><polyline fill="none" points="150,26 118,113 75,196" stroke="rgb(0%,0%,0%)" stroke-width="2" /><polyline fill="none" points="37,55 63,74 111,100 162,134 198,164" stroke="rgb(0%,0%,0%)" stroke-width="2" /><polyline fill="none" points="11,105 23,108 103,144 143,168 171,193" stroke="rgb(0%,0%,0%)" stroke-width="2" /><polyline fill="none" points="48,183 73,187 100,186 164,168" stroke="rgb(0%,0%,0%)" stroke-width="2" /></svg>