<?xml version="1.0" encoding="utf-8" ?>
<svg baseProfile="full" height="256" version="1.1" width="256" xmlns="http://www.w3.org/2000/svg" xmlns:ev="http://www.w3.org/2001/xml-events" xmlns:xlink="http://www.w3.org/1999/xlink"><defs /><polyline fill="none" points="170,0 167,14 156,36 99,117 51,177 84,180 90,175 110,144 200,28 204,16 150,18 137,54" stroke="rgb(0%,0%,0%)" stroke-width="2" /><polyline fill="none" points="38,221 58,166" stroke="rgb(0%,0%,0%)" stroke-width="2" /><polyline fill="none" points="59,162 55,230 61,197" stroke="rgb(0%,0%,0%)" stroke-width="2" /><polyline fill="none" points="62,179 62,220 78,175 83,174 106,249 111,215 111,234 106,255 90,234 75,203 50,227 49,202 56,176 35,205 21,218 0,231 5,210 14,196 36,183 56,179 54,186 27,210 4,225 7,218 26,200 58,181 63,180 64,210 64,164 75,210 76,180 74,175 69,175 51,201 36,214 31,206 29,188" stroke="rgb(0%,0%,0%)" stroke-width="2" /></svg>