<?xml version="1.0" encoding="utf-8" ?>
<svg baseProfile="full" height="256" version="1.1" width="256" xmlns="http://www.w3.org/2000/svg" xmlns:ev="http://www.w3.org/2001/xml-events" xmlns:xlink="http://www.w3.org/1999/xlink"><defs /><polyline fill="none" points="1,62 0,25 30,29 34,3 84,5 157,0 254,1 253,61 236,61 225,42 219,37 205,53 188,60 89,63 85,56 81,37 70,29 48,50 3,58" stroke="rgb(0%,0%,0%)" stroke-width="2" /><polyline fill="none" points="68,57 62,52 61,43 71,39 76,44 73,57 65,63 60,56 62,44 68,41 76,41 81,52 77,67 74,69 65,70 62,61 64,53 68,49 74,50 78,61 69,63 65,56" stroke="rgb(0%,0%,0%)" stroke-width="2" /><polyline fill="none" points="207,63 205,57 209,51 223,47 231,53 232,63 230,66 221,71 213,71 210,64" stroke="rgb(0%,0%,0%)" stroke-width="2" /><polyline fill="none" points="44,23 54,12 67,12 77,18 67,25 43,25" stroke="rgb(0%,0%,0%)" stroke-width="2" /><polyline fill="none" points="111,15 111,15" stroke="rgb(0%,0%,0%)" stroke-width="2" /></svg>