<?xml version="1.0" encoding="utf-8" ?>
<svg baseProfile="full" height="256" version="1.1" width="256" xmlns="http://www.w3.org/2000/svg" xmlns:ev="http://www.w3.org/2001/xml-events" xmlns:xlink="http://www.w3.org/1999/xlink"><defs /><polyline fill="none" points="114,100 97,69 74,52 54,47 35,46 17,53 7,64 1,75 0,96 4,109 21,126 47,141 40,141 20,157 13,170 13,181 18,189 47,209 77,224 98,229 128,229 137,225 126,176 122,85 124,61 130,56 136,57 159,68 166,78 168,206 164,226 153,241 147,241 135,220" stroke="rgb(0%,0%,0%)" stroke-width="2" /><polyline fill="none" points="172,100 184,78 212,56 229,60 247,71 255,91 254,115 243,141 225,157 243,157 247,159 254,180 254,200 244,217 217,222 179,224 154,216" stroke="rgb(0%,0%,0%)" stroke-width="2" /><polyline fill="none" points="129,55 121,37 90,0" stroke="rgb(0%,0%,0%)" stroke-width="2" /></svg>