<?xml version="1.0" encoding="utf-8" ?>
<svg baseProfile="full" height="256" version="1.1" width="256" xmlns="http://www.w3.org/2000/svg" xmlns:ev="http://www.w3.org/2001/xml-events" xmlns:xlink="http://www.w3.org/1999/xlink"><defs /><polyline fill="none" points="178,147 151,131 119,124 47,122 23,127 4,139 1,145 1,161 19,173 66,189 102,194 159,193 173,184 177,172 177,164 162,154" stroke="rgb(0%,0%,0%)" stroke-width="2" /><polyline fill="none" points="180,144 173,189 175,255" stroke="rgb(0%,0%,0%)" stroke-width="2" /><polyline fill="none" points="3,164 11,226 19,248" stroke="rgb(0%,0%,0%)" stroke-width="2" /><polyline fill="none" points="175,180 176,205 168,215 159,211 144,190 139,193 133,214 124,220 112,215 98,201 90,219 76,220 61,210 56,210 49,219 36,196 32,194 29,200 25,201 16,174 12,169" stroke="rgb(0%,0%,0%)" stroke-width="2" /><polyline fill="none" points="125,153 127,104 124,90 118,89 61,89 51,96 50,116 54,132 61,146 72,153" stroke="rgb(0%,0%,0%)" stroke-width="2" /><polyline fill="none" points="97,43 96,86" stroke="rgb(0%,0%,0%)" stroke-width="2" /><polyline fill="none" points="89,48 76,43 71,34 71,23 78,3 83,0 101,18 104,32 98,41" stroke="rgb(0%,0%,0%)" stroke-width="2" /><polyline fill="none" points="184,253 165,247 43,252 25,244 16,235" stroke="rgb(0%,0%,0%)" stroke-width="2" /><polyline fill="none" points="172,224 172,224" stroke="rgb(0%,0%,0%)" stroke-width="2" /></svg>