<?xml version="1.0" encoding="utf-8" ?>
<svg baseProfile="full" height="256" version="1.1" width="256" xmlns="http://www.w3.org/2000/svg" xmlns:ev="http://www.w3.org/2001/xml-events" xmlns:xlink="http://www.w3.org/1999/xlink"><defs /><polyline fill="none" points="255,41 241,124 240,147 108,130 24,88 2,84 1,50 16,19 18,3 26,0 57,0 92,12 138,8 207,28 248,32" stroke="rgb(0%,0%,0%)" stroke-width="2" /><polyline fill="none" points="244,33 247,10 241,5 203,8 202,22" stroke="rgb(0%,0%,0%)" stroke-width="2" /><polyline fill="none" points="153,53 149,47 133,41 93,45 81,61 80,83 84,89 98,98 137,100 152,94 154,87 145,78 143,70 148,50" stroke="rgb(0%,0%,0%)" stroke-width="2" /></svg>