<?xml version="1.0" encoding="utf-8" ?>
<svg baseProfile="full" height="256" version="1.1" width="256" xmlns="http://www.w3.org/2000/svg" xmlns:ev="http://www.w3.org/2001/xml-events" xmlns:xlink="http://www.w3.org/1999/xlink"><defs /><polyline fill="none" points="76,3 51,10 1,43 17,58 26,81 56,88 43,93" stroke="rgb(0%,0%,0%)" stroke-width="2" /><polyline fill="none" points="50,114 96,88 105,80 106,72 102,64 53,48 42,41 42,38 59,29 84,23 56,8 54,6 64,0" stroke="rgb(0%,0%,0%)" stroke-width="2" /><polyline fill="none" points="199,13 160,16 167,23 205,44 207,47 204,52 180,63 140,74 160,95 163,110 161,147 169,165 179,173 176,176 164,179 159,180 161,176" stroke="rgb(0%,0%,0%)" stroke-width="2" /><polyline fill="none" points="181,175 228,173 218,173 205,165 200,157 200,146 215,123 247,103 248,100 245,93 255,68 254,63 247,60 214,50 176,33 188,28 227,25 217,18 182,2 179,7" stroke="rgb(0%,0%,0%)" stroke-width="2" /><polyline fill="none" points="42,111 35,122 0,150 7,154 55,161 42,168 5,174 50,194 56,198 57,204 69,203 110,188 120,180 122,170 117,154 101,138 55,113 72,95 28,78 8,73 82,103" stroke="rgb(0%,0%,0%)" stroke-width="2" /></svg>