<?xml version="1.0" encoding="utf-8" ?>
<svg baseProfile="full" height="256" version="1.1" width="256" xmlns="http://www.w3.org/2000/svg" xmlns:ev="http://www.w3.org/2001/xml-events" xmlns:xlink="http://www.w3.org/1999/xlink"><defs /><polyline fill="none" points="166,21 157,17 141,17 118,24 112,30 113,40 121,48 128,49 165,43 167,33 153,20" stroke="rgb(0%,0%,0%)" stroke-width="2" /><polyline fill="none" points="110,37 86,37 31,48 10,56 3,61 0,70 3,75 15,76 8,84 9,89 32,90 56,84 122,43" stroke="rgb(0%,0%,0%)" stroke-width="2" /><polyline fill="none" points="118,48 103,89 101,108 115,118 122,118 127,109 134,114 152,116 153,99 135,40" stroke="rgb(0%,0%,0%)" stroke-width="2" /><polyline fill="none" points="162,49 171,64 196,89 211,99 234,102 234,88 212,66 214,63 189,45 168,36" stroke="rgb(0%,0%,0%)" stroke-width="2" /><polyline fill="none" points="170,19 250,33 254,33 255,26 248,19 220,5 237,12 205,2 158,0" stroke="rgb(0%,0%,0%)" stroke-width="2" /></svg>