<?xml version="1.0" encoding="utf-8" ?>
<svg baseProfile="full" height="256" version="1.1" width="256" xmlns="http://www.w3.org/2000/svg" xmlns:ev="http://www.w3.org/2001/xml-events" xmlns:xlink="http://www.w3.org/1999/xlink"><defs /><polyline fill="none" points="122,129 103,120 63,119 44,129 40,143 55,152 87,154 121,132 124,126 122,121 113,118" stroke="rgb(0%,0%,0%)" stroke-width="2" /><polyline fill="none" points="79,115 75,101 75,59 84,39 92,37 98,45 100,54 100,119" stroke="rgb(0%,0%,0%)" stroke-width="2" /><polyline fill="none" points="60,123 49,121 20,91 12,67 13,43 23,41 35,52 55,87 67,117" stroke="rgb(0%,0%,0%)" stroke-width="2" /><polyline fill="none" points="116,114 123,88 137,68 151,62 156,62 160,67 160,78 152,95 134,115 120,126" stroke="rgb(0%,0%,0%)" stroke-width="2" /><polyline fill="none" points="143,65 147,42 150,39 158,47 170,34 171,42 182,40 181,46 166,60 152,67" stroke="rgb(0%,0%,0%)" stroke-width="2" /><polyline fill="none" points="89,33 85,12 91,0 96,9 97,18 96,15 100,10 104,11 103,22 94,31 96,33" stroke="rgb(0%,0%,0%)" stroke-width="2" /><polyline fill="none" points="13,44 3,38 0,23 9,13 10,25 11,13 19,3 24,3 26,15 20,32 21,41" stroke="rgb(0%,0%,0%)" stroke-width="2" /><polyline fill="none" points="83,158 83,158" stroke="rgb(0%,0%,0%)" stroke-width="2" /><polyline fill="none" points="73,131 72,145" stroke="rgb(0%,0%,0%)" stroke-width="2" /><polyline fill="none" points="255,202 255,202" stroke="rgb(0%,0%,0%)" stroke-width="2" /><polyline fill="none" points="255,202 72,172" stroke="rgb(0%,0%,0%)" stroke-width="2" /><polyline fill="none" points="255,202 255,202" stroke="rgb(0%,0%,0%)" stroke-width="2" /><polyline fill="none" points="255,202 255,202" stroke="rgb(0%,0%,0%)" stroke-width="2" /><polyline fill="none" points="98,126 92,128 93,162 91,180" stroke="rgb(0%,0%,0%)" stroke-width="2" /><polyline fill="none" points="76,124 70,149 69,182" stroke="rgb(0%,0%,0%)" stroke-width="2" /><polyline fill="none" points="155,64 152,62 160,52" stroke="rgb(0%,0%,0%)" stroke-width="2" /><polyline fill="none" points="93,33 92,20" stroke="rgb(0%,0%,0%)" stroke-width="2" /><polyline fill="none" points="18,40 14,30" stroke="rgb(0%,0%,0%)" stroke-width="2" /></svg>