<?xml version="1.0" encoding="utf-8" ?>
<svg baseProfile="full" height="256" version="1.1" width="256" xmlns="http://www.w3.org/2000/svg" xmlns:ev="http://www.w3.org/2001/xml-events" xmlns:xlink="http://www.w3.org/1999/xlink"><defs /><polyline fill="none" points="29,52 46,22 70,2 87,0 97,7 109,23 114,47 127,18 137,8 154,1 167,0 175,3 186,13 194,31 194,55 186,64 180,65 179,62 183,56 199,45 234,44 244,52 252,62 254,85 228,105 199,119 169,123 166,122 163,114 168,113 172,123 171,133 133,152 96,154 88,152 85,146 84,126 94,118 95,123 91,127 72,138 56,143 16,146 2,135 1,105 18,64 25,59" stroke="rgb(0%,0%,0%)" stroke-width="2" /></svg>