<?xml version="1.0" encoding="utf-8" ?>
<svg baseProfile="full" height="256" version="1.1" width="256" xmlns="http://www.w3.org/2000/svg" xmlns:ev="http://www.w3.org/2001/xml-events" xmlns:xlink="http://www.w3.org/1999/xlink"><defs /><polyline fill="none" points="8,40 3,54 3,92 0,81 0,46 7,36 18,28 26,26 39,32 47,43 48,57 48,4 105,0 198,3 201,36 198,57 202,41 218,34 235,35 255,60 255,78 251,92 245,94 187,93 163,99 104,96 22,98 4,93" stroke="rgb(0%,0%,0%)" stroke-width="2" /><polyline fill="none" points="47,63 73,60 109,65 176,64 185,60" stroke="rgb(0%,0%,0%)" stroke-width="2" /></svg>