<?xml version="1.0" encoding="utf-8" ?>
<svg baseProfile="full" height="256" version="1.1" width="256" xmlns="http://www.w3.org/2000/svg" xmlns:ev="http://www.w3.org/2001/xml-events" xmlns:xlink="http://www.w3.org/1999/xlink"><defs /><polyline fill="none" points="0,117 4,126 13,129 23,113 37,121 57,112 76,127 100,114 117,111 138,128 143,128 162,111 170,111 182,115 206,112 226,114" stroke="rgb(0%,0%,0%)" stroke-width="2" /><polyline fill="none" points="4,50 60,50 153,59 254,62 254,66 200,113" stroke="rgb(0%,0%,0%)" stroke-width="2" /><polyline fill="none" points="0,51 6,74 22,109" stroke="rgb(0%,0%,0%)" stroke-width="2" /><polyline fill="none" points="21,50 22,8 70,7 94,10 130,10 176,7 203,0 208,28 208,47" stroke="rgb(0%,0%,0%)" stroke-width="2" /></svg>