<?xml version="1.0" encoding="utf-8" ?>
<svg baseProfile="full" height="256" version="1.1" width="256" xmlns="http://www.w3.org/2000/svg" xmlns:ev="http://www.w3.org/2001/xml-events" xmlns:xlink="http://www.w3.org/1999/xlink"><defs /><polyline fill="none" points="97,34 87,48 77,55 33,65 16,75 9,84 6,99 13,143 25,156 41,159 134,161 151,157" stroke="rgb(0%,0%,0%)" stroke-width="2" /><polyline fill="none" points="94,48 100,30 112,17 125,8 147,1 180,1 198,12 211,24 217,39 214,73 240,86 245,96 245,112 235,132 244,160 245,180 240,188 229,198 207,201 197,192 195,180 213,157 215,143 205,134 179,119 174,105 175,96 180,87 188,81 201,78" stroke="rgb(0%,0%,0%)" stroke-width="2" /><polyline fill="none" points="149,163 148,188 122,255" stroke="rgb(0%,0%,0%)" stroke-width="2" /><polyline fill="none" points="20,76 16,85 17,95 30,97 34,94 37,69 29,63 21,65 16,70 9,82 8,92 12,93 18,87 30,67 33,53 22,56 9,76 11,87 21,87 25,83 28,66 19,63 6,80 3,95 13,97 21,91 32,71 28,64 16,69 12,74 9,88 15,93 22,93 28,93 35,89 40,79 41,66 36,57 28,56 19,68 18,89 26,95 37,96 43,93 45,83 42,76 37,70 22,64 4,67 0,77 1,87 8,91 16,89 26,79 30,58 25,56 17,61 6,74 4,84 7,91" stroke="rgb(0%,0%,0%)" stroke-width="2" /><polyline fill="none" points="111,62 115,56 124,56" stroke="rgb(0%,0%,0%)" stroke-width="2" /></svg>