<?xml version="1.0" encoding="utf-8" ?>
<svg baseProfile="full" height="256" version="1.1" width="256" xmlns="http://www.w3.org/2000/svg" xmlns:ev="http://www.w3.org/2001/xml-events" xmlns:xlink="http://www.w3.org/1999/xlink"><defs /><polyline fill="none" points="27,128 16,128 9,116 0,82 4,53 15,43 27,60 22,35 27,23 35,25 55,45 58,42 58,22 64,15 76,20 90,33 94,31 97,0 110,23 122,67 107,99 89,119 88,127 101,137 133,146 154,162 207,181 212,167 219,124 232,84 232,51" stroke="rgb(0%,0%,0%)" stroke-width="2" /><polyline fill="none" points="27,129 37,147 79,182 118,202 170,216 205,231 221,207 230,182 234,150 235,74" stroke="rgb(0%,0%,0%)" stroke-width="2" /><polyline fill="none" points="222,254 213,235" stroke="rgb(0%,0%,0%)" stroke-width="2" /><polyline fill="none" points="202,255 208,225 211,223 239,241 238,237 231,233 223,233 197,247" stroke="rgb(0%,0%,0%)" stroke-width="2" /></svg>