<?xml version="1.0" encoding="utf-8" ?>
<svg baseProfile="full" height="256" version="1.1" width="256" xmlns="http://www.w3.org/2000/svg" xmlns:ev="http://www.w3.org/2001/xml-events" xmlns:xlink="http://www.w3.org/1999/xlink"><defs /><polyline fill="none" points="93,60 88,55 66,46 52,47 36,65 30,89 3,107 3,93 0,89 3,78 8,68 19,58 65,43 76,43 92,53 106,57 126,45 170,6 178,2 193,0 227,15 243,29 255,53 255,73 240,103 226,120 212,131 195,139 175,165 166,168 149,169 146,177 130,177 122,166 120,146 125,123 124,103 119,99 92,98 79,128 77,172 71,176" stroke="rgb(0%,0%,0%)" stroke-width="2" /></svg>