<?xml version="1.0" encoding="utf-8" ?>
<svg baseProfile="full" height="256" version="1.1" width="256" xmlns="http://www.w3.org/2000/svg" xmlns:ev="http://www.w3.org/2001/xml-events" xmlns:xlink="http://www.w3.org/1999/xlink"><defs /><polyline fill="none" points="7,83 150,82 240,78" stroke="rgb(0%,0%,0%)" stroke-width="2" /><polyline fill="none" points="241,78 246,176" stroke="rgb(0%,0%,0%)" stroke-width="2" /><polyline fill="none" points="6,84 0,168 51,167 59,138 68,131 78,137 85,144 85,167 161,169 164,168 167,139 174,133 186,132 197,133 208,140 216,154 217,167 221,173 242,173" stroke="rgb(0%,0%,0%)" stroke-width="2" /><polyline fill="none" points="165,170 173,177 197,183 214,181 216,178 216,168" stroke="rgb(0%,0%,0%)" stroke-width="2" /><polyline fill="none" points="177,140 207,171" stroke="rgb(0%,0%,0%)" stroke-width="2" /><polyline fill="none" points="178,164 206,152" stroke="rgb(0%,0%,0%)" stroke-width="2" /><polyline fill="none" points="55,167 71,169 79,168 84,164" stroke="rgb(0%,0%,0%)" stroke-width="2" /><polyline fill="none" points="69,147 73,163" stroke="rgb(0%,0%,0%)" stroke-width="2" /><polyline fill="none" points="62,163 80,156" stroke="rgb(0%,0%,0%)" stroke-width="2" /><polyline fill="none" points="197,87 236,124 255,121" stroke="rgb(0%,0%,0%)" stroke-width="2" /><polyline fill="none" points="230,108 230,108" stroke="rgb(0%,0%,0%)" stroke-width="2" /><polyline fill="none" points="58,82 109,32 151,2" stroke="rgb(0%,0%,0%)" stroke-width="2" /><polyline fill="none" points="162,0 135,31 80,82" stroke="rgb(0%,0%,0%)" stroke-width="2" /><polyline fill="none" points="118,32 124,42" stroke="rgb(0%,0%,0%)" stroke-width="2" /><polyline fill="none" points="101,47 104,72" stroke="rgb(0%,0%,0%)" stroke-width="2" /><polyline fill="none" points="92,68 99,74" stroke="rgb(0%,0%,0%)" stroke-width="2" /></svg>