<?xml version="1.0" encoding="utf-8" ?>
<svg baseProfile="full" height="256" version="1.1" width="256" xmlns="http://www.w3.org/2000/svg" xmlns:ev="http://www.w3.org/2001/xml-events" xmlns:xlink="http://www.w3.org/1999/xlink"><defs /><polyline fill="none" points="20,255 21,179 25,158" stroke="rgb(0%,0%,0%)" stroke-width="2" /><polyline fill="none" points="49,158 30,157 6,139 0,125 0,105 5,93 20,79 45,73 57,74 76,89 83,114 83,131 76,149 57,161" stroke="rgb(0%,0%,0%)" stroke-width="2" /><polyline fill="none" points="20,134 15,133 8,119 7,103 11,96 31,85 53,86 71,96 76,104 78,124 71,135 56,143 32,143 17,134 8,122" stroke="rgb(0%,0%,0%)" stroke-width="2" /><polyline fill="none" points="36,75 37,61 45,44 68,16 87,0 117,36 128,66 132,88 138,176 138,245" stroke="rgb(0%,0%,0%)" stroke-width="2" /><polyline fill="none" points="8,187 44,198 83,198 127,181" stroke="rgb(0%,0%,0%)" stroke-width="2" /><polyline fill="none" points="27,212 46,219 68,221 100,221 121,216" stroke="rgb(0%,0%,0%)" stroke-width="2" /><polyline fill="none" points="33,65 100,64 125,55" stroke="rgb(0%,0%,0%)" stroke-width="2" /><polyline fill="none" points="66,72 94,76 130,76" stroke="rgb(0%,0%,0%)" stroke-width="2" /></svg>