<?xml version="1.0" encoding="utf-8" ?>
<svg baseProfile="full" height="256" version="1.1" width="256" xmlns="http://www.w3.org/2000/svg" xmlns:ev="http://www.w3.org/2001/xml-events" xmlns:xlink="http://www.w3.org/1999/xlink"><defs /><polyline fill="none" points="5,210 0,200 0,174 13,109 39,47 56,26 84,4 107,0 137,0 145,3 154,12 167,33 172,60 172,118 168,135 151,179 116,229 103,239 70,254 33,255 25,251 4,227 1,201" stroke="rgb(0%,0%,0%)" stroke-width="2" /><polyline fill="none" points="41,55 101,29 108,29 143,97 156,109" stroke="rgb(0%,0%,0%)" stroke-width="2" /><polyline fill="none" points="225,200 226,179 239,113 245,93 254,76" stroke="rgb(0%,0%,0%)" stroke-width="2" /></svg>