<?xml version="1.0" encoding="utf-8" ?>
<svg baseProfile="full" height="256" version="1.1" width="256" xmlns="http://www.w3.org/2000/svg" xmlns:ev="http://www.w3.org/2001/xml-events" xmlns:xlink="http://www.w3.org/1999/xlink"><defs /><polyline fill="none" points="214,193 217,180 215,156 205,119 194,98" stroke="rgb(0%,0%,0%)" stroke-width="2" /><polyline fill="none" points="224,84 237,108 246,138 250,156 246,187" stroke="rgb(0%,0%,0%)" stroke-width="2" /><polyline fill="none" points="187,38 177,41 173,47 172,61 175,67 182,70 190,66 204,49 197,41 181,40" stroke="rgb(0%,0%,0%)" stroke-width="2" /><polyline fill="none" points="192,88 188,80 188,90 198,102 214,103 221,91 217,68 238,71 253,64 255,59 253,49 242,40 225,38 209,42 234,21 237,14 235,10 222,2 207,0 191,8 180,31 165,13 156,15 137,28 133,37 139,45 154,49 169,45 150,59 139,73 133,83 136,92 151,94 168,89 175,80 176,70 173,66" stroke="rgb(0%,0%,0%)" stroke-width="2" /><polyline fill="none" points="52,73 40,78 33,93 33,101 39,112 50,117 59,116 70,109 78,93 79,84 74,73 65,68 50,67 44,72" stroke="rgb(0%,0%,0%)" stroke-width="2" /><polyline fill="none" points="64,75 59,73 57,66 68,48 84,36 98,33 103,36 101,49 88,70 114,68 121,71 129,84 131,95 121,107 104,111 83,102 91,113 93,124 90,133 73,151 53,156 37,156 31,152 26,140 29,131 33,127 28,129 4,115 0,105 3,94 9,87 25,77 39,76 45,78 47,82 33,77 23,62 27,50 33,44 44,41 58,41 67,45 70,50" stroke="rgb(0%,0%,0%)" stroke-width="2" /><polyline fill="none" points="70,159 70,159" stroke="rgb(0%,0%,0%)" stroke-width="2" /></svg>