<?xml version="1.0" encoding="utf-8" ?>
<svg baseProfile="full" height="256" version="1.1" width="256" xmlns="http://www.w3.org/2000/svg" xmlns:ev="http://www.w3.org/2001/xml-events" xmlns:xlink="http://www.w3.org/1999/xlink"><defs /><polyline fill="none" points="174,81 159,73 140,71 103,73 84,78 62,91 43,112 41,127 53,137 77,141 109,138 151,128 177,115 190,102 191,88 178,79 146,73" stroke="rgb(0%,0%,0%)" stroke-width="2" /><polyline fill="none" points="65,123 67,76 71,52 83,18" stroke="rgb(0%,0%,0%)" stroke-width="2" /><polyline fill="none" points="81,108 107,20 117,0" stroke="rgb(0%,0%,0%)" stroke-width="2" /><polyline fill="none" points="117,106 137,55 158,13" stroke="rgb(0%,0%,0%)" stroke-width="2" /><polyline fill="none" points="141,103 153,73 180,26" stroke="rgb(0%,0%,0%)" stroke-width="2" /><polyline fill="none" points="157,98 199,16" stroke="rgb(0%,0%,0%)" stroke-width="2" /><polyline fill="none" points="141,85 80,61 63,47 49,25" stroke="rgb(0%,0%,0%)" stroke-width="2" /><polyline fill="none" points="86,119 40,91 0,77" stroke="rgb(0%,0%,0%)" stroke-width="2" /><polyline fill="none" points="76,133 14,104" stroke="rgb(0%,0%,0%)" stroke-width="2" /><polyline fill="none" points="87,102 83,79 93,33" stroke="rgb(0%,0%,0%)" stroke-width="2" /><polyline fill="none" points="110,97 109,61 121,11" stroke="rgb(0%,0%,0%)" stroke-width="2" /><polyline fill="none" points="139,113 161,67" stroke="rgb(0%,0%,0%)" stroke-width="2" /><polyline fill="none" points="151,112 147,93 149,66 163,19" stroke="rgb(0%,0%,0%)" stroke-width="2" /><polyline fill="none" points="169,109 180,60 199,16" stroke="rgb(0%,0%,0%)" stroke-width="2" /><polyline fill="none" points="134,113 123,103 91,39" stroke="rgb(0%,0%,0%)" stroke-width="2" /><polyline fill="none" points="89,102 70,90 52,64" stroke="rgb(0%,0%,0%)" stroke-width="2" /><polyline fill="none" points="204,73 198,75 188,90 184,101 185,116 191,124 197,127 215,126 237,116 252,100 255,87 249,66 232,55 221,54 200,62 188,75" stroke="rgb(0%,0%,0%)" stroke-width="2" /><polyline fill="none" points="65,131 67,165" stroke="rgb(0%,0%,0%)" stroke-width="2" /><polyline fill="none" points="105,133 107,163 159,125 168,161" stroke="rgb(0%,0%,0%)" stroke-width="2" /></svg>