<?xml version="1.0" encoding="utf-8" ?>
<svg baseProfile="full" height="256" version="1.1" width="256" xmlns="http://www.w3.org/2000/svg" xmlns:ev="http://www.w3.org/2001/xml-events" xmlns:xlink="http://www.w3.org/1999/xlink"><defs /><polyline fill="none" points="251,138 248,105 240,78 227,54 207,31 177,11 157,2 125,1 101,9 81,22 66,38 37,78 21,115 13,181" stroke="rgb(0%,0%,0%)" stroke-width="2" /><polyline fill="none" points="244,132 253,152" stroke="rgb(0%,0%,0%)" stroke-width="2" /><polyline fill="none" points="255,159 255,159" stroke="rgb(0%,0%,0%)" stroke-width="2" /><polyline fill="none" points="254,160 202,111" stroke="rgb(0%,0%,0%)" stroke-width="2" /><polyline fill="none" points="204,116 187,111 157,109 109,118 70,135 31,160 0,192" stroke="rgb(0%,0%,0%)" stroke-width="2" /><polyline fill="none" points="6,162 11,180 14,206" stroke="rgb(0%,0%,0%)" stroke-width="2" /><polyline fill="none" points="56,143 86,176 127,237" stroke="rgb(0%,0%,0%)" stroke-width="2" /><polyline fill="none" points="192,109 175,128 162,148 127,246" stroke="rgb(0%,0%,0%)" stroke-width="2" /></svg>