<?xml version="1.0" encoding="utf-8" ?>
<svg baseProfile="full" height="256" version="1.1" width="256" xmlns="http://www.w3.org/2000/svg" xmlns:ev="http://www.w3.org/2001/xml-events" xmlns:xlink="http://www.w3.org/1999/xlink"><defs /><polyline fill="none" points="2,241 2,199 18,82 20,2 24,0 46,9 78,13 230,13 223,64 216,202 206,255 200,255" stroke="rgb(0%,0%,0%)" stroke-width="2" /><polyline fill="none" points="125,13 120,15 113,41 105,93" stroke="rgb(0%,0%,0%)" stroke-width="2" /><polyline fill="none" points="83,55 142,55" stroke="rgb(0%,0%,0%)" stroke-width="2" /><polyline fill="none" points="49,102 54,106 67,103 72,100 71,91 60,89 52,100 51,117 66,119" stroke="rgb(0%,0%,0%)" stroke-width="2" /><polyline fill="none" points="74,103 74,126 77,116 82,112 90,112 93,124 105,110 113,106 119,129 124,130 130,129 140,117 140,103 134,104 130,112 130,129 135,133 145,132 155,111 156,128 159,111 165,106 173,106" stroke="rgb(0%,0%,0%)" stroke-width="2" /><polyline fill="none" points="82,158 72,152 64,156 64,163 74,165 85,149 81,193 76,202 72,202 72,190 99,175 109,166 113,153 107,153 105,159 106,180 111,181 117,174 126,160 130,166 130,179 132,165 136,159 142,158 150,165 153,186" stroke="rgb(0%,0%,0%)" stroke-width="2" /><polyline fill="none" points="177,148 170,150 164,161 162,176 165,183 177,179 190,159 191,148 187,174 190,179 195,179 209,152 199,193 190,207 184,210 186,187 202,165" stroke="rgb(0%,0%,0%)" stroke-width="2" /></svg>