<?xml version="1.0" encoding="utf-8" ?>
<svg baseProfile="full" height="256" version="1.1" width="256" xmlns="http://www.w3.org/2000/svg" xmlns:ev="http://www.w3.org/2001/xml-events" xmlns:xlink="http://www.w3.org/1999/xlink"><defs /><polyline fill="none" points="4,128 22,167 27,196 45,253 50,255 163,253 168,248 169,241 171,122 20,121" stroke="rgb(0%,0%,0%)" stroke-width="2" /><polyline fill="none" points="80,121 80,88 84,79 84,69 82,64 60,61 53,52 52,34 79,24 98,24 108,27 116,48 115,62 112,67 99,70 122,70 132,64 135,59 135,50 125,47 134,46 139,42 141,29 132,23 116,23 102,33 107,24 105,15 87,13 73,24 58,26 50,34 47,48 55,53 66,53 51,53 46,57 47,61 94,71 101,70" stroke="rgb(0%,0%,0%)" stroke-width="2" /><polyline fill="none" points="95,115 121,96 140,91 217,89 145,84 117,89 75,106 68,104 53,87 38,80 0,78 33,88 88,118" stroke="rgb(0%,0%,0%)" stroke-width="2" /><polyline fill="none" points="82,34 92,46 92,42 97,44 97,40 92,39" stroke="rgb(0%,0%,0%)" stroke-width="2" /><polyline fill="none" points="75,29 65,12 53,3 31,0 17,5 15,10 16,14 23,18 52,23 57,26 56,30 29,38 24,46 38,52 71,53" stroke="rgb(0%,0%,0%)" stroke-width="2" /></svg>