<?xml version="1.0" encoding="utf-8" ?>
<svg baseProfile="full" height="256" version="1.1" width="256" xmlns="http://www.w3.org/2000/svg" xmlns:ev="http://www.w3.org/2001/xml-events" xmlns:xlink="http://www.w3.org/1999/xlink"><defs /><polyline fill="none" points="131,0 183,1 245,20 255,37 251,42 236,49 202,59 152,63 93,64 43,60 0,49 6,43 32,32 73,24 113,21 202,23 238,30 248,40 249,47 244,55 212,71 112,96 77,100 24,100 10,95 4,83 37,77 123,74 203,76 214,80 218,96 219,121 212,135 202,144 178,154 154,160 81,166 78,164 79,160 93,146 142,124 165,118 176,118 188,124 195,131 194,142 176,160 146,172 113,181 88,180 94,173 105,168 129,160 152,158 161,160 166,171 165,179 155,188 133,199 162,206 142,216" stroke="rgb(0%,0%,0%)" stroke-width="2" /></svg>