<?xml version="1.0" encoding="utf-8" ?>
<svg baseProfile="full" height="256" version="1.1" width="256" xmlns="http://www.w3.org/2000/svg" xmlns:ev="http://www.w3.org/2001/xml-events" xmlns:xlink="http://www.w3.org/1999/xlink"><defs /><polyline fill="none" points="44,69 12,144 0,184 30,156 74,103 69,137 62,252 87,255 131,248 126,106 145,128 171,148 183,152 171,126 159,111 137,88 98,59 54,62" stroke="rgb(0%,0%,0%)" stroke-width="2" /><polyline fill="none" points="75,66 65,54 62,47 63,38 72,35 81,36 82,53" stroke="rgb(0%,0%,0%)" stroke-width="2" /><polyline fill="none" points="64,42 42,32 41,20 54,8 79,0 93,7 95,39 94,45 80,49 78,43" stroke="rgb(0%,0%,0%)" stroke-width="2" /><polyline fill="none" points="56,26 56,24" stroke="rgb(0%,0%,0%)" stroke-width="2" /></svg>