<?xml version="1.0" encoding="utf-8" ?>
<svg baseProfile="full" height="256" version="1.1" width="256" xmlns="http://www.w3.org/2000/svg" xmlns:ev="http://www.w3.org/2001/xml-events" xmlns:xlink="http://www.w3.org/1999/xlink"><defs /><polyline fill="none" points="111,50 83,48 61,57 48,67 37,92 37,120 48,141 72,164 92,172 116,173 133,160 140,145 142,113 138,85 127,67 110,49 95,47" stroke="rgb(0%,0%,0%)" stroke-width="2" /><polyline fill="none" points="74,69 70,70 66,76 66,83 72,84 79,76 79,69" stroke="rgb(0%,0%,0%)" stroke-width="2" /><polyline fill="none" points="114,79 100,77 100,84 115,85 116,75 109,75" stroke="rgb(0%,0%,0%)" stroke-width="2" /><polyline fill="none" points="87,95 87,99" stroke="rgb(0%,0%,0%)" stroke-width="2" /><polyline fill="none" points="71,127 91,114 109,127 112,140 108,145 99,145 75,126" stroke="rgb(0%,0%,0%)" stroke-width="2" /><polyline fill="none" points="1,55 18,14 30,0 131,3 138,9 162,17 172,26 186,53 186,108 176,134 177,144 183,154 182,189 176,204 165,210 124,211 93,204 52,201 14,181 8,171 0,136 0,112 5,97 3,35" stroke="rgb(0%,0%,0%)" stroke-width="2" /><polyline fill="none" points="30,193 23,195 21,213 26,223 35,231 88,239 121,239 142,230 153,213 153,197 140,191" stroke="rgb(0%,0%,0%)" stroke-width="2" /><polyline fill="none" points="28,226 16,242 15,255 36,249 50,238 53,232" stroke="rgb(0%,0%,0%)" stroke-width="2" /></svg>