<?xml version="1.0" encoding="utf-8" ?>
<svg baseProfile="full" height="256" version="1.1" width="256" xmlns="http://www.w3.org/2000/svg" xmlns:ev="http://www.w3.org/2001/xml-events" xmlns:xlink="http://www.w3.org/1999/xlink"><defs /><polyline fill="none" points="29,37 29,109 34,113 57,110 61,103 59,70 50,31 49,6 38,0 14,4 3,8 0,13 13,42 24,47 36,47 52,40 74,39 124,45 159,53 176,121 177,128 170,129 132,121 44,114 34,196 34,252 40,255 46,255 47,249 42,200 43,120" stroke="rgb(0%,0%,0%)" stroke-width="2" /></svg>