<?xml version="1.0" encoding="utf-8" ?>
<svg baseProfile="full" height="256" version="1.1" width="256" xmlns="http://www.w3.org/2000/svg" xmlns:ev="http://www.w3.org/2001/xml-events" xmlns:xlink="http://www.w3.org/1999/xlink"><defs /><polyline fill="none" points="121,25 112,8 99,2 86,2 67,13 53,35 51,54 57,68 68,76 83,78 93,75 113,56 118,40 116,24 110,15 98,15" stroke="rgb(0%,0%,0%)" stroke-width="2" /><polyline fill="none" points="47,94 47,94" stroke="rgb(0%,0%,0%)" stroke-width="2" /><polyline fill="none" points="71,74 67,98" stroke="rgb(0%,0%,0%)" stroke-width="2" /><polyline fill="none" points="79,112 74,102 65,97 55,96 39,103 21,127 13,161 18,186 30,201 42,208 71,212 86,207 107,195 128,173 131,161 131,147 121,126 107,110 92,103 79,102" stroke="rgb(0%,0%,0%)" stroke-width="2" /><polyline fill="none" points="19,115 1,89 2,84" stroke="rgb(0%,0%,0%)" stroke-width="2" /><polyline fill="none" points="128,111 141,95 152,88" stroke="rgb(0%,0%,0%)" stroke-width="2" /><polyline fill="none" points="34,184 8,231" stroke="rgb(0%,0%,0%)" stroke-width="2" /><polyline fill="none" points="115,188 121,218 131,228" stroke="rgb(0%,0%,0%)" stroke-width="2" /><polyline fill="none" points="138,147 149,148 167,141 189,123 198,107 202,77 210,69 243,49 254,37 255,23 249,15" stroke="rgb(0%,0%,0%)" stroke-width="2" /><polyline fill="none" points="78,25 84,25" stroke="rgb(0%,0%,0%)" stroke-width="2" /><polyline fill="none" points="99,28 98,30" stroke="rgb(0%,0%,0%)" stroke-width="2" /><polyline fill="none" points="71,43 75,52 84,56 94,48 95,40" stroke="rgb(0%,0%,0%)" stroke-width="2" /><polyline fill="none" points="57,18 54,13 55,0" stroke="rgb(0%,0%,0%)" stroke-width="2" /></svg>