<?xml version="1.0" encoding="utf-8" ?>
<svg baseProfile="full" height="256" version="1.1" width="256" xmlns="http://www.w3.org/2000/svg" xmlns:ev="http://www.w3.org/2001/xml-events" xmlns:xlink="http://www.w3.org/1999/xlink"><defs /><polyline fill="none" points="95,59 93,55 71,48 37,44 31,48 21,60 3,97 0,117 15,146 30,157 39,159 62,157 80,148 97,136 108,116 111,82 91,58" stroke="rgb(0%,0%,0%)" stroke-width="2" /><polyline fill="none" points="253,63 253,62" stroke="rgb(0%,0%,0%)" stroke-width="2" /><polyline fill="none" points="254,61 254,61" stroke="rgb(0%,0%,0%)" stroke-width="2" /><polyline fill="none" points="254,61 239,49 222,46 206,46 192,58 187,72 189,91 199,117 208,127 232,129 250,115 253,110 254,80 245,62 225,44" stroke="rgb(0%,0%,0%)" stroke-width="2" /><polyline fill="none" points="95,67 154,73 186,72" stroke="rgb(0%,0%,0%)" stroke-width="2" /><polyline fill="none" points="214,8 215,44 214,9 222,7 208,6 208,0" stroke="rgb(0%,0%,0%)" stroke-width="2" /><polyline fill="none" points="149,68 151,30 140,29 137,23 143,20 159,19 165,25 163,29 149,29" stroke="rgb(0%,0%,0%)" stroke-width="2" /><polyline fill="none" points="51,48 54,69 54,110 105,86" stroke="rgb(0%,0%,0%)" stroke-width="2" /></svg>