<?xml version="1.0" encoding="utf-8" ?>
<svg baseProfile="full" height="256" version="1.1" width="256" xmlns="http://www.w3.org/2000/svg" xmlns:ev="http://www.w3.org/2001/xml-events" xmlns:xlink="http://www.w3.org/1999/xlink"><defs /><polyline fill="none" points="1,8 9,102 25,187 20,230 23,254 174,254 250,249 254,242 255,224 250,127 241,68 221,33 219,4 213,0 163,14 131,18 63,8 5,9" stroke="rgb(0%,0%,0%)" stroke-width="2" /><polyline fill="none" points="43,47 46,52 53,159 49,200 55,223 64,224 124,213 192,217 216,209 220,201 214,112 197,45 125,60 82,55 54,61" stroke="rgb(0%,0%,0%)" stroke-width="2" /></svg>