<?xml version="1.0" encoding="utf-8" ?>
<svg baseProfile="full" height="256" version="1.1" width="256" xmlns="http://www.w3.org/2000/svg" xmlns:ev="http://www.w3.org/2001/xml-events" xmlns:xlink="http://www.w3.org/1999/xlink"><defs /><polyline fill="none" points="2,181 72,121 129,65 137,49 140,24 137,13 122,4 119,8 118,46 84,90 17,149 0,175 12,176" stroke="rgb(0%,0%,0%)" stroke-width="2" /><polyline fill="none" points="111,56 98,46 101,1 88,8 76,37 76,63 82,73 93,80" stroke="rgb(0%,0%,0%)" stroke-width="2" /><polyline fill="none" points="116,97 178,143 205,170 232,174 251,174 254,169 255,153 249,145 172,110 146,90" stroke="rgb(0%,0%,0%)" stroke-width="2" /></svg>