<?xml version="1.0" encoding="utf-8" ?>
<svg baseProfile="full" height="256" version="1.1" width="256" xmlns="http://www.w3.org/2000/svg" xmlns:ev="http://www.w3.org/2001/xml-events" xmlns:xlink="http://www.w3.org/1999/xlink"><defs /><polyline fill="none" points="19,97 15,92 14,76 18,62 24,55 40,49 76,57 88,57 96,48 103,24 114,16 131,17 176,28 227,30 245,37 253,56 254,84 249,95 236,102 211,105 109,105 47,99 13,92" stroke="rgb(0%,0%,0%)" stroke-width="2" /><polyline fill="none" points="19,101 11,98 5,99 1,104 1,111 12,122 31,128 45,126 58,119 63,109 58,101" stroke="rgb(0%,0%,0%)" stroke-width="2" /><polyline fill="none" points="120,107 107,107 98,112 97,121 110,130 119,132 134,128 138,120 135,111" stroke="rgb(0%,0%,0%)" stroke-width="2" /><polyline fill="none" points="189,112 180,110 169,115 166,123 173,130 184,133 196,132 204,127 204,120" stroke="rgb(0%,0%,0%)" stroke-width="2" /><polyline fill="none" points="251,107 244,104 236,108 232,114 233,120 241,125 248,125 253,119 254,111" stroke="rgb(0%,0%,0%)" stroke-width="2" /><polyline fill="none" points="91,58 107,58 124,53 131,43 134,26" stroke="rgb(0%,0%,0%)" stroke-width="2" /><polyline fill="none" points="136,23 137,19" stroke="rgb(0%,0%,0%)" stroke-width="2" /><polyline fill="none" points="160,24 163,16 171,14 183,17 183,26" stroke="rgb(0%,0%,0%)" stroke-width="2" /><polyline fill="none" points="154,9 138,0" stroke="rgb(0%,0%,0%)" stroke-width="2" /><polyline fill="none" points="165,10 157,2" stroke="rgb(0%,0%,0%)" stroke-width="2" /><polyline fill="none" points="198,7 214,1" stroke="rgb(0%,0%,0%)" stroke-width="2" /><polyline fill="none" points="189,16 209,14" stroke="rgb(0%,0%,0%)" stroke-width="2" /></svg>