<?xml version="1.0" encoding="utf-8" ?>
<svg baseProfile="full" height="256" version="1.1" width="256" xmlns="http://www.w3.org/2000/svg" xmlns:ev="http://www.w3.org/2001/xml-events" xmlns:xlink="http://www.w3.org/1999/xlink"><defs /><polyline fill="none" points="42,113 30,64 27,35 29,17 40,1 56,0 84,7 100,15 109,25 116,42 118,64 108,128 118,96 146,36 162,24 172,23 181,26 199,48 190,114 183,130 134,205 124,216 105,231 58,222 37,214 26,204 22,183 27,148 36,122 37,101" stroke="rgb(0%,0%,0%)" stroke-width="2" /><polyline fill="none" points="54,105 67,40 74,28 80,23 89,35 93,54 93,77 86,111" stroke="rgb(0%,0%,0%)" stroke-width="2" /><polyline fill="none" points="132,137 130,127 134,112 156,65 165,59 184,77 184,87 175,118 168,129 159,134" stroke="rgb(0%,0%,0%)" stroke-width="2" /><polyline fill="none" points="68,136 61,142 60,148 67,143 65,132" stroke="rgb(0%,0%,0%)" stroke-width="2" /><polyline fill="none" points="107,152 107,147 103,149 96,161 100,164 107,163 117,157 118,152 115,149" stroke="rgb(0%,0%,0%)" stroke-width="2" /><polyline fill="none" points="74,171 59,182 56,187 58,192 68,191 85,182 86,171 83,168 78,169" stroke="rgb(0%,0%,0%)" stroke-width="2" /><polyline fill="none" points="120,176 80,174 84,178 118,181 111,184 86,184 113,189" stroke="rgb(0%,0%,0%)" stroke-width="2" /><polyline fill="none" points="51,169 48,163 40,163 48,171 72,178 38,180" stroke="rgb(0%,0%,0%)" stroke-width="2" /><polyline fill="none" points="50,189 49,200" stroke="rgb(0%,0%,0%)" stroke-width="2" /><polyline fill="none" points="41,192 42,204 47,209 62,211 72,206" stroke="rgb(0%,0%,0%)" stroke-width="2" /><polyline fill="none" points="25,223 11,247 0,255" stroke="rgb(0%,0%,0%)" stroke-width="2" /></svg>