<?xml version="1.0" encoding="utf-8" ?>
<svg baseProfile="full" height="256" version="1.1" width="256" xmlns="http://www.w3.org/2000/svg" xmlns:ev="http://www.w3.org/2001/xml-events" xmlns:xlink="http://www.w3.org/1999/xlink"><defs /><polyline fill="none" points="105,106 97,111 94,116 103,117 113,111 117,101 112,99 100,108 108,111 117,108 114,113 116,115" stroke="rgb(0%,0%,0%)" stroke-width="2" /><polyline fill="none" points="120,114 153,97 171,92 214,84 255,81" stroke="rgb(0%,0%,0%)" stroke-width="2" /><polyline fill="none" points="126,116 214,119" stroke="rgb(0%,0%,0%)" stroke-width="2" /><polyline fill="none" points="100,115 36,120 0,132" stroke="rgb(0%,0%,0%)" stroke-width="2" /><polyline fill="none" points="93,122 77,126 48,144 29,160 24,169" stroke="rgb(0%,0%,0%)" stroke-width="2" /><polyline fill="none" points="60,63 82,41 97,34 172,40 187,18 201,5 216,0 225,2 231,14 229,26 222,42 196,78 200,101 210,120 210,150 195,172 164,192 145,198 123,198 86,187 72,176 61,150 52,104 22,80 16,70 14,58 24,50 39,51 60,58 69,67" stroke="rgb(0%,0%,0%)" stroke-width="2" /><polyline fill="none" points="82,76 68,79 55,88 53,98 60,106 85,100 122,77 133,78 167,90 177,89 187,79 187,74 183,68 152,59 122,62 74,80" stroke="rgb(0%,0%,0%)" stroke-width="2" /><polyline fill="none" points="81,87 82,88" stroke="rgb(0%,0%,0%)" stroke-width="2" /><polyline fill="none" points="164,74 164,74" stroke="rgb(0%,0%,0%)" stroke-width="2" /><polyline fill="none" points="154,80 156,82" stroke="rgb(0%,0%,0%)" stroke-width="2" /><polyline fill="none" points="97,148 133,163 146,162 169,155" stroke="rgb(0%,0%,0%)" stroke-width="2" /><polyline fill="none" points="111,115 120,155" stroke="rgb(0%,0%,0%)" stroke-width="2" /><polyline fill="none" points="119,118 125,146" stroke="rgb(0%,0%,0%)" stroke-width="2" /><polyline fill="none" points="114,120 120,153 124,157 136,158 170,151" stroke="rgb(0%,0%,0%)" stroke-width="2" /><polyline fill="none" points="75,81 77,96 87,101" stroke="rgb(0%,0%,0%)" stroke-width="2" /></svg>