<?xml version="1.0" encoding="utf-8" ?>
<svg baseProfile="full" height="256" version="1.1" width="256" xmlns="http://www.w3.org/2000/svg" xmlns:ev="http://www.w3.org/2001/xml-events" xmlns:xlink="http://www.w3.org/1999/xlink"><defs /><polyline fill="none" points="8,49 8,27 16,17 31,14 40,17 55,5 80,0 100,2 106,8 107,17 123,12 140,13 146,19 146,39 163,39 163,43 149,52 100,69 67,77 44,78 43,74 48,72 19,75 4,68 1,53 10,42" stroke="rgb(0%,0%,0%)" stroke-width="2" /><polyline fill="none" points="8,93 6,101 6,110 8,112" stroke="rgb(0%,0%,0%)" stroke-width="2" /><polyline fill="none" points="68,91 72,107" stroke="rgb(0%,0%,0%)" stroke-width="2" /><polyline fill="none" points="125,82 129,101" stroke="rgb(0%,0%,0%)" stroke-width="2" /><polyline fill="none" points="157,103 150,121" stroke="rgb(0%,0%,0%)" stroke-width="2" /><polyline fill="none" points="67,147 64,168" stroke="rgb(0%,0%,0%)" stroke-width="2" /><polyline fill="none" points="71,170 81,177" stroke="rgb(0%,0%,0%)" stroke-width="2" /><polyline fill="none" points="141,164 138,182" stroke="rgb(0%,0%,0%)" stroke-width="2" /><polyline fill="none" points="123,163 114,173" stroke="rgb(0%,0%,0%)" stroke-width="2" /><polyline fill="none" points="1,157 0,204" stroke="rgb(0%,0%,0%)" stroke-width="2" /><polyline fill="none" points="23,216 23,231" stroke="rgb(0%,0%,0%)" stroke-width="2" /><polyline fill="none" points="64,245 66,255" stroke="rgb(0%,0%,0%)" stroke-width="2" /><polyline fill="none" points="118,228 124,238" stroke="rgb(0%,0%,0%)" stroke-width="2" /><polyline fill="none" points="161,220 159,235" stroke="rgb(0%,0%,0%)" stroke-width="2" /></svg>