<?xml version="1.0" encoding="utf-8" ?>
<svg baseProfile="full" height="256" version="1.1" width="256" xmlns="http://www.w3.org/2000/svg" xmlns:ev="http://www.w3.org/2001/xml-events" xmlns:xlink="http://www.w3.org/1999/xlink"><defs /><polyline fill="none" points="247,0 231,18 137,88 89,131" stroke="rgb(0%,0%,0%)" stroke-width="2" /><polyline fill="none" points="12,88 153,198 169,208 175,208" stroke="rgb(0%,0%,0%)" stroke-width="2" /><polyline fill="none" points="0,92 0,114 12,174 14,177 18,172" stroke="rgb(0%,0%,0%)" stroke-width="2" /><polyline fill="none" points="31,112 30,125 46,198 52,197" stroke="rgb(0%,0%,0%)" stroke-width="2" /><polyline fill="none" points="60,140 73,216 76,220 81,220" stroke="rgb(0%,0%,0%)" stroke-width="2" /><polyline fill="none" points="92,155 92,187 102,239 106,243 110,233" stroke="rgb(0%,0%,0%)" stroke-width="2" /><polyline fill="none" points="120,184 130,254 137,255" stroke="rgb(0%,0%,0%)" stroke-width="2" /><polyline fill="none" points="157,213 157,213" stroke="rgb(0%,0%,0%)" stroke-width="2" /></svg>