<?xml version="1.0" encoding="utf-8" ?>
<svg baseProfile="full" height="256" version="1.1" width="256" xmlns="http://www.w3.org/2000/svg" xmlns:ev="http://www.w3.org/2001/xml-events" xmlns:xlink="http://www.w3.org/1999/xlink"><defs /><polyline fill="none" points="253,0 216,87" stroke="rgb(0%,0%,0%)" stroke-width="2" /><polyline fill="none" points="253,1 255,11 250,78 243,96 231,115" stroke="rgb(0%,0%,0%)" stroke-width="2" /><polyline fill="none" points="212,88 186,62 164,51 142,45 113,43 81,45 57,53 38,65 21,83 4,116 0,138 1,158 17,186 47,210 64,220 104,232 149,232 174,228 198,220 218,207 237,186 244,166 245,142 240,123 233,112 210,87" stroke="rgb(0%,0%,0%)" stroke-width="2" /><polyline fill="none" points="160,76 153,78 147,90 159,95 169,87 170,80 159,76 150,86 163,80 160,86 159,80 155,89" stroke="rgb(0%,0%,0%)" stroke-width="2" /><polyline fill="none" points="236,148 172,148" stroke="rgb(0%,0%,0%)" stroke-width="2" /></svg>