<?xml version="1.0" encoding="utf-8" ?>
<svg baseProfile="full" height="256" version="1.1" width="256" xmlns="http://www.w3.org/2000/svg" xmlns:ev="http://www.w3.org/2001/xml-events" xmlns:xlink="http://www.w3.org/1999/xlink"><defs /><polyline fill="none" points="57,74 48,98 57,94 65,80 60,76 55,76" stroke="rgb(0%,0%,0%)" stroke-width="2" /><polyline fill="none" points="82,67 69,82 60,104 61,112 74,111 80,105 84,93 82,84 75,72" stroke="rgb(0%,0%,0%)" stroke-width="2" /><polyline fill="none" points="103,67 87,81 80,100 83,116 91,119 101,115 108,102 108,80 105,72 97,71" stroke="rgb(0%,0%,0%)" stroke-width="2" /><polyline fill="none" points="130,66 119,78 112,101 113,118 121,123 135,121 144,109 145,101 142,76 137,66 131,63 124,65" stroke="rgb(0%,0%,0%)" stroke-width="2" /><polyline fill="none" points="160,62 149,80 145,114 150,129 155,133 166,131 180,100 180,84 170,68 157,66 151,69" stroke="rgb(0%,0%,0%)" stroke-width="2" /><polyline fill="none" points="172,66 171,49 185,25 219,5 237,2 249,4 194,68 173,86" stroke="rgb(0%,0%,0%)" stroke-width="2" /><polyline fill="none" points="169,123 196,164 212,180 199,179 180,167 169,155 160,134" stroke="rgb(0%,0%,0%)" stroke-width="2" /><polyline fill="none" points="57,101 41,102 32,98 18,85 7,67 0,42 0,28 6,14 17,3 3,26 16,21 7,44 21,46 18,64 26,63 28,67 22,82 33,78 31,89 47,84 50,91" stroke="rgb(0%,0%,0%)" stroke-width="2" /><polyline fill="none" points="194,80 173,102 169,118 181,132 196,132 212,125 224,111 224,102 220,94 206,85 190,83 186,85" stroke="rgb(0%,0%,0%)" stroke-width="2" /><polyline fill="none" points="210,96 209,104" stroke="rgb(0%,0%,0%)" stroke-width="2" /><polyline fill="none" points="203,117 203,122" stroke="rgb(0%,0%,0%)" stroke-width="2" /><polyline fill="none" points="193,99 192,113" stroke="rgb(0%,0%,0%)" stroke-width="2" /><polyline fill="none" points="248,0 225,24 255,17" stroke="rgb(0%,0%,0%)" stroke-width="2" /><polyline fill="none" points="196,179 188,167 186,156 208,171" stroke="rgb(0%,0%,0%)" stroke-width="2" /></svg>