<?xml version="1.0" encoding="utf-8" ?>
<svg baseProfile="full" height="256" version="1.1" width="256" xmlns="http://www.w3.org/2000/svg" xmlns:ev="http://www.w3.org/2001/xml-events" xmlns:xlink="http://www.w3.org/1999/xlink"><defs /><polyline fill="none" points="254,34 218,22 193,25 176,13 148,0 145,13 147,29 81,33 72,36 65,43 45,50 30,49 16,42 5,27 0,79 14,72 49,71 76,83 93,84 129,74 205,72 234,67 248,61 212,59 203,55 206,50 235,34 252,33 255,36" stroke="rgb(0%,0%,0%)" stroke-width="2" /></svg>