<?xml version="1.0" encoding="utf-8" ?>
<svg baseProfile="full" height="256" version="1.1" width="256" xmlns="http://www.w3.org/2000/svg" xmlns:ev="http://www.w3.org/2001/xml-events" xmlns:xlink="http://www.w3.org/1999/xlink"><defs /><polyline fill="none" points="76,19 51,28 26,42 3,64 0,75 4,85 16,95 30,101 62,105 91,105 125,99 148,92 193,72 228,51 248,34 254,24 253,15 240,7 179,1 111,4 65,16" stroke="rgb(0%,0%,0%)" stroke-width="2" /><polyline fill="none" points="51,104 45,118 53,140 67,149 76,148 81,143 83,128 78,118 64,110 48,110" stroke="rgb(0%,0%,0%)" stroke-width="2" /><polyline fill="none" points="217,49 201,72 199,91 204,101 214,107 226,107 235,102 242,84 238,67 221,61 209,63 199,69" stroke="rgb(0%,0%,0%)" stroke-width="2" /></svg>