<?xml version="1.0" encoding="utf-8" ?>
<svg baseProfile="full" height="256" version="1.1" width="256" xmlns="http://www.w3.org/2000/svg" xmlns:ev="http://www.w3.org/2001/xml-events" xmlns:xlink="http://www.w3.org/1999/xlink"><defs /><polyline fill="none" points="176,25 147,33 66,45 41,55 13,70 1,83 1,93 5,98 20,101 75,101 135,90 197,73 221,56 222,49 214,48 186,35 168,22" stroke="rgb(0%,0%,0%)" stroke-width="2" /><polyline fill="none" points="175,23 190,6 201,0 230,0 244,3 254,12 254,33 244,43 221,52" stroke="rgb(0%,0%,0%)" stroke-width="2" /><polyline fill="none" points="191,42 121,56 1,92" stroke="rgb(0%,0%,0%)" stroke-width="2" /><polyline fill="none" points="183,23 194,15 215,6 235,5 242,7 247,12 247,27 229,47" stroke="rgb(0%,0%,0%)" stroke-width="2" /><polyline fill="none" points="1,92 9,103 23,110 81,110 129,102" stroke="rgb(0%,0%,0%)" stroke-width="2" /></svg>