<?xml version="1.0" encoding="utf-8" ?>
<svg baseProfile="full" height="256" version="1.1" width="256" xmlns="http://www.w3.org/2000/svg" xmlns:ev="http://www.w3.org/2001/xml-events" xmlns:xlink="http://www.w3.org/1999/xlink"><defs /><polyline fill="none" points="67,204 67,240 67,245 73,249 87,255 112,255 130,248 143,231 158,197 168,163 170,121 186,80 212,24 215,14 213,3 198,0 151,2 121,17 120,21 131,36 135,112 108,164 101,171 88,170 76,158 62,134 53,130 39,131 31,155 9,185 1,200 0,205 4,207 14,207 37,192 56,192 69,201" stroke="rgb(0%,0%,0%)" stroke-width="2" /></svg>