<?xml version="1.0" encoding="utf-8" ?>
<svg baseProfile="full" height="256" version="1.1" width="256" xmlns="http://www.w3.org/2000/svg" xmlns:ev="http://www.w3.org/2001/xml-events" xmlns:xlink="http://www.w3.org/1999/xlink"><defs /><polyline fill="none" points="0,18 19,21 34,32 37,49 30,88 30,106 39,116 54,124 69,141 81,144 99,138 120,114 124,105 121,103 109,110 104,116 105,119 130,126 157,139 170,152 168,155 173,159 202,158 229,151 238,144" stroke="rgb(0%,0%,0%)" stroke-width="2" /><polyline fill="none" points="128,27 129,33 132,32 164,3 171,0 177,6 187,40 195,42 214,37 230,57 242,59 255,55" stroke="rgb(0%,0%,0%)" stroke-width="2" /></svg>