<?xml version="1.0" encoding="utf-8" ?>
<svg baseProfile="full" height="256" version="1.1" width="256" xmlns="http://www.w3.org/2000/svg" xmlns:ev="http://www.w3.org/2001/xml-events" xmlns:xlink="http://www.w3.org/1999/xlink"><defs /><polyline fill="none" points="4,17 1,60 2,81 82,87 252,82 255,58 253,39 233,29 180,15 73,4 6,2 0,28" stroke="rgb(0%,0%,0%)" stroke-width="2" /><polyline fill="none" points="85,20 44,20 35,28 30,38 30,48 35,58 68,73 91,73 113,57 111,44 103,34 86,19 79,19" stroke="rgb(0%,0%,0%)" stroke-width="2" /><polyline fill="none" points="245,43 199,38 180,39 171,49 170,63 176,71 187,77 215,76 233,67 232,55 225,47 218,41 202,36" stroke="rgb(0%,0%,0%)" stroke-width="2" /><polyline fill="none" points="57,13 62,8 85,7" stroke="rgb(0%,0%,0%)" stroke-width="2" /><polyline fill="none" points="38,0 38,0" stroke="rgb(0%,0%,0%)" stroke-width="2" /></svg>