<?xml version="1.0" encoding="utf-8" ?>
<svg baseProfile="full" height="256" version="1.1" width="256" xmlns="http://www.w3.org/2000/svg" xmlns:ev="http://www.w3.org/2001/xml-events" xmlns:xlink="http://www.w3.org/1999/xlink"><defs /><polyline fill="none" points="7,48 253,46 255,63 253,150 250,153 226,163 187,167 90,167 1,163 13,92 13,44" stroke="rgb(0%,0%,0%)" stroke-width="2" /><polyline fill="none" points="0,165 5,185 50,190 118,190 180,176 241,170 251,164 251,149" stroke="rgb(0%,0%,0%)" stroke-width="2" /><polyline fill="none" points="109,44 101,0" stroke="rgb(0%,0%,0%)" stroke-width="2" /><polyline fill="none" points="112,45 146,16" stroke="rgb(0%,0%,0%)" stroke-width="2" /><polyline fill="none" points="17,172 17,172" stroke="rgb(0%,0%,0%)" stroke-width="2" /><polyline fill="none" points="13,173 27,173" stroke="rgb(0%,0%,0%)" stroke-width="2" /><polyline fill="none" points="39,175 39,175" stroke="rgb(0%,0%,0%)" stroke-width="2" /></svg>