<?xml version="1.0" encoding="utf-8" ?>
<svg baseProfile="full" height="256" version="1.1" width="256" xmlns="http://www.w3.org/2000/svg" xmlns:ev="http://www.w3.org/2001/xml-events" xmlns:xlink="http://www.w3.org/1999/xlink"><defs /><polyline fill="none" points="130,15 129,53 159,52 254,63 248,21 191,23 133,16" stroke="rgb(0%,0%,0%)" stroke-width="2" /><polyline fill="none" points="137,30 155,27 178,32 198,26 218,34 241,32" stroke="rgb(0%,0%,0%)" stroke-width="2" /><polyline fill="none" points="147,39 177,39 205,46 245,41 241,47" stroke="rgb(0%,0%,0%)" stroke-width="2" /><polyline fill="none" points="142,44 243,52" stroke="rgb(0%,0%,0%)" stroke-width="2" /><polyline fill="none" points="128,26 81,27 80,40 99,44 141,42" stroke="rgb(0%,0%,0%)" stroke-width="2" /><polyline fill="none" points="79,28 67,17 57,16 51,3 45,0 28,11 23,24 14,26 0,23 5,42 10,43 26,34 30,50 37,43 42,28 57,35 67,48 78,39" stroke="rgb(0%,0%,0%)" stroke-width="2" /></svg>