<?xml version="1.0" encoding="utf-8" ?>
<svg baseProfile="full" height="256" version="1.1" width="256" xmlns="http://www.w3.org/2000/svg" xmlns:ev="http://www.w3.org/2001/xml-events" xmlns:xlink="http://www.w3.org/1999/xlink"><defs /><polyline fill="none" points="23,5 67,11 84,20 109,36 120,55 120,74 117,84 107,92 78,102 44,103 20,49 17,17 84,15 98,18 107,24 122,43 126,57 125,85 107,105 77,113 55,110 46,100 34,76 32,53 38,42 52,35 66,32 83,32 98,38 109,48 116,62 119,80 119,129 110,154 100,161 79,162 63,151 42,123 35,103 35,54 43,50 56,52 82,69 93,82 99,97 103,127 100,141 91,144 63,144 46,139 30,127 23,115 21,92 32,75 43,71 80,68 94,73 104,84 112,115 112,148 104,162 69,160 42,145 31,134 32,109 40,90 53,75 72,63 89,65 99,74 111,92 116,111 117,130 117,152 112,166 101,177 82,184 21,185 8,179 2,171 0,137 1,120 6,107 13,100 26,95 38,93 74,94 95,102 107,112 114,125 117,142 117,160 111,179 102,191 73,203 41,203 28,194 19,183 14,159 14,145 21,137 44,128 79,126 96,128 109,135 118,147 122,160 122,176 119,191 111,201 95,208 50,208 35,201 22,191 12,167 12,148 17,130 29,114 52,102 87,100 104,102 122,114 133,129 137,143 136,179 123,197 107,207 86,212 49,212 36,207 18,190 14,180 13,163 15,155 23,151 54,150 69,156 80,166 99,191 108,218 87,222 46,218 31,212 27,202 28,194 47,178 58,173 75,172 96,183 102,190 107,201 106,222 95,232 60,238 42,237 36,231 33,221 33,187 38,176 46,167 70,156 106,154 114,160 118,173 120,205 117,221 104,240 92,243 71,244 62,239 51,227 49,204 50,188 56,178 70,169 113,169 126,177 135,189 139,204 139,233 128,248 113,254 61,254 46,250 34,244 24,229 28,196 41,151 57,124 73,115 104,117 124,139 129,157 129,175 122,196 111,213 95,223 57,226 47,221 40,213 38,188 48,117 53,95 62,79 76,62 86,59 111,59 126,70 136,89 138,131 115,172 104,180 88,180 65,169 43,151 34,137 30,120 34,80 50,53 72,26 89,10 106,0" stroke="rgb(0%,0%,0%)" stroke-width="2" /></svg>