<?xml version="1.0" encoding="utf-8" ?>
<svg baseProfile="full" height="256" version="1.1" width="256" xmlns="http://www.w3.org/2000/svg" xmlns:ev="http://www.w3.org/2001/xml-events" xmlns:xlink="http://www.w3.org/1999/xlink"><defs /><polyline fill="none" points="7,22 50,45 77,49 180,12 228,0 233,1 240,8 251,28 255,51 247,65 231,71 216,71 186,62 175,62 113,80 97,83 66,83 35,76 30,65 19,56 18,39 12,28" stroke="rgb(0%,0%,0%)" stroke-width="2" /><polyline fill="none" points="4,25 0,18 2,17 7,24 16,29" stroke="rgb(0%,0%,0%)" stroke-width="2" /><polyline fill="none" points="190,59 198,87 193,91 137,95 34,113 20,116 21,120 48,132 83,121 164,114 177,110 211,85" stroke="rgb(0%,0%,0%)" stroke-width="2" /></svg>