<?xml version="1.0" encoding="utf-8" ?>
<svg baseProfile="full" height="256" version="1.1" width="256" xmlns="http://www.w3.org/2000/svg" xmlns:ev="http://www.w3.org/2001/xml-events" xmlns:xlink="http://www.w3.org/1999/xlink"><defs /><polyline fill="none" points="8,4 223,0 252,2 255,8 255,19 249,38 237,61 216,83 183,101 158,108 120,113 75,109 51,102 33,91 13,67 4,41 0,7" stroke="rgb(0%,0%,0%)" stroke-width="2" /><polyline fill="none" points="20,7 2,5" stroke="rgb(0%,0%,0%)" stroke-width="2" /><polyline fill="none" points="10,7 10,26 15,43 37,74 52,86 74,99 92,106 112,109 135,106 153,100 194,78 222,50 246,10" stroke="rgb(0%,0%,0%)" stroke-width="2" /><polyline fill="none" points="91,14 91,14" stroke="rgb(0%,0%,0%)" stroke-width="2" /><polyline fill="none" points="117,5 117,6" stroke="rgb(0%,0%,0%)" stroke-width="2" /><polyline fill="none" points="155,8 155,8" stroke="rgb(0%,0%,0%)" stroke-width="2" /><polyline fill="none" points="170,14 170,14" stroke="rgb(0%,0%,0%)" stroke-width="2" /><polyline fill="none" points="160,29 159,29" stroke="rgb(0%,0%,0%)" stroke-width="2" /><polyline fill="none" points="92,37 92,38" stroke="rgb(0%,0%,0%)" stroke-width="2" /></svg>