<?xml version="1.0" encoding="utf-8" ?>
<svg baseProfile="full" height="256" version="1.1" width="256" xmlns="http://www.w3.org/2000/svg" xmlns:ev="http://www.w3.org/2001/xml-events" xmlns:xlink="http://www.w3.org/1999/xlink"><defs /><polyline fill="none" points="80,169 61,163 27,131 25,123 31,119 62,120 123,145 181,133 200,133 213,136 225,147 225,155 217,159 130,169 79,168" stroke="rgb(0%,0%,0%)" stroke-width="2" /><polyline fill="none" points="88,126 80,55" stroke="rgb(0%,0%,0%)" stroke-width="2" /><polyline fill="none" points="179,139 183,62 207,73 228,103 255,72 196,41 181,37" stroke="rgb(0%,0%,0%)" stroke-width="2" /><polyline fill="none" points="80,55 47,78 8,98 1,79 0,63 6,49 14,45 60,41 92,28 137,50 180,50 197,43 198,28 192,6 177,0 151,1 146,4 135,21 129,38 130,47" stroke="rgb(0%,0%,0%)" stroke-width="2" /><polyline fill="none" points="152,33 159,38 172,40 186,32" stroke="rgb(0%,0%,0%)" stroke-width="2" /></svg>