<?xml version="1.0" encoding="utf-8" ?>
<svg baseProfile="full" height="256" version="1.1" width="256" xmlns="http://www.w3.org/2000/svg" xmlns:ev="http://www.w3.org/2001/xml-events" xmlns:xlink="http://www.w3.org/1999/xlink"><defs /><polyline fill="none" points="23,12 18,13 8,23 2,33 0,48 22,60 36,60 56,49" stroke="rgb(0%,0%,0%)" stroke-width="2" /><polyline fill="none" points="18,9 21,4 59,0 75,2 89,9 96,19 105,63 128,54 150,50 201,50 241,69 252,91 252,116 235,128 225,132 180,132" stroke="rgb(0%,0%,0%)" stroke-width="2" /><polyline fill="none" points="59,47 58,42 68,43 84,46 95,53 98,66 94,102 110,131 118,139 182,142 229,135" stroke="rgb(0%,0%,0%)" stroke-width="2" /><polyline fill="none" points="123,133 129,153 103,151 92,157 87,164 90,172 96,176 110,180 121,180 132,168 133,160 131,144 123,141" stroke="rgb(0%,0%,0%)" stroke-width="2" /><polyline fill="none" points="136,145 142,151 153,177 130,179" stroke="rgb(0%,0%,0%)" stroke-width="2" /><polyline fill="none" points="208,129 204,141 209,159 181,159 176,162 175,169 185,177 196,177 216,165 219,158 218,142 206,126" stroke="rgb(0%,0%,0%)" stroke-width="2" /><polyline fill="none" points="230,123 242,157 242,169 214,177" stroke="rgb(0%,0%,0%)" stroke-width="2" /><polyline fill="none" points="189,52 235,43 253,35 236,46 233,52 238,53 227,60 240,64 247,61 234,61 214,70 245,38 253,21 253,12 248,7 229,10 208,19 184,36 186,40 208,40 243,32" stroke="rgb(0%,0%,0%)" stroke-width="2" /><polyline fill="none" points="240,16 203,34 228,34 255,26 236,41" stroke="rgb(0%,0%,0%)" stroke-width="2" /><polyline fill="none" points="120,58 113,95 104,112" stroke="rgb(0%,0%,0%)" stroke-width="2" /><polyline fill="none" points="140,51 132,67 136,105 130,118 129,136 126,144" stroke="rgb(0%,0%,0%)" stroke-width="2" /><polyline fill="none" points="159,49 154,67 148,144" stroke="rgb(0%,0%,0%)" stroke-width="2" /><polyline fill="none" points="177,50 175,96 162,148" stroke="rgb(0%,0%,0%)" stroke-width="2" /><polyline fill="none" points="194,58 189,141" stroke="rgb(0%,0%,0%)" stroke-width="2" /><polyline fill="none" points="211,56 211,105 207,131" stroke="rgb(0%,0%,0%)" stroke-width="2" /><polyline fill="none" points="231,67 237,84 238,124" stroke="rgb(0%,0%,0%)" stroke-width="2" /></svg>