<?xml version="1.0" encoding="utf-8" ?>
<svg baseProfile="full" height="256" version="1.1" width="256" xmlns="http://www.w3.org/2000/svg" xmlns:ev="http://www.w3.org/2001/xml-events" xmlns:xlink="http://www.w3.org/1999/xlink"><defs /><polyline fill="none" points="244,188 234,27 213,19 161,19 137,23 99,23 88,27 82,43 85,101 83,107 79,109 45,110 12,105 2,107 2,205 22,203 47,195" stroke="rgb(0%,0%,0%)" stroke-width="2" /><polyline fill="none" points="44,199 42,185 45,176 57,161 66,154 74,153 92,157 96,162 107,190 175,191 179,167 190,151 198,145 208,146 218,153 231,169 238,188 255,183" stroke="rgb(0%,0%,0%)" stroke-width="2" /><polyline fill="none" points="224,164 221,156 213,150 199,148 186,154 179,173 179,193 186,204 210,208 232,196 239,178 214,156" stroke="rgb(0%,0%,0%)" stroke-width="2" /><polyline fill="none" points="95,166 77,155 62,156 40,174 35,197 42,210 64,224 79,221 86,217 94,207 103,188 105,175 98,161" stroke="rgb(0%,0%,0%)" stroke-width="2" /><polyline fill="none" points="147,81 145,60 150,40 166,72" stroke="rgb(0%,0%,0%)" stroke-width="2" /><polyline fill="none" points="150,42 169,40 167,78 181,75 204,76 204,84 199,121 168,112 164,152 136,153 133,139 136,105 122,104 99,107 99,95 103,77 146,76" stroke="rgb(0%,0%,0%)" stroke-width="2" /><polyline fill="none" points="83,64 83,64" stroke="rgb(0%,0%,0%)" stroke-width="2" /><polyline fill="none" points="117,0 117,13" stroke="rgb(0%,0%,0%)" stroke-width="2" /></svg>