<?xml version="1.0" encoding="utf-8" ?>
<svg baseProfile="full" height="256" version="1.1" width="256" xmlns="http://www.w3.org/2000/svg" xmlns:ev="http://www.w3.org/2001/xml-events" xmlns:xlink="http://www.w3.org/1999/xlink"><defs /><polyline fill="none" points="123,27 117,219" stroke="rgb(0%,0%,0%)" stroke-width="2" /><polyline fill="none" points="130,20 129,26 145,34 182,36 224,29 255,16 241,51 235,79 230,156 231,212 181,211 130,229 118,230" stroke="rgb(0%,0%,0%)" stroke-width="2" /><polyline fill="none" points="134,23 115,21 85,26 49,27 24,16 1,0 0,7 0,150 8,224 23,227 61,215 84,211 104,212 119,218" stroke="rgb(0%,0%,0%)" stroke-width="2" /><polyline fill="none" points="138,14 154,20 177,21 219,12 232,7" stroke="rgb(0%,0%,0%)" stroke-width="2" /><polyline fill="none" points="141,21 212,23 221,22 233,14" stroke="rgb(0%,0%,0%)" stroke-width="2" /></svg>