<?xml version="1.0" encoding="utf-8" ?>
<svg baseProfile="full" height="256" version="1.1" width="256" xmlns="http://www.w3.org/2000/svg" xmlns:ev="http://www.w3.org/2001/xml-events" xmlns:xlink="http://www.w3.org/1999/xlink"><defs /><polyline fill="none" points="6,178 19,141 22,27 25,8 28,1 49,0 159,18 252,23 255,33 253,52 220,130 205,184 174,246 166,247 2,204 0,185 16,151" stroke="rgb(0%,0%,0%)" stroke-width="2" /><polyline fill="none" points="63,31 54,67 119,78 158,91 190,96 194,96 200,87 202,54 123,46 78,33" stroke="rgb(0%,0%,0%)" stroke-width="2" /><polyline fill="none" points="53,121 56,120" stroke="rgb(0%,0%,0%)" stroke-width="2" /><polyline fill="none" points="78,119 85,120" stroke="rgb(0%,0%,0%)" stroke-width="2" /><polyline fill="none" points="102,123 120,125" stroke="rgb(0%,0%,0%)" stroke-width="2" /><polyline fill="none" points="134,127 165,130" stroke="rgb(0%,0%,0%)" stroke-width="2" /><polyline fill="none" points="174,132 175,132" stroke="rgb(0%,0%,0%)" stroke-width="2" /><polyline fill="none" points="32,171 48,173" stroke="rgb(0%,0%,0%)" stroke-width="2" /><polyline fill="none" points="69,178 89,180" stroke="rgb(0%,0%,0%)" stroke-width="2" /><polyline fill="none" points="127,186 198,195" stroke="rgb(0%,0%,0%)" stroke-width="2" /><polyline fill="none" points="209,197 210,197" stroke="rgb(0%,0%,0%)" stroke-width="2" /></svg>