<?xml version="1.0" encoding="utf-8" ?>
<svg baseProfile="full" height="256" version="1.1" width="256" xmlns="http://www.w3.org/2000/svg" xmlns:ev="http://www.w3.org/2001/xml-events" xmlns:xlink="http://www.w3.org/1999/xlink"><defs /><polyline fill="none" points="63,93 64,157 68,212 74,247 126,255 138,254 149,246 159,234 164,217 165,184 157,136 144,111 129,98 96,90 59,86 2,89" stroke="rgb(0%,0%,0%)" stroke-width="2" /><polyline fill="none" points="78,87 73,46 74,24 91,8 107,0 123,30 130,62 129,73 125,80 109,92" stroke="rgb(0%,0%,0%)" stroke-width="2" /><polyline fill="none" points="90,85 87,44 97,31 107,62 106,82" stroke="rgb(0%,0%,0%)" stroke-width="2" /></svg>