<?xml version="1.0" encoding="utf-8" ?>
<svg baseProfile="full" height="256" version="1.1" width="256" xmlns="http://www.w3.org/2000/svg" xmlns:ev="http://www.w3.org/2001/xml-events" xmlns:xlink="http://www.w3.org/1999/xlink"><defs /><polyline fill="none" points="234,26 222,22 217,36 216,67 223,76 245,78 250,75 255,61 255,44 247,33 231,24 222,23" stroke="rgb(0%,0%,0%)" stroke-width="2" /><polyline fill="none" points="220,35 172,31 147,42 106,34 55,36 44,40 16,62 8,70 1,84 0,102 3,108 85,132 120,133 133,126 138,119 140,92 144,86 170,84 199,88 209,82" stroke="rgb(0%,0%,0%)" stroke-width="2" /><polyline fill="none" points="61,72 65,37 56,23 42,16" stroke="rgb(0%,0%,0%)" stroke-width="2" /><polyline fill="none" points="23,4 21,11 24,17 36,20 36,6 32,0" stroke="rgb(0%,0%,0%)" stroke-width="2" /></svg>