<?xml version="1.0" encoding="utf-8" ?>
<svg baseProfile="full" height="256" version="1.1" width="256" xmlns="http://www.w3.org/2000/svg" xmlns:ev="http://www.w3.org/2001/xml-events" xmlns:xlink="http://www.w3.org/1999/xlink"><defs /><polyline fill="none" points="6,92 22,89 116,53 158,34 203,7 224,0 215,34 217,43 225,61 242,83 255,92 250,97 226,105 156,116 93,121 52,113 0,92" stroke="rgb(0%,0%,0%)" stroke-width="2" /><polyline fill="none" points="51,76 50,83 55,99" stroke="rgb(0%,0%,0%)" stroke-width="2" /><polyline fill="none" points="83,80 92,99" stroke="rgb(0%,0%,0%)" stroke-width="2" /><polyline fill="none" points="109,64 116,81" stroke="rgb(0%,0%,0%)" stroke-width="2" /><polyline fill="none" points="143,73 156,84" stroke="rgb(0%,0%,0%)" stroke-width="2" /><polyline fill="none" points="178,58 186,67" stroke="rgb(0%,0%,0%)" stroke-width="2" /><polyline fill="none" points="194,63 199,67" stroke="rgb(0%,0%,0%)" stroke-width="2" /><polyline fill="none" points="169,112 169,112" stroke="rgb(0%,0%,0%)" stroke-width="2" /><polyline fill="none" points="161,106 161,106" stroke="rgb(0%,0%,0%)" stroke-width="2" /><polyline fill="none" points="83,124 83,124" stroke="rgb(0%,0%,0%)" stroke-width="2" /><polyline fill="none" points="99,80 118,83" stroke="rgb(0%,0%,0%)" stroke-width="2" /><polyline fill="none" points="188,69 198,68" stroke="rgb(0%,0%,0%)" stroke-width="2" /><polyline fill="none" points="105,83 92,87" stroke="rgb(0%,0%,0%)" stroke-width="2" /><polyline fill="none" points="112,87 166,86" stroke="rgb(0%,0%,0%)" stroke-width="2" /><polyline fill="none" points="118,84 129,74" stroke="rgb(0%,0%,0%)" stroke-width="2" /></svg>