<?xml version="1.0" encoding="utf-8" ?>
<svg baseProfile="full" height="256" version="1.1" width="256" xmlns="http://www.w3.org/2000/svg" xmlns:ev="http://www.w3.org/2001/xml-events" xmlns:xlink="http://www.w3.org/1999/xlink"><defs /><polyline fill="none" points="48,117 57,52 58,21 226,0 233,6 234,54 230,96 224,128 221,135 209,138 137,137 74,132 35,124" stroke="rgb(0%,0%,0%)" stroke-width="2" /><polyline fill="none" points="21,177 28,175 134,182 208,176 222,182 227,188 235,205 238,232 227,242 188,252 91,252 63,255 17,251 6,248 0,238 16,199 17,187" stroke="rgb(0%,0%,0%)" stroke-width="2" /><polyline fill="none" points="50,182 57,191 59,208 55,215 44,189" stroke="rgb(0%,0%,0%)" stroke-width="2" /><polyline fill="none" points="42,229 56,237 58,243 51,242 43,235 35,222 33,216 37,214" stroke="rgb(0%,0%,0%)" stroke-width="2" /><polyline fill="none" points="90,193 98,197" stroke="rgb(0%,0%,0%)" stroke-width="2" /></svg>