<?xml version="1.0" encoding="utf-8" ?>
<svg baseProfile="full" height="256" version="1.1" width="256" xmlns="http://www.w3.org/2000/svg" xmlns:ev="http://www.w3.org/2001/xml-events" xmlns:xlink="http://www.w3.org/1999/xlink"><defs /><polyline fill="none" points="167,9 167,9" stroke="rgb(0%,0%,0%)" stroke-width="2" /><polyline fill="none" points="157,8 122,8 54,21 35,30 24,39 2,74 1,107 19,145 53,181 79,199 105,208 156,216 187,216 202,212 239,179 252,160 255,145 253,102 247,86 233,63 157,14 130,0 125,0" stroke="rgb(0%,0%,0%)" stroke-width="2" /><polyline fill="none" points="79,24 73,24 70,29 71,43 77,50 91,57 96,57 95,42 79,27 69,22" stroke="rgb(0%,0%,0%)" stroke-width="2" /><polyline fill="none" points="37,70 37,80 53,99 75,109 79,109 81,105 82,91 80,86 59,84" stroke="rgb(0%,0%,0%)" stroke-width="2" /><polyline fill="none" points="193,88 189,91 187,102 193,112 201,118 213,112 215,102 213,96 193,98" stroke="rgb(0%,0%,0%)" stroke-width="2" /><polyline fill="none" points="139,129 139,142 151,152 160,152 163,148 164,135 159,134" stroke="rgb(0%,0%,0%)" stroke-width="2" /><polyline fill="none" points="149,40 145,41 145,45 151,52 160,53 161,47" stroke="rgb(0%,0%,0%)" stroke-width="2" /><polyline fill="none" points="89,145 90,149 108,150 112,147 112,133 105,122 95,115 87,115 85,124" stroke="rgb(0%,0%,0%)" stroke-width="2" /></svg>