<?xml version="1.0" encoding="utf-8" ?>
<svg baseProfile="full" height="256" version="1.1" width="256" xmlns="http://www.w3.org/2000/svg" xmlns:ev="http://www.w3.org/2001/xml-events" xmlns:xlink="http://www.w3.org/1999/xlink"><defs /><polyline fill="none" points="9,60 17,48 30,41 82,45 107,41 113,32 116,6 122,3 130,4 134,10 131,35 133,39 144,31 162,0 173,6 178,17 172,34 160,43 161,46 195,63 242,76 255,84" stroke="rgb(0%,0%,0%)" stroke-width="2" /><polyline fill="none" points="11,62 31,61 58,67 118,71 110,77 97,80 28,79 1,82 5,86 51,99 93,99 141,89 166,88 199,89 246,97" stroke="rgb(0%,0%,0%)" stroke-width="2" /><polyline fill="none" points="15,79 13,81 13,78 23,71 24,79 34,73 34,78 39,75 42,79 80,76 84,81 93,75 94,78 109,74" stroke="rgb(0%,0%,0%)" stroke-width="2" /><polyline fill="none" points="23,61 25,68 37,63 39,67 49,64 47,71 65,67 66,70 79,68 79,72 84,71" stroke="rgb(0%,0%,0%)" stroke-width="2" /></svg>