<?xml version="1.0" encoding="utf-8" ?>
<svg baseProfile="full" height="256" version="1.1" width="256" xmlns="http://www.w3.org/2000/svg" xmlns:ev="http://www.w3.org/2001/xml-events" xmlns:xlink="http://www.w3.org/1999/xlink"><defs /><polyline fill="none" points="13,68 28,99 37,110 73,120 107,120 122,114 135,102 139,81" stroke="rgb(0%,0%,0%)" stroke-width="2" /><polyline fill="none" points="6,69 1,75 0,107 6,137 16,159 24,172 48,188 63,195 83,198 114,197 125,191 131,183 138,157 140,81" stroke="rgb(0%,0%,0%)" stroke-width="2" /><polyline fill="none" points="73,199 78,255" stroke="rgb(0%,0%,0%)" stroke-width="2" /><polyline fill="none" points="104,203 108,249" stroke="rgb(0%,0%,0%)" stroke-width="2" /><polyline fill="none" points="138,87 129,60 128,24 139,6 152,0 162,1 181,24 187,40 188,61 180,75 170,83 149,88 127,87" stroke="rgb(0%,0%,0%)" stroke-width="2" /><polyline fill="none" points="182,44 223,40" stroke="rgb(0%,0%,0%)" stroke-width="2" /><polyline fill="none" points="194,63 232,67" stroke="rgb(0%,0%,0%)" stroke-width="2" /></svg>