<?xml version="1.0" encoding="utf-8" ?>
<svg baseProfile="full" height="256" version="1.1" width="256" xmlns="http://www.w3.org/2000/svg" xmlns:ev="http://www.w3.org/2001/xml-events" xmlns:xlink="http://www.w3.org/1999/xlink"><defs /><polyline fill="none" points="16,142 0,60 0,18 3,5 29,0 229,0 240,43 255,129" stroke="rgb(0%,0%,0%)" stroke-width="2" /><polyline fill="none" points="87,135 87,118 77,78 77,47 87,43 177,45 187,75 198,131" stroke="rgb(0%,0%,0%)" stroke-width="2" /><polyline fill="none" points="119,125 115,126 112,109 124,90 121,73 119,81 129,72 134,84 142,68 146,73 152,71 158,111 157,117 147,121 127,121" stroke="rgb(0%,0%,0%)" stroke-width="2" /><polyline fill="none" points="124,104 124,112 131,108 133,88" stroke="rgb(0%,0%,0%)" stroke-width="2" /></svg>