<?xml version="1.0" encoding="utf-8" ?>
<svg baseProfile="full" height="256" version="1.1" width="256" xmlns="http://www.w3.org/2000/svg" xmlns:ev="http://www.w3.org/2001/xml-events" xmlns:xlink="http://www.w3.org/1999/xlink"><defs /><polyline fill="none" points="90,42 110,26 141,18 176,21 218,42 249,70 255,81 254,86 243,101 229,109 194,117 123,107 70,79 50,78 4,48 0,42 11,36 54,45 53,39 25,11 20,1 26,0 56,16 81,35" stroke="rgb(0%,0%,0%)" stroke-width="2" /><polyline fill="none" points="216,47 206,55 199,72 199,90 203,120" stroke="rgb(0%,0%,0%)" stroke-width="2" /><polyline fill="none" points="221,79 226,78 234,89 231,96 229,96 234,86" stroke="rgb(0%,0%,0%)" stroke-width="2" /></svg>