<?xml version="1.0" encoding="utf-8" ?>
<svg baseProfile="full" height="256" version="1.1" width="256" xmlns="http://www.w3.org/2000/svg" xmlns:ev="http://www.w3.org/2001/xml-events" xmlns:xlink="http://www.w3.org/1999/xlink"><defs /><polyline fill="none" points="125,98 111,107 113,118 144,129 148,128 150,122 146,109 131,101 128,96 129,81 138,53 158,44 191,34 216,32 222,43 222,59 214,85 200,109 178,134 168,137 159,134 167,130 187,132 226,142 251,170 254,184 236,191 214,190 195,185 179,174 151,144 157,173 165,188 166,200 155,216 140,219 106,197 90,183 78,167 80,150 98,134 113,126 110,131 96,137 40,153 10,139 1,123 3,109 18,91 40,77 64,81 99,99 115,104 109,105 104,103 87,92 76,82 73,71 74,46 96,32 155,6 173,0 178,3 181,26 178,45 171,54 141,74 129,88" stroke="rgb(0%,0%,0%)" stroke-width="2" /></svg>