<?xml version="1.0" encoding="utf-8" ?>
<svg baseProfile="full" height="256" version="1.1" width="256" xmlns="http://www.w3.org/2000/svg" xmlns:ev="http://www.w3.org/2001/xml-events" xmlns:xlink="http://www.w3.org/1999/xlink"><defs /><polyline fill="none" points="121,49 107,45 83,45 46,52 26,63 18,80 18,93 23,106 47,125 87,138 108,136 130,124 135,113 135,92 130,68 121,57 109,54" stroke="rgb(0%,0%,0%)" stroke-width="2" /><polyline fill="none" points="110,68 105,60 92,56 65,55 44,60 33,65 29,72 27,84 29,94 42,109 68,124 87,126 110,116 121,107 123,95 111,67 105,60" stroke="rgb(0%,0%,0%)" stroke-width="2" /><polyline fill="none" points="99,107 97,108" stroke="rgb(0%,0%,0%)" stroke-width="2" /><polyline fill="none" points="106,62 47,106" stroke="rgb(0%,0%,0%)" stroke-width="2" /><polyline fill="none" points="61,61 103,133" stroke="rgb(0%,0%,0%)" stroke-width="2" /><polyline fill="none" points="121,60 114,44 110,39 105,40" stroke="rgb(0%,0%,0%)" stroke-width="2" /><polyline fill="none" points="111,51 113,56 112,47 110,54 122,56 123,75 127,80 125,91 130,113 128,119 123,123 87,128 71,126 70,121 57,112 39,110 38,99 30,90 24,79 28,65 37,65 58,50 105,52 112,59" stroke="rgb(0%,0%,0%)" stroke-width="2" /><polyline fill="none" points="140,42 124,31 91,27 35,29 23,33 10,41 2,57 1,89 9,119 31,147 53,165 86,182 167,205 192,207 229,201 245,189 251,180 255,162 252,128 239,99 216,70 131,7 94,0" stroke="rgb(0%,0%,0%)" stroke-width="2" /></svg>