<?xml version="1.0" encoding="utf-8" ?>
<svg baseProfile="full" height="256" version="1.1" width="256" xmlns="http://www.w3.org/2000/svg" xmlns:ev="http://www.w3.org/2001/xml-events" xmlns:xlink="http://www.w3.org/1999/xlink"><defs /><polyline fill="none" points="81,13 76,71" stroke="rgb(0%,0%,0%)" stroke-width="2" /><polyline fill="none" points="61,0 104,4" stroke="rgb(0%,0%,0%)" stroke-width="2" /><polyline fill="none" points="91,46 110,44 148,47 190,56 208,68 222,85 229,104 225,127 186,160 126,178 82,183 99,213 112,215 174,195 209,178 245,147 250,141 255,125 253,88 245,66 237,53 219,35 181,19 150,18 108,30 87,40 78,47 71,60" stroke="rgb(0%,0%,0%)" stroke-width="2" /><polyline fill="none" points="60,205 24,218 0,233" stroke="rgb(0%,0%,0%)" stroke-width="2" /></svg>