<?xml version="1.0" encoding="utf-8" ?>
<svg baseProfile="full" height="256" version="1.1" width="256" xmlns="http://www.w3.org/2000/svg" xmlns:ev="http://www.w3.org/2001/xml-events" xmlns:xlink="http://www.w3.org/1999/xlink"><defs /><polyline fill="none" points="83,3 57,0 37,10 26,26 23,53 31,71 47,80 72,81 95,69" stroke="rgb(0%,0%,0%)" stroke-width="2" /><polyline fill="none" points="96,67 99,72 113,77 138,73 152,58 157,37 151,24 128,8 106,3 94,9" stroke="rgb(0%,0%,0%)" stroke-width="2" /><polyline fill="none" points="81,3 95,11" stroke="rgb(0%,0%,0%)" stroke-width="2" /><polyline fill="none" points="48,31 43,48 47,55 54,59 63,61 71,58 80,45 76,34 66,29 57,30 48,43" stroke="rgb(0%,0%,0%)" stroke-width="2" /><polyline fill="none" points="160,43 224,35" stroke="rgb(0%,0%,0%)" stroke-width="2" /><polyline fill="none" points="157,31 240,23" stroke="rgb(0%,0%,0%)" stroke-width="2" /><polyline fill="none" points="165,46 239,39" stroke="rgb(0%,0%,0%)" stroke-width="2" /><polyline fill="none" points="236,39 243,49" stroke="rgb(0%,0%,0%)" stroke-width="2" /><polyline fill="none" points="238,23 254,22 255,46 243,49" stroke="rgb(0%,0%,0%)" stroke-width="2" /><polyline fill="none" points="255,34 224,38 126,43 43,53" stroke="rgb(0%,0%,0%)" stroke-width="2" /><polyline fill="none" points="249,27 230,32 0,39" stroke="rgb(0%,0%,0%)" stroke-width="2" /><polyline fill="none" points="227,38 131,56 19,64" stroke="rgb(0%,0%,0%)" stroke-width="2" /></svg>