<?xml version="1.0" encoding="utf-8" ?>
<svg baseProfile="full" height="256" version="1.1" width="256" xmlns="http://www.w3.org/2000/svg" xmlns:ev="http://www.w3.org/2001/xml-events" xmlns:xlink="http://www.w3.org/1999/xlink"><defs /><polyline fill="none" points="42,96 41,113 51,102 53,108 59,105 67,121 72,121 86,99 92,120 100,104 104,119 108,123 118,108 122,135 129,144 141,113 156,139 177,110 187,131 192,130 196,120 203,131 215,112 221,126 227,106 211,98 192,95 98,97 65,92 42,96" stroke="rgb(0%,0%,0%)" stroke-width="2" /><polyline fill="none" points="40,107 47,131 54,140 61,144 190,161 204,160 213,157 217,140 217,119" stroke="rgb(0%,0%,0%)" stroke-width="2" /><polyline fill="none" points="50,143 38,143 24,148 21,155 21,162 24,164 120,180 207,184 232,166 231,163 213,160" stroke="rgb(0%,0%,0%)" stroke-width="2" /><polyline fill="none" points="44,96 6,95 24,51 42,28 68,8 79,3 109,0 177,30 206,46 229,64 255,98 251,101 220,105" stroke="rgb(0%,0%,0%)" stroke-width="2" /><polyline fill="none" points="10,159 2,165 0,176 20,201 46,217" stroke="rgb(0%,0%,0%)" stroke-width="2" /></svg>