<?xml version="1.0" encoding="utf-8" ?>
<svg baseProfile="full" height="256" version="1.1" width="256" xmlns="http://www.w3.org/2000/svg" xmlns:ev="http://www.w3.org/2001/xml-events" xmlns:xlink="http://www.w3.org/1999/xlink"><defs /><polyline fill="none" points="60,255 64,234 74,206 78,177 78,102 75,72" stroke="rgb(0%,0%,0%)" stroke-width="2" /><polyline fill="none" points="107,74 111,138 117,180 126,214 117,239" stroke="rgb(0%,0%,0%)" stroke-width="2" /><polyline fill="none" points="71,64 46,62 19,51 5,50 0,46 0,34 9,25 25,17 72,16" stroke="rgb(0%,0%,0%)" stroke-width="2" /><polyline fill="none" points="72,16 141,2 183,0 210,0 237,7 250,14 237,25 223,31 148,41 98,61 74,63" stroke="rgb(0%,0%,0%)" stroke-width="2" /></svg>