<?xml version="1.0" encoding="utf-8" ?>
<svg baseProfile="full" height="256" version="1.1" width="256" xmlns="http://www.w3.org/2000/svg" xmlns:ev="http://www.w3.org/2001/xml-events" xmlns:xlink="http://www.w3.org/1999/xlink"><defs /><polyline fill="none" points="11,61 7,164 0,251 7,255 79,255 84,250 87,233 90,134 89,67 63,62 26,64 9,60" stroke="rgb(0%,0%,0%)" stroke-width="2" /><polyline fill="none" points="39,51 30,33 25,32 12,38 9,48 9,59 19,61 36,58" stroke="rgb(0%,0%,0%)" stroke-width="2" /><polyline fill="none" points="54,57 54,57" stroke="rgb(0%,0%,0%)" stroke-width="2" /><polyline fill="none" points="67,0 57,3 51,21 50,26 59,41 48,69" stroke="rgb(0%,0%,0%)" stroke-width="2" /><polyline fill="none" points="66,1 72,1 87,13 86,23 75,39 72,61 66,71 48,75" stroke="rgb(0%,0%,0%)" stroke-width="2" /></svg>