<?xml version="1.0" encoding="utf-8" ?>
<svg baseProfile="full" height="256" version="1.1" width="256" xmlns="http://www.w3.org/2000/svg" xmlns:ev="http://www.w3.org/2001/xml-events" xmlns:xlink="http://www.w3.org/1999/xlink"><defs /><polyline fill="none" points="29,6 25,23 25,84 27,95 37,107 42,107 55,102 64,94 77,63 77,50 69,23 62,10 53,2 31,1 25,12" stroke="rgb(0%,0%,0%)" stroke-width="2" /><polyline fill="none" points="37,15 37,15" stroke="rgb(0%,0%,0%)" stroke-width="2" /><polyline fill="none" points="51,16 51,16" stroke="rgb(0%,0%,0%)" stroke-width="2" /><polyline fill="none" points="34,21 33,21" stroke="rgb(0%,0%,0%)" stroke-width="2" /><polyline fill="none" points="54,29 54,29" stroke="rgb(0%,0%,0%)" stroke-width="2" /><polyline fill="none" points="43,28 43,29" stroke="rgb(0%,0%,0%)" stroke-width="2" /><polyline fill="none" points="55,42 55,42" stroke="rgb(0%,0%,0%)" stroke-width="2" /><polyline fill="none" points="53,24 61,30" stroke="rgb(0%,0%,0%)" stroke-width="2" /><polyline fill="none" points="60,42 56,43" stroke="rgb(0%,0%,0%)" stroke-width="2" /><polyline fill="none" points="44,44 44,44" stroke="rgb(0%,0%,0%)" stroke-width="2" /><polyline fill="none" points="55,52 55,53" stroke="rgb(0%,0%,0%)" stroke-width="2" /><polyline fill="none" points="33,50 33,50" stroke="rgb(0%,0%,0%)" stroke-width="2" /><polyline fill="none" points="39,43 39,43" stroke="rgb(0%,0%,0%)" stroke-width="2" /><polyline fill="none" points="43,58 43,61" stroke="rgb(0%,0%,0%)" stroke-width="2" /><polyline fill="none" points="43,70 43,70" stroke="rgb(0%,0%,0%)" stroke-width="2" /><polyline fill="none" points="53,64 53,64" stroke="rgb(0%,0%,0%)" stroke-width="2" /><polyline fill="none" points="50,77 49,78" stroke="rgb(0%,0%,0%)" stroke-width="2" /><polyline fill="none" points="44,84 44,84" stroke="rgb(0%,0%,0%)" stroke-width="2" /><polyline fill="none" points="43,90 50,89" stroke="rgb(0%,0%,0%)" stroke-width="2" /><polyline fill="none" points="36,78 36,78" stroke="rgb(0%,0%,0%)" stroke-width="2" /><polyline fill="none" points="29,49 34,50" stroke="rgb(0%,0%,0%)" stroke-width="2" /><polyline fill="none" points="34,76 34,76" stroke="rgb(0%,0%,0%)" stroke-width="2" /><polyline fill="none" points="61,63 61,63" stroke="rgb(0%,0%,0%)" stroke-width="2" /><polyline fill="none" points="36,78 38,74" stroke="rgb(0%,0%,0%)" stroke-width="2" /><polyline fill="none" points="35,44 38,43" stroke="rgb(0%,0%,0%)" stroke-width="2" /><polyline fill="none" points="43,107 50,147 55,240 48,245 0,255" stroke="rgb(0%,0%,0%)" stroke-width="2" /></svg>