<?xml version="1.0" encoding="utf-8" ?>
<svg baseProfile="full" height="256" version="1.1" width="256" xmlns="http://www.w3.org/2000/svg" xmlns:ev="http://www.w3.org/2001/xml-events" xmlns:xlink="http://www.w3.org/1999/xlink"><defs /><polyline fill="none" points="56,19 30,29 9,51 0,75 4,106 15,133 26,143 62,151 94,149 111,144 118,139 143,102 152,66 149,34 143,24 129,14 108,5 86,0 68,1 46,7 33,16 28,25" stroke="rgb(0%,0%,0%)" stroke-width="2" /><polyline fill="none" points="45,45 32,53 26,67 26,90 36,100 47,101 56,95 65,79 69,59 64,48 56,42 37,37 30,37 30,40" stroke="rgb(0%,0%,0%)" stroke-width="2" /><polyline fill="none" points="109,45 92,57 83,71 82,87 88,101 96,104 112,101 122,87 125,55 121,46 112,48" stroke="rgb(0%,0%,0%)" stroke-width="2" /><polyline fill="none" points="66,97 73,98 69,108 67,99" stroke="rgb(0%,0%,0%)" stroke-width="2" /><polyline fill="none" points="47,67 47,71 51,70 51,66 46,68 43,76 47,76 50,69 45,68 42,71 44,75 48,75 48,69" stroke="rgb(0%,0%,0%)" stroke-width="2" /><polyline fill="none" points="107,69 100,74 101,78 105,80 110,74 108,70 103,75 102,78 106,78 107,73 105,77" stroke="rgb(0%,0%,0%)" stroke-width="2" /><polyline fill="none" points="38,14 20,10 14,28 4,40" stroke="rgb(0%,0%,0%)" stroke-width="2" /><polyline fill="none" points="128,13 141,0 151,19 150,37" stroke="rgb(0%,0%,0%)" stroke-width="2" /><polyline fill="none" points="49,150 41,193 50,226 65,239 85,250 98,255 117,254 132,249 144,236 153,194 152,164 143,142 137,134 120,132" stroke="rgb(0%,0%,0%)" stroke-width="2" /></svg>