<?xml version="1.0" encoding="utf-8" ?>
<svg baseProfile="full" height="256" version="1.1" width="256" xmlns="http://www.w3.org/2000/svg" xmlns:ev="http://www.w3.org/2001/xml-events" xmlns:xlink="http://www.w3.org/1999/xlink"><defs /><polyline fill="none" points="15,3 13,51 0,127 0,144 3,149 59,160 106,161 146,167 231,167 236,163 241,148 253,96 255,11 252,5 235,0 16,3" stroke="rgb(0%,0%,0%)" stroke-width="2" /><polyline fill="none" points="32,16 24,78 29,81 77,89 80,87 87,69 91,21 53,22 34,16" stroke="rgb(0%,0%,0%)" stroke-width="2" /><polyline fill="none" points="119,26 121,22 123,26 121,41 120,16 128,17 130,28 122,34" stroke="rgb(0%,0%,0%)" stroke-width="2" /><polyline fill="none" points="143,29 141,31 143,37 143,29" stroke="rgb(0%,0%,0%)" stroke-width="2" /><polyline fill="none" points="150,24 151,36 153,16 156,15 159,20 154,27 158,34 157,40 155,39" stroke="rgb(0%,0%,0%)" stroke-width="2" /><polyline fill="none" points="166,36 223,41" stroke="rgb(0%,0%,0%)" stroke-width="2" /><polyline fill="none" points="108,51 113,56 126,59 158,63" stroke="rgb(0%,0%,0%)" stroke-width="2" /></svg>