<?xml version="1.0" encoding="utf-8" ?>
<svg baseProfile="full" height="256" version="1.1" width="256" xmlns="http://www.w3.org/2000/svg" xmlns:ev="http://www.w3.org/2001/xml-events" xmlns:xlink="http://www.w3.org/1999/xlink"><defs /><polyline fill="none" points="44,74 46,87 53,92 72,96 77,92 73,81 61,66 48,60 37,57 35,60 36,72 44,80" stroke="rgb(0%,0%,0%)" stroke-width="2" /><polyline fill="none" points="172,68 168,74 168,82 186,91 204,87 208,82 207,73 180,63 165,63 167,68" stroke="rgb(0%,0%,0%)" stroke-width="2" /><polyline fill="none" points="12,57 46,56 155,41 255,38 253,28 183,25" stroke="rgb(0%,0%,0%)" stroke-width="2" /><polyline fill="none" points="183,25 177,5 168,1 67,4 9,14 15,52" stroke="rgb(0%,0%,0%)" stroke-width="2" /><polyline fill="none" points="42,15 46,39 0,44" stroke="rgb(0%,0%,0%)" stroke-width="2" /></svg>