<?xml version="1.0" encoding="utf-8" ?>
<svg baseProfile="full" height="256" version="1.1" width="256" xmlns="http://www.w3.org/2000/svg" xmlns:ev="http://www.w3.org/2001/xml-events" xmlns:xlink="http://www.w3.org/1999/xlink"><defs /><polyline fill="none" points="136,23 63,23 30,36 0,55 3,82 46,102 74,108 101,98 130,93 138,97 168,130 190,129 246,117 253,102 254,82 238,61 175,29 152,26 134,29" stroke="rgb(0%,0%,0%)" stroke-width="2" /><polyline fill="none" points="17,8 33,18 52,39 71,33 65,18 57,8 44,0 17,9" stroke="rgb(0%,0%,0%)" stroke-width="2" /><polyline fill="none" points="211,35 197,54" stroke="rgb(0%,0%,0%)" stroke-width="2" /><polyline fill="none" points="226,41 217,63" stroke="rgb(0%,0%,0%)" stroke-width="2" /><polyline fill="none" points="196,47 216,57" stroke="rgb(0%,0%,0%)" stroke-width="2" /><polyline fill="none" points="208,43 227,50" stroke="rgb(0%,0%,0%)" stroke-width="2" /></svg>