<?xml version="1.0" encoding="utf-8" ?>
<svg baseProfile="full" height="256" version="1.1" width="256" xmlns="http://www.w3.org/2000/svg" xmlns:ev="http://www.w3.org/2001/xml-events" xmlns:xlink="http://www.w3.org/1999/xlink"><defs /><polyline fill="none" points="51,0 37,14 31,33 33,59 39,68 56,81 74,83 88,78 101,68 106,60 111,47 112,26 99,6 91,2 67,9 64,17" stroke="rgb(0%,0%,0%)" stroke-width="2" /><polyline fill="none" points="58,93 29,123 17,140 7,166 0,201 2,224 6,228 40,253 52,255 69,251 79,244 102,222 124,190 135,153 132,128 125,112 117,101 101,93 70,93" stroke="rgb(0%,0%,0%)" stroke-width="2" /><polyline fill="none" points="76,54 102,43 210,30 246,20" stroke="rgb(0%,0%,0%)" stroke-width="2" /></svg>