<?xml version="1.0" encoding="utf-8" ?>
<svg baseProfile="full" height="256" version="1.1" width="256" xmlns="http://www.w3.org/2000/svg" xmlns:ev="http://www.w3.org/2001/xml-events" xmlns:xlink="http://www.w3.org/1999/xlink"><defs /><polyline fill="none" points="67,160 37,220 30,243 44,240 70,226 105,200 116,189 184,251 192,255 194,249 161,160 190,145 237,106 230,103 185,103 155,95 145,72 110,9 102,0 98,5 96,35 78,110 76,104 70,101 0,91 18,128 35,154 48,165 60,166" stroke="rgb(0%,0%,0%)" stroke-width="2" /></svg>