<?xml version="1.0" encoding="utf-8" ?>
<svg baseProfile="full" height="256" version="1.1" width="256" xmlns="http://www.w3.org/2000/svg" xmlns:ev="http://www.w3.org/2001/xml-events" xmlns:xlink="http://www.w3.org/1999/xlink"><defs /><polyline fill="none" points="5,14 2,72 6,75 182,71 244,74 238,10 234,5 114,0 7,14" stroke="rgb(0%,0%,0%)" stroke-width="2" /><polyline fill="none" points="4,76 0,136 3,157 60,155 214,158 254,156 252,81 247,69" stroke="rgb(0%,0%,0%)" stroke-width="2" /><polyline fill="none" points="45,40 35,42 33,53 46,58 59,57 63,51 59,43 45,41 39,43" stroke="rgb(0%,0%,0%)" stroke-width="2" /><polyline fill="none" points="55,22 42,24 39,30 56,35 64,32 65,24 52,22" stroke="rgb(0%,0%,0%)" stroke-width="2" /><polyline fill="none" points="187,17 173,18 167,28 170,32 186,35 193,31 195,20 186,16 171,18" stroke="rgb(0%,0%,0%)" stroke-width="2" /><polyline fill="none" points="182,40 168,41 162,49 172,60 184,61 195,53 196,46 190,39 172,36 166,38 164,45" stroke="rgb(0%,0%,0%)" stroke-width="2" /></svg>