<?xml version="1.0" encoding="utf-8" ?>
<svg baseProfile="full" height="256" version="1.1" width="256" xmlns="http://www.w3.org/2000/svg" xmlns:ev="http://www.w3.org/2001/xml-events" xmlns:xlink="http://www.w3.org/1999/xlink"><defs /><polyline fill="none" points="88,6 86,3 79,2 60,8 44,23 36,38 31,56 31,87 33,98 44,113 53,121 67,124 107,125 121,114 131,96 134,50 130,19 126,12 111,5 82,0" stroke="rgb(0%,0%,0%)" stroke-width="2" /><polyline fill="none" points="136,21 127,73 119,99 119,133 129,167" stroke="rgb(0%,0%,0%)" stroke-width="2" /><polyline fill="none" points="30,49 15,154" stroke="rgb(0%,0%,0%)" stroke-width="2" /><polyline fill="none" points="54,89 98,87 98,100 92,107 72,105 51,97" stroke="rgb(0%,0%,0%)" stroke-width="2" /><polyline fill="none" points="59,89 63,96" stroke="rgb(0%,0%,0%)" stroke-width="2" /><polyline fill="none" points="76,90 81,101" stroke="rgb(0%,0%,0%)" stroke-width="2" /><polyline fill="none" points="96,95 63,95" stroke="rgb(0%,0%,0%)" stroke-width="2" /><polyline fill="none" points="58,59 58,59" stroke="rgb(0%,0%,0%)" stroke-width="2" /><polyline fill="none" points="58,59 60,57" stroke="rgb(0%,0%,0%)" stroke-width="2" /><polyline fill="none" points="104,60 103,62" stroke="rgb(0%,0%,0%)" stroke-width="2" /><polyline fill="none" points="104,60 102,63" stroke="rgb(0%,0%,0%)" stroke-width="2" /><polyline fill="none" points="55,120 49,139 6,176 1,189 0,207 11,232 22,244 34,253 52,254 58,246 59,230 47,208 41,182 54,162 63,158" stroke="rgb(0%,0%,0%)" stroke-width="2" /></svg>