<?xml version="1.0" encoding="utf-8" ?>
<svg baseProfile="full" height="256" version="1.1" width="256" xmlns="http://www.w3.org/2000/svg" xmlns:ev="http://www.w3.org/2001/xml-events" xmlns:xlink="http://www.w3.org/1999/xlink"><defs /><polyline fill="none" points="150,11 117,3 72,3 59,9 46,20 33,38 17,78 14,96 16,135 35,181 60,215 74,227 103,239 143,239 187,219 209,203 228,184 242,161 250,143 255,109 252,82 244,65 217,32 192,10 166,2 127,3 112,10" stroke="rgb(0%,0%,0%)" stroke-width="2" /><polyline fill="none" points="125,0 127,37 139,124 141,209" stroke="rgb(0%,0%,0%)" stroke-width="2" /><polyline fill="none" points="0,146 8,139 120,131 239,117" stroke="rgb(0%,0%,0%)" stroke-width="2" /><polyline fill="none" points="198,35 177,71 165,85 93,193" stroke="rgb(0%,0%,0%)" stroke-width="2" /><polyline fill="none" points="49,36 68,49 79,62 145,115 239,187" stroke="rgb(0%,0%,0%)" stroke-width="2" /><polyline fill="none" points="122,133 124,122 136,120 147,125 149,137 140,142 132,143 125,133 126,123 136,117 144,117 147,131 138,134 128,135 122,122" stroke="rgb(0%,0%,0%)" stroke-width="2" /></svg>