<?xml version="1.0" encoding="utf-8" ?>
<svg baseProfile="full" height="256" version="1.1" width="256" xmlns="http://www.w3.org/2000/svg" xmlns:ev="http://www.w3.org/2001/xml-events" xmlns:xlink="http://www.w3.org/1999/xlink"><defs /><polyline fill="none" points="95,6 13,10 4,15 0,20 6,24 65,30 88,25 92,17" stroke="rgb(0%,0%,0%)" stroke-width="2" /><polyline fill="none" points="88,0 94,3 100,81 97,125 81,147 63,158 38,153 28,145 19,133 4,73 2,20" stroke="rgb(0%,0%,0%)" stroke-width="2" /><polyline fill="none" points="61,151 67,236 66,255" stroke="rgb(0%,0%,0%)" stroke-width="2" /><polyline fill="none" points="119,243 79,249 20,248" stroke="rgb(0%,0%,0%)" stroke-width="2" /><polyline fill="none" points="117,237 104,241 73,235 63,227 59,209" stroke="rgb(0%,0%,0%)" stroke-width="2" /><polyline fill="none" points="58,191 53,211 46,226" stroke="rgb(0%,0%,0%)" stroke-width="2" /></svg>